<?xml version="1.0" encoding="utf-8"?>
<!-- Generator: Adobe Illustrator 18.0.0, SVG Export Plug-In . SVG Version: 6.00 Build 0)  -->
<!DOCTYPE svg PUBLIC "-//W3C//DTD SVG 1.1//EN" "http://www.w3.org/Graphics/SVG/1.1/DTD/svg11.dtd">
<svg version="1.1" id="Layer_1" xmlns="http://www.w3.org/2000/svg" xmlns:xlink="http://www.w3.org/1999/xlink" x="0px" y="0px"
	 viewBox="0 0 175.7 104.7" enable-background="new 0 0 175.7 104.7" xml:space="preserve">
<g>
	<path fill-rule="evenodd" clip-rule="evenodd" fill="#ED1C24" d="M0,52.4C0,23.4,23.4,0,52.4,0c28.9,0,52.4,23.4,52.4,52.4
		c0,28.9-23.4,52.4-52.4,52.4C23.4,104.7,0,81.3,0,52.4L0,52.4z"/>
	<path fill-rule="evenodd" clip-rule="evenodd" fill="#FFC20E" d="M71,52.4C71,23.4,94.5,0,123.4,0c28.9,0,52.4,23.4,52.4,52.4
		c0,28.9-23.4,52.4-52.4,52.4C94.5,104.7,71,81.3,71,52.4L71,52.4z"/>
	<path fill-rule="evenodd" clip-rule="evenodd" fill="#ED1C24" d="M96.9,24.8H68.1v-5.6h24.8C94.3,21,95.7,22.8,96.9,24.8L96.9,24.8
		z"/>
	<path fill-rule="evenodd" clip-rule="evenodd" fill="#ED1C24" d="M102.1,35.9h-34v-5.6h31.8C100.7,32.1,101.4,34,102.1,35.9
		L102.1,35.9z"/>
	<path fill-rule="evenodd" clip-rule="evenodd" fill="#ED1C24" d="M104.4,47H68.1v-5.6h35.5C104,43.3,104.3,45.1,104.4,47L104.4,47z
		"/>
	<path fill-rule="evenodd" clip-rule="evenodd" fill="#ED1C24" d="M104.4,58.1H68.1v-5.6h36.7C104.7,54.4,104.6,56.3,104.4,58.1
		L104.4,58.1z"/>
	<path fill-rule="evenodd" clip-rule="evenodd" fill="#ED1C24" d="M101.9,69.2H68.1v-5.6h35.4C103.1,65.6,102.5,67.4,101.9,69.2
		L101.9,69.2z"/>
	<path fill-rule="evenodd" clip-rule="evenodd" fill="#ED1C24" d="M96.6,80.4H68.1v-5.6h31.6C98.8,76.7,97.7,78.6,96.6,80.4
		L96.6,80.4z"/>
	<path fill-rule="evenodd" clip-rule="evenodd" fill="#ED1C24" d="M87.1,91.5H68.1v-5.6h24.5C90.9,87.9,89.1,89.8,87.1,91.5
		L87.1,91.5z"/>
	<polygon fill-rule="evenodd" clip-rule="evenodd" fill="#2E3192" points="28.6,44.7 28.6,44.7 19.7,66.6 16.3,66.6 12.3,44.7 
		12.2,44.7 10,66.6 5.6,66.6 8.4,40.4 15.5,40.4 18.9,59.9 18.9,59.9 26.5,40.4 33.4,40.4 30.7,66.6 26.3,66.6 28.6,44.7 	"/>
	<path fill-rule="evenodd" clip-rule="evenodd" fill="#2E3192" d="M44.6,58.2c-0.4,3.4-1.6,5.5-4.4,5.5c-1.8,0-2.8-1.2-2.6-3
		c0.3-2.8,2.7-3.6,6.7-3.6h0.4L44.6,58.2L44.6,58.2L44.6,58.2z M36.4,52.1c1-0.8,3.2-1.9,5.5-1.9c2.7,0,3.4,1.8,3.2,3.7L45,54.6H44
		c-5.9,0-10.3,1.3-10.8,6.6c-0.4,3.6,2.2,5.7,5.2,5.7c2.8,0,4.4-1.3,5.7-2.9h0.1c-0.1,0.9-0.2,1.9,0,2.6h4.2c0-0.7,0-2,0.1-3.4
		l0.9-8.4c0.5-4.8-0.6-7.8-6.6-7.8c-3,0-4.9,0.8-6.3,1.4L36.4,52.1L36.4,52.1z"/>
	<path fill-rule="evenodd" clip-rule="evenodd" fill="#2E3192" d="M50.5,62.1c0.7,0.3,2.5,1.3,4.7,1.3c1.7,0,3-0.4,3.2-1.9
		c0.1-0.7-0.2-1.5-1.8-2.4l-1.8-1.1c-1.8-1.2-3.8-2.4-3.5-5.4c0.3-2.7,3.2-5.5,7.2-5.5c2.5,0,4.3,0.6,4.8,0.8l-0.6,3.6
		c-1.1-0.4-2.3-0.9-4-0.9c-1.9,0-2.7,0.7-2.9,1.9c-0.1,1,0.7,1.6,1.9,2.5l2.1,1.5c2.2,1.5,3.3,2.6,3.1,4.9c-0.4,3.6-3.6,5.7-7.8,5.7
		c-2.4,0-4.3-0.6-5.3-0.9L50.5,62.1L50.5,62.1z"/>
	<path fill-rule="evenodd" clip-rule="evenodd" fill="#2E3192" d="M68.1,43.3l4.8-1.4l-0.6,5.4h3.9l-0.4,3.4h-3.9l-1.1,10
		c-0.2,2.1,0.5,2.7,1.8,2.7c0.8,0,1.4-0.2,1.8-0.4l-0.3,3.3c-0.7,0.3-1.8,0.6-3.2,0.6c-3.4,0-5.2-1.6-4.8-5.6l1.1-10.6h-3.1l0.4-3.4
		h3.1L68.1,43.3L68.1,43.3z"/>
	<path fill-rule="evenodd" clip-rule="evenodd" fill="#2E3192" d="M80.4,55.2c0.3-2.5,1.6-5.1,4-5.1c2.1,0,3,1.7,2.7,5.1H80.4
		L80.4,55.2L80.4,55.2z M89.7,61.9c-0.9,0.6-2.4,1.5-5.2,1.5c-3.6,0-4.7-2-4.4-5.3h11.2l0.1-0.9c0.8-7.9-2.5-10.3-6.6-10.3
		c-4.9,0-8.4,4.5-9,10.2c-0.5,5.2,1.7,9.7,7.9,9.7c2.8,0,4.9-0.8,5.9-1.2L89.7,61.9L89.7,61.9z"/>
	<path fill-rule="evenodd" clip-rule="evenodd" fill="#2E3192" d="M93.9,50.4c0.1-1.2,0.2-2.3,0.2-3.2h4.2c-0.1,1.2-0.1,2.4-0.2,3.5
		h0.1c0.7-1.5,2.4-3.8,5.3-3.8c0.3,0,0.5,0.1,0.8,0.1l-0.5,4.3c-0.4-0.1-0.8-0.2-1.3-0.2c-1.9,0-4.1,1.2-4.5,4.8l-1.1,10.6h-4.6
		L93.9,50.4L93.9,50.4z"/>
	<path fill-rule="evenodd" clip-rule="evenodd" fill="#2E3192" d="M120.8,66c-1,0.5-3.4,0.9-5.8,0.9c-7.9,0-11.4-5.8-10.6-13.5
		c0.8-7.6,5.5-13.5,13.3-13.5c2.7,0,4.8,0.7,5.7,1.1l-0.7,4.3c-0.9-0.5-2.4-1.4-4.8-1.4c-4,0-7.7,2.7-8.4,9.5
		c-0.7,6.8,2.4,9.5,6.4,9.5c2.3,0,3.9-0.6,5.1-1.3L120.8,66L120.8,66z"/>
	<path fill-rule="evenodd" clip-rule="evenodd" fill="#2E3192" d="M133.3,58.2c-0.4,3.4-1.6,5.5-4.4,5.5c-1.8,0-2.8-1.2-2.7-3
		c0.3-2.8,2.7-3.6,6.7-3.6h0.4L133.3,58.2L133.3,58.2L133.3,58.2z M125.1,52.1c1-0.8,3.2-1.9,5.5-1.9c2.7,0,3.4,1.8,3.2,3.7
		l-0.1,0.7h-0.9c-5.9,0-10.3,1.3-10.8,6.6c-0.4,3.6,2.2,5.7,5.2,5.7c2.8,0,4.4-1.3,5.7-2.9h0.1c-0.1,0.9-0.2,1.9,0,2.6h4.2
		c0-0.7,0-2,0.1-3.4l0.9-8.4c0.5-4.8-0.6-7.8-6.6-7.8c-3,0-4.9,0.8-6.3,1.4L125.1,52.1L125.1,52.1z"/>
	<path fill-rule="evenodd" clip-rule="evenodd" fill="#2E3192" d="M141.1,50.4c0.1-1.2,0.2-2.3,0.2-3.2h4.2
		c-0.1,1.2-0.1,2.4-0.2,3.5h0.1c0.7-1.5,2.4-3.8,5.3-3.8c0.3,0,0.5,0.1,0.8,0.1l-0.5,4.3c-0.4-0.1-0.8-0.2-1.3-0.2
		c-1.9,0-4.1,1.2-4.5,4.8L144,66.6h-4.6L141.1,50.4L141.1,50.4z"/>
	<path fill-rule="evenodd" clip-rule="evenodd" fill="#2E3192" d="M155.4,56.7c0.4-3.9,1.6-6.4,4.2-6.4c2.5,0,3.3,2.7,2.9,6.5
		c-0.4,3.6-1.6,6.6-4.4,6.6C155.4,63.4,154.9,61.2,155.4,56.7L155.4,56.7L155.4,56.7z M164.4,38.4L163.1,50h-0.1
		c-0.5-1.5-1.9-3.1-4.7-3.1c-4.2,0-7.1,3.7-7.7,10c-0.6,5.4,0.9,9.9,5.7,9.9c3,0,4.6-1.6,5.5-3.3h0.1c-0.1,1.3-0.2,2.4-0.2,3h4.3
		c0-0.7,0.1-1.9,0.2-3.3l2.6-24.8H164.4L164.4,38.4z"/>
	<polygon fill-rule="evenodd" clip-rule="evenodd" fill="#FFFFFF" points="29.6,43.8 29.5,43.8 20.6,65.6 17.2,65.6 13.2,43.8 
		13.2,43.8 10.9,65.6 6.5,65.6 9.3,39.5 16.4,39.5 19.8,59 19.9,59 27.4,39.5 34.4,39.5 31.6,65.6 27.3,65.6 29.6,43.8 	"/>
	<path fill-rule="evenodd" clip-rule="evenodd" fill="#FFFFFF" d="M45.5,57.3c-0.4,3.4-1.6,5.5-4.4,5.5c-1.8,0-2.8-1.2-2.6-3
		c0.3-2.8,2.7-3.6,6.7-3.6h0.4L45.5,57.3L45.5,57.3L45.5,57.3z M37.3,51.2c1-0.8,3.2-1.9,5.5-1.9c2.7,0,3.4,1.8,3.2,3.7l-0.1,0.7H45
		c-5.9,0-10.3,1.3-10.8,6.6c-0.4,3.6,2.2,5.7,5.2,5.7c2.8,0,4.4-1.3,5.7-2.9h0.1c-0.1,0.9-0.2,1.9,0,2.6h4.2c0-0.7,0-2,0.1-3.4
		l0.9-8.4c0.5-4.8-0.6-7.8-6.6-7.8c-3,0-4.9,0.8-6.3,1.4L37.3,51.2L37.3,51.2z"/>
	<path fill-rule="evenodd" clip-rule="evenodd" fill="#FFFFFF" d="M51.4,61.1c0.7,0.3,2.5,1.3,4.7,1.3c1.7,0,3-0.4,3.2-1.9
		c0.1-0.7-0.2-1.5-1.8-2.4l-1.8-1.1c-1.8-1.2-3.8-2.4-3.5-5.4c0.3-2.7,3.2-5.5,7.2-5.5c2.5,0,4.3,0.6,4.8,0.8l-0.6,3.6
		c-1.1-0.4-2.3-0.9-4-0.9c-1.9,0-2.7,0.7-2.9,1.9c-0.1,1,0.7,1.6,1.9,2.5l2.1,1.5c2.2,1.5,3.3,2.6,3.1,4.9c-0.4,3.6-3.6,5.7-7.8,5.7
		c-2.4,0-4.3-0.6-5.3-0.9L51.4,61.1L51.4,61.1z"/>
	<path fill-rule="evenodd" clip-rule="evenodd" fill="#FFFFFF" d="M69,42.3l4.8-1.4l-0.6,5.4h3.9l-0.4,3.4h-3.9l-1.1,10
		c-0.2,2.1,0.5,2.7,1.8,2.7c0.8,0,1.4-0.2,1.8-0.4l-0.3,3.3c-0.7,0.3-1.8,0.6-3.2,0.6c-3.4,0-5.2-1.6-4.8-5.6l1.1-10.6h-3.1l0.4-3.4
		h3.1L69,42.3L69,42.3z"/>
	<path fill-rule="evenodd" clip-rule="evenodd" fill="#FFFFFF" d="M81.3,54.3c0.3-2.5,1.6-5.1,4-5.1c2.1,0,3,1.7,2.7,5.1H81.3
		L81.3,54.3L81.3,54.3z M90.6,61c-0.9,0.6-2.4,1.5-5.2,1.5c-3.6,0-4.7-2-4.4-5.3h11.2l0.1-0.9c0.8-7.9-2.5-10.3-6.6-10.3
		c-4.9,0-8.4,4.5-9,10.2c-0.5,5.2,1.7,9.7,7.9,9.7c2.8,0,4.9-0.8,5.9-1.2L90.6,61L90.6,61z"/>
	<path fill-rule="evenodd" clip-rule="evenodd" fill="#FFFFFF" d="M94.9,49.5c0.1-1.2,0.2-2.3,0.2-3.2h4.2c-0.1,1.2-0.1,2.4-0.2,3.5
		h0.1c0.7-1.5,2.4-3.8,5.3-3.8c0.3,0,0.5,0.1,0.8,0.1l-0.5,4.3c-0.4-0.1-0.8-0.2-1.3-0.2c-1.9,0-4.1,1.2-4.5,4.8l-1.1,10.6h-4.6
		L94.9,49.5L94.9,49.5z"/>
	<path fill-rule="evenodd" clip-rule="evenodd" fill="#FFFFFF" d="M121.7,65.1c-1,0.5-3.4,0.9-5.8,0.9c-7.9,0-11.4-5.8-10.6-13.5
		c0.8-7.6,5.5-13.5,13.3-13.5c2.7,0,4.8,0.7,5.7,1.1l-0.7,4.3c-0.9-0.5-2.4-1.4-4.8-1.4c-4,0-7.7,2.7-8.4,9.5
		c-0.7,6.8,2.4,9.5,6.4,9.5c2.3,0,3.9-0.6,5.1-1.3L121.7,65.1L121.7,65.1z"/>
	<path fill-rule="evenodd" clip-rule="evenodd" fill="#FFFFFF" d="M134.3,57.3c-0.4,3.4-1.6,5.5-4.4,5.5c-1.8,0-2.8-1.2-2.7-3
		c0.3-2.8,2.7-3.6,6.7-3.6h0.4L134.3,57.3L134.3,57.3L134.3,57.3z M126,51.2c1-0.8,3.2-1.9,5.5-1.9c2.7,0,3.4,1.8,3.2,3.7l-0.1,0.7
		h-0.9c-5.9,0-10.3,1.3-10.8,6.6c-0.4,3.6,2.2,5.7,5.2,5.7c2.8,0,4.4-1.3,5.7-2.9h0.1c-0.1,0.9-0.2,1.9,0,2.6h4.2c0-0.7,0-2,0.1-3.4
		l0.9-8.4c0.5-4.8-0.6-7.8-6.6-7.8c-3,0-4.9,0.8-6.3,1.4L126,51.2L126,51.2z"/>
	<path fill-rule="evenodd" clip-rule="evenodd" fill="#FFFFFF" d="M142,49.5c0.1-1.2,0.2-2.3,0.2-3.2h4.2c-0.1,1.2-0.1,2.4-0.2,3.5
		h0.1c0.7-1.5,2.4-3.8,5.3-3.8c0.3,0,0.5,0.1,0.8,0.1l-0.5,4.3c-0.4-0.1-0.8-0.2-1.3-0.2c-1.9,0-4.1,1.2-4.5,4.8L145,65.6h-4.7
		L142,49.5L142,49.5z"/>
	<path fill-rule="evenodd" clip-rule="evenodd" fill="#FFFFFF" d="M156.3,55.8c0.4-3.9,1.6-6.4,4.2-6.4c2.5,0,3.3,2.7,2.9,6.5
		c-0.4,3.6-1.6,6.6-4.4,6.6C156.3,62.5,155.8,60.3,156.3,55.8L156.3,55.8L156.3,55.8z M165.3,37.5l-1.2,11.6H164
		c-0.5-1.5-1.9-3.1-4.7-3.1c-4.2,0-7.1,3.7-7.7,10c-0.6,5.4,0.9,9.9,5.7,9.9c3,0,4.6-1.6,5.5-3.3h0.1c-0.1,1.3-0.2,2.4-0.2,3h4.3
		c0-0.7,0.1-1.9,0.2-3.3l2.6-24.8H165.3L165.3,37.5z"/>
</g>
</svg>
