<?xml version="1.0" encoding="utf-8"?>
<!-- Generator: Adobe Illustrator 19.0.0, SVG Export Plug-In . SVG Version: 6.00 Build 0)  -->
<svg version="1.1" id="Layer_1" xmlns="http://www.w3.org/2000/svg" xmlns:xlink="http://www.w3.org/1999/xlink" x="0px" y="0px"
	 viewBox="-62 309.6 470.4 222.3" style="enable-background:new -62 309.6 470.4 222.3;" xml:space="preserve">
<path style="fill:#5C994F;" d="M127.4,313.2h24.5c0,0.7,0,1.3,0,2c0,31.9,0,63.7,0,95.6c0,13.8,10.5,25.9,24.2,27.9
	c15.6,2.2,29.6-7.8,32.6-23.1c3-15.7-8.2-31.3-24-33.5c-4.7-0.7-9.2-0.3-13.7,1.3c-0.4,0.2-0.9,0.3-1.5,0.4
	c-2.1-7.9-4.2-15.6-6.4-23.7c3.2-0.7,6.1-1.7,9.2-2.1c13.5-2,26.2,0.6,37.5,8.2c12.9,8.6,20.7,20.7,23.1,36.1
	c4.4,28.6-14.3,54.6-42,60.2c-28.6,5.8-57.1-13.2-62.4-41.7c-0.7-3.5-1-7.1-1-10.7c-0.1-31.6,0-63.2,0-94.8
	C127.4,314.6,127.4,314,127.4,313.2"/>
<path style="fill:#5C994F;" d="M2.1,437.1c1.8,6.8,3.6,13.5,5.5,20.2c0.9,3.3,0.9,3.3-2.4,4.2c-29,8.2-59.5-10.1-65.9-39.6
	c-6.3-28.7,11.4-56.9,40-63.3c30.4-6.8,59,13.4,64,42.7c0.6,3.4,0.9,6.8,0.9,10.3c0.1,15.4,0,30.8,0.1,46.2c0,1.4-0.4,1.9-1.8,1.9
	c-6.9-0.1-13.9-0.1-20.8,0c-1.5,0-2-0.4-1.9-1.9c0.1-15.9,0-31.7,0-47.6c0-13.9-10.7-26.1-24.4-28c-15.5-2.2-29.3,7.3-32.4,22.5
	c-3.4,16.3,7.7,31.5,23.5,34c4.8,0.8,9.5,0.4,14.2-1.3c0.3-0.1,0.6-0.2,0.9-0.3C1.7,437,1.8,437.1,2.1,437.1"/>
<path style="fill:#5C994F;" d="M115.8,383.8c-3.9-1.5-7.8-2.1-11.9-2.1c-13,0.2-25.3,10.7-27.1,23.6c-0.5,3.5-0.6,7.2-0.6,10.7
	c-0.1,8,0,16-0.1,23.9c0,5.8-0.1,11.7-0.2,17.5c0,1.2-0.4,1.6-1.6,1.6c-7-0.1-14-0.1-21,0c-1.2,0-1.5-0.4-1.5-1.5
	c0-16.5-0.5-33,0.2-49.4c0.8-19.9,10.6-34.8,27.9-44.6c8.1-4.6,17-6.4,26.3-6.3c5,0.1,9.9,1,14.7,2.5c1,0.3,1.3,0.7,1,1.8
	c-2,7.2-3.9,14.4-5.8,21.5C116.1,383.3,116,383.5,115.8,383.8"/>
<path style="fill:#5C994F;" d="M266.3,410.3c-0.4-27.7,22.4-53.3,53.5-53c29.7,0.3,52.6,24.7,52.5,53.2c-0.1,29.3-23.8,53-53,53
	C288.6,463.4,265.8,438.2,266.3,410.3 M319.1,439c14.8,0.4,28.7-11.8,28.8-28.6c0.1-15.7-12.8-28.6-28.5-28.6
	c-15.9,0-28.8,12.8-28.8,28.6C290.6,426.1,303.4,439,319.1,439"/>
<path style="fill:#5C994F;" d="M406.6,328.3c-1.2,2-2.8,3.5-4.9,4.6s-4.3,1.6-6.6,1.6c-2.3,0-4.5-0.5-6.6-1.6s-3.7-2.6-4.9-4.6
	c-1.2-2-1.8-4-1.8-6.2c0-2.2,0.6-4.3,1.8-6.2c1.2-2,2.8-3.5,5-4.6c2.1-1.1,4.3-1.6,6.5-1.6s4.4,0.5,6.5,1.6s3.8,2.6,4.9,4.6
	c1.2,2,1.8,4.1,1.8,6.2C408.4,324.2,407.8,326.3,406.6,328.3 M404.7,316.9c-1-1.7-2.4-2.9-4.1-3.8c-1.8-0.9-3.6-1.3-5.4-1.3
	c-1.9,0-3.7,0.4-5.4,1.3c-1.8,0.9-3.1,2.2-4.1,3.8c-1,1.7-1.5,3.4-1.5,5.2c0,1.8,0.5,3.5,1.5,5.2c1,1.6,2.3,2.9,4.1,3.8
	c1.8,0.9,3.6,1.4,5.5,1.4s3.7-0.5,5.5-1.4c1.8-0.9,3.1-2.2,4.1-3.8s1.5-3.4,1.5-5.2C406.2,320.3,405.7,318.5,404.7,316.9
	 M399.5,325.3c0.5,1.9,0.8,3.3,1.1,3.8h-2c-0.2-0.4-0.6-1.6-1-3.3c-0.4-1.9-1.3-2.6-3-2.7h-1.8v6h-1.9v-13.7c1-0.2,2.4-0.3,3.7-0.3
	c2,0,3.4,0.4,4.3,1.2c0.7,0.6,1.2,1.5,1.2,2.6c0,1.8-1.3,3-2.8,3.5v0.1C398.4,322.8,399.1,323.8,399.5,325.3 M398.1,319.1
	c0-1.8-1.4-2.6-3.4-2.6c-0.9,0-1.6,0.1-1.9,0.2v5.1h2C396.8,321.7,398.1,320.7,398.1,319.1"/>
<path style="fill:#5C994F;" d="M90.8,512.8c0,6.2,2.7,10.4,9.3,10.4c2.2,0,4.1-0.5,5.1-1.1v-19.6c-1.3-0.3-2.8-0.5-4.4-0.5
	C93.5,502.1,90.8,507.6,90.8,512.8"/>
<path style="fill:#5C994F;" d="M133,502.1c-6.2,0-8,5.6-8,10.6s1.9,10.4,8,10.4c6.2,0,8-5.4,8-10.4S139.2,502.1,133,502.1"/>
<path style="fill:#5C994F;" d="M396,511.8c-27.4,0-54.9,0-82.3,0c-0.5,0-1.1,0.1-1.6,0c-0.4-0.1-0.7-0.5-1.1-0.8
	c0.8-0.1,1.3-0.1,1.7-0.2c1.9-0.7,3.7-1.3,5.6-2.1c15.2-6.4,29.2-14.9,42.2-25.2c8.6-6.8,16.7-14.1,23.2-23.2
	c13.4-18.8,19.3-39.6,15.8-62.6c-2.8-18.2-11.1-33.7-24.5-46.4c-13.8-12.9-30.1-20.2-49-21.8c-1.2-0.1-2.4-0.3-3.8-0.4
	c1.6-6.3,3.1-12.4,4.7-18.7c-0.4,0.2-0.6,0.2-0.8,0.3c-13.5,6.7-26.5,14-39.1,22.3c-14.4,9.5-26.6,21.2-35.8,35.7
	c-10.6,16.6-15.2,34.6-12,54.2c3,18.5,11.5,34.3,25.3,47c11.6,10.6,25.1,17.4,40.6,20.1c3.5,0.6,7.1,1,10.6,1.5c0,0.1,0,0.1,0,0.2
	h-2.8H213H107.6v31.4c-1.5,0.9-4.3,1.6-7.6,1.6c-7.8,0-11.4-4.7-11.4-11.7c0-7.8,4.8-12.5,11.9-12.5c1.8,0,3.5,0.2,4.9,0.6v-9.4
	c-52.4,0-104.8,0-157.2,0c-2.3,0-2.3,0-2.3,2.3c0,12,0,24,0,36c0,0.6,0.1,1.2,0.1,1.8h452.3V530c0-5.4,0-10.7,0-16.1
	C398.2,511.8,398.2,511.8,396,511.8 M314.1,486.8c-14.2-0.9-27.2-5.5-38.8-13.7c-17.2-12.2-27.8-28.8-31.6-49.5
	c-3.2-17.5,0.2-33.8,9.2-49.1c8.9-15.2,20.9-27.5,35.6-36.9c9.9-6.3,20.1-12,30.2-18c0.3-0.2,0.7-0.3,1.4-0.6
	c-1.2,5-2.4,9.7-3.6,14.5c2.8,0.1,5.3,0.2,7.8,0.4c16.2,1,30.6,6.7,43.2,16.9c13.9,11.3,22.9,25.8,26.7,43.3
	c3.8,17.5,1.4,34.3-6.3,50.5c-6.3,13.1-15.7,23.6-26.8,32.7c-12.6,10.3-26.2,19-41.1,25.8c-0.5,0.2-1,0.4-1.4,0.6
	c-0.1,0-0.2,0-0.7,0c1.4-5.5,2.7-11,4.1-16.5C319.2,487.1,316.7,487,314.1,486.8 M13.6,524.2h-2l-6.4-18.6c-0.4-1.3-0.7-2.6-0.7-2.6
	H4.4c0,0-0.2,1.3-0.7,2.6l-6.5,18.6h-2l-8-23.2h2.6l5.8,18.3c0.5,1.5,0.7,2.8,0.7,2.8h0.1c0,0,0.2-1.3,0.7-2.8L3.4,501h2.4l6.1,18.3
	c0.4,1.2,0.7,2.8,0.7,2.8h0.1c0,0,0.3-1.6,0.6-2.8l5.9-18.3h2.4L13.6,524.2z M38.7,524.2h-2.3V501h2.3V524.2z M37.6,497.9
	c-0.9,0-1.7-0.7-1.7-1.7c0-0.9,0.7-1.7,1.7-1.7c0.9,0,1.7,0.7,1.7,1.7C39.2,497.2,38.5,497.9,37.6,497.9 M73.4,524.2H71v-17
	c0-3.9-4-5.2-7.8-5.2c-2.2,0-4.4,0.4-5.8,1v21.2h-2.3V502c2-0.9,5.3-1.6,8.6-1.6c4.9,0,9.6,1.6,9.6,6.7v17.1H73.4z M133,524.8
	c-7.2,0-10.3-5.4-10.3-12.1c0-6.8,3.1-12.2,10.3-12.2s10.3,5.4,10.3,12.2C143.3,519.4,140.3,524.8,133,524.8 M182.9,524.2h-2
	l-6.3-18.6c-0.4-1.3-0.7-2.6-0.7-2.6h-0.1c0,0-0.2,1.3-0.7,2.6l-6.5,18.6h-2l-8-23.2h2.6l5.8,18.3c0.5,1.5,0.7,2.8,0.7,2.8h0.1
	c0,0,0.2-1.3,0.7-2.8l6.3-18.3h2.4l6.1,18.3c0.4,1.2,0.7,2.8,0.7,2.8h0.1c0,0,0.3-1.6,0.6-2.8l5.9-18.3h2.4L182.9,524.2z
	 M210.8,524.8c-2.8,0-5.6-0.8-6.8-1.6l0.9-1.6c1.1,0.7,3.2,1.4,5.9,1.4c3.7,0,6.7-2.2,6.7-4.9c0-6.9-12.4-3.4-12.4-11.5
	c0-2.9,2.9-6.1,8.1-6.1c2.6,0,4.8,0.9,5.9,1.6l-0.9,1.5c-0.8-0.5-2.6-1.4-4.9-1.4c-3.6,0-5.9,2-5.9,4.3c0,6.3,12.6,3.2,12.6,11.5
	C219.7,521.3,216.1,524.8,210.8,524.8"/>
</svg>
