<?xml version="1.0" encoding="utf-8"?>
<!-- Generator: Adobe Illustrator 19.0.0, SVG Export Plug-In . SVG Version: 6.00 Build 0)  -->
<svg version="1.1" id="Layer_1" xmlns="http://www.w3.org/2000/svg" xmlns:xlink="http://www.w3.org/1999/xlink" x="0px" y="0px"
	 viewBox="0 0 630.7 243.6" style="enable-background:new 0 0 630.7 243.6;" xml:space="preserve">
<path id="XMLID_28_" style="fill:#010101;" d="M48.5,164.4c9.6,0,18.3-4,24.7-10.6c0.5-0.5,1-1.1,1.5-1.6l9.7,7.9
	c-0.4,0.5-0.9,1-1.4,1.4c-8.8,9-21,14.6-34.6,14.6s-25.8-5.6-34.6-14.6C5.3,152.8,0,140.7,0,127.4s5.3-25.4,13.9-34.2
	c8.8-9,21-14.6,34.6-14.6c12.3,0,23.6,4.6,32.1,12.3l-8.8,8.7c-6.2-5.7-14.4-9.2-23.4-9.2c-9.6,0-18.3,4-24.7,10.6
	c-6.6,6.7-10.6,16.1-10.6,26.5c0,10.4,4.1,19.8,10.6,26.5C30.1,160.4,38.9,164.4,48.5,164.4z"/>
<polygon id="XMLID_27_" style="fill:#010101;" points="452.3,108.3 452.3,174.3 440.5,174.3 440.5,78.5 504.6,146.1 504.6,80.5 
	516.4,80.5 516.4,176.3 "/>
<path style="fill:#010101;" d="M204.9,92.3V123h14.9c5.7,0,10.4-1.2,14.2-3.7c3.7-2.5,5.6-6.5,5.6-12.2c0-4.5-1.1-7.8-3.4-9.8
	c-2.3-2-4.7-3.4-7.5-4.2c-1.7-0.4-3.3-0.6-4.9-0.7c-1.5-0.1-2.8-0.1-3.9-0.1L204.9,92.3L204.9,92.3z M204.9,134.9v39.4h-13.4V80.5
	h32.4c8.5,0,15.5,2.3,21.3,6.8c5.7,4.5,8.6,11.1,8.6,19.7c0,8.5-2.7,15.2-8,20c-5.3,4.8-11.6,7.4-18.8,7.7l34.6,39.6h-16.6
	l-34.2-39.4H204.9z"/>
<polygon id="XMLID_24_" style="fill:#010101;" points="109.6,129.2 109.6,174.3 96.2,174.3 96.2,80.5 109.6,80.5 109.6,117.4 
	161.7,117.4 161.7,80.5 175,80.5 175,174.3 161.7,174.3 161.7,129.2 "/>
<path style="fill:#010101;" d="M580.5,164.4c10,0,19-4,25.6-10.6c6.8-6.7,11-16.1,11-26.5c0-10.4-4.2-19.8-11-26.5
	c-6.6-6.5-15.7-10.6-25.6-10.6c-10,0-19,4-25.6,10.6c-6.8,6.7-11,16.1-11,26.5c0,10.4,4.2,19.8,11,26.5
	C561.4,160.4,570.5,164.4,580.5,164.4z M616.3,161.6c-9.1,9-21.8,14.6-35.8,14.6s-26.7-5.6-35.8-14.6c-8.9-8.8-14.4-20.9-14.4-34.2
	s5.5-25.4,14.4-34.2c9.1-9,21.8-14.6,35.8-14.6c14,0,26.7,5.6,35.8,14.6c8.9,8.8,14.4,20.9,14.4,34.2S625.2,152.8,616.3,161.6
	L616.3,161.6z"/>
<g>
	<path style="fill:#AA3024;" d="M400.4,59.9C365.1,30.4,312.6,35,283.1,70.3c-0.9,1.1-1.8,2.3-2.7,3.4l-22.9-16.3l19.7,20.9
		c-11.4,17.5-15.5,38.1-12.6,57.8c-0.5-18.5,5.1-37.3,17.1-53l61.9,65.5l52.8-58.7c13.9,15.7,21.1,37.1,18,59.4
		c-2.6,18.7-12,34.7-25.3,46.1c17-11.3,29.3-29.6,32.4-51.4c3.2-23-4.5-44.9-19.1-60.7l6-6.6c12,12.7,19.3,28.4,21.8,44.7
		c-0.5-17.5-6.5-34.8-17.8-49.1L477.3,0l-72.6,63.7C403.3,62.4,401.9,61.1,400.4,59.9z M342.8,118.1l-56.6-40.3
		c29.3-32.4,78.9-36.6,113.2-9.4l-6.8,6c-9.7-7.3-21.3-12.3-34.1-14.1c-21.8-3.1-42.8,3.7-58.3,17c14.6-9.7,32.6-14.3,51.2-11.6
		c13.1,1.8,24.9,7,34.6,14.5L342.8,118.1z"/>
	<path id="XMLID_19_" style="fill:#AA3024;" d="M233.2,214.7h-15.6c-0.4,0-0.8,0.4-0.8,0.8v26.9c0,0.4,0.3,0.8,0.8,0.8h15.6
		c0.4,0,0.8-0.4,0.8-0.8v-1.2c0-0.4-0.3-0.8-0.8-0.8h-13.3v-10.4h11.4c0.4,0,0.8-0.3,0.8-0.8v-1.2c0-0.4-0.4-0.8-0.8-0.8h-11.4v-9.9
		h13.3c0.4,0,0.8-0.4,0.8-0.8v-1.2C234,215.1,233.6,214.7,233.2,214.7z"/>
	<path style="fill:#AA3024;" d="M63,214.8c-0.1-0.2-0.3-0.4-0.7-0.4h-0.4c-0.4,0-0.6,0.2-0.7,0.4l-12,27.4c-0.2,0.5,0.1,1.1,0.7,1.1
		h1.6c0.4,0,0.6-0.2,0.7-0.4l2.9-6.7h14l2.9,6.7c0.1,0.2,0.3,0.4,0.7,0.4h1.6c0.6,0,0.9-0.5,0.7-1.1L63,214.8z M56.2,233.5l5.8-13.3
		h0.3c1.9,4.4,3.8,8.9,5.8,13.3H56.2z"/>
	<path id="XMLID_16_" style="fill:#AA3024;" d="M192.4,214.7h-1.5c-0.4,0-0.8,0.4-0.8,0.8v11.9h-16.1v-11.9c0-0.4-0.3-0.8-0.8-0.8
		h-1.5c-0.4,0-0.8,0.4-0.8,0.8v26.9c0,0.4,0.4,0.8,0.8,0.8h1.5c0.4,0,0.8-0.4,0.8-0.8v-12.3h16.1v12.3c0,0.4,0.3,0.8,0.8,0.8h1.5
		c0.4,0,0.8-0.4,0.8-0.8v-26.9C193.2,215.1,192.8,214.7,192.4,214.7z"/>
	<path id="XMLID_15_" style="fill:#AA3024;" d="M32.2,214.7h-1.7c-0.3,0-0.6,0.3-0.7,0.6l-5.4,21.1h-0.2l-6.7-21.6
		c-0.1-0.2-0.4-0.4-0.7-0.4h-0.7c-0.4,0-0.6,0.2-0.7,0.4l-6.6,21.6H8.7l-5.5-21.1c-0.1-0.3-0.4-0.6-0.7-0.6H0.9
		c-0.6,0-0.9,0.4-0.7,1L7.6,243c0.1,0.3,0.4,0.6,0.7,0.6H9c0.3,0,0.6-0.2,0.7-0.4l6.7-22h0.2l6.8,22c0.1,0.2,0.4,0.4,0.7,0.4h0.6
		c0.3,0,0.6-0.2,0.7-0.6l7.5-27.3C33.1,215.1,32.8,214.7,32.2,214.7z"/>
	<path id="XMLID_14_" style="fill:#AA3024;" d="M262.5,227.2c-3.3-1.4-5.3-3-5.3-5.7c0-1.7,1.3-4.5,5.5-4.5c2.4,0,4.9,1.7,5.2,1.9
		c0.6,0.4,1,0.2,1.4-0.4c0.2-0.2,0.3-0.5,0.5-0.8c0.5-0.8,0-1.3-0.2-1.4c0,0-2.9-2.1-6.8-2.1c-6.3,0-8.4,4.5-8.4,7.2
		c0,4.6,2.6,6.5,7,8.4c4.6,2,6.9,3.6,6.9,6.4c0,2.4-2.1,4.5-5.3,4.5c-3.5,0-6.4-2.8-6.7-3.1c-0.6-0.5-1-0.2-1.4,0.4
		c-0.2,0.2-0.4,0.5-0.6,0.8c-0.5,0.8-0.1,1.1,0.2,1.4c0.5,0.5,3.7,3.3,8.3,3.3c4.6,0,8.5-3.1,8.5-7.3
		C271.3,231.5,267.8,229.5,262.5,227.2z"/>
	<path id="XMLID_13_" style="fill:#AA3024;" d="M148.2,237.4c-0.2-0.2-0.6-0.2-0.9,0.1c-2.1,1.6-4.1,3.1-7.6,3.1
		c-6.2,0-11-5.4-11-11.7c0-6.3,4.8-11.7,11-11.7c2.7,0,5.5,1.2,7.6,3.1c0.4,0.4,0.7,0.4,1,0l1.1-1.1c0.3-0.3,0.3-0.8,0-1.1
		c-2.7-2.4-5.6-3.8-9.6-3.8c-7.9,0-14.3,6.5-14.3,14.7c0,8.1,6.4,14.6,14.3,14.6c3.5,0,6.9-1.3,9.6-3.9c0.3-0.3,0.4-0.9,0-1.1
		L148.2,237.4z"/>
	<path id="XMLID_12_" style="fill:#AA3024;" d="M107.2,214.7H90.4c-0.4,0-0.8,0.4-0.8,0.8v1.2c0,0.4,0.3,0.8,0.8,0.8h6.9v25h0
		c0,0.4,0.4,0.8,0.8,0.8h1.5c0.4,0,0.8-0.4,0.8-0.8v-25h6.9c0.4,0,0.8-0.4,0.8-0.8v-1.2C107.9,215.1,107.6,214.7,107.2,214.7z"/>
	<path id="XMLID_11_" style="fill:#AA3024;" d="M549.7,240.5h-11.4v-25c0-0.4-0.4-0.8-0.8-0.8h-1.5c-0.4,0-0.8,0.4-0.8,0.8v26.9
		c0,0.4,0.3,0.8,0.8,0.8h13.7c0.4,0,0.8-0.4,0.8-0.8v-1.2C550.5,240.8,550.2,240.5,549.7,240.5z"/>
	<path id="XMLID_10_" style="fill:#AA3024;" d="M512.6,214.7H497c-0.4,0-0.8,0.4-0.8,0.8v26.9c0,0.4,0.3,0.8,0.8,0.8h15.6
		c0.4,0,0.8-0.4,0.8-0.8v-1.2c0-0.4-0.3-0.8-0.8-0.8h-13.3v-10.4h11.4c0.4,0,0.8-0.3,0.8-0.8v-1.2c0-0.4-0.4-0.8-0.8-0.8h-11.4v-9.9
		h13.3c0.4,0,0.8-0.4,0.8-0.8v-1.2C513.3,215.1,513,214.7,512.6,214.7z"/>
	<path style="fill:#AA3024;" d="M590,223.4c0-4.8-3.9-8.7-8.6-8.7h-10.2c-0.4,0-0.8,0.4-0.8,0.8v26.9h0c0,0.4,0.3,0.8,0.8,0.8h1.5
		c0.4,0,0.8-0.4,0.8-0.8V232h7.6l5.3,10.8c0.1,0.2,0.3,0.4,0.6,0.4h2c0.7,0,1-0.6,0.7-1.2l-5.4-10.3
		C587.6,230.2,590,227.1,590,223.4z M581.2,229.4h-7.7v-11.7h7.7c3,0,5.7,2.6,5.7,5.7C586.9,226.8,584.2,229.4,581.2,229.4z"/>
	<path id="XMLID_7_" style="fill:#AA3024;" d="M629.8,214.7h-1.9c-0.3,0-0.5,0.2-0.6,0.4l-8,11.3l-8-11.3c-0.1-0.2-0.4-0.4-0.6-0.4
		h-1.9c-0.6,0-1,0.6-0.6,1.2l9.5,13.6v12.9h0c0,0.4,0.3,0.8,0.8,0.8h1.5c0.4,0,0.8-0.4,0.8-0.8v-13l9.7-13.5
		C630.7,215.4,630.4,214.7,629.8,214.7z"/>
	<path id="XMLID_6_" style="fill:#AA3024;" d="M474.5,214.7h-1.7c-0.3,0-0.6,0.3-0.7,0.6l-5.4,21.1h-0.2l-6.7-21.6
		c-0.1-0.2-0.4-0.4-0.7-0.4h-0.7c-0.4,0-0.6,0.2-0.7,0.4l-6.6,21.6h-0.2l-5.5-21.1c-0.1-0.3-0.4-0.6-0.7-0.6h-1.7
		c-0.6,0-0.9,0.4-0.7,1L450,243c0.1,0.3,0.4,0.6,0.7,0.6h0.6c0.3,0,0.6-0.2,0.7-0.4l6.7-22h0.2l6.8,22c0.1,0.2,0.4,0.4,0.7,0.4h0.6
		c0.3,0,0.6-0.2,0.7-0.6l7.5-27.3C475.4,215.1,475.1,214.7,474.5,214.7z"/>
	<path id="XMLID_5_" style="fill:#AA3024;" d="M382.8,214.7h-1.5c-0.4,0-0.8,0.4-0.8,0.8v19.3c0,4.3-2.5,6.1-4.8,6.1
		c-1.7,0-3.2-1.4-3.8-2.2c-0.4-0.4-0.7-0.7-1.3-0.1l-0.8,1c-0.2,0.3-0.3,0.7-0.1,1c0.7,0.9,2.6,3,6,3c4.6,0,8-3.3,8-8.9v-19.2
		C383.5,215.1,383.2,214.7,382.8,214.7z"/>
	<path id="XMLID_4_" style="fill:#AA3024;" d="M422.4,214.7h-15.6c-0.4,0-0.8,0.4-0.8,0.8v26.9c0,0.4,0.3,0.8,0.8,0.8h15.6
		c0.4,0,0.8-0.4,0.8-0.8v-1.2c0-0.4-0.3-0.8-0.8-0.8h-13.3v-10.4h11.4c0.4,0,0.8-0.3,0.8-0.8v-1.2c0-0.4-0.4-0.8-0.8-0.8h-11.4v-9.9
		h13.3c0.4,0,0.8-0.4,0.8-0.8v-1.2C423.1,215.1,422.8,214.7,422.4,214.7z"/>
	<path style="fill:#AA3024;" d="M329.8,237c1.5-2.7,2.3-6,2.3-9.1c0-0.3,0.1-0.9-0.8-0.9h-1c-0.6,0-0.9,0-0.9,0.9
		c0,2.6-0.6,5.1-1.6,7.2l-6.5-6.7c2.3-1.5,5.9-4.2,5.9-7.8c0-3.4-2.4-6.3-6.7-6.3c-4.8,0-7,3.5-7,6.6c-0.1,2.4,1.2,4.3,2.8,5.9
		l0.9,1.1v0.1c-2.1,1.3-5.5,3.7-5.5,8.1c0,4,2.6,7.5,7.6,7.5c3.6,0,6.5-1.6,8.6-4.1l3.4,3.6c0.6,0.7,1.2,0.6,1.7,0.1l0.5-0.4
		c0.8-0.9,0.5-1.3,0-1.9L329.8,237z M316.3,221c0-2.4,1.5-4.3,4.1-4.3c2.7,0,4.2,2,4.2,3.9c0,2.9-3.1,4.8-4.9,5.9l-0.9-0.9
		C317.3,224.1,316.2,222.7,316.3,221z M319.6,241.1c-2.8,0-5-2.1-5-4.9c0-3.2,2.6-5.3,4.4-6.4l7.3,7.9
		C324.7,239.7,322.3,241.1,319.6,241.1z"/>
</g>
</svg>
