<?xml version="1.0" encoding="utf-8"?>
<!-- Generator: Adobe Illustrator 18.0.0, SVG Export Plug-In . SVG Version: 6.00 Build 0)  -->
<!DOCTYPE svg PUBLIC "-//W3C//DTD SVG 1.1//EN" "http://www.w3.org/Graphics/SVG/1.1/DTD/svg11.dtd">
<svg version="1.1" id="Layer_1" xmlns="http://www.w3.org/2000/svg" xmlns:xlink="http://www.w3.org/1999/xlink" x="0px" y="0px"
	 viewBox="0 0 119.5 69.7" enable-background="new 0 0 119.5 69.7" xml:space="preserve">
<g id="UNITED_KINGDOM_2_">
	<g>
		<g>
			<defs>
				<rect id="SVGID_2_" x="0" y="0" width="119.5" height="69.7"/>
			</defs>
			<clipPath id="SVGID_1_">
				<use xlink:href="#SVGID_2_"  overflow="visible"/>
			</clipPath>
			<rect x="0" y="0" clip-path="url(#SVGID_1_)" fill="#FFFFFF" width="119.5" height="69.7"/>
			<polygon clip-path="url(#SVGID_1_)" fill="#BD0034" points="80,25.2 119.5,3.1 119.5,0 116.8,0 71.8,25.2 			"/>
			<polygon clip-path="url(#SVGID_1_)" fill="#BD0034" points="78.2,45.9 119.5,69 119.5,64.4 86.4,45.9 			"/>
			<polygon clip-path="url(#SVGID_1_)" fill="#BD0034" points="0,5.3 35.4,25.2 43.6,25.2 0,0.7 			"/>
			<polygon clip-path="url(#SVGID_1_)" fill="#BD0034" points="41.8,45.9 0,69.3 0,69.7 7.5,69.7 50,45.9 			"/>
			<polygon clip-path="url(#SVGID_1_)" fill="#1A237B" points="111.3,0 69.5,0 69.5,23.4 			"/>
			<polygon clip-path="url(#SVGID_1_)" fill="#1A237B" points="51,0 9.3,0 51,23.4 			"/>
			<polygon clip-path="url(#SVGID_1_)" fill="#1A237B" points="119.5,25.2 119.5,9.2 91.1,25.2 			"/>
			<polygon clip-path="url(#SVGID_1_)" fill="#1A237B" points="119.5,61.7 119.5,45.9 91.1,45.9 			"/>
			<polygon clip-path="url(#SVGID_1_)" fill="#1A237B" points="11.7,69.7 51,69.7 51,47.7 			"/>
			<polygon clip-path="url(#SVGID_1_)" fill="#1A237B" points="69.5,69.7 108.9,69.7 69.5,47.7 			"/>
			<polygon clip-path="url(#SVGID_1_)" fill="#1A237B" points="0,45.9 0,62.4 29.4,45.9 			"/>
			<polygon clip-path="url(#SVGID_1_)" fill="#1A237B" points="0,25.2 29.4,25.2 0,8.6 			"/>
			<polygon clip-path="url(#SVGID_1_)" fill="#BD0034" points="54.7,0 54.7,29.3 0,29.3 0,41.8 54.7,41.8 54.7,69.7 65.8,69.7 
				65.8,41.8 119.5,41.8 119.5,29.3 65.8,29.3 65.8,0 			"/>
		</g>
	</g>
</g>
</svg>
