<?xml version="1.0" encoding="utf-8"?>
<!-- Generator: Adobe Illustrator 19.0.0, SVG Export Plug-In . SVG Version: 6.00 Build 0)  -->
<svg version="1.1" id="Capa_1" xmlns="http://www.w3.org/2000/svg" xmlns:xlink="http://www.w3.org/1999/xlink" x="0px" y="0px"
	 viewBox="-163.5 53.8 463.6 488.5" style="enable-background:new -163.5 53.8 463.6 488.5;" xml:space="preserve">
<g>
	<g id="Layer_8_1_">
		<path d="M285.6,235.3c6.3,0,11.9-4.1,13.8-10.1c1.9-6-0.3-12.6-5.4-16.2L78.6,56.4c-5-3.5-11.6-3.6-16.6-0.1l-219.3,152.2
			c-5.2,3.6-7.4,10.2-5.6,16.2c1.9,6,7.5,10.2,13.8,10.2l63.6,0c-1.7,3.3-2.7,7.1-2.7,11.1v64.8c-4.5,4.8-7.3,11.3-7.3,18.5v123.9
			c-9.5,0.6-17.8,6.2-22.1,14.2h-14c-15.9,0-28.8,12.9-28.8,28.8v17.1c0,15.9,12.9,28.8,28.8,28.8H268c15.9,0,28.8-12.9,28.8-28.8
			v-17.1c0-15.9-12.9-28.8-28.8-28.8h-9.5c-3.8-7-10.5-12.1-18.5-13.7V329.4c0-7.1-2.8-13.6-7.3-18.5v-64.8c0-3.9-0.9-7.6-2.5-10.9
			L285.6,235.3C285.5,235.3,285.5,235.3,285.6,235.3z M164.1,235.2c-1.6,3.3-2.6,7-2.6,10.9v64.8c-0.9,0.9-1.7,2-2.4,3
			c-12.9-34.9-46.5-59.9-85.9-59.9c-40.2,0-74.3,25.9-86.6,61.9c-1-1.8-2.3-3.5-3.7-5v-64.8c0-4-1-7.7-2.6-11.1L164.1,235.2z
			 M33.4,367.3h15.5c1.2,13.3,7.6,21,19.3,22.9v-44.7c-21.6-4.3-32.4-14.8-32.4-31.6c0-9.4,2.9-17,8.8-22.8
			c5.8-5.8,13.7-9.1,23.6-10v-12.3h8.6v12.3c19,1.4,29.4,11.1,31.3,29H92.5c-0.9-9.9-6.1-15.5-15.7-16.9v40.2
			c13.2,2.7,22.2,6.7,26.9,11.9c4.8,5.2,7.1,12.3,7.1,21.2c0,9.3-3,17.4-9,24.3c-6,6.9-14.4,10.6-25,11.2v12.4h-8.6v-12.2
			C46.5,400,34.9,388.3,33.4,367.3z M-9.7,453.3v-69.1c14.6,31.2,46.2,52.9,83,52.9c35.2,0,65.7-19.9,81-49v65.2L-9.7,453.3
			L-9.7,453.3z M76.8,390.3v-42.8c7.3,1.9,12.2,4.4,14.7,7.4c2.5,3,3.8,7.3,3.8,12.8C95.2,381.2,89.1,388.7,76.8,390.3z M68.2,331.8
			c-5-1.3-9.1-3.3-12.2-6c-3.1-2.7-4.7-7.1-4.7-13c0-11.1,5.6-17.6,16.9-19.6V331.8z"/>
	</g>
</g>
</svg>
