<?xml version="1.0" encoding="utf-8"?>
<!-- Generator: Adobe Illustrator 18.0.0, SVG Export Plug-In . SVG Version: 6.00 Build 0)  -->
<!DOCTYPE svg PUBLIC "-//W3C//DTD SVG 1.1//EN" "http://www.w3.org/Graphics/SVG/1.1/DTD/svg11.dtd">
<svg version="1.1" id="Layer_1" xmlns="http://www.w3.org/2000/svg" xmlns:xlink="http://www.w3.org/1999/xlink" x="0px" y="0px"
	 viewBox="0 0 260.6 260.6" enable-background="new 0 0 260.6 260.6" xml:space="preserve">
<g>
	<circle cx="130.3" cy="130.3" r="39.3"/>
	<path d="M247.5,103.2l-24.9-5c-1.3-3.6-2.7-7.1-4.4-10.5l14.1-21.2c4.3-6.4,3.5-15-2-20.5l-15.7-15.7c-3.1-3.2-7.3-4.8-11.5-4.8
		c-3.1,0-6.3,0.9-9,2.7l-21.2,14.2c-3.4-1.7-6.9-3.1-10.5-4.4l-5-25c-1.5-7.6-8.2-13.1-16-13.1h-22.2c-7.8,0-14.4,5.5-16,13.1l-5,25
		c-3.6,1.3-7.1,2.7-10.5,4.4L66.6,28.3c-2.8-1.8-5.9-2.7-9-2.7c-4.2,0-8.4,1.6-11.5,4.8L30.3,46c-5.5,5.5-6.4,14.1-2,20.5l14.1,21.2
		c-1.6,3.4-3.1,6.9-4.4,10.5l-25,5c-7.6,1.6-13.1,8.2-13.1,16v22.2c0,7.7,5.5,14.5,13.1,16l25,5c1.3,3.6,2.7,7.1,4.4,10.5
		l-14.1,21.2c-4.3,6.4-3.5,15.1,2,20.6L46,230.3c3.1,3.1,7.3,4.8,11.5,4.8c3.1,0,6.3-0.9,9-2.7l21.2-14.2c3.4,1.7,6.9,3.1,10.5,4.4
		l5,25c1.5,7.6,8.2,13.1,15.9,13.1h22.2c7.8,0,14.5-5.5,16-13.1l5-25c3.6-1.2,7.1-2.7,10.5-4.4l21.2,14.2c2.7,1.8,5.9,2.7,9,2.7
		c4.2,0,8.4-1.6,11.5-4.8l15.7-15.7c5.5-5.5,6.3-14.1,2-20.6l-14.1-21.2c1.6-3.4,3.1-6.9,4.4-10.5l24.9-5c7.6-1.5,13.1-8.2,13.1-16
		v-22.2C260.6,111.5,255.2,104.8,247.5,103.2z M130.3,185c-30.2,0-54.8-24.5-54.8-54.8c0-30.2,24.5-54.8,54.8-54.8
		s54.8,24.5,54.8,54.8C185.1,160.5,160.6,185,130.3,185z"/>
</g>
</svg>
