<?xml version="1.0" encoding="utf-8"?>
<!-- Generator: Adobe Illustrator 19.0.0, SVG Export Plug-In . SVG Version: 6.00 Build 0)  -->
<svg version="1.1" id="Layer_1" xmlns="http://www.w3.org/2000/svg" xmlns:xlink="http://www.w3.org/1999/xlink" x="0px" y="0px"
	 viewBox="1035.8 -389 511.9 238.1" style="enable-background:new 1035.8 -389 511.9 238.1;" xml:space="preserve">
<g>
	<path style="fill:#363878;" d="M1232.9-273.8c0,0.6,0.7,1.1,1.2,1.2c1.9,0.2,3.5-3.2,4.7-3.9C1237.2-276.2,1233-275.4,1232.9-273.8
		z"/>
	<path style="fill:#363878;" d="M1224.2-236.5c8.9,17.6,24.3,30.7,43.3,36.8c7.3,2.4,15,3.6,22.8,3.6c32.3,0,60.7-20.6,70.5-51.2
		c6.1-18.7,4.5-38.7-4.5-56.2c-8.9-17.6-24.3-30.6-43.3-36.7c-7.3-2.4-15-3.6-22.8-3.6c-32.3,0-60.6,20.6-70.5,51.1
		C1213.7-273.9,1215.3-254,1224.2-236.5z M1240.2-280.1c2.5-2,2.8-3.5,6.9-3.2c4,0.3,7.1,2.6,10.2,4.5c0.4,0.3,2.3,1.7,2.4,1.7
		c0.3-0.1,0.6-1,1-1.4c3-3.5,8.2-5.2,14.7-4.5c1.6,0.2,3.4,0.4,5.3,0.5c2.9,0.1,6.6,0.8,8.7,0.1c1.2-0.4,1-1.6,2-2.6
		c-0.8,0.1-1,0.9-1.8,1c0.1-0.9,1-0.9,1.1-1.7c-1.3,0.5-1.9,1.6-3.2,2.1c0.8-2.6,2.2-4.5,4.1-5.9c-1.5,0.3-2.4,1.1-3.8,1.4
		c0.6-0.6,1.4-1.1,2.3-1.5c-1.8-0.1-3.3,1.3-5,1.8c-0.7-0.4,0.8-1.1,1-1.7c-1.2,0.1-1.9,0.7-2.9,0.9c2.8-3.2,8.5-3.5,12.8-5.1
		c-4.1-0.1-7.5,1.7-10.8,2.9c1-1.6,3-2.1,4.7-3c-1-0.2-2.1,0.7-3.2,0.8c0.3-0.8,1.4-0.8,2-1.2c-1-0.1-2.4,0.6-3.2,1.1
		c0.4-1.3,2.7-1.9,4.1-2.7c-1.1-0.2-2.3-0.3-3.5-0.3c0.7-0.8,2.1-0.9,3.3-1.1c-0.8-0.7-2.4-0.6-3.9-0.6c0.3-0.8,1.7-0.6,2.7-0.7
		c-0.8-1-2.5-1-3.8-1.4c0.7-0.8,2.1-0.3,3-0.6c-0.4-0.6-1.7-0.3-1.9-1.1c3.5,0.3,6.7,0.9,10.2,1.1c-1.6-1.1-4-1.5-5.6-2.6
		c2.3-0.2,5,0.5,6.9,1.2c-1.2-1-3.2-1.2-4.7-1.8c1.2-0.6,2.7-0.3,4.1,0c1.5,0.4,3.1,1.8,4.7,1.7c-1.8-0.6-3-1.8-5.1-2
		c0-1.4,1.7-1.1,3-1.2c0.4-0.3,0.6-0.8,1.5-0.6c-0.5-0.8-2-0.5-2-1.7c2.5,0.5,5,1.8,7.8,1.5c-1.5-0.7-3.6-0.8-4.2-2.4
		c1.3,0.2,2.3,1.1,3.9,1.4c3.7,0.7,8.7-1.3,11.4,1.1c1.7-0.4,2.3-1.8,3.9-2.3c-0.4,3.5,1.2,4.6,3.3,6.6c1.4,1.3,2.4,2.6,3.8,3.5
		c1.8,1.2,4,2,5.4,3.3c0.2,0.6,0.6,1,0.9,1.4c0.4,3.1-1.9,4.9-4.7,4.4c-0.7-0.1-1.1-0.8-2-1.2c-1-0.4-2.2-0.3-3.3-0.5
		c-1.4-0.3-3.4-0.5-5.3-0.5c0.1,4.8-1.2,8.4-0.9,12.5c0.3,4.2,3,5.8,2.4,10.2c-0.1,0.7-0.5,1.5-0.4,2.1c0.3,1.5,3.7,2.4,6.5,2.6
		c2,0.2,3.8,0,4.8,0.9c0.9,0.8,1,2,1.4,3.3c0.5,1.3,1.3,2.4,2,3.5c1,1.7,1.9,2.4,2.4,4.4c0.5,1.9,1.9,3.7,2.1,6.8
		c-2.2,0.3-4.2-0.8-5-2.4c0.6-3.4-1.2-4.4-1.8-6.5c-2.1-1.7-1.8-5-4.5-5.6c-1.1-0.2-2.6,0-3.8,0.2c-0.7,0.1-1.6,0.7-2.3,0.6
		c-0.8-0.1-3.1-1.4-4.1-1.8c-1.5-0.7-2.6-1.5-3.8-2c1.9,2.3,5.6,2,7.5,4.5c2.4,3.2-3.1,6.7-4.5,8.4c-0.4,0.5-0.8,1.6-1.5,1.8
		c-0.6,0.2-1.7-0.2-2.7-0.1c-1.6,0.2-5.4,1.2-6.6-0.6c-0.2-0.9,1.1-1.6,1.8-2.4c0.4-0.5,0.4-1.2,0.9-1.4c1.2-0.4,2.4,0.2,3.2,1.1
		c2-1.1,4.2-1.9,5.7-3.5c0-0.7-0.5-0.9-0.4-1.7c-3.5-1.6-10.1-0.1-13.5-1.8c-6.9,1.8-16,1.1-22.4-0.8c-0.5,0.6,0,1.3,0,2
		c0,2.1-1,4.5,0.3,6.2c2.3,0.3,4.6,1.3,6.8,1.8c1.5,0.4,3,0.2,4.1,0.8c0.8,0.4,2.9,2.2,3.5,3c0.8,1,1.5,2.5,1.4,4.1
		c-1.7,0.6-4.2-0.2-5.6-0.8c-0.1-0.7-0.4-1.2-0.4-2c-1.1-0.8-2.5-0.9-3.5-1.5c-0.6-0.3-0.7-0.9-1.1-1.1c-3.2-1.7-9.9,0.4-12.6-2.3
		c-0.3-0.4-0.4-1-0.6-1.5c-1.3,3.2,3.1,3,5.3,3.8c0.3,8.9,9.5,8.9,12.3,15.3c-2.5,0.8-7.5,1.1-7.1-2.6c-0.4-0.4-0.6,0.4-1.3,0.2
		c-3.1-4.1-7.8-6.5-11-10.5c-0.5-4,2.4-8.2,0.3-11c-0.3-0.5-0.9-0.6-1.5-1.1c-1.9-1.6-4.5-4.8-6.5-6.3c-1.3-1.1-2.9-1.9-3.9-3.2
		c-0.4,1.1-0.3,2.6-1.4,2.9c0.5-4.3-3.5-4-5-6.2c-0.4,2.1-0.4,4.5-2.3,5.1c0.9-1.5,1.1-3.8,0.8-6c-1.1,1-1.2,3.8-2.6,3.9
		c0.3-1,0.9-1.8,0.9-3.2c-1,2-2,3.9-4.1,4.8c0.4-1,1.2-1.6,1.5-2.7c-0.8,0.2-1.5,1.8-2.7,2.1c0.4-0.9,1.3-1.3,1.5-2.4
		c-2.8,2.3-5.5,5.9-10.4,6.5c0.1-0.5,0.9-0.3,1-0.8c-3.6,0.2-5.4-1.3-6.9-3.3c-0.2-0.7,0.5-0.5,0.6-0.9c-0.3-0.6-0.9-1-0.9-2
		c0-0.3,0.3-0.7,0.3-1c-0.2-1.1-1-2.8,0.7-2.9c-0.2,0.2-0.1,0.8-0.1,1.2c1.3,1,3.8,0.1,4.5-0.9c-1.5,0.9-4.3,0.7-4.4-1.4
		c-0.2-0.3-0.5,0.1-0.7,0.3c0.2-1.2,1.7-2.4,2.6-3.3c-1.3,0.4-1.9,1.5-3,2.1c0.4-1.8,1.9-2.4,2.9-3.5c-1.2,0.2-2,0.8-3,1.2
		C1233-279.1,1237.8-278.2,1240.2-280.1z"/>
	<path style="fill:#363878;" d="M1247.5-358c0.3-0.7-0.1-1.2-0.2-1.5l-1.4-2.4c-0.2-0.3-0.5-0.9-1.2-0.9c-0.6-0.1-1.3,0.4-1.5,0.5
		l-10.3,5.9l3.2,5.4l10.3-6C1246.7-357.2,1247.3-357.6,1247.5-358z"/>
	<path style="fill:#363878;" d="M1219.4-337.8c0-0.7-0.5-1.1-0.8-1.3l-1.9-1.5c-0.3-0.2-0.8-0.6-1.5-0.4c-0.4,0.1-0.8,0.5-1.4,1.2
		l-7,8.8l4.7,3.7l7.1-8.9C1219.1-336.9,1219.4-337.4,1219.4-337.8z"/>
	<polygon style="fill:#363878;" points="1196.4,-246.6 1200.7,-250.1 1195.4,-251.8 	"/>
	<polygon style="fill:#363878;" points="1217,-201.2 1223.4,-194.7 1228.8,-200 1222.4,-206.5 	"/>
	<polygon style="fill:#363878;" points="1377.6,-325.3 1367.4,-339.1 1356,-330.6 1366.2,-316.8 	"/>
	<path style="fill:#363878;" d="M1240.3-265.9c-0.2,0.6-1.5,0.9-1.2,1.4C1239.5-264.8,1240.9-265.6,1240.3-265.9z"/>
	<path style="fill:#363878;" d="M1232.2-265.7c0.3,0.3,1.1,0.1,1.4-0.2C1233.1-265.8,1232.4-266,1232.2-265.7z"/>
	<path style="fill:#363878;" d="M1258-271.4c-0.1-1.3,0.3-2.1,0.4-3.2C1256.1-275.6,1256.6-271.6,1258-271.4z"/>
	<path style="fill:#363878;" d="M1232.2-268.5c-0.1,0.7,0.8,0.3,1.4,0.5C1233.5-268.6,1232.7-268.4,1232.2-268.5z"/>
	<polygon style="fill:#363878;" points="1268.5,-171 1277.5,-169.4 1278.8,-176.9 1269.8,-178.5 	"/>
	<polygon style="fill:#363878;" points="1364.2,-213.8 1370.6,-209.7 1375.6,-217.4 1369.2,-221.5 	"/>
	<polygon style="fill:#363878;" points="1304.6,-177.2 1306.2,-169.8 1315.2,-171.7 1313.6,-179.1 	"/>
	<polygon style="fill:#363878;" points="1385.1,-251.5 1379.8,-249.9 1384.1,-246.4 	"/>
	<path style="fill:#363878;" d="M1327.1-383.2c-12-3.9-24.4-5.8-36.8-5.8c-52.1,0-97.8,33.1-113.8,82.5c-9.8,30.2-7.3,62.4,7.2,90.6
		c14.5,28.4,39.3,49.4,69.8,59.2c12,3.9,24.4,5.8,36.8,5.8c52.1,0,97.8-33.2,113.8-82.5c9.8-30.2,7.3-62.4-7.2-90.6
		C1382.4-352.4,1357.6-373.4,1327.1-383.2z M1367.4-344c1.5,0.3,2.6,1.7,3.5,2.8l9.8,13.2c0.9,1.1,1.9,2.6,1.7,4.1
		c-0.2,1.7-1.9,2.9-2.7,3.5l-9.5,7c-0.8,0.6-2.4,1.8-4.1,1.5c-1.5-0.3-2.6-1.7-3.4-2.8l-9.8-13.2c-0.8-1.1-1.9-2.6-1.7-4.1
		c0.2-1.7,1.9-2.9,2.7-3.5l9.4-7C1364.1-343.1,1365.7-344.3,1367.4-344z M1334-364.7l2.2-3.4l21.7,13.7l-2.2,3.5l-8.6-5.5l-9.8,15.4
		l-4.4-2.7l9.8-15.5L1334-364.7z M1296.7-361.2l0.1-0.5h4.7l-0.5,2.6l15.5,3.3l1.1-5.2l-14.2-3c-0.8-0.2-2.7-0.7-3.5-1.8
		c-1-1.4-0.5-3.5-0.3-4.4l0.5-2.3c0.2-0.9,0.6-3.1,2.1-3.9c1.2-0.7,3.1-0.4,4-0.2l13.2,2.8c1.1,0.2,3,0.8,3.8,2
		c0.8,1.3,0.5,3.2,0.3,3.9l-0.1,0.6l-4.7,0.1l0.5-2.5l-14.5-3.1l-1,4.7l13.6,2.9c1.4,0.3,3.2,0.7,4.1,2c0.6,0.9,0.7,2.4,0.4,3.9
		l-0.8,3.9c-0.3,1.3-1,2.7-1.9,3.3c-1.3,0.7-3.2,0.4-3.9,0.3l-14.5-3.1c-0.9-0.2-2.8-0.6-3.7-1.9
		C1296.1-358.2,1296.5-360.2,1296.7-361.2z M1313.3-340.9c19.2,6.2,34.7,19.3,43.7,37.1c9.1,17.7,10.7,37.9,4.5,56.8
		c-10,31-38.6,51.8-71.3,51.8c-7.9,0-15.6-1.2-23-3.6c-19.2-6.2-34.7-19.4-43.7-37.2c-9.1-17.7-10.7-37.9-4.5-56.8
		c10-30.9,38.7-51.7,71.3-51.7C1298.2-344.6,1305.9-343.3,1313.3-340.9z M1285.5-378.2l0.6,3.7l-17.4,2.8l0.8,5l10.2-1.7l0.6,3.8
		l-10.2,1.6l0.9,5.6l17.6-2.8l0.7,4l-22.8,3.7l-3.6-22.1L1285.5-378.2z M1243.1-366.8c0.9-0.5,2.3-1.3,3.6-1.1
		c1.6,0.2,2.4,1.5,2.9,2.3l2.7,4.6c0.9,1.5,0.9,2.7,0.6,3.4c-0.4,1.3-1.9,2.3-2.8,2.8l-2.6,1.5l13.2,2.1l-6.4,3.8l-12-2.7l-4.2,2.5
		l4.3,7.3l-4.5,2.6l-11.3-19.3L1243.1-366.8z M1212.6-344.4c0.7-0.8,1.7-1.9,3-2.2c1.5-0.4,2.6,0.4,3.5,1.1l3.9,3.1
		c0.4,0.4,1.8,1.5,1.8,3c0.1,1.5-1.2,3.2-1.6,3.7l-8.7,10.9l6.8,5.4l-3.2,4.1l-17.5-13.9L1212.6-344.4z M1192.2-243.2l2.3-1.9
		l-1.4-7.4l-2.8-0.8l-0.5-2.7l13,4.3l0.4,2.6l-10.4,9L1192.2-243.2z M1200.3-222.7c-0.7-0.3-1.1-1.2-1.4-1.9l-2.9-6.9
		c-0.3-0.7-0.7-1.6-0.4-2.4s1.3-1.3,1.8-1.5l8.4-3.5l1.1,2.6l-9.1,3.7l3.1,7.3l9-3.8l1.1,2.6l-8.4,3.5
		C1202.1-222.8,1201.1-222.4,1200.3-222.7z M1205.6-212.6l8.1-5.4l-3-4.5l1.8-1.2l7.6,11.4l-1.8,1.2l-3-4.6l-8.1,5.4L1205.6-212.6z
		 M1230.2-197.7l-4.5,4.4c-0.4,0.4-1.1,1.1-2,1.1c-0.8,0-1.5-0.7-2-1.2l-6.2-6.2c-0.5-0.5-1.2-1.3-1.2-2.1c0-0.9,0.8-1.7,1.1-2
		l4.5-4.4c0.4-0.4,1.1-1.1,2-1.1c0.8,0,1.5,0.7,2,1.2l6.2,6.2c0.5,0.5,1.2,1.3,1.2,2.1C1231.3-198.8,1230.5-198,1230.2-197.7z
		 M1239.5-187c-1.1,1.5-3.1,1.9-4.6,0.8c-1.5-1-1.9-3.1-0.8-4.6c0.9-1.4,3-1.8,4.5-0.8C1240.1-190.5,1240.5-188.5,1239.5-187z
		 M1258-172.4l-2.3-1l2.9-6.8c0.1-0.2,0.2-0.5,0.6-1.1c-0.4,0.4-1,0.8-1.1,0.9l-6.5,3.7l-0.5-0.2l-1.7-7.3c-0.2-0.7-0.2-1-0.2-1.4
		l-0.4,1.2l-2.9,6.8l-2.1-0.9l4.7-10.9l2.1,0.9l2.3,8.9l7.9-4.4l1.9,0.7L1258-172.4z M1281.3-175.8l-1.1,6.2c-0.1,0.5-0.3,1.6-1,2.1
		c-0.7,0.4-1.6,0.3-2.4,0.2l-8.6-1.5c-0.8-0.1-1.7-0.3-2.2-1s-0.3-1.8-0.2-2.3l1.1-6.2c0.1-0.5,0.3-1.6,1-2.1
		c0.7-0.4,1.6-0.3,2.4-0.2l8.6,1.5c0.8,0.1,1.7,0.3,2.2,1S1281.4-176.3,1281.3-175.8z M1298.6-176.4l-5.4,0.1l0.1,9.7l-2.8,0.1
		l-0.1-9.8l-5.5,0.1v-2.2l13.7-0.2V-176.4z M1317.6-170.6c-0.4,0.7-1.4,0.9-2.1,1l-8.6,1.8c-0.7,0.2-1.7,0.3-2.4-0.1
		c-0.8-0.5-1-1.6-1.1-2.1l-1.3-6.1c-0.1-0.5-0.3-1.6,0.2-2.3c0.4-0.7,1.4-0.9,2.1-1l8.6-1.8c0.7-0.2,1.7-0.3,2.4,0.1
		c0.8,0.5,1,1.6,1.1,2.1l1.3,6.1C1317.9-172.4,1318.1-171.3,1317.6-170.6z M1328.5-176.5c-1.7,0.7-3.6-0.1-4.4-1.8
		c-0.7-1.8,0.1-3.7,1.8-4.4c1.7-0.7,3.6,0.1,4.4,1.8C1331-179.2,1330.2-177.3,1328.5-176.5z M1349.8-186.4c-0.2,0.8-1,1.4-1.4,1.6
		l-6.6,4.3c-0.4,0.3-1.3,0.8-2.1,0.7c-0.9-0.2-1.5-1.1-1.8-1.5l-0.1-0.2l1.8-1.8l0.8,1.2l7.1-4.6l-1.5-2.4l-6.5,4.2
		c-0.4,0.2-1.3,0.8-2,0.6c-0.9-0.2-1.5-1.1-1.8-1.5l-0.7-1.1c-0.3-0.4-0.9-1.4-0.7-2.3c0.2-0.7,1-1.3,1.4-1.6l6-3.9
		c0.5-0.3,1.4-0.8,2.2-0.7c0.8,0.2,1.4,1,1.6,1.4l0.2,0.3l-1.7,1.8l-0.7-1.1l-6.7,4.2l1.4,2.1l6.2-4c0.6-0.4,1.5-0.9,2.3-0.8
		c0.6,0.1,1.2,0.6,1.6,1.3l1.2,1.8C1349.7-187.8,1349.9-187,1349.8-186.4z M1363.9-198.3l-8.8,1.3l3.7,3.7l-1.9,2l-8.4-8.5l2-2
		l3.4,3.6l1.3-8.2l2.8-2.8l-1.7,9.5l10.8-1.7L1363.9-198.3z M1377.2-216.1l-4.8,7.4c-0.4,0.6-1,1.4-1.7,1.6
		c-0.9,0.2-1.8-0.4-2.2-0.7l-5.3-3.4c-0.4-0.3-1.4-0.9-1.5-1.8c-0.1-0.8,0.4-1.6,0.8-2.3l4.8-7.4c0.4-0.6,1-1.4,1.7-1.6
		c0.9-0.2,1.8,0.4,2.2,0.7l5.3,3.4c0.4,0.3,1.4,0.9,1.5,1.8C1378.1-217.6,1377.6-216.8,1377.2-216.1z M1382.4-225.8l-11.1-4.4l1-2.6
		l9.1,3.6l3.2-8.3l2.1,0.8L1382.4-225.8z M1390.3-253.2l-2.8,0.9l-1.4,7.4l2.3,1.8l-0.5,2.7l-10.4-8.9l0.4-2.5l13-4.5L1390.3-253.2z
		"/>
	<path style="fill:#363878;" d="M1156.4-271c0-2.4,0-4.7,0.2-7.1h-115.1c-3.1,0-5.7,3.2-5.7,7.1c0,3.9,2.6,7.1,5.7,7.1h115.1
		C1156.5-266.2,1156.4-268.6,1156.4-271z"/>
	<path style="fill:#363878;" d="M1157.1-250.6h-82.4v-0.1c-2.2,0-4,2.2-4,5c0,2.7,1.8,5,4,5h84.3
		C1158.3-244,1157.6-247.3,1157.1-250.6z"/>
	<path style="fill:#363878;" d="M1075.5-291.3h82.4c0.5-3.4,1.1-6.7,1.9-9.9h-84.3v-0.1c-2.2,0-4,2.2-4,5
		C1071.5-293.6,1073.3-291.3,1075.5-291.3z"/>
	<path style="fill:#363878;" d="M1100.9-321.5c-1.6,0-2.9,1.6-2.9,3.5c0,2,1.3,3.5,2.9,3.5h62.5c0.8-2.4,1.7-4.8,2.6-7.1
		L1100.9-321.5L1100.9-321.5z"/>
	<path style="fill:#363878;" d="M1100.9-227.7v0.1c-1.6,0-2.9,1.6-2.9,3.5c0,2,1.3,3.5,2.9,3.5h64.5c-0.9-2.3-1.8-4.7-2.6-7.1
		H1100.9z"/>
	<path style="fill:#363878;" d="M1541.9-278.1h-115c0.1,2.3,0.2,4.7,0.2,7.1c0,2.4-0.1,4.7-0.2,7.1H1542c3.2,0,5.7-3.2,5.7-7.1
		C1547.6-274.9,1545.1-278.1,1541.9-278.1z"/>
	<path style="fill:#363878;" d="M1425.6-291.4h86.5v0.1c2.2,0,4-2.2,4-5c0-2.7-1.8-5-4-5h-88.4
		C1424.4-298,1425.1-294.7,1425.6-291.4z"/>
	<path style="fill:#363878;" d="M1512.1-250.7h-86.5c-0.5,3.4-1.1,6.7-1.9,9.9h88.4v0.1c2.2,0,4-2.2,4-5
		C1516.1-248.4,1514.3-250.7,1512.1-250.7z"/>
	<path style="fill:#363878;" d="M1486.6-227.5H1420c-0.8,2.4-1.7,4.8-2.6,7.1h69.2v-0.1c1.6,0,2.9-1.6,2.9-3.5
		C1489.5-226,1488.2-227.5,1486.6-227.5z"/>
	<path style="fill:#363878;" d="M1485.9-314.3L1485.9-314.3c1.6-0.1,2.9-1.7,2.9-3.6c0-2-1.3-3.5-2.9-3.5h-68.5
		c0.9,2.3,1.8,4.7,2.6,7.1H1485.9z"/>
</g>
</svg>
