<?xml version="1.0" encoding="utf-8"?>
<!-- Generator: Adobe Illustrator 18.0.0, SVG Export Plug-In . SVG Version: 6.00 Build 0)  -->
<!DOCTYPE svg PUBLIC "-//W3C//DTD SVG 1.1//EN" "http://www.w3.org/Graphics/SVG/1.1/DTD/svg11.dtd">
<svg version="1.1" id="Layer_1" xmlns="http://www.w3.org/2000/svg" xmlns:xlink="http://www.w3.org/1999/xlink" x="0px" y="0px"
	 viewBox="0 0 226.8 226.8" enable-background="new 0 0 226.8 226.8" xml:space="preserve">
<g>
	<g>
		<path d="M160.1,125.9c-1.7-1.7-3.9-2.6-6.3-2.6c-2.4,0-4.6,0.9-6.3,2.6l-7.7,7.7l-11.4-11.4l34.8-34.8c5.6,2.4,11.7,3.7,18,3.7
			c12.2,0,23.7-4.8,32.3-13.4c11.8-11.8,16.1-29.1,11.4-45c-0.3-0.9-1-1.6-2-1.9c-0.9-0.2-1.9,0-2.6,0.7l-28.7,28.8
			c-1.7-0.7-6.1-3.1-14.1-11.1c-8-8-10.4-12.3-11.1-14.1l28.7-28.8c0.7-0.7,1-1.7,0.7-2.6c-0.2-0.9-1-1.7-1.9-1.9
			c-4.1-1.2-8.4-1.8-12.7-1.8c-12.2,0-23.7,4.8-32.3,13.4C135.4,27,132.2,47,139.3,63.6l-34.8,34.8L68.9,62.7c0-0.1-0.1-0.1-0.1-0.2
			L52.5,34.6c-0.3-0.5-0.7-0.9-1.1-1.2L23.9,14.4c-1.5-1.1-3.6-0.9-4.9,0.4L6.8,27c-1.3,1.3-1.5,3.4-0.4,4.9l19.1,27.5
			c0.3,0.5,0.7,0.8,1.2,1.1l27.9,16.3c0.1,0,0.1,0.1,0.2,0.1l35.6,35.6l-26.8,26.8c-5.6-2.4-11.7-3.7-18-3.7
			c-12.2,0-23.7,4.8-32.3,13.4c-11.8,11.8-16.1,29.1-11.4,45c0.3,0.9,1,1.6,2,1.9c0.9,0.2,1.9,0,2.6-0.7l28.7-28.8
			c1.7,0.7,6.1,3.1,14.1,11.1c8,8,10.4,12.3,11.1,14.1l-28.7,28.8c-0.7,0.7-1,1.7-0.7,2.6c0.2,0.9,1,1.7,1.9,2
			c4.1,1.2,8.4,1.8,12.7,1.8c12.2,0,23.7-4.8,32.3-13.4c8.6-8.6,13.3-20.1,13.3-32.2c0-6.3-1.3-12.3-3.7-17.9l26.8-26.8l11.4,11.4
			l-7.7,7.7c-1.7,1.7-2.6,3.9-2.6,6.3c0,2.4,0.9,4.6,2.6,6.3l54.7,54.7c1.7,1.7,3.9,2.6,6.3,2.6c2.4,0,4.6-0.9,6.3-2.6l29.6-29.6
			c1.7-1.7,2.6-3.9,2.6-6.3c0-2.4-0.9-4.6-2.6-6.3L160.1,125.9z M179.5,203.3c-1.9,1.9-5.1,1.9-7.1,0l-35.1-35.1
			c-1.9-1.9-1.9-5.1,0-7.1c2-2,5.1-2,7.1,0l35.1,35.1C181.4,198.2,181.4,201.4,179.5,203.3L179.5,203.3z M195.3,187.5
			c-1.9,1.9-5.1,1.9-7.1,0l-35.1-35.1c-1.9-1.9-1.9-5.1,0-7.1c1.9-2,5.1-2,7.1,0l35.1,35.1C197.3,182.3,197.3,185.5,195.3,187.5
			L195.3,187.5z M195.3,187.5"/>
	</g>
</g>
</svg>
