<?xml version="1.0" encoding="utf-8"?>
<!-- Generator: Adobe Illustrator 19.0.0, SVG Export Plug-In . SVG Version: 6.00 Build 0)  -->
<svg version="1.1" id="Capa_1" xmlns="http://www.w3.org/2000/svg" xmlns:xlink="http://www.w3.org/1999/xlink" x="0px" y="0px"
	 viewBox="-114 129.9 612 334.7" style="enable-background:new -114 129.9 612 334.7;" xml:space="preserve">
<g>
	<path d="M498,187c0,105.9-510.4,222.7-549,222.7c-21.7,0-46.3-5-46.3-25c0-6.7,7.7-16.3,21.2-27.9l0,0l-35.8-63.7
		c-4.9-8.6-1-19.5,8.2-23.2l6.2-2.5c11.2-4.5,23.7-3.8,34.3,1.8l65,34.4c25.3-15,54-30.7,84.3-46.2l-126.7-82.2
		c-10-6.5-9.9-21.2,0.2-27.6l10.4-6.5c17.3-10.8,38.2-14,57.9-8.8L238.8,188c65.7-26.1,125.2-43.9,160.4-43.9
		c9.4,0,18.8,0.2,27.9,0.9l-63.7,28.7l-1.5,21.4l98.3-45.2C483.7,155.6,498,166,498,187z M241.5,369.8l78.6,89.3
		c4.8,5.4,12.6,7.1,19.2,4l10.5-4.9c19.2-8.9,30.5-29.2,28.1-50.2l-9.8-84.2c-0.6-5.2-5.9-8.5-10.8-6.8l-112.3,39.6
		C239.4,358.6,237.7,365.4,241.5,369.8z"/>
</g>
</svg>
