<?xml version="1.0" encoding="utf-8"?>
<!-- Generator: Adobe Illustrator 19.0.0, SVG Export Plug-In . SVG Version: 6.00 Build 0)  -->
<svg version="1.1" id="Layer_1" xmlns="http://www.w3.org/2000/svg" xmlns:xlink="http://www.w3.org/1999/xlink" x="0px" y="0px"
	 viewBox="-67 289.5 475.1 215.5" style="enable-background:new -67 289.5 475.1 215.5;" xml:space="preserve">
<g>
	<path d="M11.9,505h2c2.8-21.4,5.5-50.8,7.9-88.1h-3.4c-1.2,24.1-2.8,47.4-4.7,70c-3-31.3-4.7-54.6-5.2-70h-5
		C4.9,446.7,7.8,476.1,11.9,505L11.9,505L11.9,505z M41.6,504.2h4.7V417h-4.7V504.2L41.6,504.2z M82.1,504.2v-2.6h-8.7v-42.2h7.7
		v-2.6h-7.7v-37.3h8.2v-2.6h-13v87.2h13.5V504.2z M105.6,424.9c0-4.7,1.4-7.1,4.3-7.1c2.8,0,4.3,2.4,4.3,7.1v17.7h4.7v-16.9
		c0-3.4-0.6-5.9-1.8-7.2c-1.3-1.6-3.8-2.4-7.2-2.4c-3.5,0-5.9,0.8-7.2,2.4c-1.2,1.4-1.8,3.8-1.8,7.2v11.6c0,3.8,1.4,8.8,4.3,15.1
		l5.3,11.7c2.5,5.4,3.7,10.7,3.7,15.9v16.3c0,4.7-1.4,7.1-4.3,7.1c-2.8,0-4.3-2.3-4.3-7v-19.9h-4.7v19c0,3.4,0.6,5.9,1.8,7.2
		c1.3,1.5,3.7,2.3,7.2,2.3s5.9-0.8,7.2-2.3c1.2-1.4,1.8-3.8,1.8-7.2v-16.8c0-5.1-1.5-11-4.6-17.9l-6.6-14.6c-1.4-3-2.1-6.4-2.1-10.1
		L105.6,424.9L105.6,424.9z M140.3,504.2h4.7V417h-4.7V504.2L140.3,504.2z M171.3,424.9c0-4.7,1.4-7.1,4.3-7.1
		c2.8,0,4.3,2.4,4.3,7.1v17.7h4.7v-16.9c0-3.4-0.6-5.9-1.8-7.2c-1.3-1.6-3.8-2.4-7.2-2.4c-3.5,0-5.9,0.8-7.2,2.4
		c-1.2,1.4-1.8,3.8-1.8,7.2v11.6c0,3.8,1.4,8.8,4.3,15.1l5.3,11.7c2.5,5.4,3.7,10.7,3.7,15.9v16.3c0,4.7-1.4,7.1-4.3,7.1
		c-2.8,0-4.3-2.3-4.3-7v-19.9h-4.7v19c0,3.4,0.6,5.9,1.8,7.2c1.3,1.5,3.7,2.3,7.2,2.3s5.9-0.8,7.2-2.3c1.2-1.4,1.8-3.8,1.8-7.2
		v-16.8c0-5.1-1.5-11-4.6-17.9l-6.6-14.6c-1.4-3-2.1-6.4-2.1-10.1L171.3,424.9L171.3,424.9z M213.5,504.2v-84.7h6.8v-2.6H202v2.6
		h6.8v84.7H213.5L213.5,504.2z M247.5,417.8c2.8,0,4.3,2.4,4.3,7.1v32h-8.5v-32C243.3,420.1,244.7,417.8,247.5,417.8L247.5,417.8
		L247.5,417.8z M238.5,504.2h4.7v-44.7h8.5v44.7h4.7v-78.5c0-3.4-0.6-5.9-1.8-7.2c-1.3-1.6-3.7-2.4-7.2-2.4s-5.9,0.8-7.2,2.4
		c-1.1,1.4-1.7,3.8-1.7,7.2V504.2L238.5,504.2z M286.7,458.9c2.3,0,3.8,0.6,4.6,1.9c0.6,0.9,0.9,2.6,0.9,5v29.8c0,2.4-0.3,4.1-0.9,5
		c-0.8,1.2-2.3,1.8-4.4,1.8h-3.1v-43.6h2.9V458.9z M286.7,418.7c2.3,0,3.8,0.6,4.6,1.9c0.6,0.9,0.9,2.6,0.9,5V450c0,2.4-0.3,4-0.9,5
		c-0.8,1.2-2.3,1.8-4.4,1.8h-3.1v-38.2h2.9V418.7z M287.4,504.2c3.8,0,6.4-0.8,7.8-2.3c1.1-1.3,1.7-3.7,1.7-7.2v-26.9
		c0-3.5-0.5-5.9-1.4-7.3c-1-1.5-2.9-2.4-5.7-2.6c3-0.4,5-1.4,6-3.1c0.7-1.3,1.1-3.5,1.1-6.7v-21.7c0-3.6-0.6-6.1-1.9-7.4
		s-3.8-2-7.6-2h-8.5v87.2H287.4L287.4,504.2z M328.2,417.8c2.8,0,4.3,2.4,4.3,7.1v32H324v-32C324,420.1,325.4,417.8,328.2,417.8
		L328.2,417.8L328.2,417.8z M319.3,504.2h4.7v-44.7h8.5v44.7h4.7v-78.5c0-3.4-0.6-5.9-1.8-7.2c-1.3-1.6-3.7-2.4-7.2-2.4
		s-5.9,0.8-7.2,2.4c-1.1,1.4-1.7,3.8-1.7,7.2V504.2L319.3,504.2z"/>
	<path d="M-59.2,505c4.3,0,7.7-3.5,7.7-7.7c0-4.3-3.5-7.7-7.7-7.7c-4.3,0-7.8,3.5-7.8,7.7C-67,501.5-63.5,505-59.2,505L-59.2,505z"
		/>
	<path d="M400.1,505c4.3,0,7.7-3.5,7.7-7.7c0-4.3-3.5-7.7-7.7-7.7c-4.3,0-7.8,3.5-7.8,7.7C392.4,501.5,395.9,505,400.1,505
		L400.1,505z"/>
	<path d="M311,347.5c-3.4-1.9-6.3-5.5-7.1-7.4c-1.2-3-2-6.5-6.1-9.3c-5.6-3.8-11-4.5-13.4-4.4c-0.8,0,6.2,0.9,9.3,11.1
		c2,6.7,10.6,11.4,17,11.1C311.3,348.5,312.8,348.5,311,347.5L311,347.5z"/>
	<path d="M279.2,338.6c-2.9-1.3-6.2-1.5-9.3-2.1c-7-1.3-7.7-1.6-11-2.9c-1.7-0.6,5.9,4.4,7.5,5.6c3.1,2.4,5.1,5.4,8.3,7.5
		c2.4,1.5,6.6,2.6,8.7,0C286,343.6,281.5,339.6,279.2,338.6L279.2,338.6z"/>
	<path d="M314.3,315.3c-5.9-3.4-20.1-6.9-32.7,3.2c-1.5,1.2-2.6,2.6-3.7,4.1c-1.3,0.5-2.6,1-3.9,1.4c-0.1-0.2-0.1-0.4-0.2-0.6
		c-1.5-3.3,0.2-6.5,1.4-7.8c2.6-3,7.6-4.8,10.9-6.8c6.5-3.8,10.2-8,13.1-14.7c1.4-3.1,1.5-2.4-2.8-2.6c-7.7-0.4-15.3,3.3-19.9,9.7
		c-2.8,3.9-5.3,8.6-6.2,13.8c-0.8,4.4,0.2,8,1.3,9.8c-11.2,3.3-24.1,4.5-36.5,3.2c4.7-0.8,9.4-2.7,12.6-5.6c6-5.5,6.9-14.8,5.4-22.3
		c-0.5-2.4-1.2-2.5-2.7-1.2c-4.8,4.3-7.3,7.5-8.3,14.4c-1.4,9.8-3.1,11-8,13c-1.2,0.5-2.4,0.8-3.6,1.1c-5-0.8-9.9-1.9-14.6-3.5
		c-5.5-1.9-12-4.8-17.4-9.3c1.7-6.5,2.4-12.3,1.5-16.2c-1.1-4.7-3.5-7.9-6.8-8.7c-2.4-0.6-4.8,0.1-6.5,2c-2.4,2.7-2.9,7.1-1.1,11.7
		c1.8,4.7,4.6,8.9,8.5,12.6c-2.1,7.3-5.4,16.3-9.9,26.6c-9.7,22.2-12.7,31.1-13.8,35.9c-1.1-4.8-4-13.7-13.8-35.9
		c-4.5-10.3-7.8-19.3-9.9-26.6c3.9-3.7,6.7-7.9,8.5-12.6c1.7-4.6,1.3-9-1.1-11.7c-1.7-1.9-4.1-2.6-6.5-2c-3.2,0.8-5.7,4-6.8,8.7
		c-0.9,4-0.1,9.7,1.5,16.2c-5.4,4.5-11.8,7.4-17.4,9.3c-4.6,1.6-9.5,2.7-14.6,3.5c-1.2-0.2-2.4-0.6-3.6-1.1c-4.9-2.1-6.6-3.2-8-13
		c-1-6.9-3.5-10.1-8.3-14.4c-1.5-1.3-2.3-1.2-2.7,1.2c-1.5,7.5-0.6,16.8,5.4,22.3c3.2,2.9,7.8,4.8,12.6,5.6
		c-12.4,1.2-25.3,0.1-36.5-3.2c1.1-1.8,2.1-5.4,1.3-9.8c-0.9-5.2-3.4-9.9-6.2-13.8c-4.6-6.4-12.3-10.2-19.9-9.7
		c-4.3,0.2-4.1-0.5-2.8,2.6c2.9,6.7,6.5,10.9,13.1,14.7c3.3,2,8.3,3.8,10.9,6.8c1.1,1.3,2.9,4.5,1.4,7.8c-0.1,0.2-0.1,0.4-0.2,0.6
		c-1.3-0.4-2.6-0.9-3.9-1.4c-1.1-1.5-2.2-2.9-3.7-4.1c-12.6-10.1-26.8-6.6-32.7-3.2c-6.7,3.9-10.5,8.7-19.9,8.9
		c-4.1,0.1-3.2,0.7-2.1,1.3c9.1,5.1,16.7,8.7,27.3,6c4.8-1.2,8.9-4.1,13.5-6c2.4-0.9,7.9-2.5,12.4-1.8c9.6,4.8,20,7.8,32.3,8.5
		c-2.1,0.8-4.2,1.9-6.1,3.3c-8.4,6-10.6,16.6-6.1,25.3c4.1,7.8,15.3,10.5,22.4,4.8c6.5-5.3,5.3-14.6,0-20.2
		c-0.5-0.6-1.3-1.1-0.8,1.2c1.8,9.1-0.4,13.7-5.8,15.4c-10.9,3.3-15.6-8.6-13.5-15.8c1.7-6,7.3-10.8,13.9-12.9
		c1.2-0.3,2.5-0.7,3.8-1c9.9-0.2,19.7-1.7,28.6-4.7c3.9-1.3,7.5-2.9,10.8-4.7c-3.8,5.1-5.6,10.8-4.1,17.2
		c2.8,11.8,15,15.5,17.1,23.8c0.2,0.6,1,1.3,1-2.2c0.1-7.4-2.1-13.5-7.6-18.8c-3.9-3.8-8.8-7.6-7.3-13.5c0.7-2.7,3.6-6.2,6.6-10.2
		c0.2-0.2,0.5-0.3,0.7-0.5c2.5,8.4,6.1,17.5,9.6,25.4c8.9,20,15.8,31.7,15.5,40.1c-1.3,3.8-2.7,6.1-3.2,11.2c-0.4,4.5,1.6,9,5,9
		s5.5-4.5,5-9c-0.5-5.1-1.9-7.4-3.2-11.2c-0.4-8.4,6.5-20.1,15.5-40.1c3.5-7.8,7.1-17,9.6-25.4c0.2,0.2,0.5,0.3,0.7,0.5
		c3,4,5.9,7.6,6.6,10.2c1.5,5.9-3.4,9.7-7.3,13.5c-5.5,5.3-7.7,11.4-7.6,18.8c0,3.4,0.9,2.8,1,2.2c2.2-8.3,14.4-12.1,17.1-23.8
		c1.5-6.4-0.3-12-4.1-17.2c3.2,1.8,6.8,3.4,10.8,4.7c8.9,3,18.7,4.5,28.6,4.7c1.3,0.3,2.6,0.7,3.8,1c6.6,2.1,12.2,6.8,13.9,12.9
		c2.1,7.2-2.6,19-13.5,15.8c-5.4-1.6-7.6-6.3-5.8-15.4c0.5-2.3-0.3-1.7-0.8-1.2c-5.4,5.6-6.6,14.9,0,20.2c7.1,5.7,18.3,3,22.4-4.8
		c4.5-8.8,2.3-19.3-6.1-25.3c-1.9-1.3-3.9-2.4-6.1-3.3c12.3-0.7,22.7-3.7,32.3-8.5c4.4-0.7,10,0.8,12.4,1.8c4.6,1.9,8.7,4.8,13.5,6
		c10.6,2.7,18.2-0.9,27.3-6c1.1-0.6,2-1.2-2.1-1.3C324.8,324,321,319.1,314.3,315.3L314.3,315.3z M144.6,299.3
		c0.7-3.2,2.2-5.4,4-5.8c0.2-0.1,0.4-0.1,0.7-0.1c0.7,0,1.5,0.3,2,1c1.4,1.6,1.6,4.5,0.4,7.7c-1.4,3.7-3.5,6.8-6,9.6
		C144.4,306.2,144,302,144.6,299.3L144.6,299.3z M195.2,311.6c-2.5-2.7-4.6-5.9-6-9.6c-1.2-3.2-1.1-6.1,0.4-7.7c0.6-0.6,1.3-1,2-1
		c0.2,0,0.4,0,0.7,0.1c1.8,0.5,3.3,2.6,4,5.8C196.8,302,196.5,306.2,195.2,311.6L195.2,311.6z"/>
	<path d="M43,330.8c-4.1,2.8-4.9,6.3-6.1,9.3c-0.8,1.9-3.7,5.5-7.1,7.4c-1.8,1-0.2,1,0.3,1c6.4,0.4,14.9-4.3,17-11.1
		c3.1-10.2,10.1-11.1,9.3-11.1C54,326.3,48.6,327,43,330.8L43,330.8z"/>
	<path d="M81.9,333.7c-3.2,1.2-4,1.6-11,2.9c-3.1,0.6-6.4,0.8-9.3,2.1c-2.2,1-6.7,5-4.3,8.1c2.1,2.6,6.3,1.5,8.7,0
		c3.3-2.1,5.3-5.1,8.3-7.5C76,338,83.6,333,81.9,333.7L81.9,333.7z"/>
	<path d="M62,364c-23.9,0.1-46.2,0.2-65.3,0.3c-38.2,0.4-63.7,0.6-63.7,0.6s25.5,0.3,63.7,0.6c19.1,0.1,41.4,0.2,65.3,0.3
		c3.8,0,7.7,0,11.5,0c-0.1-0.7-0.1-1.3,0-2C69.7,364,65.8,364,62,364L62,364z"/>
	<path d="M278.6,364c-3.8,0-7.8,0-11.7,0c0.1,0.7,0.1,1.3,0,2c3.9,0,7.8,0,11.6,0c24-0.1,46.4-0.2,65.6-0.3c38.4-0.4,64-0.6,64-0.6
		s-25.6-0.3-64-0.6C324.9,364.3,302.6,364.2,278.6,364L278.6,364z"/>
</g>
</svg>
