<?xml version="1.0" encoding="utf-8"?>
<!-- Generator: Adobe Illustrator 19.0.0, SVG Export Plug-In . SVG Version: 6.00 Build 0)  -->
<svg version="1.1" id="Layer_1" xmlns="http://www.w3.org/2000/svg" xmlns:xlink="http://www.w3.org/1999/xlink" x="0px" y="0px"
	 viewBox="-23 197.1 436.1 399.8" style="enable-background:new -23 197.1 436.1 399.8;" xml:space="preserve">
<path d="M304,288v-54.5c0-20.1-16.3-36.3-36.3-36.3H122.3c-20.1,0-36.3,16.3-36.3,36.3V288H13.3
	C-6.8,288-23,304.2-23,324.3v236.2c0,20.1,16.3,36.3,36.3,36.3h363.4c20.1,0,36.3-16.3,36.3-36.3V324.3c0-20.1-16.3-36.3-36.3-36.3
	H304z M151.4,242.5h87.2c11.1,0,20,8.9,20,20V288H131.4v-25.4C131.4,251.5,140.3,242.5,151.4,242.5z M86,351.6v181.7
	c0,10-8.2,18.2-18.2,18.2c-10,0-18.2-8.2-18.2-18.2V351.6c0-10,8.2-18.2,18.2-18.2C77.8,333.4,86,341.6,86,351.6z M340.4,351.6
	v181.7c0,10-8.2,18.2-18.2,18.2c-10,0-18.2-8.2-18.2-18.2V351.6c0-10,8.2-18.2,18.2-18.2C332.2,333.4,340.4,341.6,340.4,351.6z"/>
</svg>
