<?xml version="1.0" encoding="utf-8"?>
<!-- Generator: Adobe Illustrator 19.0.0, SVG Export Plug-In . SVG Version: 6.00 Build 0)  -->
<svg version="1.1" id="Layer_1" xmlns="http://www.w3.org/2000/svg" xmlns:xlink="http://www.w3.org/1999/xlink" x="0px" y="0px"
	 viewBox="-75.5 22 85.9 82.1" style="enable-background:new -75.5 22 85.9 82.1;" xml:space="preserve">
<g>
	<path d="M6.3,65.4c-4.2-2-5.4-4.6-5.8-5.9c-0.3-1.1-0.1-1.8,0-1.9c6.3-3.7,9.9-9.4,9.9-15.5c0-11.2-11.8-20-26.9-20
		c-14.3,0-24.3,8.2-24.3,20c0,11.7,10,19.8,24.3,19.8c1.3,0,2.5-0.2,3.7-0.5c0.3-0.1,0.6-0.1,0.9-0.2c5,5.9,11.8,6.8,15.5,6.8
		C5,68,5.9,67.8,6,67.8c0.6-0.1,1-0.5,1.1-1.1C7.1,66.2,6.8,65.6,6.3,65.4z"/>
	<path d="M-0.7,70.5c-2.8-0.1-8.2-0.8-12.4-5.1c-0.3-0.3-0.8-0.5-1.2-0.3l-0.5,0.1c0,0-0.1,0-0.1,0c-0.3,0.1-0.7,0.1-1,0.2
		c-1.1,0.2-2.2,0.4-3.3,0.4l-0.3,0c-14-0.9-24.3-9.4-24.9-20.7c-0.1-2.4,0.3-4.8,1.3-7.2c0.2-0.4,0.1-0.9-0.2-1.3
		c-0.3-0.4-0.8-0.5-1.2-0.5c-18.2,3.2-30.9,15.1-30.9,28.9c0,9.2,5.4,17.6,14.9,23.2c0.2,0.1,0.6,1,0.4,2.6
		c-0.2,1.5-1.4,6.8-9.4,10.6c-0.5,0.2-0.8,0.8-0.7,1.3c0.1,0.6,0.5,1,1.1,1.1c0.1,0,1.4,0.2,3.5,0.2c5.5,0,15.9-1.4,23.4-10.4
		c0.6,0.1,1.2,0.2,1.8,0.3c1.8,0.3,3.6,0.7,5.5,0.7c18.3,0,31.9-8.7,35.5-22.6c0.1-0.4,0-0.8-0.2-1.1C0.1,70.7-0.3,70.5-0.7,70.5z"
		/>
</g>
</svg>
