<?xml version="1.0" encoding="utf-8"?>
<!-- Generator: Adobe Illustrator 19.0.0, SVG Export Plug-In . SVG Version: 6.00 Build 0)  -->
<svg version="1.1" id="Layer_1" xmlns="http://www.w3.org/2000/svg" xmlns:xlink="http://www.w3.org/1999/xlink" x="0px" y="0px"
	 viewBox="0 0 479.6 415.6" style="enable-background:new 0 0 479.6 415.6;" xml:space="preserve">
<path d="M239.7,0c60.8,0,121.6,0,182.5,0c33,0,57.4,24.5,57.4,57.6c0,99.7,0,199.3,0,299c0,29.1-16.9,51.5-43.6,57.5
	c-5,1.1-10.2,1.5-15.4,1.5c-120.5,0.1-241,0.1-361.4,0.1c-26.7,0-47.9-14-55.8-37.3c-2.1-6.2-3.3-13-3.3-19.6
	C0,258-0.1,157.1,0.1,56.3c0-32,24.7-56.2,57.2-56.3C118.1-0.1,178.9,0,239.7,0C239.7,0,239.7,0,239.7,0z M31.6,95.9
	c0,2.1,0,3.8,0,5.6c0,85.3,0,170.7,0,256c0,16.5,10,26.5,26.3,26.5c121,0,242,0,363,0c17.5,0,27.1-9.7,27.1-27.2
	c0-85.3,0-170.7,0-256c0-1.6-0.2-3.2-0.2-4.9C309,95.9,170.6,95.9,31.6,95.9z M80,48c0-15.3-1.1-16.4-16.4-16.4
	c-14.8,0-15.9,1.1-16,15.8c-0.1,15.7,1,16.7,16.7,16.6C78.9,64,80,62.8,80,48z M127.7,64c0.8,0,1.7,0,2.5,0c11.7,0,13.8-2.1,13.8-14
	c0-0.7,0-1.3,0-2c0-15.4-1.1-16.5-16.4-16.5c-15,0-16.1,1.1-16,16.2C111.6,62.9,112.7,64,127.7,64z M208,48.3
	C208,48.3,208,48.3,208,48.3c0-2.2,0-4.3,0-6.5c-0.1-6.8-3.3-10.1-10.1-10.1c-4.3,0-8.7-0.1-13,0c-5.6,0.1-9.1,3.5-9.3,9
	c-0.1,4.8-0.1,9.7,0,14.5c0.2,5.3,3.6,8.7,8.8,8.9c4.5,0.2,9,0.1,13.5,0c6.7-0.1,9.9-3.4,10-10.3C208.1,51.9,208,50.1,208,48.3z"/>
<path d="M217.5,205.9l7.8,84.1c0.4,4.8,0,9.2,3.9,13.2c5.3,5.3,13,4.1,17.1,0l25.7-25.7l59.9,59.9c4.7,4.7,12.4,4.7,17.1,0
	l17.1-17.1c4.7-4.7,4.7-12.4,0-17.1l-59.9-59.9l25.7-25.7c4.1-4.1,5.3-11.8,0-17.1c-3.9-3.9-8.4-3.5-13.2-3.9l-84.1-7.8
	c-5.9-0.6-10.1-0.6-13.9,3.2C216.9,195.8,216.9,199.9,217.5,205.9z"/>
</svg>
