<?xml version="1.0" encoding="utf-8"?>
<!-- Generator: Adobe Illustrator 19.0.0, SVG Export Plug-In . SVG Version: 6.00 Build 0)  -->
<svg version="1.1" id="Layer_1" xmlns="http://www.w3.org/2000/svg" xmlns:xlink="http://www.w3.org/1999/xlink" x="0px" y="0px"
	 viewBox="-23.1 178.9 436.1 436.1" style="enable-background:new -23.1 178.9 436.1 436.1;" xml:space="preserve">
<path d="M58.8,286.7v1.3c2.9,80,17.8,151.5,24.6,158.4c15.8,21.1,64.8,55.8,92.4,73.2
	c6.8,4.4,12.6,5.2,19.2,5.4c6.5-0.2,12.3-1.3,19.2-5.4c28.2-16.6,77.8-52.2,93.5-73.2c6.9-7,20.7-78.5,23.6-158.4l0.1-1.3
	c0-7.4-4.7-13.7-11.3-16.1c-34.3-11.9-84.4-15.1-125-15.1c-40.7,0-90.9,3.2-125,15.1C63.5,273,58.8,279.3,58.8,286.7z M-23.1,234.3
	l0.1,2c4.6,127.9,25.2,240.4,36.3,251.6c25.4,33.8,106.8,86.3,150.7,115c10.5,6.8,20.4,11.9,31,12.2c10.5-0.3,20.5-5.4,31-12.2
	c44-28.7,125.3-81.2,150.7-115c11.1-11.2,31.6-123.6,36.3-251.6l0.1-2c0-11.8-7.6-22.1-18.2-25.8c-55.2-19.1-134.3-29.5-199.9-29.5
	c-65.6,0-144.7,10.4-199.9,29.5C-15.4,212.2-23.1,222.5-23.1,234.3z M21,264c0-9.4,6.1-17.5,14.4-20.5
	c43.6-15.1,107.7-19.1,159.5-19.1c51.9,0,115.9,4,159.5,19.1c8.4,3,14.4,11.1,14.4,20.5l-0.1,1.5c-3.7,101.3-21.3,193.2-30.1,202.1
	c-20.2,26.7-84.5,69.6-119.3,92.3c-8.3,5.4-16.2,9.5-24.5,9.6c-8.4-0.2-16.3-4.3-24.5-9.6c-34.8-22.7-99.1-65.6-119.3-92.3
	c-8.8-8.9-26.4-100.8-30.1-202.1L21,264z"/>
</svg>
