<?xml version="1.0" encoding="utf-8"?>
<!-- Generator: Adobe Illustrator 19.0.0, SVG Export Plug-In . SVG Version: 6.00 Build 0)  -->
<svg version="1.1" id="Layer_1" xmlns="http://www.w3.org/2000/svg" xmlns:xlink="http://www.w3.org/1999/xlink" x="0px" y="0px"
	 viewBox="-18 183 427 427" style="enable-background:new -18 183 427 427;" xml:space="preserve">
<path d="M172.8,396.5c0-12.5,10.2-22.7,22.7-22.7c12.5,0,22.7,10.2,22.7,22.7c0,12.5-10.2,22.7-22.7,22.7
	C183,419.2,172.8,409,172.8,396.5z M195.5,337.4c-32.6,0-59.1,26.4-59.1,59.1s26.4,59.1,59.1,59.1c32.6,0,59.1-26.4,59.1-59.1
	S228.1,337.4,195.5,337.4z M42.5,439.9c3.5,12.3,8.4,23.9,14.5,34.7l-27.3,29.8c-7.8,7.8-7.8,20.4,0,28.3l29.5,29.5
	c7.8,7.8,20.4,7.8,28.3,0l29.8-27.3c10.8,6.2,22.4,11.1,34.7,14.5l2.5,40.5c0,11.1,8.9,20,20,20h41.8c11.1,0,20-8.9,20-20l2.5-40.5
	c12.3-3.4,23.9-8.4,34.7-14.5l29.8,27.3c7.8,7.8,20.4,7.8,28.3,0l29.5-29.5c7.8-7.8,7.8-20.4,0-28.3L334,474.6
	c6.2-10.8,11.1-22.4,14.5-34.7l40.5-2.5c11.1,0,20-8.9,20-20v-41.8c0-11.1-8.9-20-20-20l-40.5-2.5c-3.5-12.3-8.4-23.9-14.5-34.7
	l27.3-29.8c7.8-7.8,7.8-20.4,0-28.3l-29.5-29.5c-7.8-7.8-20.4-7.8-28.3,0L273.6,258c-10.8-6.2-22.4-11.1-34.7-14.5l-2.5-40.5
	c0-11.1-8.9-20-20-20h-41.8c-11.1,0-20,8.9-20,20l-2.5,40.5c-12.3,3.5-23.9,8.4-34.7,14.5l-29.8-27.3c-7.8-7.8-20.4-7.8-28.3,0
	l-29.5,29.5c-7.8,7.8-7.8,20.4,0,28.3L57,318.4c-6.2,10.8-11.1,22.4-14.5,34.7L2,355.6c-11.1,0-20,8.9-20,20v41.8
	c0,11.1,8.9,20,20,20L42.5,439.9z M195.5,301.1c52.7,0,95.4,42.7,95.4,95.4c0,52.7-42.7,95.4-95.4,95.4s-95.4-42.7-95.4-95.4
	C100.1,343.8,142.8,301.1,195.5,301.1z"/>
</svg>
