<?xml version="1.0" encoding="utf-8"?>
<!-- Generator: Adobe Illustrator 19.0.0, SVG Export Plug-In . SVG Version: 6.00 Build 0)  -->
<svg version="1.1" id="Layer_1" xmlns="http://www.w3.org/2000/svg" xmlns:xlink="http://www.w3.org/1999/xlink" x="0px" y="0px"
	 viewBox="54.7 178.9 281.6 436.1" style="enable-background:new 54.7 178.9 281.6 436.1;" xml:space="preserve">
<path d="M54.7,476.8c0,76.4,63.1,138.3,140.8,138.3c77.8,0,140.8-61.9,140.8-138.3
	c0-97.9-109.3-161.5-118.1-270.6v-4.5c0-12.5-10.2-22.7-22.7-22.7c-12.5,0-22.7,10.2-22.7,22.7v4.5
	C163.7,315.2,54.7,378.8,54.7,476.8z M215,533.3c19.6-4.5,35.2-21.3,39.8-39.5c1.6-8.5,9-15,17.9-15c10,0,18.2,8.2,18.2,18.2
	c0,13.1-11,33-26,47.9c-14.7,14.5-32.3,24.8-46.7,24.8c-10,0-18.2-8.4-18.2-18.4C200,542.3,206.5,534.8,215,533.3z"/>
</svg>
