<?xml version="1.0" encoding="utf-8"?>
<!-- Generator: Adobe Illustrator 19.0.0, SVG Export Plug-In . SVG Version: 6.00 Build 0)  -->
<svg version="1.1" id="Layer_1" xmlns="http://www.w3.org/2000/svg" xmlns:xlink="http://www.w3.org/1999/xlink" x="0px" y="0px"
	 viewBox="-11 143 36 42" style="enable-background:new -11 143 36 42;" xml:space="preserve">
<path d="M25,173.4v-25.9c0-2.5-2-4.5-4.5-4.5H9.2v17.3H9.1l-5.3-4.4l-5.3,4.4h-0.1V143h-4.7c-2.5,0-4.5,2-4.5,4.5v33
	c0,2.5,2,4.5,4.5,4.5h27c1.7,0,3.2-1,4-2.4c0.3-0.6-0.1-1.3-0.8-1.3H-4.5c-1.1,0-1.9-0.9-1.9-1.9v-0.9c0-1.1,0.9-1.9,1.9-1.9h26.4
	C23.6,176.6,25,175.1,25,173.4z"/>
</svg>
