<?xml version="1.0" encoding="utf-8"?>
<!-- Generator: Adobe Illustrator 19.0.0, SVG Export Plug-In . SVG Version: 6.00 Build 0)  -->
<svg version="1.1" id="Layer_1" xmlns="http://www.w3.org/2000/svg" xmlns:xlink="http://www.w3.org/1999/xlink" x="0px" y="0px"
	 viewBox="0 0 462 496.6" style="enable-background:new 0 0 462 496.6;" xml:space="preserve">
<path d="M190.5,496.6c0.1-1.7,0.3-3.3,0.3-5c0-66.1,0-132.3,0-198.4c0-1.8,0-3.6,0-6.2C127,287,63.7,287,0,287c0-26.7,0-52.6,0-79.1
	c63.3,0,126.7,0,190.5,0c0-69.5,0-138.4,0-207.8c27,0,53.5,0,80.7,0c0,69,0,138,0,207.6c63.9,0,127.1,0,190.7,0c0,26.4,0,52.3,0,79
	c-63.3,0-126.6,0-190.2,0c-0.2,2-0.5,3.3-0.5,4.6c0,67.8,0,135.6,0,203.4c0,0.7,0.1,1.3,0.2,2C244.5,496.6,217.5,496.6,190.5,496.6z
	"/>
</svg>
