<?xml version="1.0" encoding="utf-8"?>
<!-- Generator: Adobe Illustrator 19.0.0, SVG Export Plug-In . SVG Version: 6.00 Build 0)  -->
<svg version="1.1" id="Layer_1" xmlns="http://www.w3.org/2000/svg" xmlns:xlink="http://www.w3.org/1999/xlink" x="0px" y="0px"
	 viewBox="-8.9 192.1 408.9 408.9" style="enable-background:new -8.9 192.1 408.9 408.9;" xml:space="preserve">
<path d="M251.4,301.1c19.6,4.5,35.2,21.3,39.8,39.5c1.6,8.5,9,15,17.9,15c10,0,18.2-8.2,18.2-18.2
	c0-13.1-11-33-26-47.9c-14.7-14.5-32.3-24.8-46.7-24.8c-10,0-18.2,8.4-18.2,18.4C236.4,292.1,242.8,299.5,251.4,301.1z M1.6,539.3
	c-14.1,14.1-14.1,37,0,51.1c14.1,14.1,37,14.1,51,0L157,486.1c24.3,15.2,53.1,24,84,24c87.9,0,159-71.1,159-159
	c0-87.9-71.1-159-159-159c-87.9,0-159,71.1-159,159c0,30.8,8.8,59.6,24,84L1.6,539.3z M127.4,351.1c0-62.7,50.9-113.6,113.6-113.6
	s113.6,50.9,113.6,113.6c0,62.7-50.9,113.6-113.6,113.6S127.4,413.8,127.4,351.1z"/>
</svg>
