<?xml version="1.0" encoding="utf-8"?>
<!-- Generator: Adobe Illustrator 19.0.0, SVG Export Plug-In . SVG Version: 6.00 Build 0)  -->
<svg version="1.1" id="Layer_1" xmlns="http://www.w3.org/2000/svg" xmlns:xlink="http://www.w3.org/1999/xlink" x="0px" y="0px"
	 viewBox="-399.4 3450.3 809.5 809.2" style="enable-background:new -399.4 3450.3 809.5 809.2;" xml:space="preserve">
<g>
	<path d="M410.1,3764.9c-1,79.2-26.6,149.1-79.1,208.6c-46.4,52.5-104.3,85.6-172.8,99.9
		c-29.5,6.1-59.4,8-89.4,5.2c-47.9-4.3-92.8-18.4-134.2-43.2c-3.3-2-5.7-3.3-9.3,0.4c-58.8,59.2-117.8,118.3-176.9,177.3
		c-10.8,10.8-21.1,22.2-33.1,31.9c-24.5,19.7-62.5,19.5-87-0.4c-34.6-28-37-76.7-5.5-108.1c67.3-67.2,134.6-134.6,201.9-201.8
		c2.7-2.7,3-4.4,1-7.9c-23.2-38.8-37.6-80.6-42.7-125.6c-4.8-42.2-1.7-83.9,10.4-124.6c19.1-64.3,55.1-117.4,107.8-159.1
		c39.6-31.3,84.4-51.6,133.9-61.4c28.4-5.6,57.1-6.9,86-4.6c49.2,3.8,94.8,18.6,137,44.1c42.9,25.9,77.7,60.2,104.3,102.7
		c19.8,31.7,33.5,65.7,41.1,102.3C407.8,3721.6,410.1,3743.1,410.1,3764.9z M-129,3765c-1.1,122.4,99,223.1,220.9,224.6
		c127.5,1.6,225.2-100.3,228.2-218.6c3.2-128.6-101-232.3-227.4-230.9C-29.6,3541.5-130.2,3642.3-129,3765z"/>
	<path d="M120,3593.8c24.7,1.6,41.7,9.3,57.6,19.6c34.1,22.1,60.9,50.9,78.6,87.7
		c5.7,11.9,10.1,24.2,9.8,37.8c-0.3,16.8-13.3,32.3-29.6,34.7c-18.3,2.7-35.9-7.7-40.6-24.8c-4.4-16.1-10.7-31.1-21.2-44.2
		c-15.1-18.8-33.8-32.3-57.5-38c-17.2-4.1-27.8-14.9-30.6-30.2C82.9,3615.1,100.7,3592.2,120,3593.8z"/>
</g>
</svg>
