<?xml version="1.0" encoding="utf-8"?>
<!-- Generator: Adobe Illustrator 19.0.0, SVG Export Plug-In . SVG Version: 6.00 Build 0)  -->
<svg version="1.1" id="Layer_1" xmlns="http://www.w3.org/2000/svg" xmlns:xlink="http://www.w3.org/1999/xlink" x="0px" y="0px"
	 viewBox="0 0 343.8 343.8" style="enable-background:new 0 0 343.8 343.8;" xml:space="preserve">
<path d="M210.1,185.9c9-9,17.6-17.8,26.5-26.4c1.6-1.6,4.1-2.9,6.3-3.1c11.5-0.9,22.9-1.3,34.4-2.1c18.4-1.2,33.6-9.1,45.2-23.4
	c5.7-7,10.8-14.4,15.7-21.9c8.6-13.2,7.1-31-3-42.8c-5-5.9-9.3-6.1-14.7-0.8c-9.6,9.5-19,19.1-28.7,28.6c-6.7,6.6-14.4,6.5-21.1-0.1
	c-6.9-6.8-13.7-13.6-20.5-20.5c-7.2-7.3-7.2-14.8,0.1-22.2c9.3-9.3,18.6-18.6,27.9-27.9c5.4-5.4,5.2-9.6-0.7-14.7
	c-12-10.4-30.1-11.6-43.6-2.6c-6.7,4.4-13.2,9-19.6,13.8c-13,9.9-21.6,22.9-23.9,39c-1.9,13.7-2,27.5-3.1,41.3
	c-0.2,2.4-1.3,5.2-3,6.9c-7.4,7.7-15,15.1-22.6,22.7c-0.1-0.1-0.2-0.2-0.3-0.3c-0.4,0.4-5.2,5.4-11.6,11.8
	c-18.9-18.9-37.7-37.8-56.5-56.7c-1.5-1.5-2.9-4.3-2.5-6.2c1.3-6.9-0.7-12.4-5.5-17.2c-8.9-8.8-17.7-17.6-26.5-26.5
	c-5-5.1-9.8-10.4-14.4-15.2C32.1,31.9,20.4,43.4,8.9,54.8c14.3,14.5,28.7,29.3,43.3,43.8c3.8,3.8,8.9,4.7,14,3.4
	c3.3-0.8,5.1,0.3,7.2,2.4c18.9,18.9,37.8,37.9,56.7,56.8c-6.7,6.7-11.9,12-12.3,12.4c-18.9,19-37.9,38-56.9,56.9
	c-16.6,16.6-33.3,33.2-49.8,49.9c-11.9,12-14.5,28.9-7,43.2c11.8,22.6,41,26.8,59.6,8.3c36-35.8,71.9-71.8,107.8-107.8
	c0.3-0.3,4.8-4.9,10.9-10.9c3.1,2.9,6.5,5.7,9.9,8.7c-6.5,6.3-12,11.4-17.2,16.8c-4.5,4.7-5.1,11.2-2,16.6c3.1,5.4,9.2,8.1,15.4,6.5
	c2.3-0.6,4.5-1.9,7.9-3.4c0.8,1.2,1.7,2.9,3,4.2c23.2,23.3,46.4,46.5,69.6,69.7c9.9,9.8,21.8,13.5,35.3,10.1
	c28.1-7,37.5-40.9,17.2-61.7c-14.9-15.3-30.1-30.2-45.2-45.3c-9.7-9.6-19.4-19.2-28.9-28.6c5.4-9.3,4.6-16.7-1.7-21.5
	c-6.5-4.9-13.5-3.7-20.7,3.7c-4.4,4.5-8.6,9.2-13.3,14.3c-3.3-3.4-6.5-6.6-9.6-9.7c3.1-3.1,5.8-5.9,7.9-7.9
	C210,185.8,210.1,185.8,210.1,185.9z M39.6,319.8c-8.2,0.2-15.1-6.4-15.3-14.6c-0.3-8.7,6.5-15.8,15.1-15.8c8.1,0,15,6.7,15.1,14.9
	C54.7,312.6,48,319.6,39.6,319.8z"/>
</svg>
