<?xml version="1.0" encoding="utf-8"?>
<!-- Generator: Adobe Illustrator 18.0.0, SVG Export Plug-In . SVG Version: 6.00 Build 0)  -->
<!DOCTYPE svg PUBLIC "-//W3C//DTD SVG 1.1//EN" "http://www.w3.org/Graphics/SVG/1.1/DTD/svg11.dtd">
<svg version="1.1" id="Layer_1" xmlns="http://www.w3.org/2000/svg" xmlns:xlink="http://www.w3.org/1999/xlink" x="0px" y="0px"
	 viewBox="0 0 119.5 69.7" enable-background="new 0 0 119.5 69.7" xml:space="preserve">
<g id="CHINA_3_">
	<g>
		<g>
			<defs>
				<rect id="SVGID_11_" x="0" y="0" width="119.5" height="69.7"/>
			</defs>
			<clipPath id="SVGID_1_">
				<use xlink:href="#SVGID_11_"  overflow="visible"/>
			</clipPath>
			<rect x="0" y="0" clip-path="url(#SVGID_1_)" fill="#CB1D23" width="119.5" height="69.7"/>
			<polygon clip-path="url(#SVGID_1_)" fill="#F7DE29" points="11.5,25.2 13.7,18.3 7.8,14 15.1,13.9 17.4,7 19.7,13.9 27,14 
				21.1,18.3 23.3,25.2 17.4,20.9 			"/>
			<polygon clip-path="url(#SVGID_1_)" fill="#F7DE29" points="31.9,29 34.3,30 36.1,27.9 35.9,30.6 38.3,31.6 35.8,32.3 35.6,34.9 
				34.2,32.6 31.6,33.3 33.3,31.2 			"/>
			<polygon clip-path="url(#SVGID_1_)" fill="#F7DE29" points="45.2,15.6 42.6,15.2 41.4,17.5 41,14.9 38.4,14.4 40.7,13.2 
				40.4,10.6 42.2,12.5 44.6,11.4 43.4,13.7 			"/>
			<polygon clip-path="url(#SVGID_1_)" fill="#F7DE29" points="39.7,27.5 40.5,25 38.3,23.4 41,23.4 41.8,20.9 42.6,23.4 45.3,23.4 
				43.2,25 44,27.5 41.8,26 			"/>
			<polygon clip-path="url(#SVGID_1_)" fill="#F7DE29" points="32,4.4 34.4,5.5 36.2,3.6 35.9,6.2 38.3,7.4 35.7,7.9 35.4,10.5 
				34.1,8.2 31.5,8.7 33.3,6.7 			"/>
		</g>
	</g>
</g>
</svg>
