<?xml version="1.0" encoding="utf-8"?>
<!-- Generator: Adobe Illustrator 18.0.0, SVG Export Plug-In . SVG Version: 6.00 Build 0)  -->
<!DOCTYPE svg PUBLIC "-//W3C//DTD SVG 1.1//EN" "http://www.w3.org/Graphics/SVG/1.1/DTD/svg11.dtd">
<svg version="1.1" id="Layer_1" xmlns="http://www.w3.org/2000/svg" xmlns:xlink="http://www.w3.org/1999/xlink" x="0px" y="0px"
	 viewBox="0 0 119.5 69.7" enable-background="new 0 0 119.5 69.7" xml:space="preserve">
<g id="LATVIA_2_">
	<g>
		<g>
			<defs>
				<rect id="SVGID_3_" x="632.5" y="-208.5" width="119.5" height="69.7"/>
			</defs>
			<clipPath id="SVGID_1_">
				<use xlink:href="#SVGID_3_"  overflow="visible"/>
			</clipPath>
			<rect x="632.5" y="-208.5" clip-path="url(#SVGID_1_)" fill="#7B132A" width="119.5" height="69.7"/>
			<rect x="632.5" y="-180.6" clip-path="url(#SVGID_1_)" fill="#FFFFFF" width="119.5" height="13.9"/>
		</g>
	</g>
</g>
<g id="UNITED_KINGDOM_2_">
	<g>
		<g>
			<defs>
				<rect id="SVGID_2_" x="632.5" y="-104.2" width="119.5" height="69.7"/>
			</defs>
			<clipPath id="SVGID_4_">
				<use xlink:href="#SVGID_2_"  overflow="visible"/>
			</clipPath>
			<rect x="632.5" y="-104.2" clip-path="url(#SVGID_4_)" fill="#FFFFFF" width="119.5" height="69.7"/>
			<polygon clip-path="url(#SVGID_4_)" fill="#BD0034" points="712.5,-79 752,-101.1 752,-104.2 749.2,-104.2 704.2,-79 			"/>
			<polygon clip-path="url(#SVGID_4_)" fill="#BD0034" points="710.6,-58.3 752,-35.2 752,-39.8 718.9,-58.3 			"/>
			<polygon clip-path="url(#SVGID_4_)" fill="#BD0034" points="632.5,-98.9 667.8,-79 676.1,-79 632.5,-103.5 			"/>
			<polygon clip-path="url(#SVGID_4_)" fill="#BD0034" points="674.2,-58.3 632.5,-34.9 632.5,-34.5 640,-34.5 682.5,-58.3 			"/>
			<polygon clip-path="url(#SVGID_4_)" fill="#1A237B" points="743.8,-104.2 701.9,-104.2 701.9,-80.8 			"/>
			<polygon clip-path="url(#SVGID_4_)" fill="#1A237B" points="683.5,-104.2 641.8,-104.2 683.5,-80.8 			"/>
			<polygon clip-path="url(#SVGID_4_)" fill="#1A237B" points="752,-79 752,-95 723.6,-79 			"/>
			<polygon clip-path="url(#SVGID_4_)" fill="#1A237B" points="752,-42.5 752,-58.3 723.6,-58.3 			"/>
			<polygon clip-path="url(#SVGID_4_)" fill="#1A237B" points="644.2,-34.5 683.5,-34.5 683.5,-56.5 			"/>
			<polygon clip-path="url(#SVGID_4_)" fill="#1A237B" points="701.9,-34.5 741.4,-34.5 701.9,-56.5 			"/>
			<polygon clip-path="url(#SVGID_4_)" fill="#1A237B" points="632.5,-58.3 632.5,-41.8 661.8,-58.3 			"/>
			<polygon clip-path="url(#SVGID_4_)" fill="#1A237B" points="632.5,-79 661.8,-79 632.5,-95.6 			"/>
			<polygon clip-path="url(#SVGID_4_)" fill="#BD0034" points="687.2,-104.2 687.2,-74.9 632.5,-74.9 632.5,-62.5 687.2,-62.5 
				687.2,-34.5 698.3,-34.5 698.3,-62.5 752,-62.5 752,-74.9 698.3,-74.9 698.3,-104.2 			"/>
		</g>
	</g>
</g>
<g id="RUSSIA_3_">
	<g>
		<g>
			<defs>
				<rect id="SVGID_5_" x="632.5" y="0" width="119.4" height="69.7"/>
			</defs>
			<clipPath id="SVGID_6_">
				<use xlink:href="#SVGID_5_"  overflow="visible"/>
			</clipPath>
			<rect x="632.5" y="0" clip-path="url(#SVGID_6_)" fill="#F4F4F4" width="119.4" height="23.2"/>
			<rect x="632.5" y="23.3" clip-path="url(#SVGID_6_)" fill="#323E95" width="119.4" height="23.2"/>
			<rect x="632.5" y="46.5" clip-path="url(#SVGID_6_)" fill="#D8001E" width="119.4" height="23.2"/>
		</g>
	</g>
</g>
<g id="ITALY_3_">
	<g>
		<g>
			<defs>
				<rect id="SVGID_7_" x="0" y="-521.2" width="119.4" height="69.6"/>
			</defs>
			<clipPath id="SVGID_8_">
				<use xlink:href="#SVGID_7_"  overflow="visible"/>
			</clipPath>
			<rect x="0" y="-521.2" clip-path="url(#SVGID_8_)" fill="#009246" width="39.8" height="69.6"/>
			<rect x="39.8" y="-521.2" clip-path="url(#SVGID_8_)" fill="#F1F2F1" width="39.8" height="69.6"/>
			<rect x="79.6" y="-521.2" clip-path="url(#SVGID_8_)" fill="#CE2B37" width="39.8" height="69.6"/>
		</g>
	</g>
</g>
<g id="FRANCE_2_">
	<g>
		<g>
			<defs>
				<rect id="SVGID_9_" x="0" y="-417" width="119.5" height="69.7"/>
			</defs>
			<clipPath id="SVGID_10_">
				<use xlink:href="#SVGID_9_"  overflow="visible"/>
			</clipPath>
			<rect x="0" y="-417" clip-path="url(#SVGID_10_)" fill="#323E95" width="39.8" height="69.7"/>
			<rect x="39.8" y="-417" clip-path="url(#SVGID_10_)" fill="#F4F4F4" width="39.8" height="69.7"/>
			<rect x="79.7" y="-417" clip-path="url(#SVGID_10_)" fill="#D80031" width="39.8" height="69.7"/>
		</g>
	</g>
</g>
<g id="CHINA_3_">
	<g>
		<g>
			<defs>
				<rect id="SVGID_11_" x="0" y="-312.7" width="119.5" height="69.7"/>
			</defs>
			<clipPath id="SVGID_12_">
				<use xlink:href="#SVGID_11_"  overflow="visible"/>
			</clipPath>
			<rect x="0" y="-312.7" clip-path="url(#SVGID_12_)" fill="#CB1D23" width="119.5" height="69.7"/>
			<polygon clip-path="url(#SVGID_12_)" fill="#F7DE29" points="11.5,-287.5 13.7,-294.5 7.8,-298.8 15.1,-298.8 17.4,-305.7 
				19.7,-298.8 27,-298.8 21.1,-294.5 23.3,-287.5 17.4,-291.8 			"/>
			<polygon clip-path="url(#SVGID_12_)" fill="#F7DE29" points="31.9,-283.8 34.3,-282.8 36.1,-284.8 35.9,-282.1 38.3,-281.1 
				35.8,-280.5 35.6,-277.9 34.2,-280.1 31.6,-279.5 33.3,-281.5 			"/>
			<polygon clip-path="url(#SVGID_12_)" fill="#F7DE29" points="45.2,-297.1 42.6,-297.6 41.4,-295.2 41,-297.9 38.4,-298.3 
				40.7,-299.5 40.4,-302.1 42.2,-300.2 44.6,-301.4 43.4,-299 			"/>
			<polygon clip-path="url(#SVGID_12_)" fill="#F7DE29" points="39.7,-285.2 40.5,-287.8 38.3,-289.3 41,-289.3 41.8,-291.9 
				42.6,-289.3 45.3,-289.3 43.2,-287.8 44,-285.2 41.8,-286.8 			"/>
			<polygon clip-path="url(#SVGID_12_)" fill="#F7DE29" points="32,-308.3 34.4,-307.2 36.2,-309.1 35.9,-306.5 38.3,-305.4 
				35.7,-304.9 35.4,-302.2 34.1,-304.5 31.5,-304.1 33.3,-306 			"/>
		</g>
	</g>
</g>
<g id="PORTUGAL_2_">
	<g>
		<g>
			<defs>
				<rect id="SVGID_13_" x="0" y="-208.2" width="118.6" height="69.2"/>
			</defs>
			<clipPath id="SVGID_14_">
				<use xlink:href="#SVGID_13_"  overflow="visible"/>
			</clipPath>
			<rect x="41.5" y="-208.2" clip-path="url(#SVGID_14_)" fill="#EA0020" width="77.1" height="69.2"/>
			<rect x="0" y="-208.2" clip-path="url(#SVGID_14_)" fill="#2A680B" width="41.5" height="69.2"/>
			<g clip-path="url(#SVGID_14_)">
				<defs>
					<rect id="SVGID_15_" x="0" y="-208.2" width="118.6" height="69.2"/>
				</defs>
				<clipPath id="SVGID_16_">
					<use xlink:href="#SVGID_15_"  overflow="visible"/>
				</clipPath>
				<path clip-path="url(#SVGID_16_)" fill="#FCFF2C" d="M55-162.9c-5.2-0.2-29.1-15.1-29.3-17.5l1.3-2.2c2.4,3.5,26.8,18,29.2,17.5
					L55-162.9L55-162.9z"/>
				<path clip-path="url(#SVGID_16_)" fill="#FCFF2C" d="M26.7-182.9c-0.5,1.3,6.3,5.4,14.3,10.3c8.1,4.9,15,8,15.6,7.5
					c0-0.1,0.3-0.4,0.2-0.4c-0.1,0.2-0.3,0.2-0.7,0.1c-2.2-0.6-7.9-3.2-14.9-7.5c-7.1-4.3-13.2-8.2-14.1-9.9
					c-0.1-0.1-0.1-0.3-0.1-0.5h0L26.7-182.9L26.7-182.9L26.7-182.9z M55.1-162.8c-0.1,0.2-0.2,0.2-0.6,0.1c-2-0.2-7.9-3.1-14.9-7.3
					c-8.2-4.9-14.9-9.3-14.2-10.5l0.2-0.4l0,0c-0.7,2,13.3,10,14.1,10.5c8.1,5,14.9,7.9,15.5,7.2L55.1-162.8L55.1-162.8z"/>
				<g clip-path="url(#SVGID_16_)">
					<path d="M54.8-162.6c-0.1,0-0.1,0-0.2,0c-2-0.2-8-3.2-14.9-7.3c-9.3-5.5-13.9-8.9-14.2-10.2c0-0.1,0-0.3,0-0.4l0.2-0.3
						c0,0,0,0.1,0,0.1l-0.1,0.3c-0.1,0.1-0.1,0.2,0,0.3c0.3,1.3,5,4.6,14.2,10.1c6.9,4.1,12.9,7.1,14.9,7.3c0.3,0,0.4,0,0.5-0.1
						l0.1-0.2c-0.1,0-0.1,0-0.3,0c-1.6,0-7.7-2.7-15.1-7.3c-0.1,0-0.3-0.2-0.6-0.3c-9-5.3-13.6-8.7-13.6-10
						c0.2,0.9,2.3,3.2,13.7,9.9c0.3,0.2,0.5,0.3,0.6,0.3c7.4,4.6,13.4,7.3,15.1,7.3c0.2,0,0.3,0,0.4-0.1l0,0c0,0,0,0.1,0,0.1
						l-0.1,0.3C55.1-162.7,54.9-162.6,54.8-162.6L54.8-162.6z M56.4-165c-1.2,0-7.8-2.9-15.4-7.6c-8.7-5.3-14.8-9.1-14.3-10.4
						l0.2-0.4c0,0,0,0,0,0l-0.1,0.4c-0.5,1.3,7.4,6.1,14.3,10.3c7.6,4.6,14.2,7.6,15.4,7.6c0.1,0,0.1,0,0.1,0c0-0.1,0.1-0.2,0.1-0.2
						c-0.1,0.1-0.3,0.1-0.6,0c-2.4-0.7-8.3-3.5-14.9-7.5c-6.4-3.9-13.1-8.1-14.2-9.9c-0.1-0.1-0.1-0.3-0.1-0.5
						c0.1,0.2,0.1,0.4,0.2,0.5c1,1.8,8.1,6.2,14.1,9.9c6.6,4,12.5,6.8,14.9,7.5c0.3,0.1,0.6,0.1,0.6-0.1c0.1,0,0.1,0-0.1,0.4
						C56.6-165,56.5-165,56.4-165L56.4-165z"/>
				</g>
				<path clip-path="url(#SVGID_16_)" fill="#FCFF2C" d="M41.5-179c5.2,0,11.7-0.7,15.4-2.2l-0.8-1.3c-2.2,1.2-8.7,2-14.6,2.1
					c-7-0.1-12-0.7-14.5-2.4l-0.8,1.4C30.8-179.4,35.5-179,41.5-179L41.5-179z"/>
				<path clip-path="url(#SVGID_16_)" fill="#FCFF2C" d="M57.1-181.1c-0.1,0.2-2.5,1-6.1,1.7c-2.4,0.4-5.6,0.7-9.5,0.7
					c-3.7,0-6.8-0.3-9.1-0.6c-3.7-0.6-5.7-1.4-6.4-1.7c0.1-0.1,0.1-0.2,0.2-0.3c2.1,0.8,4,1.3,6.3,1.7c2.3,0.3,5.3,0.6,9,0.6
					c3.9,0,7-0.3,9.4-0.7c3.7-0.6,5.7-1.3,5.9-1.7L57.1-181.1L57.1-181.1z M56.4-182.4c-0.4,0.3-2.4,1-5.8,1.6
					c-2.3,0.3-5.3,0.6-9,0.6c-3.6,0-6.5-0.2-8.7-0.6c-3.5-0.5-5.4-1.3-6.1-1.5c0.1-0.1,0.1-0.2,0.2-0.3c0.5,0.3,2.3,1,5.9,1.5
					c2.2,0.3,5.1,0.5,8.7,0.5c3.8,0,6.7-0.3,9-0.6c3.5-0.5,5.4-1.4,5.7-1.6L56.4-182.4L56.4-182.4z"/>
				<g clip-path="url(#SVGID_16_)">
					<path d="M41.4-178.7c-3.2,0-6.2-0.2-9-0.6c-3.6-0.6-5.6-1.4-6.3-1.7l0-0.2l0.1-0.2c2,0.8,4,1.3,6.3,1.6c2.8,0.4,5.8,0.6,9,0.6
						c3.2,0,6.3-0.2,9.5-0.7c3.6-0.6,5.6-1.3,5.9-1.7l0.3,0.5c-0.2,0.3-2.7,1.1-6.1,1.7c-3,0.5-6.2,0.7-9.5,0.7H41.4L41.4-178.7z
						 M26.2-181.4L26-181c0.8,0.3,2.7,1.1,6.4,1.6c2.8,0.4,5.8,0.6,9,0.6v0.1l0.1-0.1c3.3,0,6.5-0.2,9.5-0.7c3.7-0.6,6-1.5,6.1-1.6
						l-0.3-0.4c-0.2,0.3-2,1.1-5.9,1.7c-3.2,0.5-6.3,0.7-9.4,0.7c-3.2,0-6.2-0.2-9-0.6C30.1-180.1,28.1-180.6,26.2-181.4L26.2-181.4
						z M41.5-180.2c-3.2,0-6.2-0.2-8.7-0.6c-3.1-0.4-4.9-1.1-5.8-1.4l-0.3-0.1l0.1-0.3c0,0,0.1-0.1,0.1-0.1c0.3,0.2,2,1,5.9,1.5
						c1.7,0.2,4.6,0.5,8.6,0.5c3.2,0,6-0.2,9-0.6c3.3-0.5,5.3-1.3,5.6-1.6l0.3,0.4c-0.4,0.4-2.3,1.1-5.9,1.6
						C47.6-180.4,44.7-180.2,41.5-180.2L41.5-180.2L41.5-180.2z M26.9-182.6l-0.1,0.3l0.3,0c0.9,0.3,2.7,1,5.8,1.4
						c2.5,0.4,5.5,0.6,8.7,0.6v0l0.1,0c3.2,0,6-0.2,9-0.6c3.5-0.6,5.4-1.3,5.8-1.6l-0.3-0.4c-0.2,0.2-2,1.1-5.6,1.6
						c-3,0.4-5.9,0.6-9,0.6c-4,0-7-0.3-8.7-0.5C29-181.7,27.2-182.5,26.9-182.6L26.9-182.6z"/>
				</g>
				<path clip-path="url(#SVGID_16_)" fill="#FCFF2C" d="M24.3-172.7c3.2,1.7,10.4,2.6,17.1,2.7c6.2,0,14.2-0.9,17.2-2.5l-0.1-1.7
					c-0.9,1.5-9.5,2.9-17.1,2.8c-7.6-0.1-14.7-1.2-17.1-2.8L24.3-172.7L24.3-172.7z"/>
				<path clip-path="url(#SVGID_16_)" fill="#FCFF2C" d="M58.8-172.9v0.4c-0.4,0.5-3.3,1.4-6.8,1.9c-2.7,0.4-6.2,0.7-10.6,0.7
					c-4.2,0-7.5-0.3-10-0.7c-4.1-0.6-6.7-1.6-7.2-1.9v-0.5c1.6,1,5.8,1.8,7.2,2c2.6,0.4,5.9,0.7,10,0.7c4.4,0,7.8-0.3,10.5-0.7
					C54.4-171.3,58.1-172.3,58.8-172.9L58.8-172.9z M58.8-174.4v0.4c-0.4,0.5-3.3,1.4-6.8,1.9c-2.7,0.4-6.2,0.7-10.6,0.7
					c-4.2,0-7.5-0.3-10-0.7c-4.1-0.6-6.7-1.6-7.2-1.9l0-0.5c1.6,1,5.8,1.8,7.2,2c2.6,0.4,5.9,0.7,10,0.7c4.4,0,7.8-0.3,10.5-0.7
					C54.4-172.8,58.1-173.7,58.8-174.4L58.8-174.4z"/>
				<g clip-path="url(#SVGID_16_)">
					<path d="M41.4-169.8c-3.7,0-7.1-0.2-10.1-0.7c-3.9-0.6-6.6-1.6-7.2-1.9l0-0.5c1.7,1,6,1.8,7.3,2c3,0.5,6.3,0.7,10,0.7
						c3.9,0,7.4-0.2,10.5-0.7c2.5-0.4,6.1-1.3,6.8-1.9l0.1,0.5c-0.5,0.6-3.4,1.4-6.9,2C48.8-170,45.3-169.8,41.4-169.8L41.4-169.8z
						 M24.1-172.9l0.1,0.4c0.4,0.2,2.9,1.3,7.1,1.9c3,0.5,6.4,0.7,10,0.7c3.9,0,7.4-0.2,10.6-0.7c3.4-0.6,6.3-1.4,6.8-1.9l0-0.4
						c-0.6,0.7-4.3,1.6-6.8,2c-3.1,0.5-6.7,0.7-10.5,0.7c-3.7,0-7-0.2-10-0.7C29.7-171.1,25.7-171.9,24.1-172.9L24.1-172.9z
						 M41.4-171.3c-3.7,0-7.1-0.2-10.1-0.7c-3.9-0.6-6.6-1.6-7.2-1.9l0-0.5c1.6,1,6,1.8,7.3,2c3,0.5,6.3,0.7,10,0.7
						c3.9,0,7.4-0.2,10.5-0.7c2.5-0.4,6.1-1.3,6.8-1.9l0.1,0.4c-0.5,0.6-3.4,1.4-6.9,2C48.8-171.5,45.3-171.3,41.4-171.3L41.4-171.3
						z M24.1-174.4l0.1,0.4c0.4,0.2,2.9,1.3,7.1,1.9c3,0.5,6.4,0.7,10,0.7c3.9,0,7.5-0.2,10.6-0.7c3.4-0.6,6.3-1.4,6.8-1.9l0-0.4
						c-0.6,0.7-4.3,1.6-6.8,2c-3.1,0.5-6.7,0.7-10.5,0.7c-3.7,0-7-0.2-10-0.7C29.7-172.6,25.7-173.4,24.1-174.4L24.1-174.4z"/>
				</g>
				<path clip-path="url(#SVGID_16_)" fill="#FCFF2C" d="M41.4-163.2c-7.4,0-13.7-2-15.1-2.3l1,1.5c2.4,1,8.5,2.5,14.2,2.3
					c5.6-0.2,10.5-0.6,14-2.3l1-1.6C54.1-164.5,46.1-163.2,41.4-163.2L41.4-163.2z"/>
				<path clip-path="url(#SVGID_16_)" fill="#FCFF2C" d="M55.9-164.4c-0.1,0.2-0.3,0.4-0.4,0.7c-1.6,0.6-4.2,1.2-5.3,1.4
					c-2.2,0.5-5.6,0.8-8.7,0.8c-6.5-0.1-11.9-1.4-14.4-2.5l-0.2-0.4l0-0.1l0.3,0.1c4.5,1.6,9.5,2.2,14.3,2.4c3,0,6.1-0.3,8.5-0.8
					c3.8-0.8,5.3-1.3,5.7-1.6L55.9-164.4L55.9-164.4z M56.7-165.8C56.7-165.8,56.7-165.8,56.7-165.8c-0.1,0.2-0.2,0.4-0.3,0.6
					c-0.9,0.3-3.2,1-6.7,1.5c-2.3,0.3-3.7,0.6-8.2,0.7c-8.5-0.2-14-1.9-15.3-2.3l-0.2-0.4c4.9,1.3,9.9,2.2,15.4,2.3
					c4.1-0.1,5.9-0.4,8.1-0.7c4-0.6,6-1.3,6.7-1.5c0,0,0,0,0,0L56.7-165.8L56.7-165.8z"/>
				<g clip-path="url(#SVGID_16_)">
					<path d="M41.4-161.5L41.4-161.5c-6.7-0.1-12-1.4-14.4-2.5l-0.2-0.4c0,0,0.1-0.1,0.1-0.1l0,0l0.4,0.1c4,1.4,8.8,2.2,14.3,2.4
						c0,0,0,0,0,0c3.4,0,6.5-0.4,8.5-0.8c4.2-0.8,5.5-1.4,5.7-1.6c0,0,0.1,0,0.1,0c0,0,0,0,0,0l0,0l0,0c0,0,0.1,0,0,0
						c-0.1,0.2-0.3,0.4-0.4,0.7c-1.6,0.6-4.2,1.2-5.3,1.4C47.8-161.8,44.4-161.5,41.4-161.5L41.4-161.5z M26.8-164.4l0.2,0.3
						c2.7,1.1,8.2,2.4,14.4,2.4c2.9,0,6.4-0.3,8.7-0.8c1.1-0.2,3.7-0.8,5.3-1.3c0.1-0.2,0.2-0.3,0.3-0.5c-0.4,0.2-1.7,0.8-5.7,1.6
						c-2,0.4-5.1,0.8-8.4,0.8l0,0c-5.6-0.1-10.4-0.9-14.4-2.4L26.8-164.4L26.8-164.4z M41.5-163L41.5-163
						c-7.5-0.2-12.8-1.5-15.3-2.3l-0.2-0.4c5.7,1.4,10.6,2.1,15.5,2.2c3.7-0.1,5.5-0.3,7.4-0.6l0.7-0.1c3.9-0.6,5.9-1.2,6.6-1.4
						l0.5-0.2l0,0l-0.4,0.2c-0.7,0.3-2.8,0.9-6.6,1.5l-0.7,0.1c-1.9,0.3-3.7,0.5-7.4,0.6c-4.9-0.1-9.8-0.8-15.5-2.3l0.3,0.3
						C28.7-164.6,34-163.3,41.5-163c3.8-0.2,5.4-0.4,7.2-0.7l1-0.1c3.1-0.4,5.5-1.1,6.7-1.5l0.3-0.5l-0.3,0.6
						c-1.2,0.4-3.6,1.1-6.7,1.5l-1,0.1C46.9-163.3,45.4-163,41.5-163L41.5-163L41.5-163z"/>
				</g>
				<path clip-path="url(#SVGID_16_)" fill="#FCFF2C" d="M41.4-189c8.5,0,15.3,6.9,15.3,15.4s-6.9,15.4-15.3,15.4
					c-8.5,0-15.4-6.9-15.4-15.4C26.1-182.1,33-189,41.4-189L41.4-189z M41.4-190.5c9.3,0,16.9,7.6,16.9,16.9
					c0,9.3-7.6,16.9-16.9,16.9c-9.3,0-16.9-7.6-16.9-16.9C24.6-183,32.1-190.5,41.4-190.5L41.4-190.5z"/>
				<path clip-path="url(#SVGID_16_)" fill="#FCFF2C" d="M41.5-190.7c9.4,0,17.1,7.7,17.1,17.1c0,9.4-7.7,17.1-17.1,17.1
					c-9.4,0-17.1-7.7-17.1-17.1C24.3-183.1,32-190.7,41.5-190.7L41.5-190.7z M41.5-190.4c9.2,0,16.7,7.5,16.7,16.7
					c0,9.2-7.6,16.7-16.7,16.7c-9.2,0-16.7-7.5-16.7-16.7C24.7-182.8,32.3-190.4,41.5-190.4L41.5-190.4z"/>
				<g clip-path="url(#SVGID_16_)">
					<path d="M41.5-156.5c-9.5,0-17.2-7.7-17.2-17.2c0-9.5,7.7-17.2,17.2-17.2c9.5,0,17.2,7.7,17.2,17.2
						C58.6-164.2,50.9-156.5,41.5-156.5L41.5-156.5z M41.5-190.7c-9.4,0-17.1,7.7-17.1,17.1c0,9.4,7.7,17.1,17.1,17.1
						c9.4,0,17.1-7.7,17.1-17.1C58.5-183,50.9-190.7,41.5-190.7L41.5-190.7z M41.5-156.8c-9.3,0-16.8-7.5-16.8-16.8
						c0-9.3,7.5-16.8,16.8-16.8c9.3,0,16.8,7.5,16.8,16.8C58.2-164.4,50.7-156.8,41.5-156.8L41.5-156.8z M41.5-190.3
						c-9.2,0-16.7,7.5-16.7,16.7c0,9.2,7.5,16.7,16.7,16.7c9.2,0,16.7-7.5,16.7-16.7C58.1-182.8,50.6-190.3,41.5-190.3L41.5-190.3z"
						/>
				</g>
				<path clip-path="url(#SVGID_16_)" fill="#FCFF2C" d="M41.5-189.3c8.6,0,15.7,7.1,15.7,15.7c0,8.6-7.1,15.7-15.7,15.7
					c-8.6,0-15.7-7.1-15.7-15.7C25.8-182.3,32.9-189.3,41.5-189.3L41.5-189.3z M41.5-188.9c8.4,0,15.3,6.9,15.3,15.3
					c0,8.4-6.9,15.3-15.3,15.3c-8.4,0-15.3-6.9-15.3-15.3C26.2-182.1,33.1-188.9,41.5-188.9L41.5-188.9z"/>
				<g clip-path="url(#SVGID_16_)">
					<path d="M41.5-157.9c-8.7,0-15.7-7.1-15.7-15.7c0-8.7,7.1-15.7,15.7-15.7c8.7,0,15.7,7.1,15.7,15.7
						C57.2-165,50.1-157.9,41.5-157.9L41.5-157.9z M41.5-189.3c-8.6,0-15.6,7-15.6,15.6c0,8.6,7,15.6,15.6,15.6
						c8.6,0,15.6-7,15.6-15.6C57.1-182.3,50.1-189.3,41.5-189.3L41.5-189.3z M41.5-158.3c-8.5,0-15.3-6.9-15.3-15.4
						c0-8.5,6.9-15.4,15.3-15.4c8.5,0,15.3,6.9,15.3,15.4C56.8-165.2,49.9-158.3,41.5-158.3L41.5-158.3z M41.5-188.9
						c-8.4,0-15.3,6.8-15.3,15.3c0,8.4,6.8,15.3,15.3,15.3c8.4,0,15.2-6.8,15.2-15.3C56.7-182.1,49.9-188.9,41.5-188.9L41.5-188.9z"
						/>
				</g>
				<rect x="40.8" y="-190.8" clip-path="url(#SVGID_16_)" fill="#FCFF2C" width="1.5" height="34.4"/>
				<g clip-path="url(#SVGID_16_)">
					<path fill="none" d="M41-190.8h1H41z"/>
				</g>
				<g clip-path="url(#SVGID_16_)">
					<path fill="none" d="M41-156.4h1H41z"/>
				</g>
				<path clip-path="url(#SVGID_16_)" fill="#FCFF2C" d="M42-191h0.4v34.8H42V-191L42-191z M40.5-191h0.4l0,34.8h-0.4V-191L40.5-191
					z"/>
				<g clip-path="url(#SVGID_16_)">
					<path d="M42.4-156.2H42L42-191l0.4,0V-156.2C42.4-156.2,42.4-156.2,42.4-156.2C42.4-156.2,42.4-156.2,42.4-156.2L42.4-156.2z
						 M42.3-191L42-191l0,34.8l0.3,0V-191L42.3-191z M40.9-156.2h-0.4l0-34.9l0.4,0L40.9-156.2C41-156.2,41-156.2,40.9-156.2
						C41-156.2,40.9-156.2,40.9-156.2L40.9-156.2z M40.9-191l-0.3,0.1l0.1,34.8l0.3,0V-191L40.9-191z"/>
				</g>
				<path clip-path="url(#SVGID_16_)" fill="#FCFF2C" d="M24.3-174.4c2.1-2,10.1-3.3,17.1-3.2c7,0,15.3,1.5,17.2,3.2l0,1.5
					c-1.5-1.4-8-3.1-17.2-3.1c-9.2,0-15.8,1.7-17.1,3.2V-174.4L24.3-174.4z"/>
				<g clip-path="url(#SVGID_16_)">
					<path d="M24.3-173l-0.1-1.3c0-0.1,0.1-0.1,0.1,0V-173L24.3-173z"/>
				</g>
				<g clip-path="url(#SVGID_16_)">
					<path d="M58.6-173l-0.1-1.3c0-0.1,0.1-0.1,0.1,0V-173L58.6-173z"/>
				</g>
				<path clip-path="url(#SVGID_16_)" fill="#FCFF2C" d="M41.5-176.3c4,0,8,0.4,11.1,1c3.2,0.6,5.5,1.4,6.2,2.4v0.4
					c-0.9-1.1-4-1.9-6.3-2.4c-3.1-0.6-7-1-11-1c-4.2,0-8.2,0.4-11.2,1c-2.4,0.5-5.7,1.5-6.1,2.4v-0.5c0.2-0.7,2.6-1.6,6-2.3
					C33.2-175.9,37.2-176.3,41.5-176.3L41.5-176.3z M41.5-177.7c4,0,8,0.4,11.1,1c3.2,0.6,5.5,1.4,6.2,2.3v0.4
					c-0.9-1.1-4-1.9-6.3-2.4c-3.1-0.6-7-1-11-1c-4.2,0-8.2,0.4-11.2,1c-2.3,0.4-5.7,1.5-6.1,2.4v-0.5c0.2-0.6,2.7-1.7,6.1-2.3
					C33.2-177.3,37.2-177.7,41.5-177.7L41.5-177.7z"/>
				<g clip-path="url(#SVGID_16_)">
					<path d="M24.1-172.4C24.1-172.4,24.1-172.4,24.1-172.4C24.1-172.4,24.1-172.5,24.1-172.4l0-0.5c0.2-0.7,2.8-1.7,6.1-2.4
						c3.3-0.6,7.3-1,11.3-1c3.9,0,7.8,0.4,11.1,1c3.3,0.7,5.5,1.5,6.3,2.4l0,0.5c-1.1-1.2-4.4-2-6.4-2.4c-3.2-0.6-7.1-1-10.9-1
						c-4.1,0-8.1,0.4-11.3,1C27.6-174.3,24.6-173.3,24.1-172.4C24.2-172.5,24.2-172.4,24.1-172.4L24.1-172.4z M41.5-175.9
						c3.9,0,7.8,0.3,11,1c1.9,0.4,5.3,1.2,6.3,2.4l-0.1-0.4c-0.7-0.8-2.9-1.6-6.2-2.3c-3.3-0.6-7.2-1-11-1c-4.1,0-8.1,0.4-11.4,1
						c-3.6,0.7-5.8,1.7-6,2.3v0.3c0.7-1,4.1-1.9,6-2.3C33.5-175.6,37.5-175.9,41.5-175.9L41.5-175.9z M24.1-173.9
						C24.1-173.9,24.1-173.9,24.1-173.9C24.1-173.9,24.1-173.9,24.1-173.9l-0.1-0.5c0.2-0.7,2.9-1.7,6.1-2.4c3.3-0.6,7.3-1,11.3-1
						c3.9,0,7.8,0.4,11.1,1c3.3,0.7,5.5,1.5,6.3,2.4l0,0.5c-1.1-1.2-4.4-2-6.4-2.4c-3.2-0.6-7.1-1-10.9-1c-4,0-8,0.4-11.3,1
						C27.6-175.8,24.5-174.8,24.1-173.9C24.2-173.9,24.2-173.9,24.1-173.9L24.1-173.9z M41.5-177.4c3.9,0,7.8,0.3,11,1
						c1.9,0.4,5.3,1.2,6.3,2.4l-0.1-0.4c-0.7-0.8-2.9-1.6-6.2-2.3c-3.3-0.6-7.1-1-10.9-1c-4.1,0-8.1,0.4-11.4,1
						c-3.5,0.7-5.8,1.7-6,2.3v0.3c0.7-0.9,3.9-1.9,6.1-2.3C33.5-177,37.5-177.4,41.5-177.4L41.5-177.4z"/>
				</g>
				<path clip-path="url(#SVGID_16_)" fill="#FCFF2C" d="M41.4-185.2c6.4,0,11.9,0.9,14.5,2.2l0.9,1.6c-2.2-1.2-8.2-2.4-15.4-2.2
					c-5.8,0-12.1,0.6-15.2,2.3l1.1-1.8C29.8-184.5,35.9-185.2,41.4-185.2L41.4-185.2z"/>
				<g clip-path="url(#SVGID_16_)">
					<path fill="none" d="M56-182.8l0.6,1L56-182.8z"/>
				</g>
				<path clip-path="url(#SVGID_16_)" fill="#FCFF2C" d="M41.5-183.9c3.6,0,7.1,0.2,9.9,0.7c2.6,0.5,5.1,1.2,5.4,1.6l0.3,0.5
					c-0.9-0.6-3-1.2-5.8-1.7c-2.8-0.5-6.3-0.7-9.9-0.7c-4.1,0-7.3,0.2-10,0.7c-2.9,0.5-4.9,1.3-5.4,1.7l0.3-0.5
					c1-0.5,2.5-1.1,5.1-1.5C34.2-183.7,37.4-183.9,41.5-183.9L41.5-183.9z M41.5-185.4c3.5,0,6.9,0.2,9.6,0.7c2.1,0.4,4.2,1.1,5,1.6
					l0.4,0.6c-0.7-0.8-3.3-1.5-5.5-1.9c-2.6-0.5-5.9-0.6-9.4-0.7c-3.6,0-7,0.2-9.6,0.7c-2.5,0.5-4.1,1-4.8,1.5l0.4-0.5
					c0.9-0.5,2.5-1,4.4-1.3C34.4-185.1,37.8-185.4,41.5-185.4L41.5-185.4z"/>
				<g clip-path="url(#SVGID_16_)">
					<path d="M57.1-181.1C57.1-181.1,57.1-181.1,57.1-181.1c-0.9-0.6-3-1.2-5.8-1.7c-2.4-0.5-5.6-0.7-9.5-0.7l-0.3,0l-0.4,0
						c-3.9,0-7,0.2-9.6,0.7c-2.9,0.5-4.9,1.3-5.4,1.7l0.2-0.6c1.3-0.7,3-1.2,5.1-1.6c2.6-0.5,5.5-0.7,10.1-0.7h0.2
						c3.8,0,7.2,0.2,9.7,0.7c2.6,0.5,5.1,1.2,5.5,1.6L57.1-181.1C57.2-181.1,57.2-181.1,57.1-181.1
						C57.1-181.1,57.1-181.1,57.1-181.1L57.1-181.1z M41.7-183.9h-0.2c-4.6,0-7.5,0.2-10.1,0.7c-2.1,0.4-3.7,0.9-5,1.5l-0.2,0.5
						c0.4-0.4,2.4-1.2,5.3-1.8c2.7-0.5,5.7-0.7,9.7-0.7h0.4h0.3c3.9,0,7.2,0.2,9.6,0.7c2.6,0.5,4.7,1.1,5.6,1.6l-0.2-0.3
						c-0.3-0.4-2.8-1.1-5.4-1.6C48.8-183.6,45.5-183.9,41.7-183.9L41.7-183.9z M56.4-182.4C56.4-182.4,56.4-182.4,56.4-182.4
						c-0.7-0.8-3.4-1.5-5.5-1.9c-2.4-0.4-5.5-0.6-9.4-0.7c-3.8,0-7.1,0.3-9.6,0.7c-2.2,0.4-4,1-4.8,1.5l0.3-0.6c1-0.5,2.5-1,4.4-1.3
						c2.5-0.5,5.8-0.7,9.7-0.7h0.3c3.7,0,6.9,0.2,9.3,0.7c2.3,0.4,4.3,1.1,5,1.6L56.4-182.4C56.5-182.5,56.5-182.4,56.4-182.4
						C56.4-182.4,56.4-182.4,56.4-182.4L56.4-182.4z M41.5-185c3.9,0,7,0.2,9.4,0.7c1.9,0.3,4.3,1,5.3,1.7l-0.2-0.4
						c-0.7-0.5-2.7-1.2-4.9-1.6c-2.4-0.4-5.6-0.7-9.3-0.7h-0.3c-3.9,0-7.2,0.3-9.7,0.7c-1.9,0.4-3.4,0.8-4.4,1.3l-0.3,0.5
						c0.7-0.6,2.5-1.1,4.7-1.6C34.3-184.8,37.7-185,41.5-185L41.5-185z"/>
				</g>
				<path clip-path="url(#SVGID_16_)" fill="#FCFF2C" d="M50-166.5c-3.1-0.6-6.3-0.7-8.5-0.7c-10.6,0.1-14,2.2-14.5,2.8l-0.8-1.3
					c2.7-2,8.5-3.1,15.3-2.9c3.5,0.1,6.6,0.3,9.2,0.8L50-166.5L50-166.5z"/>
				<g clip-path="url(#SVGID_16_)">
					<path fill="none" d="M26.4-165.5l0.5,0.9L26.4-165.5z"/>
				</g>
				<path clip-path="url(#SVGID_16_)" fill="#FCFF2C" d="M41.4-167.3c3,0,5.8,0.2,8.6,0.7l-0.2,0.4c-2.6-0.5-5.4-0.7-8.4-0.6
					c-3.9,0-7.9,0.3-11.3,1.3c-1.1,0.3-2.9,1-3.1,1.6l-0.2-0.3c0.1-0.3,1.1-1,3.2-1.6C33.9-167.1,37.6-167.3,41.4-167.3L41.4-167.3z
					 M41.5-168.8c3.1,0.1,6.2,0.2,9.3,0.8l-0.2,0.4c-2.8-0.6-5.4-0.7-9.1-0.8c-3.9,0-8.1,0.3-11.9,1.4c-1.2,0.4-3.3,1.1-3.4,1.7
					l-0.2-0.4c0-0.6,1.9-1.3,3.5-1.8C33.4-168.5,37.6-168.8,41.5-168.8L41.5-168.8z"/>
				<g clip-path="url(#SVGID_16_)">
					<path d="M27-164C27-164,27-164,27-164l-0.2-0.4c0.1-0.4,1.2-1.1,3.2-1.7c3.8-1.1,7.3-1.3,11.4-1.4c2.8,0,5.8,0.2,8.7,0.7
						l-0.2,0.4c-2.4-0.4-5-0.6-8.1-0.6l-0.4,0l-0.4,0c-4.2,0-7.8,0.4-10.9,1.3C28.9-165.2,27.2-164.5,27-164C27-164,27-164,27-164
						L27-164L27-164z M41.4-167.3c-4.1,0-7.6,0.3-11.4,1.3c-2.1,0.6-3.1,1.3-3.1,1.6l0.1,0.2c0.4-0.6,2.3-1.3,3.1-1.5
						c3.1-0.9,6.7-1.3,10.9-1.3l0.4,0l0.4,0c3.1,0,5.7,0.2,8.1,0.7l0.2-0.3C47.2-167.1,44.2-167.2,41.4-167.3L41.4-167.3z
						 M26.3-165.3C26.2-165.3,26.2-165.3,26.3-165.3l-0.2-0.4c0.1-0.8,2.7-1.6,3.5-1.8c3.3-0.9,7.1-1.4,12-1.4
						c3,0.1,6.2,0.2,9.3,0.8l-0.2,0.4c-3-0.6-5.8-0.7-9.1-0.8c-4.9,0-8.6,0.4-11.9,1.4C28.1-166.5,26.4-165.8,26.3-165.3
						C26.3-165.3,26.3-165.3,26.3-165.3L26.3-165.3L26.3-165.3z M41.5-168.8c-4.9,0-8.7,0.5-11.9,1.4c-2.1,0.6-3.4,1.3-3.5,1.7
						l0.1,0.2c0.3-0.7,3.1-1.6,3.4-1.7c3.2-0.9,7-1.4,11.9-1.4c3.3,0.1,6.1,0.2,9.1,0.8l0.2-0.3C47.7-168.6,44.5-168.7,41.5-168.8
						L41.5-168.8z"/>
				</g>
				<path clip-path="url(#SVGID_16_)" d="M38.4-167.8c0-0.1,0-0.1,0.1-0.1c0,0,0.1-0.1,0.1-0.1c0,0,0.1,0,0.1,0c0,0,0,0,0,0.1
					c0,0,0,0.1,0,0.1c0,0,0,0.1,0,0.1c0,0,0,0-0.1,0.1c0,0-0.1,0-0.1,0c0,0-0.1,0-0.1,0C38.4-167.7,38.4-167.7,38.4-167.8
					C38.4-167.7,38.4-167.8,38.4-167.8L38.4-167.8z M38.4-167.8C38.4-167.8,38.4-167.7,38.4-167.8c0,0.1,0.1,0.1,0.1,0.1
					c0,0,0.1,0,0.1,0c0,0,0-0.1,0-0.1c0,0,0,0,0-0.1c0,0,0,0,0,0c0,0,0,0-0.1,0c0,0-0.1,0-0.1,0C38.4-167.9,38.4-167.8,38.4-167.8
					L38.4-167.8z M38.8-167.7L38.8-167.7C38.8-167.7,38.9-167.7,38.8-167.7C38.9-167.7,38.9-167.7,38.8-167.7c0.1,0,0.1,0,0.1,0
					c0,0,0,0,0,0c0,0,0,0,0,0c0,0,0,0,0,0C38.9-167.8,38.9-167.8,38.8-167.7C38.8-167.8,38.8-167.8,38.8-167.7c0-0.1,0-0.1,0-0.1
					s0,0,0,0c0,0,0,0,0,0c0,0,0,0,0,0c0,0,0,0,0,0c0,0,0,0,0.1,0c0,0,0,0,0,0c0,0,0,0,0,0l0,0c0,0,0,0,0,0c0,0,0,0,0,0s0,0,0,0
					c0,0,0,0,0,0c0,0,0,0,0,0C38.9-167.8,38.9-167.8,38.8-167.7c0.1-0.1,0.1-0.1,0.1-0.1c0,0,0,0,0.1,0c0,0,0,0,0,0c0,0,0,0,0,0
					c0,0,0,0,0,0c0,0,0,0,0,0C38.9-167.7,38.9-167.7,38.8-167.7C38.9-167.7,38.8-167.7,38.8-167.7C38.8-167.7,38.8-167.7,38.8-167.7
					L38.8-167.7z M39.2-167.8L39.2-167.8C39.2-167.7,39.2-167.7,39.2-167.8C39.2-167.7,39.2-167.7,39.2-167.8
					c-0.1,0.1-0.1,0.1-0.1,0.1c0,0,0,0,0-0.1c0,0,0-0.1,0-0.1c0,0,0,0,0.1,0c0,0,0.1,0,0.1,0C39.2-167.9,39.2-167.8,39.2-167.8
					L39.2-167.8l-0.1,0c0,0,0,0,0,0.1C39.1-167.7,39.1-167.7,39.2-167.8C39.1-167.7,39.2-167.7,39.2-167.8
					C39.2-167.7,39.2-167.8,39.2-167.8L39.2-167.8z M39.1-167.8l0.1,0c0,0,0,0,0,0C39.2-167.9,39.2-167.9,39.1-167.8
					C39.1-167.9,39.1-167.9,39.1-167.8C39.1-167.9,39.1-167.8,39.1-167.8L39.1-167.8z M39.3-167.7L39.3-167.7
					C39.3-167.7,39.3-167.7,39.3-167.7C39.3-167.6,39.3-167.6,39.3-167.7c0.1,0,0.1,0,0.1,0c0,0,0,0,0,0c0,0,0,0,0,0
					C39.4-167.7,39.4-167.7,39.3-167.7C39.3-167.7,39.3-167.7,39.3-167.7c0-0.1,0-0.1,0-0.1c0,0,0,0,0-0.1c0,0,0,0,0,0c0,0,0,0,0,0
					c0,0,0,0,0.1,0l0,0h0l0,0.2c0,0,0,0.1,0,0.1c0,0,0,0,0,0C39.4-167.6,39.4-167.6,39.3-167.7C39.3-167.6,39.3-167.6,39.3-167.7
					C39.3-167.6,39.3-167.7,39.3-167.7L39.3-167.7z M39.3-167.8C39.3-167.8,39.3-167.8,39.3-167.8C39.3-167.7,39.3-167.7,39.3-167.8
					C39.4-167.7,39.4-167.7,39.3-167.8c0.1,0,0.1,0,0.1,0c0,0,0-0.1,0-0.1C39.4-167.9,39.4-167.9,39.3-167.8
					C39.4-167.9,39.4-167.9,39.3-167.8C39.3-167.9,39.3-167.9,39.3-167.8L39.3-167.8z M39.5-167.7l0-0.2h0v0c0,0,0,0,0,0
					c0,0,0,0,0,0c0,0,0,0,0,0c0,0,0,0,0,0c0,0,0,0,0.1,0c0,0,0,0,0.1,0c0,0,0,0,0,0.1l0,0.2h0l0-0.1c0,0,0,0,0,0c0,0,0,0,0,0l0,0
					c0,0,0,0,0,0c0,0,0,0,0,0.1l0,0.1h0l0-0.1c0,0,0,0,0,0c0,0,0,0,0,0c0,0,0,0,0,0c0,0,0,0,0,0c0,0,0,0,0,0L39.5-167.7L39.5-167.7
					L39.5-167.7z M40-167.8L40-167.8C40.1-167.8,40.1-167.8,40-167.8C40-167.7,40-167.7,40-167.8c-0.1,0.1-0.1,0.1-0.1,0.1
					c0,0,0,0,0-0.1c0,0,0-0.1,0-0.1c0,0,0,0,0.1,0c0,0,0.1,0,0.1,0C40.1-167.9,40.1-167.9,40-167.8C40.1-167.9,40.1-167.8,40-167.8
					l-0.1,0c0,0,0,0,0,0.1C39.9-167.8,40-167.8,40-167.8C40-167.8,40-167.8,40-167.8C40-167.8,40-167.8,40-167.8L40-167.8z
					 M39.9-167.9h0.1c0,0,0,0,0,0C40-167.9,40-167.9,39.9-167.9C40-167.9,40-167.9,39.9-167.9C39.9-167.9,39.9-167.9,39.9-167.9
					L39.9-167.9z M40.1-167.7l0-0.2h0v0c0,0,0,0,0.1,0c0,0,0,0,0,0c0,0,0,0,0,0c0,0,0,0,0,0c0,0,0,0,0,0l0,0.1l0,0l0-0.1
					c0,0,0,0,0,0c0,0,0,0,0,0c0,0,0,0,0,0c0,0,0,0,0,0c0,0,0,0,0,0.1L40.1-167.7L40.1-167.7z M40.5-167.8L40.5-167.8
					C40.4-167.7,40.4-167.7,40.5-167.8C40.4-167.7,40.4-167.7,40.5-167.8C40.4-167.8,40.4-167.8,40.5-167.8
					C40.4-167.8,40.4-167.8,40.5-167.8l-0.1-0.2h0l0,0h0l0-0.1l0,0l0,0.1l0,0v0h0L40.5-167.8C40.4-167.8,40.4-167.8,40.5-167.8
					C40.4-167.8,40.4-167.8,40.5-167.8L40.5-167.8C40.4-167.8,40.4-167.8,40.5-167.8L40.5-167.8z M40.5-167.9
					C40.5-167.9,40.5-167.9,40.5-167.9c0.1-0.1,0.1-0.1,0.1-0.1c0,0,0.1,0,0.1,0c0,0,0,0,0,0.1c0,0,0,0.1,0,0.1c0,0,0,0,0,0
					c0,0,0,0-0.1,0C40.5-167.7,40.5-167.8,40.5-167.9C40.5-167.8,40.5-167.8,40.5-167.9L40.5-167.9z M40.5-167.9
					C40.5-167.8,40.5-167.8,40.5-167.9C40.5-167.8,40.6-167.8,40.5-167.9C40.6-167.8,40.6-167.8,40.5-167.9c0.1,0,0.1,0,0.1,0
					c0,0,0,0,0-0.1C40.6-168,40.6-168,40.5-167.9C40.6-168,40.6-168,40.5-167.9C40.5-167.9,40.5-167.9,40.5-167.9L40.5-167.9z
					 M41-167.8L41-167.8C41-167.8,41-167.8,41-167.8C41-167.8,41-167.8,41-167.8c-0.1,0.1-0.1,0.1-0.2,0c0,0,0,0,0-0.1
					c0,0,0-0.1,0-0.1c0,0,0,0,0.1,0c0,0,0.1,0,0.1,0C41.1-167.9,41.1-167.9,41-167.8L41-167.8l-0.1,0c0,0,0,0,0,0.1
					C40.9-167.8,40.9-167.8,41-167.8C41-167.8,41-167.8,41-167.8C41-167.8,41-167.8,41-167.8L41-167.8z M40.9-167.9H41
					c0,0,0,0,0-0.1C41-168,41-168,40.9-167.9C40.9-168,40.9-168,40.9-167.9C40.9-167.9,40.9-167.9,40.9-167.9L40.9-167.9z
					 M41.1-167.8l0-0.3h0L41.1-167.8L41.1-167.8L41.1-167.8z M41.2-168L41.2-168L41.2-168L41.2-168L41.2-168L41.2-168z M41.2-167.8
					l0-0.2h0L41.2-167.8L41.2-167.8L41.2-167.8z M41.3-167.8l0-0.2h0l0,0c0,0,0,0,0,0c0,0,0,0,0,0c0,0,0,0,0,0c0,0,0,0,0,0
					c0,0,0,0,0.1,0c0,0,0,0,0,0c0,0,0,0,0,0.1l0,0.2h0l0-0.2c0,0,0,0,0,0l0,0c0,0,0,0,0,0c0,0,0,0,0,0c0,0,0,0,0,0.1l0,0.1h0l0-0.2
					c0,0,0,0,0,0c0,0,0,0,0,0c0,0,0,0,0,0c0,0,0,0,0,0c0,0,0,0,0,0L41.3-167.8L41.3-167.8L41.3-167.8z M41.7-168L41.7-168L41.7-168
					L41.7-168L41.7-168L41.7-168z M41.6-167.8l0-0.2h0L41.6-167.8L41.6-167.8L41.6-167.8z M41.7-167.8l0-0.2h0l0,0c0,0,0,0,0.1,0
					c0,0,0,0,0,0c0,0,0,0,0,0c0,0,0,0,0,0c0,0,0,0,0,0l0,0.1h0l0-0.1c0,0,0,0,0,0c0,0,0,0,0,0c0,0,0,0,0,0c0,0,0,0-0.1,0
					c0,0,0,0,0,0.1L41.7-167.8L41.7-167.8L41.7-167.8z M42.1-167.8C42.1-167.8,42.1-167.8,42.1-167.8
					C42.1-167.8,42-167.8,42.1-167.8c-0.1,0-0.1,0-0.1,0c0,0,0,0,0,0c0,0,0,0,0,0c0,0,0,0,0,0c0,0,0,0,0,0c0,0,0,0,0,0
					c0,0,0.1,0,0.1,0c0,0,0,0,0,0c0,0,0,0,0,0c0,0,0,0,0,0c0,0,0,0,0,0c0,0,0,0,0,0l0,0c0,0,0,0,0,0c0,0,0,0,0,0c0,0,0,0,0,0
					c0,0,0,0,0,0c0,0,0,0,0,0c0,0,0,0,0,0c0,0,0,0,0,0L42.1-167.8C42.2-167.8,42.2-167.8,42.1-167.8
					C42.2-167.8,42.2-167.8,42.1-167.8L42.1-167.8C42.1-167.8,42.1-167.8,42.1-167.8L42.1-167.8z M42.1-167.9
					C42.1-167.9,42.1-167.9,42.1-167.9C42.1-167.9,42-167.9,42.1-167.9c-0.1,0-0.1,0-0.1,0c0,0,0,0,0,0c0,0,0,0,0,0
					C42-167.8,42-167.8,42.1-167.9C42.1-167.8,42.1-167.8,42.1-167.9C42.1-167.8,42.1-167.8,42.1-167.9
					C42.1-167.8,42.1-167.8,42.1-167.9L42.1-167.9L42.1-167.9z M42.3-167.8L42.3-167.8C42.3-167.8,42.3-167.8,42.3-167.8
					c-0.1,0-0.1,0-0.1,0c0,0,0,0,0,0c0,0,0,0,0-0.1c0,0,0,0,0-0.1c0,0,0,0,0,0c0,0,0,0,0,0c0,0,0,0,0,0c0,0,0,0,0,0l0-0.1l0,0
					L42.3-167.8L42.3-167.8L42.3-167.8z M42.3-167.9C42.2-167.8,42.3-167.8,42.3-167.9C42.3-167.8,42.3-167.8,42.3-167.9
					C42.3-167.8,42.3-167.8,42.3-167.9c0.1,0.1,0.1,0,0.1,0c0,0,0-0.1,0-0.1C42.4-168,42.3-168,42.3-167.9
					C42.3-168,42.3-168,42.3-167.9C42.3-167.9,42.3-167.9,42.3-167.9L42.3-167.9z M42.5-167.9C42.5-167.9,42.5-168,42.5-167.9
					c0.1-0.1,0.1-0.1,0.1-0.1c0,0,0.1,0,0.1,0c0,0,0,0,0,0.1c0,0,0,0,0,0.1c0,0,0,0,0,0c0,0,0,0-0.1,0
					C42.5-167.8,42.5-167.8,42.5-167.9C42.4-167.8,42.4-167.8,42.5-167.9L42.5-167.9z M42.5-167.9C42.5-167.8,42.5-167.8,42.5-167.9
					C42.5-167.8,42.5-167.8,42.5-167.9c0.1,0.1,0.1,0.1,0.1,0.1c0,0,0,0,0-0.1c0,0,0-0.1,0-0.1C42.6-168,42.6-168,42.5-167.9
					C42.6-168,42.5-168,42.5-167.9C42.5-167.9,42.5-167.9,42.5-167.9L42.5-167.9z M42.8-167.7l0-0.2h0v0c0,0,0,0,0,0c0,0,0,0,0,0
					c0,0,0,0,0,0l0,0c0,0,0,0,0,0c0,0,0,0,0,0c0,0,0,0,0,0c0,0,0,0,0,0L42.8-167.7L42.8-167.7L42.8-167.7z M43.1-167.8L43.1-167.8
					C43.1-167.8,43.1-167.8,43.1-167.8C43.1-167.7,43.1-167.7,43.1-167.8c-0.1,0.1-0.1,0.1-0.1,0c0,0,0,0,0-0.1c0,0,0-0.1,0-0.1
					c0,0,0,0,0.1,0c0,0,0.1,0,0.1,0C43.2-167.9,43.2-167.9,43.1-167.8L43.1-167.8l-0.1,0c0,0,0,0,0,0.1
					C43-167.8,43-167.8,43.1-167.8C43.1-167.8,43.1-167.8,43.1-167.8C43.1-167.8,43.1-167.8,43.1-167.8L43.1-167.8z M43-167.9l0.1,0
					c0,0,0,0,0,0C43.1-167.9,43.1-168,43-167.9C43.1-168,43-167.9,43-167.9C43-167.9,43-167.9,43-167.9L43-167.9z M43.2-167.8
					L43.2-167.8C43.2-167.8,43.2-167.8,43.2-167.8C43.2-167.8,43.3-167.8,43.2-167.8c0.1,0,0.1,0,0.1,0c0,0,0,0,0,0c0,0,0,0,0,0
					C43.3-167.8,43.3-167.8,43.2-167.8C43.3-167.8,43.2-167.9,43.2-167.8C43.2-167.9,43.2-167.9,43.2-167.8
					C43.2-167.9,43.2-167.9,43.2-167.8c0-0.1,0-0.1,0-0.1c0,0,0,0,0,0c0,0,0,0,0,0c0,0,0,0,0,0c0,0,0,0,0,0c0,0,0,0,0,0c0,0,0,0,0,0
					l0,0c0,0,0,0,0,0c0,0,0,0,0,0c0,0,0,0,0,0C43.3-167.9,43.2-167.9,43.2-167.8C43.2-167.9,43.2-167.9,43.2-167.8
					C43.3-167.9,43.3-167.9,43.2-167.8c0.1-0.1,0.1-0.1,0.1-0.1c0,0,0,0,0.1,0c0,0,0,0,0,0c0,0,0,0,0,0c0,0,0,0,0,0c0,0,0,0,0,0
					C43.3-167.7,43.3-167.7,43.2-167.8C43.2-167.7,43.2-167.7,43.2-167.8C43.2-167.8,43.2-167.8,43.2-167.8L43.2-167.8z M43.4-167.6
					l0.1-0.3l0,0l0,0c0,0,0,0,0,0c0,0,0,0,0,0c0,0,0,0,0.1,0c0,0,0,0,0,0c0,0,0,0,0,0.1c0,0,0,0,0,0.1c0,0,0,0,0,0c0,0,0,0-0.1,0
					C43.5-167.7,43.5-167.7,43.4-167.6c0.1-0.1,0.1-0.1,0.1-0.1L43.4-167.6L43.4-167.6L43.4-167.6z M43.5-167.8
					C43.4-167.8,43.5-167.8,43.5-167.8C43.5-167.8,43.5-167.8,43.5-167.8C43.5-167.8,43.5-167.8,43.5-167.8c0.1,0.1,0.1,0,0.1,0
					c0,0,0,0,0-0.1C43.6-167.9,43.6-167.9,43.5-167.8C43.5-167.9,43.5-167.9,43.5-167.8C43.5-167.9,43.5-167.9,43.5-167.8
					L43.5-167.8z M43.8-167.8L43.8-167.8C43.8-167.8,43.8-167.7,43.8-167.8C43.8-167.7,43.8-167.7,43.8-167.8
					c-0.1,0.1-0.1,0.1-0.1,0c0,0,0-0.1,0-0.1c0,0,0-0.1,0.1-0.1c0,0,0.1,0,0.1,0c0,0,0,0,0.1,0C43.9-167.9,43.9-167.9,43.8-167.8
					C43.9-167.8,43.9-167.8,43.8-167.8l-0.1,0c0,0,0,0,0,0.1C43.7-167.8,43.7-167.7,43.8-167.8C43.8-167.7,43.8-167.7,43.8-167.8
					C43.8-167.8,43.8-167.8,43.8-167.8L43.8-167.8z M43.7-167.9l0.1,0c0,0,0,0,0,0C43.8-167.9,43.8-167.9,43.7-167.9
					C43.8-167.9,43.7-167.9,43.7-167.9C43.7-167.9,43.7-167.9,43.7-167.9L43.7-167.9z M43.9-168L43.9-168L43.9-168L43.9-168
					L43.9-168L43.9-168z M43.9-167.7l0-0.2l0,0L43.9-167.7L43.9-167.7z M44.1-167.7L44.1-167.7C44-167.7,44-167.7,44.1-167.7
					C44-167.7,44-167.7,44.1-167.7C44-167.7,44-167.7,44.1-167.7C44-167.7,44-167.8,44.1-167.7l0-0.2h0l0,0l0,0l0-0.1l0,0l0,0.1h0
					l0,0h0V-167.7C44-167.8,44-167.8,44.1-167.7C44-167.7,44-167.7,44.1-167.7C44-167.7,44-167.7,44.1-167.7L44.1-167.7L44.1-167.7z
					 M44.2-167.7C44.2-167.7,44.2-167.7,44.2-167.7C44.2-167.7,44.2-167.7,44.2-167.7c-0.1,0-0.1,0-0.1,0c0,0,0,0,0-0.1c0,0,0,0,0,0
					c0,0,0,0,0,0c0,0,0,0,0,0c0,0,0,0,0,0c0,0,0.1,0,0.1,0c0,0,0,0,0,0c0,0,0,0,0,0c0,0,0,0,0,0c0,0,0,0,0,0c0,0,0,0,0,0l0,0
					c0,0,0,0,0,0c0,0,0,0,0,0c0,0,0,0,0,0c0,0,0,0,0,0c0,0,0,0,0,0c0,0,0,0,0,0c0,0,0,0,0,0L44.2-167.7
					C44.3-167.8,44.3-167.7,44.2-167.7C44.3-167.7,44.3-167.7,44.2-167.7L44.2-167.7C44.2-167.7,44.2-167.7,44.2-167.7L44.2-167.7z
					 M44.2-167.8C44.2-167.8,44.2-167.8,44.2-167.8C44.2-167.8,44.2-167.8,44.2-167.8c-0.1,0-0.1,0-0.1,0c0,0,0,0,0,0c0,0,0,0,0,0
					C44.1-167.7,44.1-167.7,44.2-167.8C44.2-167.7,44.2-167.7,44.2-167.8C44.2-167.7,44.2-167.8,44.2-167.8
					C44.2-167.8,44.2-167.8,44.2-167.8L44.2-167.8L44.2-167.8z M44.4-167.8C44.5-167.8,44.5-167.9,44.4-167.8
					c0.1-0.1,0.1-0.1,0.1-0.1c0,0,0.1,0,0.1,0c0,0,0,0,0,0.1c0,0,0,0.1,0,0.1c0,0,0,0-0.1,0c0,0,0,0,0,0
					C44.5-167.7,44.5-167.7,44.4-167.8C44.4-167.7,44.4-167.8,44.4-167.8L44.4-167.8z M44.5-167.8C44.5-167.8,44.5-167.7,44.5-167.8
					C44.5-167.7,44.5-167.7,44.5-167.8C44.6-167.7,44.6-167.7,44.5-167.8c0.1,0.1,0.1,0,0.1,0c0,0,0-0.1,0-0.1
					C44.6-167.9,44.6-167.9,44.5-167.8C44.6-167.9,44.5-167.9,44.5-167.8C44.5-167.9,44.5-167.8,44.5-167.8L44.5-167.8z M44.8-167.6
					l0.1-0.3h0l0,0c0,0,0,0,0,0c0,0,0,0,0,0s0,0,0,0c0,0,0,0,0,0c0,0,0,0,0,0.1c0,0,0,0,0,0.1c0,0,0,0,0,0c0,0,0,0-0.1,0
					C44.9-167.7,44.9-167.7,44.8-167.6C44.8-167.7,44.8-167.7,44.8-167.6L44.8-167.6L44.8-167.6z M44.9-167.8
					C44.8-167.8,44.8-167.7,44.9-167.8C44.9-167.7,44.9-167.7,44.9-167.8C44.9-167.7,44.9-167.7,44.9-167.8c0.1,0.1,0.1,0,0.1,0
					c0,0,0-0.1,0-0.1C45-167.9,44.9-167.9,44.9-167.8C44.9-167.9,44.9-167.9,44.9-167.8C44.9-167.8,44.9-167.8,44.9-167.8
					L44.9-167.8z M45-167.7l0.1-0.2h0l0,0c0,0,0,0,0,0c0,0,0,0,0,0c0,0,0,0,0,0l0,0c0,0,0,0,0,0c0,0,0,0,0,0c0,0,0,0,0,0
					c0,0,0,0,0,0L45-167.7L45-167.7L45-167.7z M45.2-167.8C45.2-167.8,45.2-167.8,45.2-167.8c0.1-0.1,0.1-0.1,0.1-0.1c0,0,0,0,0.1,0
					c0,0,0,0.1,0,0.1c0,0,0,0.1,0,0.1c0,0,0,0,0,0c0,0,0,0-0.1,0C45.2-167.6,45.2-167.7,45.2-167.8
					C45.2-167.7,45.2-167.7,45.2-167.8L45.2-167.8z M45.2-167.8C45.2-167.7,45.2-167.7,45.2-167.8C45.2-167.7,45.3-167.7,45.2-167.8
					C45.3-167.7,45.3-167.7,45.2-167.8c0.1,0.1,0.1,0,0.1,0c0,0,0-0.1,0-0.1C45.3-167.8,45.3-167.8,45.2-167.8
					C45.3-167.8,45.3-167.8,45.2-167.8C45.2-167.8,45.2-167.8,45.2-167.8L45.2-167.8z M45.5-167.9L45.5-167.9L45.5-167.9L45.5-167.9
					L45.5-167.9L45.5-167.9z M45.3-167.5L45.3-167.5C45.4-167.6,45.4-167.6,45.3-167.5C45.4-167.6,45.4-167.6,45.3-167.5
					C45.4-167.6,45.4-167.6,45.3-167.5l0.1-0.3h0L45.3-167.5C45.4-167.6,45.4-167.6,45.3-167.5C45.4-167.5,45.4-167.5,45.3-167.5
					C45.4-167.5,45.4-167.5,45.3-167.5L45.3-167.5z M45.7-167.7L45.7-167.7C45.7-167.7,45.7-167.6,45.7-167.7
					C45.6-167.6,45.6-167.6,45.7-167.7c-0.1,0.1-0.1,0.1-0.1,0c0,0,0,0,0-0.1c0,0,0-0.1,0.1-0.1c0,0,0.1,0,0.1,0c0,0,0.1,0,0.1,0
					C45.7-167.8,45.7-167.8,45.7-167.7L45.7-167.7l-0.1,0c0,0,0,0,0,0.1C45.6-167.7,45.6-167.6,45.7-167.7
					C45.6-167.6,45.6-167.6,45.7-167.7C45.7-167.7,45.7-167.7,45.7-167.7L45.7-167.7z M45.6-167.8l0.1,0c0,0,0,0,0,0
					C45.7-167.8,45.7-167.8,45.6-167.8C45.6-167.8,45.6-167.8,45.6-167.8C45.6-167.8,45.6-167.8,45.6-167.8L45.6-167.8z"/>
				<path clip-path="url(#SVGID_16_)" d="M45.9-167.7L45.9-167.7C45.9-167.6,45.9-167.6,45.9-167.7
					C45.9-167.6,45.9-167.6,45.9-167.7c-0.1,0.1-0.1,0.1-0.1,0c0,0,0,0,0-0.1c0,0,0-0.1,0-0.1c0,0,0,0,0,0c0,0,0,0,0.1,0
					c0,0,0,0,0.1,0C46-167.8,46-167.8,45.9-167.7L45.9-167.7c0-0.1,0-0.1,0-0.1c0,0,0,0,0,0c0,0,0,0-0.1,0c0,0,0,0,0,0.1
					c0,0,0,0.1,0,0.1C45.8-167.6,45.8-167.6,45.9-167.7C45.8-167.6,45.9-167.6,45.9-167.7C45.9-167.6,45.9-167.7,45.9-167.7
					L45.9-167.7z M46-167.6L46-167.6C46-167.6,46-167.6,46-167.6C46-167.6,46-167.6,46-167.6C46-167.6,46-167.6,46-167.6
					C46-167.6,46-167.6,46-167.6l0-0.2l0,0l0,0l0,0l0-0.1l0,0l0,0.1h0l0,0l0,0V-167.6C46-167.6,46-167.6,46-167.6
					C46-167.6,46-167.6,46-167.6C46-167.6,46-167.6,46-167.6C46-167.6,46-167.6,46-167.6L46-167.6z M46.1-167.7
					C46.1-167.7,46.1-167.8,46.1-167.7c0.1-0.1,0.1-0.1,0.1-0.1c0,0,0.1,0,0.1,0c0,0,0,0.1,0,0.1c0,0,0,0,0,0.1c0,0,0,0-0.1,0
					c0,0,0,0-0.1,0C46.1-167.6,46.1-167.6,46.1-167.7C46.1-167.6,46.1-167.7,46.1-167.7L46.1-167.7z M46.1-167.7
					C46.1-167.7,46.1-167.6,46.1-167.7C46.1-167.6,46.1-167.6,46.1-167.7C46.2-167.6,46.2-167.6,46.1-167.7c0.1,0.1,0.1,0,0.1,0
					c0,0,0,0,0-0.1C46.2-167.8,46.2-167.8,46.1-167.7C46.2-167.8,46.2-167.8,46.1-167.7C46.1-167.7,46.1-167.7,46.1-167.7
					L46.1-167.7z M46.6-167.5L46.6-167.5C46.6-167.5,46.5-167.5,46.6-167.5c-0.1,0-0.1,0-0.1,0c0,0,0,0,0,0c0,0,0,0,0-0.1
					c0,0,0,0,0-0.1c0,0,0,0,0,0c0,0,0,0,0,0c0,0,0,0,0,0c0,0,0,0,0,0l0-0.1h0L46.6-167.5L46.6-167.5L46.6-167.5z M46.5-167.7
					C46.5-167.6,46.5-167.6,46.5-167.7C46.5-167.6,46.5-167.6,46.5-167.7C46.5-167.6,46.5-167.6,46.5-167.7c0.1,0.1,0.1,0,0.1,0
					c0,0,0-0.1,0-0.1C46.6-167.7,46.6-167.7,46.5-167.7C46.5-167.7,46.5-167.7,46.5-167.7C46.5-167.7,46.5-167.7,46.5-167.7
					L46.5-167.7z M46.8-167.6L46.8-167.6C46.9-167.6,46.8-167.5,46.8-167.6C46.8-167.5,46.8-167.5,46.8-167.6
					c-0.1,0.1-0.1,0.1-0.1,0c0,0,0-0.1,0-0.1c0,0,0-0.1,0.1-0.1c0,0,0,0,0.1,0c0,0,0.1,0,0.1,0C46.9-167.7,46.9-167.7,46.8-167.6
					C46.9-167.6,46.9-167.6,46.8-167.6l-0.1,0c0,0,0,0,0,0.1C46.7-167.6,46.7-167.5,46.8-167.6C46.8-167.5,46.8-167.5,46.8-167.6
					C46.8-167.6,46.8-167.6,46.8-167.6L46.8-167.6z M46.7-167.7l0.1,0c0,0,0,0,0,0C46.8-167.7,46.8-167.7,46.7-167.7
					C46.8-167.7,46.8-167.7,46.7-167.7C46.7-167.7,46.7-167.7,46.7-167.7L46.7-167.7z M47.3-167.6L47.3-167.6
					C47.3-167.5,47.3-167.5,47.3-167.6c-0.1,0.1-0.1,0.1-0.1,0.1c0,0-0.1,0-0.1,0c0,0,0,0,0-0.1c0,0,0-0.1,0-0.1c0,0,0-0.1,0-0.1
					c0,0,0,0,0.1,0c0,0,0.1,0,0.1,0c0,0,0.1,0,0.1,0c0,0,0,0,0,0.1l0,0c0,0,0,0,0-0.1c0,0,0,0,0,0c0,0,0,0-0.1,0c0,0,0,0,0,0
					c0,0,0,0,0,0.1c0,0,0,0.1,0,0.1c0,0,0,0,0,0.1c0,0,0,0,0,0C47.2-167.5,47.2-167.5,47.3-167.6C47.2-167.5,47.2-167.6,47.3-167.6
					L47.3-167.6z M47.3-167.6C47.3-167.6,47.4-167.6,47.3-167.6c0.1-0.1,0.1-0.1,0.1-0.1c0,0,0,0,0.1,0c0,0,0,0,0,0.1
					c0,0,0,0.1,0,0.1c0,0,0,0,0,0c0,0,0,0-0.1,0C47.4-167.5,47.3-167.5,47.3-167.6C47.3-167.5,47.3-167.5,47.3-167.6L47.3-167.6z
					 M47.4-167.6C47.4-167.5,47.4-167.5,47.4-167.6C47.4-167.5,47.4-167.5,47.4-167.6C47.4-167.5,47.4-167.5,47.4-167.6
					c0.1,0.1,0.1,0,0.1,0c0,0,0-0.1,0-0.1C47.5-167.6,47.5-167.7,47.4-167.6C47.4-167.7,47.4-167.6,47.4-167.6
					C47.4-167.6,47.4-167.6,47.4-167.6L47.4-167.6z M47.5-167.4l0.1-0.3h0L47.5-167.4L47.5-167.4L47.5-167.4z M47.8-167.4
					L47.8-167.4C47.8-167.4,47.7-167.4,47.8-167.4c-0.1,0-0.1,0-0.1,0c0,0,0,0,0,0c0,0,0,0,0,0c0,0,0,0,0,0l0-0.1l0,0l0,0.1
					C47.7-167.5,47.7-167.5,47.8-167.4C47.7-167.5,47.7-167.5,47.8-167.4C47.7-167.4,47.7-167.4,47.8-167.4
					C47.7-167.4,47.8-167.4,47.8-167.4C47.8-167.5,47.8-167.5,47.8-167.4C47.8-167.5,47.8-167.5,47.8-167.4l0.1-0.2l0,0L47.8-167.4
					L47.8-167.4L47.8-167.4z M47.9-167.4l0.1-0.2l0,0l0,0c0,0,0,0,0,0c0,0,0,0,0,0c0,0,0,0,0,0c0,0,0,0,0,0c0,0,0.1,0,0.1,0
					c0,0,0,0,0,0c0,0,0,0,0,0.1l0,0.2l0,0l0-0.1c0,0,0,0,0,0l0,0c0,0,0,0,0,0c0,0,0,0-0.1,0c0,0,0,0,0,0.1l0,0.1l0,0l0-0.1
					c0,0,0,0,0,0c0,0,0,0,0,0c0,0,0,0,0,0c0,0,0,0,0,0c0,0,0,0,0,0L47.9-167.4L47.9-167.4z M48.3-167.3L48.3-167.3l0-0.3l0,0l0,0.1
					c0,0,0.1,0,0.1,0c0,0,0,0,0,0c0,0,0,0,0,0c0,0,0,0,0,0c0,0,0,0,0,0c0,0,0,0.1-0.1,0.1C48.4-167.3,48.3-167.3,48.3-167.3
					C48.3-167.3,48.3-167.3,48.3-167.3L48.3-167.3L48.3-167.3z M48.3-167.5C48.3-167.4,48.3-167.4,48.3-167.5
					C48.3-167.4,48.3-167.4,48.3-167.5C48.3-167.4,48.4-167.4,48.3-167.5c0.1,0.1,0.1,0,0.1,0c0,0,0-0.1,0-0.1
					C48.4-167.5,48.4-167.5,48.3-167.5C48.4-167.5,48.3-167.5,48.3-167.5C48.3-167.5,48.3-167.5,48.3-167.5L48.3-167.5z M48.6-167.3
					C48.6-167.3,48.6-167.3,48.6-167.3C48.6-167.3,48.5-167.3,48.6-167.3c-0.1,0-0.1,0-0.1,0c0,0,0,0,0,0c0,0,0,0,0,0c0,0,0,0,0,0
					c0,0,0,0,0,0c0,0,0,0,0,0c0,0,0.1,0,0.1,0c0,0,0,0,0,0c0,0,0,0,0,0c0,0,0,0,0,0c0,0,0,0,0,0c0,0,0,0,0,0l0,0c0,0,0,0,0,0
					c0,0,0,0,0,0c0,0,0,0,0.1,0c0,0,0,0,0,0c0,0,0,0,0,0c0,0,0,0,0,0c0,0,0,0,0,0L48.6-167.3C48.7-167.4,48.6-167.3,48.6-167.3
					C48.6-167.3,48.6-167.3,48.6-167.3L48.6-167.3L48.6-167.3L48.6-167.3z M48.6-167.4C48.6-167.4,48.6-167.4,48.6-167.4
					C48.6-167.4,48.5-167.4,48.6-167.4c-0.1,0-0.1,0-0.1,0c0,0,0,0,0,0c0,0,0,0,0,0C48.5-167.3,48.5-167.3,48.6-167.4
					C48.6-167.3,48.6-167.3,48.6-167.4C48.6-167.3,48.6-167.3,48.6-167.4C48.6-167.4,48.6-167.4,48.6-167.4L48.6-167.4L48.6-167.4z
					 M48.7-167.3l0.1-0.2l0,0l0,0c0,0,0.1,0,0.1,0c0,0,0,0,0,0c0,0,0,0,0,0c0,0,0,0,0,0c0,0,0,0,0,0l0,0.1h0l0-0.1c0,0,0,0,0,0
					c0,0,0,0,0,0l0,0c0,0,0,0,0,0c0,0,0,0,0,0.1L48.7-167.3L48.7-167.3L48.7-167.3z M48.9-167.4C49-167.4,49-167.4,48.9-167.4
					c0.1-0.1,0.1-0.1,0.1-0.1c0,0,0.1,0,0.1,0c0,0,0,0.1,0,0.1c0,0,0,0,0,0.1c0,0,0,0-0.1,0c0,0,0,0-0.1,0
					C49-167.2,49-167.2,48.9-167.4C48.9-167.3,48.9-167.3,48.9-167.4L48.9-167.4z M49-167.4C49-167.3,49-167.3,49-167.4
					C49-167.3,49-167.3,49-167.4C49-167.3,49-167.3,49-167.4c0.1,0.1,0.1,0.1,0.1,0c0,0,0-0.1,0-0.1C49.1-167.4,49.1-167.4,49-167.4
					C49-167.4,49-167.4,49-167.4C49-167.4,49-167.4,49-167.4L49-167.4z"/>
				<g clip-path="url(#SVGID_16_)">
					<path fill="#EA0020" d="M49.9-166.2C49.8-166.2,49.8-166.2,49.9-166.2c-0.1,0-0.1-0.1-0.1-0.1l0.9-1.7c0,0,0.1-0.1,0.1,0
						c0,0,0.1,0.1,0,0.1L49.9-166.2C49.9-166.3,49.9-166.2,49.9-166.2L49.9-166.2z"/>
				</g>
				<path clip-path="url(#SVGID_16_)" fill="#FCFF2C" d="M27.1-183.2c5.3-0.1,29.5,14.8,29.6,17.6l-1.5,2.3
					c-0.7-3.2-25.3-17.7-29.4-17.4L27.1-183.2L27.1-183.2z"/>
				<g clip-path="url(#SVGID_16_)">
					<path d="M55.4-163.4l1.2-2c0,0,0,0,0.1,0c0,0,0,0,0,0.1L55.4-163.4L55.4-163.4z"/>
				</g>
				<g clip-path="url(#SVGID_16_)">
					<path d="M25.9-180.9l1.1-2.2c0,0,0,0,0.1,0c0,0,0,0,0,0.1L25.9-180.9L25.9-180.9z"/>
				</g>
				<path clip-path="url(#SVGID_16_)" fill="#FCFF2C" d="M25.7-180.9c1-0.7,8.1,2.5,15.6,7.1c7.5,4.5,14.6,9.7,14,10.6l-0.2,0.3
					l-0.1,0.1c0,0,0.1-0.1,0-0.5c-0.3-1.1-5.4-5.1-13.8-10.2c-8.2-4.9-15-7.8-15.7-7L25.7-180.9L25.7-180.9z M56.9-165.5
					c0.6-1.2-6-6.2-14.3-11.1c-8.4-4.8-14.5-7.6-15.6-6.8l-0.3,0.4c0,0,0,0,0.1-0.1c0.2-0.2,0.5-0.2,0.7-0.2c1.9,0,7.4,2.5,15,6.9
					c3.4,2,14.2,8.9,14.1,10.9c0,0.2,0,0.2-0.1,0.3L56.9-165.5L56.9-165.5z"/>
				<g clip-path="url(#SVGID_16_)">
					<path d="M55-162.7L55-162.7C55-162.8,55-162.8,55-162.7c-0.1-0.1,0-0.2-0.1-0.5c-0.3-1.1-5.7-5.3-13.8-10.2
						c-6.9-4.1-13.3-7.1-15.2-7.1c-0.2,0-0.4,0-0.4,0.1l0,0c0,0,0,0,0-0.1l0.1-0.4c0.1-0.1,0.3-0.1,0.4-0.1c1.9,0,8.6,3.1,15.3,7.2
						c6.7,4.1,13.7,9,14,10.4c0,0.1,0,0.2,0,0.3l-0.2,0.3C55.1-162.8,55.1-162.8,55-162.7C55.1-162.7,55-162.7,55-162.7L55-162.7z
						 M25.9-180.6c1.9,0,8.3,3,15.3,7.2c8.2,5,13.5,9.1,13.8,10.2c0.1,0.1,0.1,0.3,0.1,0.3l0.2-0.3c0,0,0-0.1,0-0.2
						c-0.3-1.4-7.4-6.4-14-10.4c-6.6-4-13.3-7.1-15.2-7.1c-0.2,0-0.3,0-0.4,0.1l-0.1,0.3C25.7-180.6,25.8-180.6,25.9-180.6
						L25.9-180.6z M56.6-165.1C56.6-165.1,56.6-165.1,56.6-165.1L56.6-165.1L56.6-165.1C56.6-165.1,56.6-165.1,56.6-165.1
						L56.6-165.1L56.6-165.1c0-0.1,0-0.1,0-0.2c0-2-11-9.1-14.1-10.9c-7.6-4.4-13.1-6.9-15-6.9c-0.2,0-0.5,0-0.6,0.2c0,0,0,0,0,0
						c0.2-0.2,0.5-0.2,0.6-0.3c2,0,7.4,2.6,15.1,6.9c2.2,1.3,14.2,8.8,14.2,10.9c0,0,0,0,0,0l0.1-0.2c0.6-1.1-5.7-6-14.3-11
						c-9.1-5.1-14.6-7.5-15.6-6.8l-0.2,0.4c0,0-0.1,0-0.1,0l0.3-0.5c0.1-0.1,0.4-0.2,0.6-0.2c2.4,0,9.5,3.8,15.1,6.9
						c7.4,4.4,15,9.8,14.3,11.2L56.6-165.1C56.6-165.1,56.6-165.1,56.6-165.1L56.6-165.1z"/>
				</g>
				<path clip-path="url(#SVGID_16_)" fill="#FFFFFF" d="M31.2-171.7c0,2.8,1.2,5.4,3,7.2c1.9,1.9,4.4,3,7.2,3c2.8,0,5.4-1.1,7.3-3
					c1.9-1.8,3-4.4,3-7.2l0,0v-13.7l-20.5,0V-171.7L31.2-171.7z"/>
				<g clip-path="url(#SVGID_16_)">
					<path d="M41.4-161.4c-2.7,0-5.3-1.1-7.3-3.1c-2-2-3-4.5-3-7.3v-13.7l20.6,0l0.1,13.7c0,2.7-1.1,5.3-3,7.3
						C46.8-162.5,44.2-161.4,41.4-161.4L41.4-161.4z M51.7-185.4l-20.5,0l0.1,13.7c0,2.7,1.1,5.3,3,7.2c2,1.9,4.5,3,7.2,3
						c2.7,0,5.3-1.1,7.2-3c1.9-1.9,3-4.5,3-7.2V-185.4L51.7-185.4z"/>
				</g>
				<path clip-path="url(#SVGID_16_)" fill="#EA0020" d="M31.6-171.7L31.6-171.7c0,2.7,1.1,5.1,2.9,6.9c1.8,1.8,4.3,2.9,7,2.9
					c2.7,0,5.2-1.1,6.9-2.9c1.8-1.8,2.9-4.2,2.9-6.9l0,0V-185H31.6L31.6-171.7L31.6-171.7z M47.3-181v8.5l0,0.9l0,0
					c0,0.2,0,0.5,0,0.7c-0.2,1.3-0.8,2.5-1.7,3.4c-1.1,1.1-2.5,1.7-4.1,1.7c-1.6,0-3.1-0.7-4.1-1.7c-1.1-1.1-1.7-2.6-1.7-4.1v-9.3
					L47.3-181L47.3-181z"/>
				<g clip-path="url(#SVGID_16_)">
					<path d="M41.4-161.9c-2.6,0-5.1-1-7-2.9c-1.9-1.9-2.9-4.4-2.9-7l0-13.3l19.7,0l0,13.3c0,2.6-1,5.1-2.9,7
						C46.5-162.9,44.1-161.9,41.4-161.9L41.4-161.9z M51.2-185l-19.6,0l0,13.2c0,2.6,1,5,2.9,6.9c1.9,1.9,4.3,2.9,6.9,2.9
						c2.6,0,5.1-1,6.9-2.9c1.9-1.9,2.9-4.3,2.9-6.9V-185L51.2-185z M41.4-165.8c-1.5,0-3-0.6-4.2-1.8c-1.1-1.1-1.8-2.6-1.8-4.2v-9.4
						l11.8,0l0,8.5l0,0.9c0,0.2,0,0.5,0,0.7c-0.1,1.3-0.7,2.5-1.7,3.4C44.5-166.4,43-165.8,41.4-165.8L41.4-165.8z M35.6-181l0,9.3
						c0,1.5,0.6,3,1.7,4.1c1.1,1.1,2.6,1.7,4.1,1.7c1.6,0,3-0.6,4.1-1.7c0.9-0.9,1.5-2.1,1.7-3.4c0-0.2,0-0.5,0-0.7l0-9.3L35.6-181
						L35.6-181z"/>
				</g>
				<path clip-path="url(#SVGID_16_)" fill="#1A0095" d="M40.2-173.2L40.2-173.2c0,0.4,0.1,0.7,0.4,1c0.2,0.3,0.6,0.4,0.9,0.4
					c0.4,0,0.7-0.2,0.9-0.4c0.2-0.3,0.4-0.6,0.4-1v-1.9l-2.6,0L40.2-173.2L40.2-173.2z"/>
				<path clip-path="url(#SVGID_16_)" fill="#FFFFFF" d="M42.2-174.6c-0.1,0-0.3,0.1-0.3,0.3c0,0.1,0.1,0.3,0.3,0.3
					c0.1,0,0.3-0.1,0.3-0.3C42.5-174.5,42.4-174.6,42.2-174.6L42.2-174.6z"/>
				<path clip-path="url(#SVGID_16_)" fill="#FFFFFF" d="M41.5-173.9c-0.1,0-0.3,0.1-0.3,0.3c0,0.1,0.1,0.3,0.3,0.3
					c0.1,0,0.3-0.1,0.3-0.3C41.8-173.8,41.7-173.9,41.5-173.9L41.5-173.9z"/>
				<path clip-path="url(#SVGID_16_)" fill="#FFFFFF" d="M42.2-173.2c-0.1,0-0.3,0.1-0.3,0.3c0,0.1,0.1,0.3,0.3,0.3
					c0.1,0,0.3-0.1,0.3-0.3C42.5-173.1,42.4-173.2,42.2-173.2L42.2-173.2z"/>
				<path clip-path="url(#SVGID_16_)" fill="#FFFFFF" d="M40.8-173.2c-0.1,0-0.3,0.1-0.3,0.3c0,0.1,0.1,0.3,0.3,0.3
					c0.1,0,0.3-0.1,0.3-0.3C41.1-173.1,41-173.2,40.8-173.2L40.8-173.2z"/>
				<path clip-path="url(#SVGID_16_)" fill="#FFFFFF" d="M40.8-174.6c-0.1,0-0.3,0.1-0.3,0.2c0,0.1,0.1,0.3,0.3,0.3
					c0.1,0,0.3-0.1,0.3-0.3C41.1-174.5,41-174.6,40.8-174.6L40.8-174.6z"/>
				<path clip-path="url(#SVGID_16_)" fill="#1A0095" d="M40.2-168.8L40.2-168.8c0,0.4,0.1,0.7,0.4,1c0.2,0.3,0.6,0.4,0.9,0.4
					c0.4,0,0.7-0.2,0.9-0.4c0.2-0.3,0.4-0.6,0.4-1v-1.9l-2.6,0V-168.8L40.2-168.8z"/>
				<path clip-path="url(#SVGID_16_)" fill="#FFFFFF" d="M42.2-170.2c-0.1,0-0.3,0.1-0.3,0.3c0,0.1,0.1,0.3,0.3,0.3
					c0.1,0,0.3-0.1,0.3-0.3C42.5-170.1,42.4-170.2,42.2-170.2L42.2-170.2z"/>
				<path clip-path="url(#SVGID_16_)" fill="#FFFFFF" d="M41.5-169.5c-0.1,0-0.3,0.1-0.3,0.3c0,0.1,0.1,0.3,0.3,0.3
					c0.1,0,0.3-0.1,0.3-0.3C41.7-169.4,41.6-169.5,41.5-169.5L41.5-169.5z"/>
				<path clip-path="url(#SVGID_16_)" fill="#FFFFFF" d="M42.2-168.8c-0.1,0-0.3,0.1-0.3,0.3c0,0.1,0.1,0.3,0.3,0.3
					c0.1,0,0.3-0.1,0.3-0.3C42.5-168.7,42.4-168.8,42.2-168.8L42.2-168.8z"/>
				<path clip-path="url(#SVGID_16_)" fill="#FFFFFF" d="M40.8-168.8c-0.1,0-0.3,0.1-0.3,0.3c0,0.1,0.1,0.3,0.3,0.3
					c0.1,0,0.3-0.1,0.3-0.3C41.1-168.6,41-168.8,40.8-168.8L40.8-168.8z"/>
				<path clip-path="url(#SVGID_16_)" fill="#FFFFFF" d="M40.8-170.2c-0.1,0-0.3,0.1-0.3,0.3c0,0.1,0.1,0.3,0.3,0.3
					c0.1,0,0.3-0.1,0.3-0.3C41.1-170.1,40.9-170.2,40.8-170.2L40.8-170.2z"/>
				<path clip-path="url(#SVGID_16_)" fill="#1A0095" d="M36.6-173.2L36.6-173.2c0,0.4,0.2,0.7,0.4,1c0.2,0.3,0.6,0.4,0.9,0.4
					c0.4,0,0.7-0.1,0.9-0.4c0.2-0.3,0.4-0.6,0.4-1v-1.9l-2.6,0L36.6-173.2L36.6-173.2z"/>
				<path clip-path="url(#SVGID_16_)" fill="#FFFFFF" d="M38.6-174.6c-0.1,0-0.3,0.1-0.3,0.3c0,0.1,0.1,0.3,0.3,0.3
					c0.1,0,0.3-0.1,0.3-0.3C38.9-174.5,38.8-174.6,38.6-174.6L38.6-174.6z"/>
				<path clip-path="url(#SVGID_16_)" fill="#FFFFFF" d="M37.9-173.9c-0.1,0-0.3,0.1-0.3,0.3c0,0.1,0.1,0.3,0.3,0.3
					c0.1,0,0.3-0.1,0.3-0.3C38.2-173.8,38.1-173.9,37.9-173.9L37.9-173.9z"/>
				<path clip-path="url(#SVGID_16_)" fill="#FFFFFF" d="M38.6-173.2c-0.1,0-0.3,0.1-0.3,0.3c0,0.1,0.1,0.3,0.3,0.3
					c0.1,0,0.3-0.1,0.3-0.3C38.9-173.1,38.8-173.2,38.6-173.2L38.6-173.2z"/>
				<path clip-path="url(#SVGID_16_)" fill="#FFFFFF" d="M37.2-173.2c-0.1,0-0.3,0.1-0.3,0.3c0,0.1,0.1,0.3,0.3,0.3
					c0.1,0,0.3-0.1,0.3-0.3C37.5-173.1,37.4-173.2,37.2-173.2L37.2-173.2z"/>
				<path clip-path="url(#SVGID_16_)" fill="#FFFFFF" d="M37.2-174.6c-0.1,0-0.2,0.1-0.2,0.3c0,0.1,0.1,0.3,0.2,0.3
					c0.1,0,0.3-0.1,0.3-0.3C37.5-174.5,37.4-174.6,37.2-174.6L37.2-174.6z"/>
				<path clip-path="url(#SVGID_16_)" fill="#1A0095" d="M43.8-173.2L43.8-173.2c0,0.4,0.1,0.7,0.4,1c0.2,0.3,0.6,0.4,0.9,0.4
					c0.4,0,0.7-0.2,0.9-0.4c0.2-0.2,0.4-0.6,0.4-1v-1.9h-2.6L43.8-173.2L43.8-173.2z"/>
				<path clip-path="url(#SVGID_16_)" fill="#FFFFFF" d="M45.8-174.6c-0.2,0-0.3,0.1-0.3,0.3c0,0.1,0.1,0.3,0.3,0.3
					c0.1,0,0.3-0.1,0.3-0.3C46.1-174.5,46-174.6,45.8-174.6L45.8-174.6z"/>
				<path clip-path="url(#SVGID_16_)" fill="#FFFFFF" d="M45.1-173.9c-0.1,0-0.3,0.1-0.3,0.3c0,0.1,0.1,0.3,0.3,0.3s0.3-0.1,0.3-0.3
					C45.4-173.8,45.2-173.9,45.1-173.9L45.1-173.9z"/>
				<path clip-path="url(#SVGID_16_)" fill="#FFFFFF" d="M45.8-173.2c-0.1,0-0.3,0.1-0.3,0.3c0,0.1,0.1,0.3,0.3,0.3
					c0.1,0,0.3-0.1,0.3-0.3C46.1-173.1,46-173.2,45.8-173.2L45.8-173.2z"/>
				<path clip-path="url(#SVGID_16_)" fill="#FFFFFF" d="M44.4-173.2c-0.1,0-0.3,0.1-0.3,0.3c0,0.1,0.1,0.3,0.3,0.3
					c0.1,0,0.3-0.1,0.3-0.3C44.7-173.1,44.6-173.2,44.4-173.2L44.4-173.2z"/>
				<path clip-path="url(#SVGID_16_)" fill="#FFFFFF" d="M44.4-174.6c-0.1,0-0.3,0.1-0.3,0.3c0,0.1,0.1,0.3,0.3,0.3
					c0.1,0,0.3-0.1,0.3-0.3C44.7-174.5,44.6-174.6,44.4-174.6L44.4-174.6z"/>
				<path clip-path="url(#SVGID_16_)" fill="#1A0095" d="M40.2-177.7L40.2-177.7c0,0.4,0.1,0.7,0.4,1c0.2,0.3,0.6,0.4,0.9,0.4
					c0.4,0,0.7-0.2,0.9-0.4c0.2-0.3,0.4-0.6,0.4-1v-1.9h-2.6V-177.7L40.2-177.7z"/>
				<path clip-path="url(#SVGID_16_)" fill="#FFFFFF" d="M42.2-179.1c-0.1,0-0.3,0.1-0.3,0.3c0,0.1,0.1,0.2,0.3,0.2
					c0.1,0,0.3-0.1,0.3-0.2C42.5-179,42.4-179.1,42.2-179.1L42.2-179.1z"/>
				<path clip-path="url(#SVGID_16_)" fill="#FFFFFF" d="M41.5-178.4c-0.1,0-0.3,0.1-0.3,0.3c0,0.1,0.1,0.3,0.3,0.3
					c0.1,0,0.3-0.1,0.3-0.3C41.8-178.3,41.6-178.4,41.5-178.4L41.5-178.4z"/>
				<path clip-path="url(#SVGID_16_)" fill="#FFFFFF" d="M42.2-177.7c-0.1,0-0.3,0.1-0.3,0.2c0,0.1,0.1,0.3,0.3,0.3
					c0.1,0,0.3-0.1,0.3-0.3C42.5-177.6,42.4-177.7,42.2-177.7L42.2-177.7z"/>
				<path clip-path="url(#SVGID_16_)" fill="#FFFFFF" d="M40.8-177.7c-0.1,0-0.3,0.1-0.3,0.2c0,0.2,0.1,0.3,0.3,0.3
					c0.1,0,0.3-0.1,0.3-0.3C41.1-177.6,41-177.7,40.8-177.7L40.8-177.7z"/>
				<path clip-path="url(#SVGID_16_)" fill="#FFFFFF" d="M40.8-179.1c-0.1,0-0.3,0.1-0.3,0.3c0,0.1,0.1,0.2,0.3,0.2
					c0.1,0,0.3-0.1,0.3-0.2C41.1-179,41-179.1,40.8-179.1L40.8-179.1z"/>
				<path clip-path="url(#SVGID_16_)" fill="#FCFF2C" d="M32.9-181.5c0-1,0.7-1.2,0.7-1.2c0,0,0.7,0.2,0.7,1.2L32.9-181.5
					L32.9-181.5z"/>
				<path clip-path="url(#SVGID_16_)" fill="#FCFF2C" d="M32.3-182.7l-0.1,1.1h0.7c0-0.9,0.7-1.1,0.7-1c0,0,0.7,0.2,0.7,1H35
					l-0.1-1.1L32.3-182.7L32.3-182.7z"/>
				<g clip-path="url(#SVGID_16_)">
					<path d="M35.1-181.5h-0.8c-0.1-0.9-0.7-1.1-0.7-1.1c0,0-0.6,0.1-0.7,1l-0.8,0l0.1-1.1l2.6,0L35.1-181.5L35.1-181.5z
						 M33.5-182.7l-1.2,0l-0.1,1.1l0.7,0C32.8-182.4,33.3-182.6,33.5-182.7L33.5-182.7z M33.6-182.7c0.2,0.1,0.7,0.3,0.7,1.1l0.6,0
						l-0.1-1.1L33.6-182.7L33.6-182.7z"/>
				</g>
				<path clip-path="url(#SVGID_16_)" fill="#FCFF2C" d="M32.1-181.6H35c0.1,0,0.1,0.1,0.1,0.1c0,0.1,0,0.1-0.1,0.1h-2.9
					c-0.1,0-0.1-0.1-0.1-0.1C32-181.5,32.1-181.6,32.1-181.6L32.1-181.6z"/>
				<g clip-path="url(#SVGID_16_)">
					<path d="M35-181.3h-2.9c-0.1,0-0.2-0.1-0.2-0.2c0-0.1,0.1-0.2,0.2-0.2H35c0.1,0,0.2,0.1,0.2,0.2
						C35.2-181.3,35.1-181.3,35-181.3L35-181.3z M32.1-181.5v0.2H35c0,0,0.1,0,0.1-0.1L32.1-181.5L32.1-181.5z"/>
				</g>
				<path clip-path="url(#SVGID_16_)" fill="#FCFF2C" d="M33.2-181.6c0-0.6,0.4-0.7,0.4-0.7s0.4,0.2,0.4,0.7H33.2L33.2-181.6z"/>
				<g clip-path="url(#SVGID_16_)">
					<path d="M34-181.6h-0.8c0-0.6,0.4-0.8,0.4-0.8C33.6-182.4,34-182.2,34-181.6L34-181.6L34-181.6z M33.6-182.3
						c0,0-0.3,0.2-0.3,0.7l0.7,0C33.9-182.1,33.6-182.3,33.6-182.3L33.6-182.3z"/>
				</g>
				<path clip-path="url(#SVGID_16_)" fill="#FCFF2C" d="M32.2-183.1H35c0.1,0,0.1,0.1,0.1,0.1c0,0.1-0.1,0.1-0.1,0.1h-2.8
					c-0.1,0-0.1-0.1-0.1-0.1C32.1-183.1,32.1-183.1,32.2-183.1L32.2-183.1z"/>
				<g clip-path="url(#SVGID_16_)">
					<path d="M35-182.9h-2.8c-0.1,0-0.2-0.1-0.2-0.2c0-0.1,0.1-0.2,0.2-0.2H35c0.1,0,0.1,0.1,0.1,0.2
						C35.1-182.9,35.1-182.9,35-182.9L35-182.9z M32.2-183.1v0.2H35c0,0,0.1,0,0.1-0.1L32.2-183.1L32.2-183.1z"/>
				</g>
				<path clip-path="url(#SVGID_16_)" fill="#FCFF2C" d="M32.2-182.9h2.7c0.1,0,0.1,0.1,0.1,0.1c0,0.1,0,0.1-0.1,0.1h-2.7
					c-0.1,0-0.1-0.1-0.1-0.1C32.1-182.8,32.2-182.9,32.2-182.9L32.2-182.9z"/>
				<g clip-path="url(#SVGID_16_)">
					<path d="M34.9-182.6h-2.7c-0.1,0-0.1-0.1-0.1-0.2c0-0.1,0.1-0.2,0.1-0.2h2.7c0.1,0,0.1,0.1,0.1,0.2
						C35.1-182.7,35-182.6,34.9-182.6L34.9-182.6z M32.2-182.9v0.2h2.7c0,0,0.1,0,0.1-0.1L32.2-182.9L32.2-182.9z"/>
				</g>
				<path clip-path="url(#SVGID_16_)" fill="#FCFF2C" d="M33.1-184.7h0.2v0.2h0.2v-0.2h0.2v0.2h0.2v-0.2h0.2v0.3
					c0,0.1,0,0.1-0.1,0.1h-0.8c0,0-0.1,0-0.1-0.1V-184.7L33.1-184.7z"/>
				<g clip-path="url(#SVGID_16_)">
					<path d="M34-184.3h-0.8l-0.1-0.1v-0.3l0.3,0l0,0.2l0.1,0l0-0.1l0.3,0l0,0.2l0.1,0l0-0.1l0.3,0l0,0.4L34-184.3L34-184.3z
						 M33.3-184.7l-0.2,0l0,0.3l0.8,0.1l0.1-0.1v-0.3l-0.2,0l0,0.1l-0.2,0l0-0.2l-0.2,0l0,0.1l-0.2,0L33.3-184.7L33.3-184.7z"/>
				</g>
				<polygon clip-path="url(#SVGID_16_)" fill="#FCFF2C" points="33.9,-184.3 34,-183.1 33.2,-183.1 33.3,-184.3 33.9,-184.3 				
					"/>
				<g clip-path="url(#SVGID_16_)">
					<path d="M34-183.1h-0.8l0-1.2l0.7,0L34-183.1L34-183.1z M33.9-184.3l-0.6,0l0,1.1l0.7,0L33.9-184.3L33.9-184.3z"/>
				</g>
				<path clip-path="url(#SVGID_16_)" fill="#FCFF2C" d="M34-184.2h0.2v0.1h0.2v-0.2h0.2v0.2h0.2v-0.2H35v0.3c0,0.1,0,0.1-0.1,0.1
					h-0.7c-0.1,0-0.1,0-0.1-0.1V-184.2L34-184.2z"/>
				<g clip-path="url(#SVGID_16_)">
					<path d="M34.9-183.7h-0.8l-0.1-0.1v-0.3l0.3,0l0,0.2l0.1,0l0-0.1l0.3,0l0,0.2l0.1,0l0-0.1l0.2,0l0,0.4L34.9-183.7L34.9-183.7z
						 M34.2-184.2l-0.2,0l0,0.3l0.8,0.1l0.1-0.1v-0.3l-0.2,0l0,0.1l-0.2,0l0-0.2l-0.2,0l0,0.1l-0.2,0L34.2-184.2L34.2-184.2z"/>
				</g>
				<polygon clip-path="url(#SVGID_16_)" fill="#FCFF2C" points="34.8,-183.7 34.8,-183.1 34.1,-183.1 34.2,-183.7 				"/>
				<g clip-path="url(#SVGID_16_)">
					<path d="M34.9-183.1h-0.8l0-0.6l0.7,0L34.9-183.1L34.9-183.1z M34.8-183.7l-0.6,0l0,0.6l0.6,0L34.8-183.7L34.8-183.7z"/>
				</g>
				<path clip-path="url(#SVGID_16_)" fill="#FCFF2C" d="M32.2-184.2h0.2v0.2h0.2v-0.2l0.2,0v0.2h0.2v-0.2h0.2v0.3
					c0,0.1,0,0.1-0.1,0.1h-0.7c0,0-0.1,0-0.1-0.1V-184.2L32.2-184.2z"/>
				<g clip-path="url(#SVGID_16_)">
					<path d="M33-183.7h-0.8l-0.1-0.1v-0.3l0.3,0l0,0.2l0.1,0l0-0.1l0.3,0l0,0.2l0.1,0l0-0.1l0.3,0l0,0.4L33-183.7L33-183.7z
						 M32.4-184.2l-0.2,0l0,0.3l0.8,0.1l0.1-0.1v-0.3l-0.2,0l0,0.1l-0.2,0l0-0.2l-0.2,0l0,0.1l-0.2,0L32.4-184.2L32.4-184.2z"/>
				</g>
				<polygon clip-path="url(#SVGID_16_)" fill="#FCFF2C" points="33,-183.7 33,-183.1 32.3,-183.1 32.3,-183.7 				"/>
				<g clip-path="url(#SVGID_16_)">
					<path d="M33.1-183.1h-0.8l0-0.7l0.7,0L33.1-183.1L33.1-183.1z M32.9-183.7l-0.6,0l0,0.6l0.6,0L32.9-183.7L32.9-183.7z"/>
				</g>
				<path clip-path="url(#SVGID_16_)" d="M33.5-183.9c0-0.1,0.1-0.1,0.1,0v0.3h-0.1V-183.9L33.5-183.9z"/>
				<path clip-path="url(#SVGID_16_)" d="M34.4-183.5c0-0.1,0.1-0.1,0.1,0v0.2h-0.1V-183.5L34.4-183.5z"/>
				<path clip-path="url(#SVGID_16_)" d="M32.6-183.5c0-0.1,0.1-0.1,0.1,0v0.2h-0.1V-183.5L32.6-183.5z"/>
				<path clip-path="url(#SVGID_16_)" fill="#FCFF2C" d="M41-184.7h0.2v0.2h0.1v-0.2h0.2v0.2h0.2v-0.2H42v0.3c0,0.1,0,0.1-0.1,0.1
					h-0.8c0,0-0.1,0-0.1-0.1V-184.7L41-184.7z"/>
				<g clip-path="url(#SVGID_16_)">
					<path d="M41.9-184.2h-0.8l-0.1-0.1v-0.3l0.3,0l0,0.2l0.1,0l0-0.1l0.3,0l0,0.2l0.1,0l0-0.1l0.3,0l0,0.4L41.9-184.2L41.9-184.2z
						 M41.2-184.7l-0.2,0l0,0.3l0.8,0.1l0-0.1v-0.3l-0.2,0l0,0.1l-0.2,0l0-0.2l-0.2,0l0,0.1l-0.2,0L41.2-184.7L41.2-184.7z"/>
				</g>
				<polygon clip-path="url(#SVGID_16_)" fill="#FCFF2C" points="41.8,-184.3 41.8,-183.1 41.1,-183.1 41.2,-184.3 41.8,-184.3 				
					"/>
				<g clip-path="url(#SVGID_16_)">
					<path d="M41.9-183.1h-0.8l0-1.2l0.7,0L41.9-183.1L41.9-183.1z M41.8-184.3l-0.6,0l0,1.1l0.7,0L41.8-184.3L41.8-184.3z"/>
				</g>
				<path clip-path="url(#SVGID_16_)" fill="#FCFF2C" d="M41.9-184.2h0.2v0.1h0.2v-0.2h0.2v0.2h0.1v-0.2h0.2v0.3
					c0,0.1,0,0.1-0.1,0.1H42c-0.1,0-0.1,0-0.1-0.1V-184.2L41.9-184.2z"/>
				<g clip-path="url(#SVGID_16_)">
					<path d="M42.8-183.7H42l-0.1-0.1v-0.3l0.2,0l0,0.2l0.1,0l0-0.1l0.3,0l0,0.2l0.1,0l0-0.1l0.3,0l0,0.4L42.8-183.7L42.8-183.7z
						 M42.1-184.2l-0.2,0l0,0.3l0.8,0.1l0.1-0.1v-0.3l-0.2,0l0,0.1l-0.2,0l0-0.2l-0.2,0l0,0.1l-0.2,0L42.1-184.2L42.1-184.2z"/>
				</g>
				<polygon clip-path="url(#SVGID_16_)" fill="#FCFF2C" points="42.7,-183.7 42.7,-183.1 42,-183.1 42.1,-183.7 				"/>
				<g clip-path="url(#SVGID_16_)">
					<path d="M42-183.1l0-0.7l0.7,0l0.1,0.7L42-183.1L42-183.1z M42.7-183.7l-0.6,0l0,0.5h0.7L42.7-183.7L42.7-183.7z"/>
				</g>
				<path clip-path="url(#SVGID_16_)" fill="#FCFF2C" d="M40.1-184.2h0.2v0.1h0.2v-0.2h0.2v0.2h0.1v-0.2H41l0,0.4c0,0,0,0.1-0.1,0.1
					h-0.7c0,0-0.1,0-0.1-0.1V-184.2L40.1-184.2z"/>
				<g clip-path="url(#SVGID_16_)">
					<path d="M40.9-183.7h-0.8l-0.1-0.1v-0.3l0.3,0l0,0.2l0.1,0l0-0.1l0.3,0l0,0.2l0.1,0l0-0.1l0.3,0l0,0.4L40.9-183.7L40.9-183.7z
						 M40.3-184.2l-0.2,0l0,0.3l0.8,0.1l0-0.1v-0.4l-0.2,0l0,0.1l-0.2,0l0-0.2l-0.2,0l0,0.1l-0.2,0L40.3-184.2L40.3-184.2z"/>
				</g>
				<polygon clip-path="url(#SVGID_16_)" fill="#FCFF2C" points="40.9,-183.7 40.9,-183.1 40.2,-183.1 40.2,-183.7 				"/>
				<g clip-path="url(#SVGID_16_)">
					<path d="M41-183.1h-0.8l0-0.6l0.7,0L41-183.1L41-183.1z M40.8-183.7l-0.6,0l0,0.6l0.6,0L40.8-183.7L40.8-183.7z"/>
				</g>
				<path clip-path="url(#SVGID_16_)" fill="#FCFF2C" d="M40.8-181.5c0-1,0.7-1.2,0.7-1.2c0,0,0.7,0.2,0.7,1.2L40.8-181.5
					L40.8-181.5z"/>
				<path clip-path="url(#SVGID_16_)" fill="#FCFF2C" d="M40.2-182.7l-0.1,1.1h0.7c0-0.9,0.7-1.1,0.7-1c0,0,0.7,0.2,0.7,1h0.7
					l-0.1-1.1L40.2-182.7L40.2-182.7z"/>
				<g clip-path="url(#SVGID_16_)">
					<path d="M42.9-181.5h-0.8c-0.1-0.9-0.7-1.1-0.7-1.1c0,0-0.6,0.1-0.7,1l-0.8,0l0.1-1.1l2.6,0L42.9-181.5L42.9-181.5z
						 M41.4-182.7l-1.2,0l-0.1,1l0.7,0C40.7-182.4,41.2-182.6,41.4-182.7L41.4-182.7z M41.5-182.7c0.2,0.1,0.7,0.3,0.7,1.1l0.6,0
						l-0.1-1.1L41.5-182.7L41.5-182.7z"/>
				</g>
				<path clip-path="url(#SVGID_16_)" fill="#FCFF2C" d="M40-181.6h2.9c0.1,0,0.1,0.1,0.1,0.1c0,0.1,0,0.1-0.1,0.1H40
					c-0.1,0-0.1-0.1-0.1-0.1C39.9-181.5,40-181.6,40-181.6L40-181.6z"/>
				<g clip-path="url(#SVGID_16_)">
					<path d="M42.9-181.3H40c-0.1,0-0.1-0.1-0.1-0.2c0-0.1,0.1-0.2,0.1-0.2h2.9c0.1,0,0.2,0.1,0.2,0.2
						C43.1-181.3,43-181.3,42.9-181.3L42.9-181.3z M40-181.5v0.2h2.9c0,0,0.1,0,0.1-0.1L40-181.5L40-181.5z"/>
				</g>
				<path clip-path="url(#SVGID_16_)" fill="#FCFF2C" d="M41.1-181.6c0-0.6,0.4-0.7,0.4-0.7s0.4,0.2,0.4,0.7H41.1L41.1-181.6z"/>
				<g clip-path="url(#SVGID_16_)">
					<path d="M41.9-181.5h-0.8c0-0.6,0.4-0.8,0.4-0.8C41.5-182.4,41.9-182.2,41.9-181.5L41.9-181.5L41.9-181.5z M41.5-182.3
						c0,0-0.3,0.2-0.3,0.7l0.7,0C41.8-182.1,41.5-182.3,41.5-182.3L41.5-182.3z"/>
				</g>
				<path clip-path="url(#SVGID_16_)" fill="#FCFF2C" d="M40.1-183.1h2.8c0.1,0,0.1,0.1,0.1,0.1c0,0.1,0,0.1-0.1,0.1h-2.8
					c-0.1,0-0.1-0.1-0.1-0.1C40-183.1,40-183.1,40.1-183.1L40.1-183.1z"/>
				<g clip-path="url(#SVGID_16_)">
					<path d="M42.9-182.9h-2.8c-0.1,0-0.1-0.1-0.1-0.2c0-0.1,0.1-0.2,0.1-0.2h2.8c0.1,0,0.2,0.1,0.2,0.2
						C43-182.9,43-182.9,42.9-182.9L42.9-182.9z M40.1-183.1v0.2h2.8c0,0,0.1,0,0.1-0.1L40.1-183.1L40.1-183.1z"/>
				</g>
				<path clip-path="url(#SVGID_16_)" fill="#FCFF2C" d="M40.1-182.9h2.7c0.1,0,0.1,0.1,0.1,0.1c0,0.1,0,0.1-0.1,0.1h-2.7
					c-0.1,0-0.1-0.1-0.1-0.1C40-182.8,40.1-182.9,40.1-182.9L40.1-182.9z"/>
				<g clip-path="url(#SVGID_16_)">
					<path d="M42.8-182.6h-2.7c-0.1,0-0.2-0.1-0.2-0.2c0-0.1,0.1-0.2,0.2-0.2h2.7c0.1,0,0.1,0.1,0.1,0.2
						C43-182.7,42.9-182.6,42.8-182.6L42.8-182.6z M40.1-182.9v0.2h2.7c0,0,0.1,0,0.1-0.1L40.1-182.9L40.1-182.9z"/>
				</g>
				<path clip-path="url(#SVGID_16_)" d="M41.4-183.9c0-0.1,0.1-0.1,0.1,0v0.3h-0.1V-183.9L41.4-183.9z"/>
				<path clip-path="url(#SVGID_16_)" d="M42.3-183.5c0-0.1,0.1-0.1,0.1,0v0.2h-0.1V-183.5L42.3-183.5z"/>
				<path clip-path="url(#SVGID_16_)" d="M40.5-183.5c0-0.1,0.1-0.1,0.1,0v0.2h-0.1V-183.5L40.5-183.5z"/>
				<path clip-path="url(#SVGID_16_)" fill="#FCFF2C" d="M48.8-184.7H49v0.1h0.2v-0.2h0.2v0.2h0.1v-0.2h0.2v0.3c0,0.1,0,0.1-0.1,0.1
					h-0.8c0,0-0.1,0-0.1-0.1V-184.7L48.8-184.7z"/>
				<g clip-path="url(#SVGID_16_)">
					<path d="M49.7-184.2h-0.8l-0.1-0.1v-0.3l0.3,0l0,0.2l0.1,0l0-0.1l0.3,0l0,0.2l0.1,0l0-0.1l0.3,0l0,0.4L49.7-184.2L49.7-184.2z
						 M49-184.7l-0.2,0l0,0.3l0.8,0.1l0.1-0.1v-0.3l-0.2,0l0,0.1l-0.2,0l0-0.2l-0.2,0l0,0.1l-0.2,0L49-184.7L49-184.7z"/>
				</g>
				<polygon clip-path="url(#SVGID_16_)" fill="#FCFF2C" points="49.6,-184.3 49.7,-183.1 48.9,-183.1 49,-184.3 				"/>
				<g clip-path="url(#SVGID_16_)">
					<path d="M49.7-183.1l-0.8,0v-1.2l0.7,0L49.7-183.1L49.7-183.1z M49.6-184.3l-0.6,0v1.1l0.7,0L49.6-184.3L49.6-184.3z"/>
				</g>
				<path clip-path="url(#SVGID_16_)" fill="#FCFF2C" d="M49.7-184.2h0.2v0.1h0.1v-0.2h0.2v0.2h0.2v-0.2h0.2v0.3
					c0,0.1,0,0.1-0.1,0.1h-0.8c0,0-0.1,0-0.1-0.1L49.7-184.2L49.7-184.2z"/>
				<g clip-path="url(#SVGID_16_)">
					<path d="M50.6-183.7h-0.8l-0.1-0.1v-0.3l0.3,0l0,0.2l0.1,0l0-0.1l0.3,0l0,0.2l0.1,0l0-0.1l0.3,0l0,0.4L50.6-183.7L50.6-183.7z
						 M49.9-184.2l-0.2,0l0,0.3l0.8,0.1l0-0.1v-0.3l-0.2,0l0,0.1l-0.2,0l0-0.2l-0.2,0l0,0.1l-0.2,0L49.9-184.2L49.9-184.2z"/>
				</g>
				<polygon clip-path="url(#SVGID_16_)" fill="#FCFF2C" points="50.5,-183.7 50.6,-183.1 49.8,-183.1 49.9,-183.7 				"/>
				<g clip-path="url(#SVGID_16_)">
					<path d="M50.6-183.1h-0.8l0-0.6l0.7,0L50.6-183.1L50.6-183.1z M50.5-183.7l-0.6,0l0,0.6l0.6,0L50.5-183.7L50.5-183.7z"/>
				</g>
				<path clip-path="url(#SVGID_16_)" fill="#FCFF2C" d="M47.9-184.2h0.2v0.1h0.2v-0.1h0.2v0.1h0.2v-0.1h0.2v0.3
					c0,0.1,0,0.1-0.1,0.1H48c-0.1,0-0.1,0-0.1-0.1V-184.2L47.9-184.2z"/>
				<g clip-path="url(#SVGID_16_)">
					<path d="M48.7-183.7H48l-0.1-0.1v-0.3l0.2,0l0,0.2l0.1,0l0-0.1l0.2,0l0,0.2l0.1,0l0-0.1l0.3,0l0,0.4L48.7-183.7L48.7-183.7z
						 M48.1-184.2l-0.2,0l0,0.3l0.8,0.1l0.1-0.1v-0.3l-0.2,0l0,0.1l-0.2,0l0-0.2l-0.2,0l0,0.1l-0.2,0L48.1-184.2L48.1-184.2z"/>
				</g>
				<polygon clip-path="url(#SVGID_16_)" fill="#FCFF2C" points="48.7,-183.7 48.7,-183.1 48,-183.1 48,-183.7 				"/>
				<g clip-path="url(#SVGID_16_)">
					<path d="M48.8-183.1H48l0-0.6l0.7,0L48.8-183.1L48.8-183.1z M48.7-183.7l-0.6,0l0,0.6l0.6,0L48.7-183.7L48.7-183.7z"/>
				</g>
				<path clip-path="url(#SVGID_16_)" fill="#FCFF2C" d="M48.6-181.5c0-1,0.7-1.2,0.7-1.2c0,0,0.7,0.2,0.7,1.2L48.6-181.5
					L48.6-181.5z"/>
				<path clip-path="url(#SVGID_16_)" fill="#FCFF2C" d="M48-182.7l-0.1,1.1h0.7c0-0.9,0.7-1.1,0.7-1.1c0,0,0.7,0.2,0.7,1.1h0.7
					l-0.1-1.1H48L48-182.7z"/>
				<g clip-path="url(#SVGID_16_)">
					<path d="M50.8-181.5H50c-0.1-0.9-0.7-1.1-0.7-1.1s-0.7,0.1-0.7,1l-0.8,0l0.1-1.1l2.6,0L50.8-181.5L50.8-181.5z M49.2-182.7
						l-1.2,0l-0.1,1.1l0.7,0C48.6-182.4,49-182.6,49.2-182.7L49.2-182.7z M49.3-182.7c0.2,0.1,0.7,0.3,0.7,1.1l0.6,0l-0.1-1.1
						L49.3-182.7L49.3-182.7z"/>
				</g>
				<path clip-path="url(#SVGID_16_)" fill="#FCFF2C" d="M47.8-181.6h2.9c0.1,0,0.1,0.1,0.1,0.1c0,0.1-0.1,0.1-0.1,0.1h-2.9
					c-0.1,0-0.1-0.1-0.1-0.1C47.7-181.5,47.8-181.6,47.8-181.6L47.8-181.6z"/>
				<g clip-path="url(#SVGID_16_)">
					<path d="M50.8-181.3h-2.9c-0.1,0-0.2-0.1-0.2-0.2c0-0.1,0.1-0.2,0.2-0.2h2.9c0.1,0,0.2,0.1,0.2,0.2
						C50.9-181.3,50.8-181.3,50.8-181.3L50.8-181.3z M47.8-181.5v0.2h2.9c0,0,0.1,0,0.1-0.1L47.8-181.5L47.8-181.5z"/>
				</g>
				<path clip-path="url(#SVGID_16_)" fill="#FCFF2C" d="M48.9-181.6c0-0.6,0.4-0.7,0.4-0.7c0,0,0.4,0.2,0.4,0.7H48.9L48.9-181.6z"
					/>
				<g clip-path="url(#SVGID_16_)">
					<path d="M49.7-181.5h-0.8c0-0.6,0.4-0.8,0.4-0.8C49.3-182.4,49.7-182.2,49.7-181.5L49.7-181.5L49.7-181.5z M49.3-182.3
						c0,0-0.3,0.2-0.3,0.7l0.7,0C49.6-182.1,49.3-182.3,49.3-182.3L49.3-182.3z"/>
				</g>
				<path clip-path="url(#SVGID_16_)" fill="#FCFF2C" d="M47.9-183.1h2.8c0.1,0,0.1,0.1,0.1,0.1c0,0.1,0,0.1-0.1,0.1h-2.8
					c-0.1,0-0.1-0.1-0.1-0.1C47.8-183.1,47.8-183.1,47.9-183.1L47.9-183.1z"/>
				<g clip-path="url(#SVGID_16_)">
					<path d="M50.7-182.9h-2.8c-0.1,0-0.2-0.1-0.2-0.2c0-0.1,0.1-0.2,0.2-0.2h2.8c0.1,0,0.1,0.1,0.1,0.2
						C50.8-182.9,50.8-182.9,50.7-182.9L50.7-182.9z M47.9-183.1v0.2h2.8c0,0,0.1,0,0.1-0.1L47.9-183.1L47.9-183.1z"/>
				</g>
				<path clip-path="url(#SVGID_16_)" fill="#FCFF2C" d="M47.9-182.9h2.7c0.1,0,0.1,0.1,0.1,0.1c0,0.1-0.1,0.1-0.1,0.1h-2.7
					c-0.1,0-0.1,0-0.1-0.1C47.8-182.8,47.9-182.9,47.9-182.9L47.9-182.9z"/>
				<g clip-path="url(#SVGID_16_)">
					<path d="M50.6-182.6h-2.7c-0.1,0-0.1-0.1-0.1-0.2c0-0.1,0.1-0.2,0.1-0.2h2.7c0.1,0,0.1,0.1,0.1,0.2
						C50.8-182.7,50.7-182.6,50.6-182.6L50.6-182.6z M47.9-182.9v0.2h2.7c0,0,0.1,0,0.1-0.1L47.9-182.9L47.9-182.9z"/>
				</g>
				<path clip-path="url(#SVGID_16_)" d="M49.2-183.9c0-0.1,0.2-0.1,0.2,0v0.3h-0.2V-183.9L49.2-183.9z"/>
				<path clip-path="url(#SVGID_16_)" d="M50.1-183.5c0-0.1,0.2-0.1,0.1,0v0.2h-0.1V-183.5L50.1-183.5z"/>
				<path clip-path="url(#SVGID_16_)" d="M48.3-183.5c0-0.1,0.2-0.1,0.2,0v0.2h-0.2V-183.5L48.3-183.5z"/>
				<path clip-path="url(#SVGID_16_)" fill="#FCFF2C" d="M33.1-176.7h0.2v0.2h0.2v-0.2h0.2v0.2h0.1v-0.2h0.2v0.3
					c0,0.1,0,0.1-0.1,0.1h-0.8c0,0-0.1,0-0.1-0.1V-176.7L33.1-176.7z"/>
				<g clip-path="url(#SVGID_16_)">
					<path d="M34-176.2h-0.8l-0.1-0.1v-0.3l0.2,0l0,0.2l0.1,0l0-0.1l0.3,0l0,0.2l0.1,0l0-0.1l0.3,0l0,0.4L34-176.2L34-176.2z
						 M33.3-176.7l-0.2,0l0,0.3l0.8,0.1l0.1-0.1v-0.3l-0.2,0l0,0.1l-0.2,0l0-0.2l-0.2,0l0,0.1l-0.2,0L33.3-176.7L33.3-176.7z"/>
				</g>
				<polygon clip-path="url(#SVGID_16_)" fill="#FCFF2C" points="33.9,-176.3 34,-175.1 33.2,-175.1 33.3,-176.3 33.9,-176.3 				
					"/>
				<g clip-path="url(#SVGID_16_)">
					<path d="M34-175.1l-0.8,0v-1.2l0.7,0L34-175.1L34-175.1z M33.9-176.3l-0.6,0v1.1l0.7,0L33.9-176.3L33.9-176.3z"/>
				</g>
				<path clip-path="url(#SVGID_16_)" fill="#FCFF2C" d="M34-176.2h0.2v0.2h0.2v-0.2h0.2v0.2h0.2v-0.2H35v0.4c0,0.1,0,0.1-0.1,0.1
					h-0.7c0,0-0.1,0-0.1-0.1V-176.2L34-176.2z"/>
				<g clip-path="url(#SVGID_16_)">
					<path d="M34.9-175.7h-0.8l-0.1-0.1v-0.4l0.2,0l0,0.2l0.1,0l0-0.1l0.3,0l0,0.2l0.1,0l0-0.1l0.2,0l0,0.4L34.9-175.7L34.9-175.7z
						 M34.2-176.2l-0.2,0l0,0.3l0.8,0.1l0.1-0.1v-0.4l-0.2,0l0,0.1l-0.2,0l0-0.2l-0.2,0l0,0.1l-0.2,0L34.2-176.2L34.2-176.2z"/>
				</g>
				<polygon clip-path="url(#SVGID_16_)" fill="#FCFF2C" points="34.8,-175.7 34.9,-175.1 34.1,-175.1 34.2,-175.7 				"/>
				<g clip-path="url(#SVGID_16_)">
					<path d="M34.9-175.1h-0.8l0-0.6l0.7,0L34.9-175.1L34.9-175.1z M34.8-175.7l-0.6,0l0,0.6l0.6,0L34.8-175.7L34.8-175.7z"/>
				</g>
				<path clip-path="url(#SVGID_16_)" fill="#FCFF2C" d="M32.2-176.2h0.2v0.1h0.2v-0.2h0.2v0.2h0.2v-0.2h0.2v0.4
					c0,0.1,0,0.1-0.1,0.1h-0.7c-0.1,0-0.1,0-0.1-0.1V-176.2L32.2-176.2z"/>
				<g clip-path="url(#SVGID_16_)">
					<path d="M33-175.7h-0.8l-0.1-0.1v-0.3l0.2,0l0,0.2l0.1,0l0-0.1l0.3,0l0,0.2l0.1,0l0-0.1l0.3,0l0,0.4L33-175.7L33-175.7z
						 M32.4-176.2l-0.2,0l0,0.3l0.8,0.1l0.1-0.1v-0.4l-0.2,0l0,0.1l-0.2,0l0-0.2l-0.2,0l0,0.1l-0.2,0L32.4-176.2L32.4-176.2z"/>
				</g>
				<polygon clip-path="url(#SVGID_16_)" fill="#FCFF2C" points="33,-175.7 33,-175.1 32.3,-175.1 32.3,-175.7 				"/>
				<g clip-path="url(#SVGID_16_)">
					<path d="M33.1-175.1h-0.8l0-0.6l0.7,0L33.1-175.1L33.1-175.1z M33-175.7l-0.6,0l0,0.6l0.6,0L33-175.7L33-175.7z"/>
				</g>
				<path clip-path="url(#SVGID_16_)" fill="#FCFF2C" d="M32.9-173.5c0-1,0.7-1.2,0.7-1.2c0,0,0.7,0.2,0.7,1.2L32.9-173.5
					L32.9-173.5z"/>
				<path clip-path="url(#SVGID_16_)" fill="#FCFF2C" d="M32.3-174.7l-0.1,1.1h0.7c0-0.9,0.7-1.1,0.7-1.1c0,0,0.7,0.2,0.7,1.1H35
					l-0.1-1.1L32.3-174.7L32.3-174.7z"/>
				<g clip-path="url(#SVGID_16_)">
					<path d="M35.1-173.5h-0.8c-0.1-0.9-0.7-1.1-0.7-1.1c0,0-0.6,0.1-0.7,1l-0.8,0l0.1-1.1l2.6,0L35.1-173.5L35.1-173.5z
						 M33.5-174.7l-1.2,0l-0.1,1.1l0.7-0.1C32.9-174.4,33.3-174.6,33.5-174.7L33.5-174.7z M33.6-174.7c0.2,0.1,0.7,0.3,0.7,1.1
						l0.6,0l-0.1-1.1L33.6-174.7L33.6-174.7z"/>
				</g>
				<path clip-path="url(#SVGID_16_)" fill="#FCFF2C" d="M32.1-173.6H35c0.1,0,0.1,0.1,0.1,0.1c0,0.1-0.1,0.1-0.1,0.1h-2.9
					c-0.1,0-0.1-0.1-0.1-0.1C32-173.5,32.1-173.6,32.1-173.6L32.1-173.6z"/>
				<g clip-path="url(#SVGID_16_)">
					<path d="M35-173.3h-2.9c-0.1,0-0.2-0.1-0.2-0.2c0-0.1,0.1-0.2,0.2-0.2H35c0.1,0,0.2,0.1,0.2,0.2
						C35.2-173.3,35.1-173.3,35-173.3L35-173.3z M32.1-173.5v0.2H35c0,0,0.1,0,0.1-0.1L32.1-173.5L32.1-173.5z"/>
				</g>
				<path clip-path="url(#SVGID_16_)" fill="#FCFF2C" d="M33.2-173.6c0-0.6,0.4-0.7,0.4-0.7s0.4,0.2,0.4,0.7H33.2L33.2-173.6z"/>
				<g clip-path="url(#SVGID_16_)">
					<path d="M34-173.5h-0.9c0-0.6,0.4-0.8,0.4-0.8C33.6-174.4,34-174.2,34-173.5L34-173.5L34-173.5z M33.6-174.3
						c0,0-0.3,0.2-0.3,0.7l0.7,0C33.9-174.1,33.6-174.3,33.6-174.3L33.6-174.3z"/>
				</g>
				<path clip-path="url(#SVGID_16_)" fill="#FCFF2C" d="M32.2-175.1H35c0.1,0,0.1,0.1,0.1,0.1c0,0.1,0,0.1-0.1,0.1h-2.8
					c-0.1,0-0.1-0.1-0.1-0.1C32.1-175.1,32.1-175.1,32.2-175.1L32.2-175.1z"/>
				<g clip-path="url(#SVGID_16_)">
					<path d="M35-174.8h-2.8c-0.1,0-0.2-0.1-0.2-0.2c0-0.1,0.1-0.2,0.2-0.2H35c0.1,0,0.1,0.1,0.1,0.2S35.1-174.8,35-174.8L35-174.8z
						 M32.2-175.1v0.2H35c0,0,0.1,0,0.1-0.1L32.2-175.1L32.2-175.1z"/>
				</g>
				<path clip-path="url(#SVGID_16_)" fill="#FCFF2C" d="M32.2-174.9h2.7c0.1,0,0.1,0.1,0.1,0.1c0,0.1,0,0.1-0.1,0.1h-2.7
					c-0.1,0-0.1-0.1-0.1-0.1C32.1-174.8,32.2-174.9,32.2-174.9L32.2-174.9z"/>
				<g clip-path="url(#SVGID_16_)">
					<path d="M34.9-174.6h-2.7c-0.1,0-0.2-0.1-0.2-0.2c0-0.1,0.1-0.2,0.2-0.2h2.7c0.1,0,0.2,0.1,0.2,0.2
						C35.1-174.7,35-174.6,34.9-174.6L34.9-174.6z M32.2-174.8v0.2h2.7c0,0,0.1,0,0.1-0.1L32.2-174.8L32.2-174.8z"/>
				</g>
				<path clip-path="url(#SVGID_16_)" d="M33.5-175.9c0-0.1,0.2-0.1,0.2,0v0.3h-0.2V-175.9L33.5-175.9z"/>
				<path clip-path="url(#SVGID_16_)" d="M34.4-175.5c0-0.1,0.1-0.1,0.1,0v0.2h-0.1V-175.5L34.4-175.5z"/>
				<path clip-path="url(#SVGID_16_)" d="M32.6-175.5c0-0.1,0.1-0.1,0.1,0v0.2h-0.1V-175.5L32.6-175.5z"/>
				<path clip-path="url(#SVGID_16_)" fill="#FCFF2C" d="M48.4-168.3l0.1,0.2l-0.1,0.1l0.1,0.1l0.1-0.1l0.2,0.2l-0.1,0.1l0.1,0.1
					l0.1-0.1l0.2,0.2l-0.2,0.2c0,0-0.1,0-0.1,0l-0.5-0.5c0,0,0-0.1,0-0.1L48.4-168.3L48.4-168.3z"/>
				<g clip-path="url(#SVGID_16_)">
					<path d="M48.7-167.3L48.7-167.3l-0.7-0.6l0-0.2l0.2-0.2l0.2,0.2l-0.1,0.2l0.1,0l0.1-0.1l0.2,0.2l-0.1,0.2l0.1,0.1l0-0.1
						l0.2,0.2L48.7-167.3L48.7-167.3z M48.3-168.2l-0.2,0.2l0.6,0.7l0-0.1l0.2-0.2l-0.2-0.1l0,0.1l-0.2-0.1l0.1-0.2l-0.2-0.1
						l-0.1,0.1l-0.2-0.1l0.1-0.2L48.3-168.2L48.3-168.2z"/>
				</g>
				<polygon clip-path="url(#SVGID_16_)" fill="#FCFF2C" points="48.6,-167.4 47.8,-166.6 47.3,-167.1 48.1,-167.8 				"/>
				<g clip-path="url(#SVGID_16_)">
					<path d="M47.8-166.5l-0.6-0.6l0.8-0.8l0.5,0.5L47.8-166.5L47.8-166.5z M48.1-167.8l-0.8,0.8l0.5,0.4l0.7-0.8L48.1-167.8
						L48.1-167.8z"/>
				</g>
				<path clip-path="url(#SVGID_16_)" fill="#FCFF2C" d="M48.6-167.2l0.1,0.1l-0.1,0.1l0.1,0.1l0.1-0.1l0.2,0.1l-0.1,0.1l0.1,0.1
					l0.1-0.1l0.2,0.2l-0.2,0.2c0,0-0.1,0-0.1,0l-0.5-0.5c0,0,0-0.1,0-0.1L48.6-167.2L48.6-167.2z"/>
				<g clip-path="url(#SVGID_16_)">
					<path d="M49-166.3l-0.1,0l-0.6-0.6l0-0.2l0.2-0.2l0.2,0.1l-0.1,0.2l0.1,0l0-0.1l0.2,0.2l-0.1,0.2l0.1,0l0-0.1l0.2,0.2L49-166.3
						L49-166.3z M48.6-167.2l-0.2,0.2l0.6,0.7l0-0.1l0.3-0.2l-0.2-0.1l0,0.1l-0.2-0.1l0.1-0.2l-0.2-0.1l0,0.1l-0.2-0.1l0.1-0.2
						L48.6-167.2L48.6-167.2z"/>
				</g>
				<polygon clip-path="url(#SVGID_16_)" fill="#FCFF2C" points="48.9,-166.4 48.5,-165.9 48,-166.4 48.4,-166.8 48.9,-166.4 				
					"/>
				<g clip-path="url(#SVGID_16_)">
					<path d="M48.5-165.9l-0.5-0.5l0.4-0.5l0.5,0.5L48.5-165.9L48.5-165.9z M48.4-166.8l-0.4,0.4l0.5,0.4l0.4-0.4L48.4-166.8
						L48.4-166.8z"/>
				</g>
				<path clip-path="url(#SVGID_16_)" fill="#FCFF2C" d="M47.3-168.5l0.1,0.1l-0.1,0.1l0.1,0.1l0.1-0.1l0.1,0.1l-0.1,0.1l0.1,0.1
					l0.1-0.1l0.1,0.2l-0.2,0.2c0,0-0.1,0-0.1,0l-0.5-0.5c0,0,0-0.1,0-0.1L47.3-168.5L47.3-168.5z"/>
				<g clip-path="url(#SVGID_16_)">
					<path d="M47.7-167.6L47.7-167.6l-0.6-0.6l0-0.2l0.2-0.2l0.2,0.1l-0.1,0.2l0.1,0l0-0.1l0.2,0.1l-0.1,0.2l0.1,0l0-0.1l0.2,0.2
						L47.7-167.6L47.7-167.6z M47.3-168.5l-0.2,0.2l0.6,0.7l0-0.1l0.2-0.3l-0.2-0.1l0,0.1l-0.2-0.1l0.1-0.2l-0.2-0.1l0,0.1l-0.2-0.1
						l0.1-0.2L47.3-168.5L47.3-168.5z"/>
				</g>
				<polygon clip-path="url(#SVGID_16_)" fill="#FCFF2C" points="47.6,-167.7 47.2,-167.2 46.7,-167.7 47.1,-168.1 				"/>
				<g clip-path="url(#SVGID_16_)">
					<path d="M47.2-167.2l-0.5-0.5l0.4-0.5l0.5,0.5L47.2-167.2L47.2-167.2z M47.1-168.1l-0.4,0.4l0.5,0.4l0.4-0.4L47.1-168.1
						L47.1-168.1z"/>
				</g>
				<path clip-path="url(#SVGID_16_)" fill="#FCFF2C" d="M45.9-166.2c0.7-0.7,1.3-0.3,1.3-0.3c0,0,0.3,0.7-0.3,1.4L45.9-166.2
					L45.9-166.2z"/>
				<path clip-path="url(#SVGID_16_)" fill="#FCFF2C" d="M46.3-167.4l-0.9,0.7l0.5,0.5c0.6-0.6,1.2-0.3,1.2-0.2c0,0,0.3,0.6-0.2,1.2
					l0.5,0.5l0.7-0.9L46.3-167.4L46.3-167.4z"/>
				<g clip-path="url(#SVGID_16_)">
					<path d="M47.5-164.6l-0.5-0.5c0.6-0.6,0.2-1.2,0.2-1.3l0,0c0,0-0.2-0.1-0.4-0.1c-0.3,0-0.5,0.1-0.8,0.4l-0.6-0.5l0.9-0.8
						l1.9,1.8L47.5-164.6L47.5-164.6z M47.3-166.4c0,0.1,0.1,0.2,0.1,0.3c0,0.2,0,0.6-0.4,0.9l0.5,0.4l0.7-0.8L47.3-166.4
						L47.3-166.4z M46.3-167.4l-0.8,0.7l0.5,0.4c0.3-0.4,0.9-0.4,1.2-0.3L46.3-167.4L46.3-167.4z"/>
				</g>
				<path clip-path="url(#SVGID_16_)" fill="#FCFF2C" d="M45.4-166.7l2.1,2.1c0,0,0,0.1,0,0.2c0,0.1-0.1,0.1-0.2,0l-2.1-2.1
					c0,0,0-0.1,0-0.2C45.3-166.8,45.4-166.8,45.4-166.7L45.4-166.7z"/>
				<g clip-path="url(#SVGID_16_)">
					<path d="M47.4-164.4l-0.1,0l-2.1-2.1c-0.1-0.1,0-0.2,0-0.2l0.1-0.1l2.2,2.1c0.1,0.1,0.1,0.2,0,0.2L47.4-164.4L47.4-164.4z
						 M45.3-166.6l2.1,2.1l0.1-0.1l-2.1-2.2L45.3-166.6L45.3-166.6L45.3-166.6z"/>
				</g>
				<path clip-path="url(#SVGID_16_)" fill="#FCFF2C" d="M46.2-166c0.4-0.4,0.8-0.2,0.8-0.2c0,0,0.2,0.4-0.2,0.8L46.2-166L46.2-166z
					"/>
				<g clip-path="url(#SVGID_16_)">
					<path d="M46.8-165.4l-0.6-0.6c0.4-0.5,0.8-0.3,0.8-0.3C47-166.3,47.2-165.8,46.8-165.4L46.8-165.4L46.8-165.4z M46.8-166.2
						c-0.1,0-0.4,0-0.6,0.3l0.5,0.5c0.3-0.3,0.2-0.7,0.2-0.7C46.9-166.2,46.9-166.2,46.8-166.2L46.8-166.2z"/>
				</g>
				<path clip-path="url(#SVGID_16_)" fill="#FCFF2C" d="M46.6-167.8l2,2c0,0,0,0.1,0,0.2c-0.1,0-0.1,0-0.2,0l-2-2c0,0,0-0.1,0-0.2
					C46.5-167.8,46.5-167.8,46.6-167.8L46.6-167.8z"/>
				<g clip-path="url(#SVGID_16_)">
					<path d="M48.5-165.6l-0.1,0l-2-2c-0.1-0.1-0.1-0.2,0-0.2l0.2,0l2,2c0,0.1,0,0.2,0,0.2L48.5-165.6L48.5-165.6z M46.5-167.8
						l-0.1,0.1l2,2l0.1-0.1L46.5-167.8L46.5-167.8z"/>
				</g>
				<path clip-path="url(#SVGID_16_)" fill="#FCFF2C" d="M46.4-167.6l1.9,1.9c0,0,0,0.1,0,0.2c0,0.1-0.1,0.1-0.2,0l-1.9-1.9
					c0,0,0-0.1,0-0.2C46.3-167.6,46.4-167.6,46.4-167.6L46.4-167.6z"/>
				<g clip-path="url(#SVGID_16_)">
					<path d="M48.2-165.5l-0.1,0l-1.9-1.9c-0.1-0.1,0-0.2,0-0.2l0.2,0l1.9,1.9c0.1,0.1,0.1,0.2,0,0.2L48.2-165.5L48.2-165.5z
						 M46.4-167.6l-0.1,0.1l1.9,2l0.1-0.1L46.4-167.6L46.4-167.6z"/>
				</g>
				<path clip-path="url(#SVGID_16_)" d="M48.1-167.4c0.1-0.1,0.2,0,0.1,0.1l-0.2,0.2l-0.1-0.1L48.1-167.4L48.1-167.4z"/>
				<path clip-path="url(#SVGID_16_)" d="M48.4-166.5c0.1-0.1,0.2,0,0.1,0.1l-0.1,0.1l-0.1-0.1L48.4-166.5L48.4-166.5z"/>
				<path clip-path="url(#SVGID_16_)" d="M47.1-167.8c0.1-0.1,0.2,0,0.1,0.1l-0.1,0.1l-0.1-0.1L47.1-167.8L47.1-167.8z"/>
				<path clip-path="url(#SVGID_16_)" fill="#FCFF2C" d="M48.8-176.7H49v0.2h0.2v-0.2h0.2v0.2h0.2v-0.2h0.2v0.3c0,0,0,0.1-0.1,0.1
					h-0.8c-0.1,0-0.1,0-0.1-0.1V-176.7L48.8-176.7z"/>
				<g clip-path="url(#SVGID_16_)">
					<path d="M49.7-176.2h-0.8l-0.1-0.1v-0.3l0.3,0l0,0.2l0.1,0l0-0.1l0.3,0l0,0.2l0.1,0l0-0.1l0.3,0l0,0.4L49.7-176.2L49.7-176.2z
						 M49-176.7l-0.2,0l0,0.3l0.8,0.1l0-0.1v-0.3l-0.2,0l0,0.1l-0.2,0l0-0.2l-0.2,0l0,0.1l-0.2,0L49-176.7L49-176.7z"/>
				</g>
				<polygon clip-path="url(#SVGID_16_)" fill="#FCFF2C" points="49.6,-176.2 49.6,-175.1 48.9,-175.1 48.9,-176.3 				"/>
				<g clip-path="url(#SVGID_16_)">
					<path d="M49.7-175.1h-0.8v-1.2l0.7,0L49.7-175.1L49.7-175.1z M49.6-176.2l-0.6,0v1.1l0.7,0L49.6-176.2L49.6-176.2z"/>
				</g>
				<path clip-path="url(#SVGID_16_)" fill="#FCFF2C" d="M49.7-176.2h0.2v0.1h0.1v-0.2h0.2v0.2h0.2v-0.2h0.2v0.4
					c0,0.1,0,0.1-0.1,0.1h-0.7c-0.1,0-0.1,0-0.1-0.1V-176.2L49.7-176.2z"/>
				<g clip-path="url(#SVGID_16_)">
					<path d="M50.6-175.7h-0.8l-0.1-0.1v-0.3l0.3,0l0,0.2l0.1,0l0-0.1l0.3,0l0,0.2l0.1,0l-0.1-0.1l0.3,0l0,0.4L50.6-175.7
						L50.6-175.7z M49.9-176.2l-0.2,0l0,0.3l0.8,0.1l0-0.1v-0.4l-0.2,0l0,0.1l-0.2,0l0-0.2l-0.2,0l0,0.1l-0.2,0L49.9-176.2
						L49.9-176.2z"/>
				</g>
				<polygon clip-path="url(#SVGID_16_)" fill="#FCFF2C" points="50.5,-175.7 50.5,-175.1 49.8,-175.1 49.8,-175.7 				"/>
				<g clip-path="url(#SVGID_16_)">
					<path d="M50.6-175.1h-0.8l0-0.6l0.7,0L50.6-175.1L50.6-175.1z M50.5-175.7l-0.6,0l0,0.6l0.6,0L50.5-175.7L50.5-175.7z"/>
				</g>
				<path clip-path="url(#SVGID_16_)" fill="#FCFF2C" d="M47.9-176.2h0.2v0.1h0.2v-0.2h0.2v0.2h0.2v-0.2h0.2v0.4
					c0,0.1,0,0.1-0.1,0.1H48c0,0-0.1,0-0.1-0.1V-176.2L47.9-176.2z"/>
				<g clip-path="url(#SVGID_16_)">
					<path d="M48.7-175.7h-0.8l-0.1-0.1v-0.3l0.2,0l0,0.2l0.1,0l0-0.1l0.3,0l0,0.2l0.1,0l0-0.1l0.3,0l0,0.4L48.7-175.7L48.7-175.7z
						 M48.1-176.2l-0.2,0l0,0.3l0.8,0.1l0.1-0.1v-0.4l-0.2,0l0,0.1l-0.2,0l0-0.2l-0.2,0l0,0.1l-0.2,0L48.1-176.2L48.1-176.2z"/>
				</g>
				<polygon clip-path="url(#SVGID_16_)" fill="#FCFF2C" points="48.7,-175.7 48.7,-175.1 48,-175.1 48,-175.7 				"/>
				<g clip-path="url(#SVGID_16_)">
					<path d="M48-175.1l0-0.7l0.7,0l0.1,0.6L48-175.1L48-175.1z M48.6-175.7l-0.6,0l0,0.5h0.7L48.6-175.7L48.6-175.7z"/>
				</g>
				<path clip-path="url(#SVGID_16_)" fill="#FCFF2C" d="M48.6-173.5c0-1,0.7-1.2,0.7-1.2c0,0,0.7,0.2,0.7,1.2L48.6-173.5
					L48.6-173.5z"/>
				<path clip-path="url(#SVGID_16_)" fill="#FCFF2C" d="M48-174.7l-0.1,1.1h0.7c0-0.9,0.7-1.1,0.7-1.1c0,0,0.7,0.2,0.7,1.1h0.7
					l-0.1-1.1L48-174.7L48-174.7z"/>
				<g clip-path="url(#SVGID_16_)">
					<path d="M50.8-173.5H50c-0.1-0.9-0.7-1-0.7-1.1c0,0-0.6,0.1-0.7,1l-0.8,0l0.1-1.1l2.6,0L50.8-173.5L50.8-173.5z M49.2-174.7
						l-1.2,0l-0.1,1.1l0.7,0C48.5-174.4,49-174.6,49.2-174.7L49.2-174.7z M49.3-174.7c0.2,0.1,0.7,0.4,0.7,1.1l0.6,0l-0.1-1.1
						L49.3-174.7L49.3-174.7z"/>
				</g>
				<path clip-path="url(#SVGID_16_)" fill="#FCFF2C" d="M47.8-173.6h2.9c0.1,0,0.1,0.1,0.1,0.1c0,0.1-0.1,0.1-0.1,0.1h-2.9
					c-0.1,0-0.1-0.1-0.1-0.1C47.7-173.5,47.7-173.6,47.8-173.6L47.8-173.6z"/>
				<g clip-path="url(#SVGID_16_)">
					<path d="M50.7-173.3h-2.9c-0.1,0-0.2-0.1-0.2-0.2c0-0.1,0.1-0.2,0.2-0.2h2.9c0.1,0,0.2,0.1,0.2,0.2
						C50.9-173.3,50.8-173.3,50.7-173.3L50.7-173.3z M47.8-173.5v0.2h2.9c0,0,0.1,0,0.1-0.1L47.8-173.5L47.8-173.5z"/>
				</g>
				<path clip-path="url(#SVGID_16_)" fill="#FCFF2C" d="M48.9-173.6c0-0.6,0.4-0.7,0.4-0.7s0.4,0.2,0.4,0.7H48.9L48.9-173.6z"/>
				<g clip-path="url(#SVGID_16_)">
					<path d="M49.7-173.5h-0.9c0-0.6,0.4-0.8,0.4-0.8C49.3-174.4,49.7-174.2,49.7-173.5L49.7-173.5L49.7-173.5z M49.2-174.3
						c0,0-0.3,0.2-0.3,0.7l0.7,0C49.6-174.1,49.3-174.3,49.2-174.3L49.2-174.3z"/>
				</g>
				<path clip-path="url(#SVGID_16_)" fill="#FCFF2C" d="M47.9-175.1h2.8c0.1,0,0.1,0.1,0.1,0.1c0,0.1,0,0.1-0.1,0.1h-2.8
					c-0.1,0-0.1-0.1-0.1-0.1C47.8-175.1,47.8-175.1,47.9-175.1L47.9-175.1z"/>
				<g clip-path="url(#SVGID_16_)">
					<path d="M50.7-174.8h-2.8c-0.1,0-0.2-0.1-0.2-0.2s0.1-0.2,0.2-0.2h2.8c0.1,0,0.1,0.1,0.1,0.2S50.8-174.8,50.7-174.8L50.7-174.8
						z M47.9-175.1v0.1h2.8c0,0,0.1,0,0.1-0.1L47.9-175.1L47.9-175.1z"/>
				</g>
				<path clip-path="url(#SVGID_16_)" fill="#FCFF2C" d="M47.9-174.9h2.7c0.1,0,0.1,0.1,0.1,0.1c0,0.1,0,0.1-0.1,0.1h-2.7
					c-0.1,0-0.1-0.1-0.1-0.1C47.8-174.8,47.9-174.9,47.9-174.9L47.9-174.9z"/>
				<g clip-path="url(#SVGID_16_)">
					<path d="M50.6-174.6h-2.7c-0.1,0-0.1-0.1-0.1-0.2c0-0.1,0.1-0.2,0.1-0.2h2.7c0.1,0,0.2,0.1,0.2,0.2
						C50.8-174.7,50.7-174.6,50.6-174.6L50.6-174.6z M47.9-174.8v0.2h2.7c0,0,0.1,0,0.1-0.1L47.9-174.8L47.9-174.8z"/>
				</g>
				<path clip-path="url(#SVGID_16_)" d="M49.2-175.9c0-0.1,0.2-0.1,0.2,0v0.3h-0.2V-175.9L49.2-175.9z"/>
				<path clip-path="url(#SVGID_16_)" d="M50.1-175.5c0-0.1,0.1-0.1,0.1,0v0.2h-0.1V-175.5L50.1-175.5z"/>
				<path clip-path="url(#SVGID_16_)" d="M48.3-175.5c0-0.1,0.1-0.1,0.1,0v0.2h-0.1V-175.5L48.3-175.5z"/>
				<path clip-path="url(#SVGID_16_)" fill="#FCFF2C" d="M33.9-167.6l0.2-0.1l0.1,0.1l0.1-0.1l-0.1-0.1l0.2-0.2l0.1,0.1l0.1-0.1
					l-0.1-0.1l0.1-0.2l0.2,0.2c0,0,0,0.1,0,0.1l-0.5,0.5c0,0-0.1,0-0.1,0L33.9-167.6L33.9-167.6z"/>
				<g clip-path="url(#SVGID_16_)">
					<path d="M34.2-167.3L34.2-167.3l-0.3-0.3l0.1-0.2l0.2,0.1l0.1-0.1l-0.1,0l0.2-0.2l0.2,0.1l0-0.1l-0.1,0l0.2-0.2l0.3,0.3l0,0.2
						L34.2-167.3L34.2-167.3z M34-167.7l-0.1,0.1l0.3,0.2l0-0.1l0.5-0.5l-0.2-0.3l-0.1,0.2l0.1,0l-0.1,0.2l-0.2-0.1l-0.1,0.2l0.1,0
						l-0.1,0.2L34-167.7L34-167.7z"/>
				</g>
				<polygon clip-path="url(#SVGID_16_)" fill="#FCFF2C" points="34.8,-167.8 35.6,-167.1 35.1,-166.6 34.3,-167.4 				"/>
				<g clip-path="url(#SVGID_16_)">
					<path d="M35.1-166.5l-0.8-0.9l0.5-0.5l0.9,0.8L35.1-166.5L35.1-166.5z M34.7-167.8l-0.4,0.5l0.7,0.7l0.5-0.5L34.7-167.8
						L34.7-167.8z"/>
				</g>
				<path clip-path="url(#SVGID_16_)" fill="#FCFF2C" d="M34.9-167.9l0.1-0.1l0.1,0.1l0.1-0.1l-0.1-0.1l0.2-0.1l0.1,0.1l0.1-0.1
					l-0.1-0.1l0.2-0.1l0.2,0.2c0,0,0,0.1,0,0.1l-0.5,0.5c0,0-0.1,0-0.1,0L34.9-167.9L34.9-167.9z"/>
				<g clip-path="url(#SVGID_16_)">
					<path d="M35.2-167.6L35.2-167.6l-0.3-0.3l0.1-0.2l0.2,0.1l0-0.1l-0.1,0l0.1-0.2l0.2,0.1l0-0.1l-0.1,0l0.2-0.2l0.3,0.3l0,0.2
						L35.2-167.6L35.2-167.6z M35-168l-0.1,0.1l0.3,0.2l0-0.1l0.5-0.5l-0.2-0.3l-0.1,0.1l0.1,0l-0.1,0.2l-0.2-0.1l-0.1,0.2l0.1,0
						l-0.1,0.2L35-168L35-168z"/>
				</g>
				<polygon clip-path="url(#SVGID_16_)" fill="#FCFF2C" points="35.8,-168.1 36.2,-167.7 35.7,-167.2 35.3,-167.7 				"/>
				<g clip-path="url(#SVGID_16_)">
					<path d="M35.7-167.2l-0.4-0.5l0.5-0.5l0.5,0.4L35.7-167.2L35.7-167.2z M35.8-168.1l-0.4,0.5l0.4,0.4l0.5-0.5L35.8-168.1
						L35.8-168.1z"/>
				</g>
				<path clip-path="url(#SVGID_16_)" fill="#FCFF2C" d="M33.6-166.6l0.1-0.1l0.1,0.1l0.1-0.1l-0.1-0.1L34-167l0.1,0.1l0.1-0.1
					l-0.1-0.1l0.1-0.2l0.3,0.2c0,0,0,0.1,0,0.1l-0.5,0.5c0,0-0.1,0-0.1,0L33.6-166.6L33.6-166.6z"/>
				<g clip-path="url(#SVGID_16_)">
					<path d="M33.9-166.3L33.9-166.3l-0.3-0.3l0.1-0.2l0.2,0.1l0-0.1l-0.1,0L34-167l0.2,0.1l0.1-0.1l-0.1,0l0.2-0.2l0.3,0.3l0,0.2
						L33.9-166.3L33.9-166.3z M33.7-166.7l-0.1,0.2l0.3,0.2l0-0.1l0.5-0.5l-0.2-0.3l-0.1,0.2l0.1,0l-0.1,0.2L34-167l-0.1,0.2l0.1,0
						l-0.1,0.2L33.7-166.7L33.7-166.7z"/>
				</g>
				<polygon clip-path="url(#SVGID_16_)" fill="#FCFF2C" points="34.5,-166.8 34.9,-166.4 34.4,-165.9 34,-166.4 				"/>
				<g clip-path="url(#SVGID_16_)">
					<path d="M34.4-165.9l-0.4-0.5l0.5-0.5l0.5,0.4L34.4-165.9L34.4-165.9z M34.5-166.8l-0.4,0.5l0.4,0.4l0.5-0.5L34.5-166.8
						L34.5-166.8z"/>
				</g>
				<path clip-path="url(#SVGID_16_)" fill="#FCFF2C" d="M36-165.2c-0.7-0.7-0.3-1.3-0.3-1.3c0,0,0.7-0.3,1.4,0.3L36-165.2L36-165.2
					z"/>
				<path clip-path="url(#SVGID_16_)" fill="#FCFF2C" d="M34.7-165.6l0.7,0.9l0.5-0.5c-0.6-0.6-0.3-1.2-0.2-1.2c0,0,0.6-0.3,1.2,0.3
					l0.5-0.5l-0.9-0.7L34.7-165.6L34.7-165.6z"/>
				<g clip-path="url(#SVGID_16_)">
					<path d="M35.4-164.7l-0.7-0.9l1.8-1.9l0.9,0.7l-0.5,0.6c-0.3-0.2-0.6-0.3-0.8-0.3c-0.3,0-0.4,0.1-0.4,0.1l0,0
						c0,0-0.4,0.6,0.3,1.2L35.4-164.7L35.4-164.7z M35.6-166.4l-0.8,0.9l0.7,0.8l0.5-0.5c-0.4-0.3-0.4-0.7-0.4-0.9
						C35.5-166.3,35.6-166.4,35.6-166.4L35.6-166.4z M36.1-166.6c0.3,0,0.6,0.1,0.8,0.4l0.4-0.5l-0.9-0.6l-0.8,0.9
						C35.8-166.6,36-166.6,36.1-166.6L36.1-166.6z"/>
				</g>
				<path clip-path="url(#SVGID_16_)" fill="#FCFF2C" d="M35.4-164.7l2.1-2.1c0.1,0,0.1,0,0.2,0c0,0.1,0.1,0.1,0,0.2l-2.1,2.1
					c0,0-0.1,0-0.2,0C35.4-164.6,35.4-164.6,35.4-164.7L35.4-164.7z"/>
				<g clip-path="url(#SVGID_16_)">
					<path d="M35.5-164.4l-0.1-0.1c-0.1-0.1-0.1-0.2,0-0.2l2.1-2.1c0.2,0,0.2,0,0.2,0c0.1,0.1,0.1,0.2,0,0.2L35.5-164.4L35.5-164.4z
						 M37.5-166.7l-2.1,2.1l0,0.1l0.1,0l0-0.1l2.1-2.1l0-0.1H37.5L37.5-166.7z"/>
				</g>
				<path clip-path="url(#SVGID_16_)" fill="#FCFF2C" d="M36.2-165.4c-0.4-0.4-0.2-0.8-0.2-0.8s0.4-0.2,0.8,0.2L36.2-165.4
					L36.2-165.4z"/>
				<g clip-path="url(#SVGID_16_)">
					<path d="M36.2-165.4L36.2-165.4c-0.5-0.5-0.3-0.9-0.3-0.9c0.1-0.1,0.4-0.2,0.9,0.2L36.2-165.4L36.2-165.4z M35.9-166.2
						c0,0-0.1,0.3,0.2,0.7l0.5-0.5C36.3-166.3,35.9-166.2,35.9-166.2L35.9-166.2L35.9-166.2z"/>
				</g>
				<path clip-path="url(#SVGID_16_)" fill="#FCFF2C" d="M34.3-165.8l2-2c0,0,0.1,0,0.2,0c0,0,0,0.1,0,0.2l-2,2c0,0-0.1,0-0.2,0
					C34.3-165.7,34.3-165.8,34.3-165.8L34.3-165.8z"/>
				<g clip-path="url(#SVGID_16_)">
					<path d="M34.4-165.6l-0.1-0.1l0-0.2l2-2l0.2,0c0.1,0.1,0.1,0.2,0,0.2L34.4-165.6L34.4-165.6z M34.4-165.7L34.4-165.7
						L34.4-165.7l2-2l0-0.1l-0.1,0l-2,2L34.4-165.7L34.4-165.7L34.4-165.7z"/>
				</g>
				<path clip-path="url(#SVGID_16_)" fill="#FCFF2C" d="M34.6-165.7l1.9-1.9c0,0,0.1,0,0.2,0c0.1,0,0.1,0.1,0,0.2l-1.9,1.9
					c0,0-0.1,0-0.2,0C34.5-165.6,34.5-165.7,34.6-165.7L34.6-165.7z"/>
				<g clip-path="url(#SVGID_16_)">
					<path d="M34.7-165.5l-0.1-0.1c-0.1-0.1-0.1-0.2,0-0.2l1.9-1.9l0.2,0c0.1,0.1,0.1,0.2,0,0.2L34.7-165.5L34.7-165.5z M34.7-165.5
						L34.7-165.5L34.7-165.5l1.9-1.9l0-0.1l-0.1,0l-1.9,1.9L34.7-165.5L34.7-165.5L34.7-165.5z"/>
				</g>
				<path clip-path="url(#SVGID_16_)" d="M34.7-167.3c-0.1-0.1,0-0.2,0.1-0.1l0.2,0.2l-0.1,0.1L34.7-167.3L34.7-167.3z"/>
				<path clip-path="url(#SVGID_16_)" d="M35.7-167.7c-0.1-0.1,0-0.2,0.1-0.1l0.1,0.1l-0.1,0.1L35.7-167.7L35.7-167.7z"/>
				<path clip-path="url(#SVGID_16_)" d="M34.4-166.4c-0.1-0.1,0-0.2,0.1-0.1l0.1,0.1l-0.1,0.1L34.4-166.4L34.4-166.4z"/>
			</g>
		</g>
	</g>
</g>
<g id="ICELAND_3_">
	<g>
		<g>
			<defs>
				<rect id="SVGID_17_" x="0" y="-104.4" width="120" height="70"/>
			</defs>
			<clipPath id="SVGID_18_">
				<use xlink:href="#SVGID_17_"  overflow="visible"/>
			</clipPath>
			<rect x="0" y="-104.4" clip-path="url(#SVGID_18_)" fill="#223693" width="120" height="70"/>
			<rect x="27.2" y="-104.4" clip-path="url(#SVGID_18_)" fill="#FFFFFF" width="15.6" height="70"/>
			<rect x="0" y="-77.2" clip-path="url(#SVGID_18_)" fill="#FFFFFF" width="120" height="15.6"/>
			<rect x="31.1" y="-104.4" clip-path="url(#SVGID_18_)" fill="#C51D32" width="7.8" height="70"/>
			<rect x="0" y="-73.3" clip-path="url(#SVGID_18_)" fill="#C51D32" width="120" height="7.8"/>
		</g>
	</g>
</g>
<g id="FINLAND_3_">
	<g>
		<g>
			<defs>
				<rect id="SVGID_19_" x="0" y="0" width="119.5" height="69.7"/>
			</defs>
			<clipPath id="SVGID_20_">
				<use xlink:href="#SVGID_19_"  overflow="visible"/>
			</clipPath>
			<rect x="0" y="0" clip-path="url(#SVGID_20_)" fill="#FFFFFF" width="119.5" height="69.7"/>
			<polygon clip-path="url(#SVGID_20_)" fill="#1F357E" points="33.6,0 33.6,25 0,25 0,44.7 33.6,44.7 33.6,69.7 53.2,69.7 
				53.2,44.7 119.5,44.7 119.5,25 53.2,25 53.2,0 			"/>
		</g>
	</g>
</g>
<g id="NORWAY_2_">
	<g>
		<g>
			<defs>
				<rect id="SVGID_21_" x="632.8" y="-416.9" width="119.2" height="69.6"/>
			</defs>
			<clipPath id="SVGID_22_">
				<use xlink:href="#SVGID_21_"  overflow="visible"/>
			</clipPath>
			<rect x="632.8" y="-416.9" clip-path="url(#SVGID_22_)" fill="#DC1C37" width="119.2" height="69.6"/>
			<rect x="658.9" y="-416.9" clip-path="url(#SVGID_22_)" fill="#FFFFFF" width="17.4" height="69.6"/>
			<rect x="632.8" y="-390.8" clip-path="url(#SVGID_22_)" fill="#FFFFFF" width="119.2" height="17.4"/>
			<rect x="663.2" y="-416.9" clip-path="url(#SVGID_22_)" fill="#192967" width="8.7" height="69.6"/>
			<rect x="632.8" y="-386.5" clip-path="url(#SVGID_22_)" fill="#192967" width="119.2" height="8.7"/>
		</g>
	</g>
</g>
<g id="BELGIUM_2_">
	<g>
		<g>
			<defs>
				<rect id="SVGID_23_" x="632.5" y="-521.2" width="119.5" height="69.7"/>
			</defs>
			<clipPath id="SVGID_24_">
				<use xlink:href="#SVGID_23_"  overflow="visible"/>
			</clipPath>
			<rect x="632.5" y="-521.2" clip-path="url(#SVGID_24_)" width="39.8" height="69.7"/>
			<rect x="672.3" y="-521.2" clip-path="url(#SVGID_24_)" fill="#FFE936" width="39.8" height="69.7"/>
			<rect x="712.2" y="-521.2" clip-path="url(#SVGID_24_)" fill="#FF0F21" width="39.8" height="69.7"/>
		</g>
	</g>
</g>
<g id="SWEDEN_3_">
	<g>
		<g>
			<defs>
				<rect id="SVGID_25_" x="632.5" y="-312.7" width="119.5" height="69.7"/>
			</defs>
			<clipPath id="SVGID_26_">
				<use xlink:href="#SVGID_25_"  overflow="visible"/>
			</clipPath>
			<rect x="632.5" y="-312.7" clip-path="url(#SVGID_26_)" fill="#2D5A95" width="119.5" height="69.7"/>
			<rect x="667.3" y="-312.7" clip-path="url(#SVGID_26_)" fill="#F3D02F" width="14" height="69.7"/>
			<rect x="632.5" y="-284.8" clip-path="url(#SVGID_26_)" fill="#F3D02F" width="119.5" height="13.9"/>
		</g>
	</g>
</g>
</svg>
