<?xml version="1.0" encoding="utf-8"?>
<!-- Generator: Adobe Illustrator 18.0.0, SVG Export Plug-In . SVG Version: 6.00 Build 0)  -->
<!DOCTYPE svg PUBLIC "-//W3C//DTD SVG 1.1//EN" "http://www.w3.org/Graphics/SVG/1.1/DTD/svg11.dtd">
<svg version="1.1" id="Layer_1" xmlns="http://www.w3.org/2000/svg" xmlns:xlink="http://www.w3.org/1999/xlink" x="0px" y="0px"
	 viewBox="0 0 119.4 69.7" enable-background="new 0 0 119.4 69.7" xml:space="preserve">
<g id="GERMANY_2_">
	<g>
		<g>
			<defs>
				<rect id="SVGID_25_" x="0" y="0" width="119.4" height="69.7"/>
			</defs>
			<clipPath id="SVGID_1_">
				<use xlink:href="#SVGID_25_"  overflow="visible"/>
			</clipPath>
			<rect x="0" y="0" clip-path="url(#SVGID_1_)" width="119.4" height="23.2"/>
			<rect x="0" y="23.2" clip-path="url(#SVGID_1_)" fill="#E1001F" width="119.4" height="23.2"/>
			<rect x="0" y="46.4" clip-path="url(#SVGID_1_)" fill="#F6D928" width="119.4" height="23.2"/>
			<g clip-path="url(#SVGID_1_)">
				<defs>
					<rect id="SVGID_27_" x="0" y="0" width="119.4" height="69.7"/>
				</defs>
				<clipPath id="SVGID_4_">
					<use xlink:href="#SVGID_27_"  overflow="visible"/>
				</clipPath>
				<path clip-path="url(#SVGID_4_)" fill="#F6D728" d="M43.2,16.5v27.9c0,10.4,14,9.2,16.5,13.4c2.5-4.2,16.5-2.9,16.5-13.4V16.5
					H43.2z"/>
				<g clip-path="url(#SVGID_4_)">
					<path d="M59.7,57.9l-0.1-0.2c-0.9-1.5-3.2-2.3-6-3.2c-4.7-1.6-10.6-3.5-10.6-10.3v-28h33.3v28c0,6.7-5.9,8.7-10.6,10.3
						c-2.7,0.9-5.1,1.7-6,3.2L59.7,57.9L59.7,57.9z M43.3,16.6v27.8c0,6.6,5.5,8.4,10.4,10.1c2.7,0.9,5,1.7,6,3.1
						c1-1.5,3.3-2.2,6-3.1c4.9-1.6,10.4-3.5,10.4-10.1V16.6H43.3L43.3,16.6z"/>
				</g>
				<path clip-path="url(#SVGID_4_)" d="M58.6,20.5c0.2,0.8-0.2,2.8-0.6,3.5c-0.4,0.7-1.5,1.9-1.6,3.2C56,33.4,58.4,42.5,59.7,49
					c1.3-6.5,3.7-15.6,3.3-21.9c-0.4-6.3-1.3-7.9-1.3-7.9L58.6,20.5z"/>
				<path clip-path="url(#SVGID_4_)" fill="#CA001C" d="M59,21.4c-1.6-0.1-2.9-0.4-3.9-0.9c0.4,0.5,1.5,1,3,1.3L59,21.4z"/>
				<g clip-path="url(#SVGID_4_)">
					<path d="M58.1,21.8c-1.6-0.2-2.6-0.7-3.1-1.3c1.1,0.4,2.4,0.7,4,0.8l0,0.1c-1.6-0.1-2.9-0.4-3.9-0.9
						C55.5,21,56.5,21.5,58.1,21.8L58.1,21.8z"/>
				</g>
				<path clip-path="url(#SVGID_4_)" fill="#CA001C" d="M58.5,18c-2.5-1.3-4,0.2-2.3,2.4c0.2-0.4,1.8-1,2.5,1
					c-0.4,0.2-1.3,0.2-2.8,0.1c0.7,0.6,3,0.7,3.4,0.4c0.4-0.3-0.7-2.3-0.7-2.3L58.5,18z"/>
				<g clip-path="url(#SVGID_4_)">
					<path d="M58.3,22.1c-0.9,0-2-0.2-2.5-0.6c1.5,0.1,2.4,0.1,2.8-0.2c-0.5-1.1-1.2-1.3-1.6-1.3c0,0,0,0,0,0
						c-0.5,0-0.8,0.2-0.9,0.4c-0.8-1-1-2-0.5-2.5c0.5-0.6,1.6-0.6,2.9,0l0,0.1c-1.2-0.6-2.3-0.6-2.7,0c-0.4,0.5-0.3,1.4,0.5,2.4
						c0-0.2,0.4-0.4,0.9-0.4c0.4,0,1.2,0.2,1.6,1.4c-0.4,0.3-1.3,0.3-2.8,0.2c0.8,0.5,3,0.6,3.4,0.3c0.3-0.2-0.3-1.5-0.8-2.3
						c0.3,0.3,1.3,2.1,0.8,2.4C59.2,22,58.8,22.1,58.3,22.1L58.3,22.1z"/>
				</g>
				<path clip-path="url(#SVGID_4_)" d="M61.6,19.7c0.4-0.1,1.1-0.3,1.6-0.8c-0.9,0-2.6-0.5-3.3-0.8c-0.7-0.3-1.8-1.1-1.8,0.3
					c0,1.4,1.5,2.5,1.2,3.7L61.6,19.7z"/>
				<path clip-path="url(#SVGID_4_)" fill="#F0F7FF" d="M59.5,18.8c0,0-0.8-0.4-1-0.6c-0.2-0.2-0.4,0.9,0.3,1.3
					C58.9,19.2,59.1,19,59.5,18.8L59.5,18.8z"/>
				<path clip-path="url(#SVGID_4_)" d="M58.9,18.3c-0.4,0.1-0.5,0.4-0.3,0.9c0.1-0.4,0.3-0.6,0.8-0.8L58.9,18.3z"/>
				<path clip-path="url(#SVGID_4_)" d="M63.4,29.7v9.9l11.2,9.2V24.3c0-1.9-0.4-3.2-1.2-3.8v5.1L63.4,29.7z"/>
				<g clip-path="url(#SVGID_4_)">
					<polygon fill="#F6D728" points="65.6,47.6 65.3,47.6 65.3,26.8 65.6,26.8 65.6,47.6 					"/>
				</g>
				<g clip-path="url(#SVGID_4_)">
					<polygon fill="#F6D728" points="68,47.6 67.7,47.6 67.7,26.8 68,26.8 68,47.6 					"/>
				</g>
				<g clip-path="url(#SVGID_4_)">
					<polygon fill="#F6D728" points="70.3,47.6 70,47.6 70,26.8 70.3,26.8 70.3,47.6 					"/>
				</g>
				<g clip-path="url(#SVGID_4_)">
					<polygon fill="#F6D728" points="72.7,47.6 72.3,47.6 72.3,26.8 72.7,26.8 72.7,47.6 					"/>
				</g>
				<path clip-path="url(#SVGID_4_)" d="M61.2,31.5c7.5,0,10.7-2.4,12.3-4.3v-6.8c0.8-0.2,1.3-0.8,1.3-1.8c-2.3,1.9-6-2.6-8.2,2.1
					c1.2,2.3,3.5,2.1,4.3,0.8c1.7,1.4,0.3,6.8-9.8,6.7V31.5z"/>
				<path clip-path="url(#SVGID_4_)" fill="#CA001C" d="M64,47.9c-0.6,0.8-0.1,1.4,0.4,1.7c-0.2-0.5-0.1-1,0.3-1.4L64,47.9z"/>
				<g clip-path="url(#SVGID_4_)">
					<path d="M64.4,49.5c-0.3-0.1-0.7-0.4-0.8-0.8c-0.1-0.3,0-0.6,0.2-0.9l0.1,0.1c-0.2,0.3-0.3,0.6-0.2,0.8
						C63.9,49.1,64.2,49.4,64.4,49.5c-0.3-0.5-0.2-1,0.2-1.4C64.4,48.6,64.3,49,64.4,49.5L64.4,49.5z"/>
				</g>
				<path clip-path="url(#SVGID_4_)" fill="#CA001C" d="M66.9,50.7c0.1,0.3-0.1,0.8-0.5,1.3c1-0.3,1.4-0.6,1.1-1.2L66.9,50.7z"/>
				<g clip-path="url(#SVGID_4_)">
					<path d="M66.4,52c0.3-0.6,0.5-1,0.4-1.3l0.1,0C67,51.1,66.8,51.5,66.4,52c0.6-0.3,1-0.5,1.1-0.7c0.1-0.1,0-0.3-0.1-0.5
						c0.2,0.2,0.2,0.4,0.2,0.5C67.5,51.6,67.1,51.9,66.4,52L66.4,52z"/>
				</g>
				<path clip-path="url(#SVGID_4_)" fill="#CA001C" d="M70.2,49.5c0.2,0.4,0.2,0.8,0.1,1.3c0.8-0.7,1-1.6,0.4-1.8L70.2,49.5z"/>
				<g clip-path="url(#SVGID_4_)">
					<path d="M70.4,50.8c0-0.5,0-1-0.2-1.4l0.1,0C70.5,49.8,70.5,50.3,70.4,50.8c0.4-0.5,0.7-1.1,0.6-1.5c0-0.2-0.1-0.3-0.3-0.3
						c0.2-0.1,0.3,0.1,0.4,0.3C71.2,49.8,70.9,50.4,70.4,50.8L70.4,50.8z"/>
				</g>
				<path clip-path="url(#SVGID_4_)" fill="#CA001C" d="M70.2,46.5c0.3,0.1,0.6,0.3,0.8,0.8c0.1-0.9-0.1-1.4-0.9-1.6L70.2,46.5z"/>
				<g clip-path="url(#SVGID_4_)">
					<path d="M71,47.3c-0.4-0.5-0.6-0.7-0.9-0.8l0-0.1C70.5,46.5,70.8,46.8,71,47.3c0-1-0.2-1.4-1-1.5C71,45.8,71.1,46.4,71,47.3
						L71,47.3z"/>
				</g>
				<path clip-path="url(#SVGID_4_)" fill="#CA001C" d="M62.8,43.7l3.9,3.6c0,0-1.5,0.3-2.1,0.3c-0.6,0-1.1,0.2-0.9,0.3
					c0.2,0.2,0.5,0.2,0.7,0.4c0.2,0.3,0.4,0.6,0.7,0.3c0.3-0.3,1.5-0.7,1.5-0.7s0,1.9-0.1,2.2c-0.1,0.3-0.3,0.8-0.2,0.8
					c0.2,0,0.2-0.1,0.8,0c0.7,0.1,0.6,0.3,0.4-0.8c-0.2-1-0.1-2.1-0.1-2.1s1.5,1,2,1.7c0.5,0.7,0.4,0.2,0.7-0.1
					c0.3-0.2,0.6-0.3,0.8-0.4c0.2-0.1-0.7-0.3-0.9-0.5c-0.3-0.2-2.2-1.3-2.2-1.3s1.1-0.3,1.8-0.4c0.7-0.1,0.7-0.1,0.6-0.4
					c-0.1-0.3,0-0.7,0-0.8c0-0.2-0.1-0.3-0.5,0c-0.4,0.3-2.3,1.2-2.3,1.2l-3.3-4.3L62.8,43.7z"/>
				<g clip-path="url(#SVGID_4_)">
					<path d="M67.7,51c0,0-0.1,0-0.2,0l-0.3,0c-0.5-0.1-0.6,0-0.7,0l-0.2,0c-0.1-0.1,0-0.3,0.1-0.6l0.1-0.2c0.1-0.2,0.1-1.6,0.1-2.2
						c-0.1,0.1-1.1,0.4-1.4,0.7c-0.1,0.1-0.2,0.2-0.3,0.1c-0.2,0-0.3-0.2-0.5-0.4c-0.1-0.1-0.2-0.2-0.4-0.3c-0.1,0-0.2-0.1-0.3-0.2
						l0,0l0-0.1c0.1-0.2,0.6-0.3,1-0.3c0.6,0,2.1-0.3,2.1-0.3l-3.9-3.5l0.1-0.1l3.9,3.6c-0.1,0.1-1.5,0.4-2.1,0.4
						c-0.5,0-0.9,0.1-0.9,0.2c0.1,0.1,0.2,0.1,0.3,0.2c0.1,0.1,0.3,0.1,0.4,0.3c0.1,0.2,0.3,0.3,0.4,0.4c0.1,0,0.2,0,0.3-0.1
						c0.3-0.3,1.5-0.7,1.5-0.7c0.1,0.1,0.1,2,0,2.2l-0.1,0.2c-0.1,0.1-0.2,0.4-0.1,0.5c0.2,0,0.4-0.1,0.8,0l0.3,0c0.1,0,0.2,0,0.2,0
						c0,0,0-0.2,0-0.4l-0.1-0.4c-0.2-1-0.1-2.1-0.1-2.1c0.1,0,1.6,1,2.1,1.6c0.2,0.3,0.2,0.3,0.3,0.3c0,0,0.1-0.1,0.1-0.2
						c0-0.1,0.1-0.2,0.2-0.3c0.2-0.2,0.5-0.3,0.8-0.4c0.1,0-0.2-0.2-0.4-0.2c-0.2-0.1-0.4-0.1-0.5-0.2c-0.3-0.2-2.2-1.3-2.2-1.3
						c0-0.1,1.1-0.4,1.8-0.5c0.3,0,0.5-0.1,0.6-0.1c0,0,0-0.1,0-0.2c-0.1-0.2,0-0.5,0-0.7c0-0.1,0-0.1,0-0.2c-0.1-0.2-0.2-0.2-0.4,0
						c-0.4,0.3-2.3,1.1-2.4,1.2l-3.3-4.4l3.3,4.3c0,0,1.9-0.8,2.3-1.2c0.2-0.2,0.4-0.2,0.5-0.2c0,0,0.1,0.1,0.1,0.2c0,0,0,0.1,0,0.2
						c0,0.2,0,0.4,0,0.6c0,0.1,0.1,0.2,0,0.3c-0.1,0.1-0.2,0.1-0.6,0.2c-0.6,0.1-1.6,0.4-1.7,0.4c0.2,0,1.9,1,2.2,1.2
						c0.1,0,0.3,0.1,0.5,0.2c0.4,0.2,0.5,0.2,0.5,0.3L71,49.3c-0.2,0.1-0.5,0.2-0.7,0.4c-0.1,0.1-0.1,0.2-0.1,0.2
						C70.1,50,70,50.1,70,50.1c-0.1,0-0.2-0.1-0.4-0.4c-0.5-0.6-1.8-1.5-2-1.6c0.1,0.1,0,1.1,0.2,2l0.1,0.4c0.1,0.3,0.1,0.4,0,0.5
						C67.8,51,67.7,51,67.7,51L67.7,51z"/>
				</g>
				<path clip-path="url(#SVGID_4_)" d="M59.7,54.6l1.8-2.1c2,1.2,3.5,0.9,4.4-1c-3,0.5-4.4-2.2-4.3-8.2l2.3,3.5v-3.2l2.8,0.3
					l-7.3-7.8L59.7,54.6z"/>
				<path clip-path="url(#SVGID_4_)" d="M56,29.7v9.9l-11.2,9.2V24.3c0-1.9,0.4-3.2,1.2-3.8v5.1L56,29.7z"/>
				<g clip-path="url(#SVGID_4_)">
					<polygon fill="#F6D728" points="54.1,47.6 53.8,47.6 53.8,26.8 54.1,26.8 54.1,47.6 					"/>
				</g>
				<g clip-path="url(#SVGID_4_)">
					<polygon fill="#F6D728" points="51.8,47.6 51.5,47.6 51.5,26.8 51.8,26.8 51.8,47.6 					"/>
				</g>
				<g clip-path="url(#SVGID_4_)">
					<polygon fill="#F6D728" points="49.4,47.6 49.1,47.6 49.1,26.8 49.4,26.8 49.4,47.6 					"/>
				</g>
				<g clip-path="url(#SVGID_4_)">
					<polygon fill="#F6D728" points="47.1,47.6 46.8,47.6 46.8,26.8 47.1,26.8 47.1,47.6 					"/>
				</g>
				<path clip-path="url(#SVGID_4_)" d="M58.2,31.5c-7.5,0-10.7-2.4-12.3-4.3v-6.8c-0.8-0.2-1.3-0.8-1.3-1.8c2.3,1.9,6-2.6,8.2,2.1
					c-1.2,2.3-3.5,2.1-4.3,0.8c-1.7,1.4-0.3,6.8,9.8,6.7V31.5z"/>
				<path clip-path="url(#SVGID_4_)" fill="#CA001C" d="M55.5,47.9c0.6,0.8,0.1,1.4-0.4,1.7c0.2-0.5,0.1-1-0.2-1.4L55.5,47.9z"/>
				<g clip-path="url(#SVGID_4_)">
					<path d="M55.1,49.6c0.1-0.5,0-1-0.3-1.4C55.2,48.6,55.3,49,55.1,49.6c0.2-0.2,0.5-0.5,0.6-0.8c0.1-0.3,0-0.6-0.2-0.8l0.1-0.1
						c0.2,0.3,0.3,0.6,0.3,0.9C55.7,49.2,55.3,49.5,55.1,49.6L55.1,49.6z"/>
				</g>
				<path clip-path="url(#SVGID_4_)" fill="#CA001C" d="M52.5,50.7c-0.1,0.3,0.1,0.8,0.5,1.3c-1-0.3-1.4-0.6-1.1-1.2L52.5,50.7z"/>
				<g clip-path="url(#SVGID_4_)">
					<path d="M53.1,51.9c-0.8-0.1-1.1-0.3-1.3-0.6c-0.1-0.2-0.1-0.4,0.1-0.6c0,0.2,0,0.4,0,0.5C52,51.6,52.4,51.8,53.1,51.9
						c-0.5-0.4-0.7-0.9-0.6-1.2l0.1,0C52.5,51.1,52.7,51.5,53.1,51.9L53.1,51.9z"/>
				</g>
				<path clip-path="url(#SVGID_4_)" fill="#CA001C" d="M49.2,49.5c-0.2,0.4-0.2,0.8-0.1,1.3c-0.8-0.7-1-1.6-0.4-1.8L49.2,49.5z"/>
				<g clip-path="url(#SVGID_4_)">
					<path d="M49.2,50.8c-0.6-0.4-0.9-1-0.8-1.4c0-0.2,0.2-0.3,0.3-0.4c-0.1,0.1-0.2,0.2-0.2,0.4C48.4,49.8,48.7,50.3,49.2,50.8
						c-0.2-0.5-0.2-0.9,0-1.3l0.1,0C49.1,49.9,49.1,50.3,49.2,50.8L49.2,50.8z"/>
				</g>
				<path clip-path="url(#SVGID_4_)" fill="#CA001C" d="M49.3,46.5c-0.3,0.1-0.6,0.3-0.8,0.8c-0.1-0.9,0.1-1.4,0.9-1.6L49.3,46.5z"
					/>
				<g clip-path="url(#SVGID_4_)">
					<path d="M48.5,47.3c-0.2-0.9,0-1.5,0.9-1.7C48.6,45.9,48.4,46.3,48.5,47.3c0.2-0.6,0.5-0.9,0.8-0.9l0,0.1
						C49,46.6,48.8,46.8,48.5,47.3L48.5,47.3z"/>
				</g>
				<path clip-path="url(#SVGID_4_)" fill="#CA001C" d="M56.6,43.7l-3.9,3.6c0,0,1.5,0.3,2.1,0.3c0.6,0,1.1,0.2,0.9,0.3
					c-0.2,0.2-0.5,0.2-0.7,0.4c-0.2,0.3-0.4,0.6-0.7,0.3C54,48.3,52.8,48,52.8,48s0,1.9,0.1,2.2c0.1,0.3,0.3,0.8,0.2,0.8
					c-0.2,0-0.2-0.1-0.8,0c-0.7,0.1-0.6,0.3-0.4-0.8c0.2-1,0.1-2.1,0.1-2.1s-1.5,1-2,1.7c-0.5,0.7-0.4,0.2-0.7-0.1
					c-0.2-0.2-0.6-0.3-0.8-0.4c-0.3-0.1,0.7-0.3,0.9-0.5c0.3-0.2,2.2-1.3,2.2-1.3s-1.1-0.3-1.7-0.4C49,47,49,47,49.1,46.6
					c0.1-0.3,0-0.7,0-0.8c0-0.2,0.1-0.3,0.5,0C50,46.1,52,47,52,47l3.3-4.3L56.6,43.7z"/>
				<g clip-path="url(#SVGID_4_)">
					<path d="M51.8,51c0,0-0.1,0-0.1,0c-0.1-0.1,0-0.2,0-0.5l0.1-0.4c0.2-0.9,0.1-2,0.1-2.1c-0.1,0.1-1.4,1.1-1.9,1.7
						c-0.2,0.3-0.3,0.4-0.4,0.4c-0.1,0-0.1-0.1-0.2-0.2c0-0.1-0.1-0.2-0.1-0.2c-0.2-0.2-0.5-0.3-0.7-0.4l-0.2-0.1
						c0-0.1,0.1-0.1,0.5-0.3c0.2-0.1,0.4-0.2,0.5-0.2c0.2-0.2,1.9-1.1,2.1-1.2c-0.2,0-1.1-0.3-1.7-0.3c-0.4,0-0.6-0.1-0.6-0.2
						c0-0.1,0-0.2,0-0.3c0.1-0.2,0-0.5,0-0.6c0-0.1,0-0.1,0-0.2c0-0.2,0.1-0.2,0.1-0.2c0.1,0,0.3,0,0.5,0.2c0.4,0.3,2.3,1.2,2.3,1.2
						l3.2-4.3L52,47c-0.1,0-2-0.8-2.4-1.2c-0.2-0.2-0.3-0.2-0.4-0.2c-0.1,0.2,0,0.2,0,0.3c0,0.2,0.1,0.4,0,0.7c0,0.1,0,0.2,0,0.2
						c0,0.1,0.2,0.1,0.6,0.1c0.7,0.1,1.8,0.4,1.8,0.4c0,0.1-1.9,1.2-2.2,1.3c-0.1,0.1-0.3,0.1-0.5,0.2c-0.2,0.1-0.4,0.2-0.5,0.2
						c0.3,0.1,0.6,0.2,0.9,0.4c0.1,0.1,0.1,0.2,0.2,0.3c0,0.1,0.1,0.2,0.1,0.2c0.1,0,0.1-0.1,0.3-0.3c0.5-0.7,2-1.6,2-1.7
						c0.1,0,0.2,1.1,0,2.1l-0.1,0.4c0,0.2-0.1,0.3,0,0.4c0,0,0.1,0,0.2,0l0.3,0c0.5-0.1,0.6,0,0.7,0c0.1,0,0-0.3,0-0.5l-0.1-0.2
						c-0.1-0.3-0.1-2.1-0.1-2.2c0.1,0,1.3,0.3,1.6,0.6c0.1,0.1,0.2,0.1,0.3,0.1c0.2,0,0.3-0.2,0.4-0.4c0.1-0.2,0.3-0.2,0.4-0.3
						c0.1,0,0.2-0.1,0.3-0.1c0-0.1-0.4-0.2-0.9-0.2c-0.6,0-2-0.3-2.1-0.3l3.9-3.7l0.1,0.1l-3.9,3.6c0.1,0,1.5,0.3,2,0.3
						c0.4,0,0.9,0.1,1,0.3l0,0l0,0.1c-0.1,0.1-0.2,0.1-0.3,0.2c-0.1,0.1-0.3,0.1-0.4,0.3c-0.1,0.2-0.3,0.4-0.5,0.4
						c-0.1,0-0.2,0-0.3-0.1c-0.3-0.3-1.5-0.7-1.5-0.7c0.1,0.5,0.1,1.9,0.1,2.1l0.1,0.2c0.1,0.3,0.2,0.5,0.1,0.6l-0.2,0
						c-0.1,0-0.2,0-0.7,0L52,51C51.9,51,51.8,51,51.8,51L51.8,51z"/>
				</g>
				<path clip-path="url(#SVGID_4_)" d="M59.7,54.6L58,52.5c-2,1.2-3.5,0.9-4.4-1c3,0.5,4.4-2.2,4.3-8.2l-2.2,3.5v-3.2l-2.8,0.3
					l7.3-7.8L59.7,54.6z"/>
			</g>
		</g>
	</g>
</g>
</svg>
