<?xml version="1.0" encoding="utf-8"?>
<!-- Generator: Adobe Illustrator 18.0.0, SVG Export Plug-In . SVG Version: 6.00 Build 0)  -->
<!DOCTYPE svg PUBLIC "-//W3C//DTD SVG 1.1//EN" "http://www.w3.org/Graphics/SVG/1.1/DTD/svg11.dtd">
<svg version="1.1" id="Layer_1" xmlns="http://www.w3.org/2000/svg" xmlns:xlink="http://www.w3.org/1999/xlink" x="0px" y="0px"
	 viewBox="0 0 118.6 69.2" enable-background="new 0 0 118.6 69.2" xml:space="preserve">
<g id="PORTUGAL_2_">
	<g>
		<g>
			<defs>
				<rect id="SVGID_13_" x="0" y="0" width="118.6" height="69.2"/>
			</defs>
			<clipPath id="SVGID_1_">
				<use xlink:href="#SVGID_13_"  overflow="visible"/>
			</clipPath>
			<rect x="41.5" y="0" clip-path="url(#SVGID_1_)" fill="#EA0020" width="77.1" height="69.2"/>
			<rect x="0" y="0" clip-path="url(#SVGID_1_)" fill="#2A680B" width="41.5" height="69.2"/>
			<g clip-path="url(#SVGID_1_)">
				<defs>
					<rect id="SVGID_15_" x="0" y="0" width="118.6" height="69.2"/>
				</defs>
				<clipPath id="SVGID_4_">
					<use xlink:href="#SVGID_15_"  overflow="visible"/>
				</clipPath>
				<path clip-path="url(#SVGID_4_)" fill="#FCFF2C" d="M55,45.3c-5.2-0.2-29.1-15.1-29.3-17.5l1.3-2.2c2.4,3.5,26.8,18,29.2,17.5
					L55,45.3L55,45.3z"/>
				<path clip-path="url(#SVGID_4_)" fill="#FCFF2C" d="M26.7,25.3C26.2,26.6,33,30.7,41,35.6c8.1,4.9,15,8,15.6,7.5
					c0-0.1,0.3-0.4,0.2-0.4c-0.1,0.2-0.3,0.2-0.7,0.1c-2.2-0.6-7.9-3.2-14.9-7.5C34.2,31,28,27.1,27.1,25.4C27,25.3,27,25.1,27,24.9
					h0L26.7,25.3L26.7,25.3L26.7,25.3z M55.1,45.4c-0.1,0.2-0.2,0.2-0.6,0.1c-2-0.2-7.9-3.1-14.9-7.3c-8.2-4.9-14.9-9.3-14.2-10.5
					l0.2-0.4l0,0c-0.7,2,13.3,10,14.1,10.5c8.1,5,14.9,7.9,15.5,7.2L55.1,45.4L55.1,45.4z"/>
				<g clip-path="url(#SVGID_4_)">
					<path d="M54.8,45.6c-0.1,0-0.1,0-0.2,0c-2-0.2-8-3.2-14.9-7.3c-9.3-5.5-13.9-8.9-14.2-10.2c0-0.1,0-0.3,0-0.4l0.2-0.3
						c0,0,0,0.1,0,0.1l-0.1,0.3c-0.1,0.1-0.1,0.2,0,0.3c0.3,1.3,5,4.6,14.2,10.1c6.9,4.1,12.9,7.1,14.9,7.3c0.3,0,0.4,0,0.5-0.1
						l0.1-0.2c-0.1,0-0.1,0-0.3,0c-1.6,0-7.7-2.7-15.1-7.3c-0.1,0-0.3-0.2-0.6-0.3c-9-5.3-13.6-8.7-13.6-10
						c0.2,0.9,2.3,3.2,13.7,9.9c0.3,0.2,0.5,0.3,0.6,0.3c7.4,4.6,13.4,7.3,15.1,7.3c0.2,0,0.3,0,0.4-0.1l0,0c0,0,0,0.1,0,0.1
						l-0.1,0.3C55.1,45.6,54.9,45.6,54.8,45.6L54.8,45.6z M56.4,43.3c-1.2,0-7.8-2.9-15.4-7.6c-8.7-5.3-14.8-9.1-14.3-10.4l0.2-0.4
						c0,0,0,0,0,0l-0.1,0.4c-0.5,1.3,7.4,6.1,14.3,10.3c7.6,4.6,14.2,7.6,15.4,7.6c0.1,0,0.1,0,0.1,0c0-0.1,0.1-0.2,0.1-0.2
						c-0.1,0.1-0.3,0.1-0.6,0c-2.4-0.7-8.3-3.5-14.9-7.5C34.7,31.4,28,27.2,27,25.4c-0.1-0.1-0.1-0.3-0.1-0.5
						c0.1,0.2,0.1,0.4,0.2,0.5c1,1.8,8.1,6.2,14.1,9.9c6.6,4,12.5,6.8,14.9,7.5c0.3,0.1,0.6,0.1,0.6-0.1c0.1,0,0.1,0-0.1,0.4
						C56.6,43.2,56.5,43.3,56.4,43.3L56.4,43.3z"/>
				</g>
				<path clip-path="url(#SVGID_4_)" fill="#FCFF2C" d="M41.5,29.3c5.2,0,11.7-0.7,15.4-2.2l-0.8-1.3c-2.2,1.2-8.7,2-14.6,2.1
					c-7-0.1-12-0.7-14.5-2.4l-0.8,1.4C30.8,28.8,35.5,29.2,41.5,29.3L41.5,29.3z"/>
				<path clip-path="url(#SVGID_4_)" fill="#FCFF2C" d="M57.1,27.1c-0.1,0.2-2.5,1-6.1,1.7c-2.4,0.4-5.6,0.7-9.5,0.7
					c-3.7,0-6.8-0.3-9.1-0.6c-3.7-0.6-5.7-1.4-6.4-1.7c0.1-0.1,0.1-0.2,0.2-0.3c2.1,0.8,4,1.3,6.3,1.7c2.3,0.3,5.3,0.6,9,0.6
					c3.9,0,7-0.3,9.4-0.7c3.7-0.6,5.7-1.3,5.9-1.7L57.1,27.1L57.1,27.1z M56.4,25.8c-0.4,0.3-2.4,1-5.8,1.6c-2.3,0.3-5.3,0.6-9,0.6
					c-3.6,0-6.5-0.2-8.7-0.6c-3.5-0.5-5.4-1.3-6.1-1.5c0.1-0.1,0.1-0.2,0.2-0.3c0.5,0.3,2.3,1,5.9,1.5c2.2,0.3,5.1,0.5,8.7,0.5
					c3.8,0,6.7-0.3,9-0.6c3.5-0.5,5.4-1.4,5.7-1.6L56.4,25.8L56.4,25.8z"/>
				<g clip-path="url(#SVGID_4_)">
					<path d="M41.4,29.5c-3.2,0-6.2-0.2-9-0.6c-3.6-0.6-5.6-1.4-6.3-1.7l0-0.2l0.1-0.2c2,0.8,4,1.3,6.3,1.6c2.8,0.4,5.8,0.6,9,0.6
						c3.2,0,6.3-0.2,9.5-0.7c3.6-0.6,5.6-1.3,5.9-1.7l0.3,0.5c-0.2,0.3-2.7,1.1-6.1,1.7c-3,0.5-6.2,0.7-9.5,0.7H41.4L41.4,29.5z
						 M26.2,26.9L26,27.2c0.8,0.3,2.7,1.1,6.4,1.6c2.8,0.4,5.8,0.6,9,0.6v0.1l0.1-0.1c3.3,0,6.5-0.2,9.5-0.7c3.7-0.6,6-1.5,6.1-1.6
						l-0.3-0.4c-0.2,0.3-2,1.1-5.9,1.7c-3.2,0.5-6.3,0.7-9.4,0.7c-3.2,0-6.2-0.2-9-0.6C30.1,28.2,28.1,27.6,26.2,26.9L26.2,26.9z
						 M41.5,28c-3.2,0-6.2-0.2-8.7-0.6c-3.1-0.4-4.9-1.1-5.8-1.4l-0.3-0.1l0.1-0.3c0,0,0.1-0.1,0.1-0.1c0.3,0.2,2,1,5.9,1.5
						c1.7,0.2,4.6,0.5,8.6,0.5c3.2,0,6-0.2,9-0.6c3.3-0.5,5.3-1.3,5.6-1.6l0.3,0.4c-0.4,0.4-2.3,1.1-5.9,1.6
						C47.6,27.8,44.7,28,41.5,28L41.5,28L41.5,28z M26.9,25.6l-0.1,0.3l0.3,0c0.9,0.3,2.7,1,5.8,1.4c2.5,0.4,5.5,0.6,8.7,0.6v0
						l0.1,0c3.2,0,6-0.2,9-0.6c3.5-0.6,5.4-1.3,5.8-1.6l-0.3-0.4c-0.2,0.2-2,1.1-5.6,1.6c-3,0.4-5.9,0.6-9,0.6c-4,0-7-0.3-8.7-0.5
						C29,26.6,27.2,25.7,26.9,25.6L26.9,25.6z"/>
				</g>
				<path clip-path="url(#SVGID_4_)" fill="#FCFF2C" d="M24.3,35.6c3.2,1.7,10.4,2.6,17.1,2.7c6.2,0,14.2-0.9,17.2-2.5L58.5,34
					c-0.9,1.5-9.5,2.9-17.1,2.8c-7.6-0.1-14.7-1.2-17.1-2.8L24.3,35.6L24.3,35.6z"/>
				<path clip-path="url(#SVGID_4_)" fill="#FCFF2C" d="M58.8,35.3v0.4c-0.4,0.5-3.3,1.4-6.8,1.9c-2.7,0.4-6.2,0.7-10.6,0.7
					c-4.2,0-7.5-0.3-10-0.7c-4.1-0.6-6.7-1.6-7.2-1.9v-0.5c1.6,1,5.8,1.8,7.2,2c2.6,0.4,5.9,0.7,10,0.7c4.4,0,7.8-0.3,10.5-0.7
					C54.4,36.9,58.1,36,58.8,35.3L58.8,35.3z M58.8,33.8v0.4c-0.4,0.5-3.3,1.4-6.8,1.9c-2.7,0.4-6.2,0.7-10.6,0.7
					c-4.2,0-7.5-0.3-10-0.7c-4.1-0.6-6.7-1.6-7.2-1.9l0-0.5c1.6,1,5.8,1.8,7.2,2c2.6,0.4,5.9,0.7,10,0.7c4.4,0,7.8-0.3,10.5-0.7
					C54.4,35.4,58.1,34.5,58.8,33.8L58.8,33.8z"/>
				<g clip-path="url(#SVGID_4_)">
					<path d="M41.4,38.4c-3.7,0-7.1-0.2-10.1-0.7c-3.9-0.6-6.6-1.6-7.2-1.9l0-0.5c1.7,1,6,1.8,7.3,2c3,0.5,6.3,0.7,10,0.7
						c3.9,0,7.4-0.2,10.5-0.7c2.5-0.4,6.1-1.3,6.8-1.9l0.1,0.5c-0.5,0.6-3.4,1.4-6.9,2C48.8,38.2,45.3,38.4,41.4,38.4L41.4,38.4z
						 M24.1,35.3l0.1,0.4c0.4,0.2,2.9,1.3,7.1,1.9c3,0.5,6.4,0.7,10,0.7c3.9,0,7.4-0.2,10.6-0.7c3.4-0.6,6.3-1.4,6.8-1.9l0-0.4
						c-0.6,0.7-4.3,1.6-6.8,2c-3.1,0.5-6.7,0.7-10.5,0.7c-3.7,0-7-0.2-10-0.7C29.7,37.1,25.7,36.3,24.1,35.3L24.1,35.3z M41.4,37
						c-3.7,0-7.1-0.2-10.1-0.7c-3.9-0.6-6.6-1.6-7.2-1.9l0-0.5c1.6,1,6,1.8,7.3,2c3,0.5,6.3,0.7,10,0.7c3.9,0,7.4-0.2,10.5-0.7
						c2.5-0.4,6.1-1.3,6.8-1.9l0.1,0.4c-0.5,0.6-3.4,1.4-6.9,2C48.8,36.7,45.3,37,41.4,37L41.4,37z M24.1,33.8l0.1,0.4
						c0.4,0.2,2.9,1.3,7.1,1.9c3,0.5,6.4,0.7,10,0.7c3.9,0,7.5-0.2,10.6-0.7c3.4-0.6,6.3-1.4,6.8-1.9l0-0.4c-0.6,0.7-4.3,1.6-6.8,2
						c-3.1,0.5-6.7,0.7-10.5,0.7c-3.7,0-7-0.2-10-0.7C29.7,35.6,25.7,34.9,24.1,33.8L24.1,33.8z"/>
				</g>
				<path clip-path="url(#SVGID_4_)" fill="#FCFF2C" d="M41.4,45c-7.4,0-13.7-2-15.1-2.3l1,1.5c2.4,1,8.5,2.5,14.2,2.3
					c5.6-0.2,10.5-0.6,14-2.3l1-1.6C54.1,43.8,46.1,45,41.4,45L41.4,45z"/>
				<path clip-path="url(#SVGID_4_)" fill="#FCFF2C" d="M55.9,43.9c-0.1,0.2-0.3,0.4-0.4,0.7c-1.6,0.6-4.2,1.2-5.3,1.4
					c-2.2,0.5-5.6,0.8-8.7,0.8c-6.5-0.1-11.9-1.4-14.4-2.5l-0.2-0.4l0-0.1l0.3,0.1c4.5,1.6,9.5,2.2,14.3,2.4c3,0,6.1-0.3,8.5-0.8
					c3.8-0.8,5.3-1.3,5.7-1.6L55.9,43.9L55.9,43.9z M56.7,42.4C56.7,42.4,56.7,42.5,56.7,42.4c-0.1,0.2-0.2,0.4-0.3,0.6
					c-0.9,0.3-3.2,1-6.7,1.5c-2.3,0.3-3.7,0.6-8.2,0.7c-8.5-0.2-14-1.9-15.3-2.3l-0.2-0.4c4.9,1.3,9.9,2.2,15.4,2.3
					c4.1-0.1,5.9-0.4,8.1-0.7c4-0.6,6-1.3,6.7-1.5c0,0,0,0,0,0L56.7,42.4L56.7,42.4z"/>
				<g clip-path="url(#SVGID_4_)">
					<path d="M41.4,46.7L41.4,46.7c-6.7-0.1-12-1.4-14.4-2.5l-0.2-0.4c0,0,0.1-0.1,0.1-0.1l0,0l0.4,0.1c4,1.4,8.8,2.2,14.3,2.4
						c0,0,0,0,0,0c3.4,0,6.5-0.4,8.5-0.8c4.2-0.8,5.5-1.4,5.7-1.6c0,0,0.1,0,0.1,0c0,0,0,0,0,0l0,0l0,0c0,0,0.1,0,0,0
						c-0.1,0.2-0.3,0.4-0.4,0.7c-1.6,0.6-4.2,1.2-5.3,1.4C47.8,46.4,44.4,46.7,41.4,46.7L41.4,46.7z M26.8,43.9l0.2,0.3
						c2.7,1.1,8.2,2.4,14.4,2.4c2.9,0,6.4-0.3,8.7-0.8c1.1-0.2,3.7-0.8,5.3-1.3c0.1-0.2,0.2-0.3,0.3-0.5c-0.4,0.2-1.7,0.8-5.7,1.6
						c-2,0.4-5.1,0.8-8.4,0.8l0,0C36,46.2,31.2,45.4,27.2,44L26.8,43.9L26.8,43.9z M41.5,45.3L41.5,45.3C34,45.1,28.7,43.7,26.3,43
						L26,42.6c5.7,1.4,10.6,2.1,15.5,2.2c3.7-0.1,5.5-0.3,7.4-0.6l0.7-0.1c3.9-0.6,5.9-1.2,6.6-1.4l0.5-0.2l0,0l-0.4,0.2
						c-0.7,0.3-2.8,0.9-6.6,1.5l-0.7,0.1c-1.9,0.3-3.7,0.5-7.4,0.6c-4.9-0.1-9.8-0.8-15.5-2.3l0.3,0.3C28.7,43.7,34,45,41.5,45.3
						c3.8-0.2,5.4-0.4,7.2-0.7l1-0.1c3.1-0.4,5.5-1.1,6.7-1.5l0.3-0.5L56.4,43c-1.2,0.4-3.6,1.1-6.7,1.5l-1,0.1
						C46.9,45,45.4,45.2,41.5,45.3L41.5,45.3L41.5,45.3z"/>
				</g>
				<path clip-path="url(#SVGID_4_)" fill="#FCFF2C" d="M41.4,19.2c8.5,0,15.3,6.9,15.3,15.4S49.9,50,41.4,50
					c-8.5,0-15.4-6.9-15.4-15.4C26.1,26.1,33,19.2,41.4,19.2L41.4,19.2z M41.4,17.7c9.3,0,16.9,7.6,16.9,16.9
					c0,9.3-7.6,16.9-16.9,16.9c-9.3,0-16.9-7.6-16.9-16.9C24.6,25.3,32.1,17.7,41.4,17.7L41.4,17.7z"/>
				<path clip-path="url(#SVGID_4_)" fill="#FCFF2C" d="M41.5,17.5c9.4,0,17.1,7.7,17.1,17.1c0,9.4-7.7,17.1-17.1,17.1
					c-9.4,0-17.1-7.7-17.1-17.1C24.3,25.2,32,17.5,41.5,17.5L41.5,17.5z M41.5,17.9c9.2,0,16.7,7.5,16.7,16.7
					c0,9.2-7.6,16.7-16.7,16.7c-9.2,0-16.7-7.5-16.7-16.7C24.7,25.4,32.3,17.9,41.5,17.9L41.5,17.9z"/>
				<g clip-path="url(#SVGID_4_)">
					<path d="M41.5,51.8c-9.5,0-17.2-7.7-17.2-17.2c0-9.5,7.7-17.2,17.2-17.2c9.5,0,17.2,7.7,17.2,17.2
						C58.6,44.1,50.9,51.8,41.5,51.8L41.5,51.8z M41.5,17.5c-9.4,0-17.1,7.7-17.1,17.1c0,9.4,7.7,17.1,17.1,17.1
						c9.4,0,17.1-7.7,17.1-17.1C58.5,25.2,50.9,17.5,41.5,17.5L41.5,17.5z M41.5,51.4c-9.3,0-16.8-7.5-16.8-16.8
						c0-9.3,7.5-16.8,16.8-16.8c9.3,0,16.8,7.5,16.8,16.8C58.2,43.9,50.7,51.4,41.5,51.4L41.5,51.4z M41.5,17.9
						c-9.2,0-16.7,7.5-16.7,16.7c0,9.2,7.5,16.7,16.7,16.7c9.2,0,16.7-7.5,16.7-16.7C58.1,25.4,50.6,17.9,41.5,17.9L41.5,17.9z"/>
				</g>
				<path clip-path="url(#SVGID_4_)" fill="#FCFF2C" d="M41.5,18.9c8.6,0,15.7,7.1,15.7,15.7c0,8.6-7.1,15.7-15.7,15.7
					c-8.6,0-15.7-7.1-15.7-15.7C25.8,26,32.9,18.9,41.5,18.9L41.5,18.9z M41.5,19.3c8.4,0,15.3,6.9,15.3,15.3
					c0,8.4-6.9,15.3-15.3,15.3c-8.4,0-15.3-6.9-15.3-15.3C26.2,26.2,33.1,19.3,41.5,19.3L41.5,19.3z"/>
				<g clip-path="url(#SVGID_4_)">
					<path d="M41.5,50.3c-8.7,0-15.7-7.1-15.7-15.7c0-8.7,7.1-15.7,15.7-15.7c8.7,0,15.7,7.1,15.7,15.7
						C57.2,43.3,50.1,50.3,41.5,50.3L41.5,50.3z M41.5,19c-8.6,0-15.6,7-15.6,15.6c0,8.6,7,15.6,15.6,15.6c8.6,0,15.6-7,15.6-15.6
						C57.1,26,50.1,19,41.5,19L41.5,19z M41.5,49.9c-8.5,0-15.3-6.9-15.3-15.4c0-8.5,6.9-15.4,15.3-15.4c8.5,0,15.3,6.9,15.3,15.4
						C56.8,43.1,49.9,49.9,41.5,49.9L41.5,49.9z M41.5,19.3c-8.4,0-15.3,6.8-15.3,15.3c0,8.4,6.8,15.3,15.3,15.3
						c8.4,0,15.2-6.8,15.2-15.3C56.7,26.2,49.9,19.3,41.5,19.3L41.5,19.3z"/>
				</g>
				<rect x="40.8" y="17.4" clip-path="url(#SVGID_4_)" fill="#FCFF2C" width="1.5" height="34.4"/>
				<g clip-path="url(#SVGID_4_)">
					<path fill="none" d="M41,17.4h1H41z"/>
				</g>
				<g clip-path="url(#SVGID_4_)">
					<path fill="none" d="M41,51.8h1H41z"/>
				</g>
				<path clip-path="url(#SVGID_4_)" fill="#FCFF2C" d="M42,17.2h0.4V52H42V17.2L42,17.2z M40.5,17.2h0.4l0,34.8h-0.4V17.2
					L40.5,17.2z"/>
				<g clip-path="url(#SVGID_4_)">
					<path d="M42.4,52.1H42L42,17.2l0.4,0V52.1C42.4,52,42.4,52,42.4,52.1C42.4,52.1,42.4,52.1,42.4,52.1L42.4,52.1z M42.3,17.2
						L42,17.3l0,34.8l0.3,0V17.2L42.3,17.2z M40.9,52.1h-0.4l0-34.9l0.4,0L40.9,52.1C41,52,41,52,40.9,52.1
						C41,52.1,40.9,52.1,40.9,52.1L40.9,52.1z M40.9,17.2l-0.3,0.1L40.6,52l0.3,0V17.2L40.9,17.2z"/>
				</g>
				<path clip-path="url(#SVGID_4_)" fill="#FCFF2C" d="M24.3,33.9c2.1-2,10.1-3.3,17.1-3.2c7,0,15.3,1.5,17.2,3.2l0,1.5
					c-1.5-1.4-8-3.1-17.2-3.1c-9.2,0-15.8,1.7-17.1,3.2V33.9L24.3,33.9z"/>
				<g clip-path="url(#SVGID_4_)">
					<path d="M24.3,35.2l-0.1-1.3c0-0.1,0.1-0.1,0.1,0V35.2L24.3,35.2z"/>
				</g>
				<g clip-path="url(#SVGID_4_)">
					<path d="M58.6,35.3L58.5,34c0-0.1,0.1-0.1,0.1,0V35.3L58.6,35.3z"/>
				</g>
				<path clip-path="url(#SVGID_4_)" fill="#FCFF2C" d="M41.5,32c4,0,8,0.4,11.1,1c3.2,0.6,5.5,1.4,6.2,2.4v0.4
					c-0.9-1.1-4-1.9-6.3-2.4c-3.1-0.6-7-1-11-1c-4.2,0-8.2,0.4-11.2,1c-2.4,0.5-5.7,1.5-6.1,2.4v-0.5c0.2-0.7,2.6-1.6,6-2.3
					C33.2,32.4,37.2,32,41.5,32L41.5,32z M41.5,30.5c4,0,8,0.4,11.1,1c3.2,0.6,5.5,1.4,6.2,2.3v0.4c-0.9-1.1-4-1.9-6.3-2.4
					c-3.1-0.6-7-1-11-1c-4.2,0-8.2,0.4-11.2,1c-2.3,0.4-5.7,1.5-6.1,2.4v-0.5c0.2-0.6,2.7-1.7,6.1-2.3
					C33.2,30.9,37.2,30.5,41.5,30.5L41.5,30.5z"/>
				<g clip-path="url(#SVGID_4_)">
					<path d="M24.1,35.8C24.1,35.8,24.1,35.8,24.1,35.8C24.1,35.8,24.1,35.8,24.1,35.8l0-0.5c0.2-0.7,2.8-1.7,6.1-2.4
						c3.3-0.6,7.3-1,11.3-1c3.9,0,7.8,0.4,11.1,1c3.3,0.7,5.5,1.5,6.3,2.4l0,0.5c-1.1-1.2-4.4-2-6.4-2.4c-3.2-0.6-7.1-1-10.9-1
						c-4.1,0-8.1,0.4-11.3,1C27.6,33.9,24.6,34.9,24.1,35.8C24.2,35.8,24.2,35.8,24.1,35.8L24.1,35.8z M41.5,32.3
						c3.9,0,7.8,0.3,11,1c1.9,0.4,5.3,1.2,6.3,2.4l-0.1-0.4c-0.7-0.8-2.9-1.6-6.2-2.3c-3.3-0.6-7.2-1-11-1c-4.1,0-8.1,0.4-11.4,1
						c-3.6,0.7-5.8,1.7-6,2.3v0.3c0.7-1,4.1-1.9,6-2.3C33.5,32.7,37.5,32.3,41.5,32.3L41.5,32.3z M24.1,34.3
						C24.1,34.3,24.1,34.3,24.1,34.3C24.1,34.3,24.1,34.3,24.1,34.3l-0.1-0.5c0.2-0.7,2.9-1.7,6.1-2.4c3.3-0.6,7.3-1,11.3-1
						c3.9,0,7.8,0.4,11.1,1c3.3,0.7,5.5,1.5,6.3,2.4l0,0.5c-1.1-1.2-4.4-2-6.4-2.4c-3.2-0.6-7.1-1-10.9-1c-4,0-8,0.4-11.3,1
						C27.6,32.4,24.5,33.4,24.1,34.3C24.2,34.3,24.2,34.3,24.1,34.3L24.1,34.3z M41.5,30.8c3.9,0,7.8,0.3,11,1
						c1.9,0.4,5.3,1.2,6.3,2.4l-0.1-0.4c-0.7-0.8-2.9-1.6-6.2-2.3c-3.3-0.6-7.1-1-10.9-1c-4.1,0-8.1,0.4-11.4,1
						c-3.5,0.7-5.8,1.7-6,2.3v0.3c0.7-0.9,3.9-1.9,6.1-2.3C33.5,31.2,37.5,30.8,41.5,30.8L41.5,30.8z"/>
				</g>
				<path clip-path="url(#SVGID_4_)" fill="#FCFF2C" d="M41.4,23c6.4,0,11.9,0.9,14.5,2.2l0.9,1.6c-2.2-1.2-8.2-2.4-15.4-2.2
					c-5.8,0-12.1,0.6-15.2,2.3l1.1-1.8C29.8,23.7,35.9,23,41.4,23L41.4,23z"/>
				<g clip-path="url(#SVGID_4_)">
					<path fill="none" d="M56,25.4l0.6,1L56,25.4z"/>
				</g>
				<path clip-path="url(#SVGID_4_)" fill="#FCFF2C" d="M41.5,24.3c3.6,0,7.1,0.2,9.9,0.7c2.6,0.5,5.1,1.2,5.4,1.6l0.3,0.5
					c-0.9-0.6-3-1.2-5.8-1.7c-2.8-0.5-6.3-0.7-9.9-0.7c-4.1,0-7.3,0.2-10,0.7c-2.9,0.5-4.9,1.3-5.4,1.7l0.3-0.5
					c1-0.5,2.5-1.1,5.1-1.5C34.2,24.5,37.4,24.3,41.5,24.3L41.5,24.3z M41.5,22.9c3.5,0,6.9,0.2,9.6,0.7c2.1,0.4,4.2,1.1,5,1.6
					l0.4,0.6c-0.7-0.8-3.3-1.5-5.5-1.9c-2.6-0.5-5.9-0.6-9.4-0.7c-3.6,0-7,0.2-9.6,0.7c-2.5,0.5-4.1,1-4.8,1.5l0.4-0.5
					c0.9-0.5,2.5-1,4.4-1.3C34.4,23.1,37.8,22.9,41.5,22.9L41.5,22.9z"/>
				<g clip-path="url(#SVGID_4_)">
					<path d="M57.1,27.2C57.1,27.2,57.1,27.1,57.1,27.2c-0.9-0.6-3-1.2-5.8-1.7c-2.4-0.5-5.6-0.7-9.5-0.7l-0.3,0l-0.4,0
						c-3.9,0-7,0.2-9.6,0.7c-2.9,0.5-4.9,1.3-5.4,1.7l0.2-0.6c1.3-0.7,3-1.2,5.1-1.6c2.6-0.5,5.5-0.7,10.1-0.7h0.2
						c3.8,0,7.2,0.2,9.7,0.7c2.6,0.5,5.1,1.2,5.5,1.6L57.1,27.2C57.2,27.1,57.2,27.1,57.1,27.2C57.1,27.1,57.1,27.2,57.1,27.2
						L57.1,27.2z M41.7,24.4h-0.2c-4.6,0-7.5,0.2-10.1,0.7c-2.1,0.4-3.7,0.9-5,1.5l-0.2,0.5c0.4-0.4,2.4-1.2,5.3-1.8
						c2.7-0.5,5.7-0.7,9.7-0.7h0.4h0.3c3.9,0,7.2,0.2,9.6,0.7C54,25.8,56,26.4,57,27l-0.2-0.3c-0.3-0.4-2.8-1.1-5.4-1.6
						C48.8,24.6,45.5,24.4,41.7,24.4L41.7,24.4z M56.4,25.8C56.4,25.8,56.4,25.8,56.4,25.8c-0.7-0.8-3.4-1.5-5.5-1.9
						c-2.4-0.4-5.5-0.6-9.4-0.7c-3.8,0-7.1,0.3-9.6,0.7c-2.2,0.4-4,1-4.8,1.5l0.3-0.6c1-0.5,2.5-1,4.4-1.3c2.5-0.5,5.8-0.7,9.7-0.7
						h0.3c3.7,0,6.9,0.2,9.3,0.7c2.3,0.4,4.3,1.1,5,1.6L56.4,25.8C56.5,25.8,56.5,25.8,56.4,25.8C56.4,25.8,56.4,25.8,56.4,25.8
						L56.4,25.8z M41.5,23.2c3.9,0,7,0.2,9.4,0.7c1.9,0.3,4.3,1,5.3,1.7L56,25.2c-0.7-0.5-2.7-1.2-4.9-1.6c-2.4-0.4-5.6-0.7-9.3-0.7
						h-0.3c-3.9,0-7.2,0.3-9.7,0.7c-1.9,0.4-3.4,0.8-4.4,1.3l-0.3,0.5c0.7-0.6,2.5-1.1,4.7-1.6C34.3,23.4,37.7,23.2,41.5,23.2
						L41.5,23.2z"/>
				</g>
				<path clip-path="url(#SVGID_4_)" fill="#FCFF2C" d="M50,41.7c-3.1-0.6-6.3-0.7-8.5-0.7c-10.6,0.1-14,2.2-14.5,2.8l-0.8-1.3
					c2.7-2,8.5-3.1,15.3-2.9c3.5,0.1,6.6,0.3,9.2,0.8L50,41.7L50,41.7z"/>
				<g clip-path="url(#SVGID_4_)">
					<path fill="none" d="M26.4,42.8l0.5,0.9L26.4,42.8z"/>
				</g>
				<path clip-path="url(#SVGID_4_)" fill="#FCFF2C" d="M41.4,40.9c3,0,5.8,0.2,8.6,0.7l-0.2,0.4c-2.6-0.5-5.4-0.7-8.4-0.6
					c-3.9,0-7.9,0.3-11.3,1.3c-1.1,0.3-2.9,1-3.1,1.6l-0.2-0.3c0.1-0.3,1.1-1,3.2-1.6C33.9,41.1,37.6,40.9,41.4,40.9L41.4,40.9z
					 M41.5,39.4c3.1,0.1,6.2,0.2,9.3,0.8l-0.2,0.4c-2.8-0.6-5.4-0.7-9.1-0.8c-3.9,0-8.1,0.3-11.9,1.4c-1.2,0.4-3.3,1.1-3.4,1.7
					l-0.2-0.4c0-0.6,1.9-1.3,3.5-1.8C33.4,39.7,37.6,39.4,41.5,39.4L41.5,39.4z"/>
				<g clip-path="url(#SVGID_4_)">
					<path d="M27,44.2C27,44.2,27,44.2,27,44.2l-0.2-0.4c0.1-0.4,1.2-1.1,3.2-1.7c3.8-1.1,7.3-1.3,11.4-1.4c2.8,0,5.8,0.2,8.7,0.7
						L49.9,42c-2.4-0.4-5-0.6-8.1-0.6l-0.4,0l-0.4,0c-4.2,0-7.8,0.4-10.9,1.3C28.9,43,27.2,43.7,27,44.2C27,44.2,27,44.2,27,44.2
						L27,44.2L27,44.2z M41.4,40.9c-4.1,0-7.6,0.3-11.4,1.3c-2.1,0.6-3.1,1.3-3.1,1.6l0.1,0.2c0.4-0.6,2.3-1.3,3.1-1.5
						c3.1-0.9,6.7-1.3,10.9-1.3l0.4,0l0.4,0c3.1,0,5.7,0.2,8.1,0.7l0.2-0.3C47.2,41.1,44.2,41,41.4,40.9L41.4,40.9z M26.3,43
						C26.2,43,26.2,43,26.3,43L26,42.6c0.1-0.8,2.7-1.6,3.5-1.8c3.3-0.9,7.1-1.4,12-1.4c3,0.1,6.2,0.2,9.3,0.8l-0.2,0.4
						c-3-0.6-5.8-0.7-9.1-0.8c-4.9,0-8.6,0.4-11.9,1.4C28.1,41.7,26.4,42.4,26.3,43C26.3,42.9,26.3,43,26.3,43L26.3,43L26.3,43z
						 M41.5,39.4c-4.9,0-8.7,0.5-11.9,1.4c-2.1,0.6-3.4,1.3-3.5,1.7l0.1,0.2c0.3-0.7,3.1-1.6,3.4-1.7c3.2-0.9,7-1.4,11.9-1.4
						c3.3,0.1,6.1,0.2,9.1,0.8l0.2-0.3C47.7,39.6,44.5,39.5,41.5,39.4L41.5,39.4z"/>
				</g>
				<path clip-path="url(#SVGID_4_)" d="M38.4,40.4c0-0.1,0-0.1,0.1-0.1c0,0,0.1-0.1,0.1-0.1c0,0,0.1,0,0.1,0c0,0,0,0,0,0.1
					c0,0,0,0.1,0,0.1c0,0,0,0.1,0,0.1c0,0,0,0-0.1,0.1c0,0-0.1,0-0.1,0c0,0-0.1,0-0.1,0C38.4,40.6,38.4,40.5,38.4,40.4
					C38.4,40.5,38.4,40.5,38.4,40.4L38.4,40.4z M38.4,40.4C38.4,40.5,38.4,40.5,38.4,40.4c0,0.1,0.1,0.1,0.1,0.1c0,0,0.1,0,0.1,0
					c0,0,0-0.1,0-0.1c0,0,0,0,0-0.1c0,0,0,0,0,0c0,0,0,0-0.1,0c0,0-0.1,0-0.1,0C38.4,40.4,38.4,40.4,38.4,40.4L38.4,40.4z
					 M38.8,40.5L38.8,40.5C38.8,40.5,38.9,40.5,38.8,40.5C38.9,40.5,38.9,40.5,38.8,40.5c0.1,0,0.1,0,0.1,0c0,0,0,0,0,0c0,0,0,0,0,0
					c0,0,0,0,0,0C38.9,40.4,38.9,40.4,38.8,40.5C38.8,40.4,38.8,40.4,38.8,40.5c0-0.1,0-0.1,0-0.1s0,0,0,0c0,0,0,0,0,0c0,0,0,0,0,0
					c0,0,0,0,0,0c0,0,0,0,0.1,0c0,0,0,0,0,0c0,0,0,0,0,0l0,0c0,0,0,0,0,0c0,0,0,0,0,0s0,0,0,0c0,0,0,0,0,0c0,0,0,0,0,0
					C38.9,40.4,38.9,40.4,38.8,40.5c0.1-0.1,0.1-0.1,0.1-0.1c0,0,0,0,0.1,0c0,0,0,0,0,0c0,0,0,0,0,0c0,0,0,0,0,0c0,0,0,0,0,0
					C38.9,40.6,38.9,40.6,38.8,40.5C38.9,40.6,38.8,40.6,38.8,40.5C38.8,40.5,38.8,40.5,38.8,40.5L38.8,40.5z M39.2,40.5L39.2,40.5
					C39.2,40.5,39.2,40.5,39.2,40.5C39.2,40.5,39.2,40.5,39.2,40.5c-0.1,0.1-0.1,0.1-0.1,0.1c0,0,0,0,0-0.1c0,0,0-0.1,0-0.1
					c0,0,0,0,0.1,0c0,0,0.1,0,0.1,0C39.2,40.3,39.2,40.4,39.2,40.5L39.2,40.5l-0.1,0c0,0,0,0,0,0.1C39.1,40.5,39.1,40.5,39.2,40.5
					C39.1,40.5,39.2,40.5,39.2,40.5C39.2,40.5,39.2,40.5,39.2,40.5L39.2,40.5z M39.1,40.4l0.1,0c0,0,0,0,0,0
					C39.2,40.3,39.2,40.3,39.1,40.4C39.1,40.3,39.1,40.3,39.1,40.4C39.1,40.4,39.1,40.4,39.1,40.4L39.1,40.4z M39.3,40.5L39.3,40.5
					C39.3,40.6,39.3,40.6,39.3,40.5C39.3,40.6,39.3,40.6,39.3,40.5c0.1,0,0.1,0,0.1,0c0,0,0,0,0,0c0,0,0,0,0,0
					C39.4,40.5,39.4,40.5,39.3,40.5C39.3,40.5,39.3,40.5,39.3,40.5c0-0.1,0-0.1,0-0.1c0,0,0,0,0-0.1c0,0,0,0,0,0c0,0,0,0,0,0
					c0,0,0,0,0.1,0l0,0h0l0,0.2c0,0,0,0.1,0,0.1c0,0,0,0,0,0C39.4,40.6,39.4,40.6,39.3,40.5C39.3,40.6,39.3,40.6,39.3,40.5
					C39.3,40.6,39.3,40.6,39.3,40.5L39.3,40.5z M39.3,40.4C39.3,40.4,39.3,40.5,39.3,40.4C39.3,40.5,39.3,40.5,39.3,40.4
					C39.4,40.5,39.4,40.5,39.3,40.4c0.1,0,0.1,0,0.1,0c0,0,0-0.1,0-0.1C39.4,40.3,39.4,40.3,39.3,40.4
					C39.4,40.3,39.4,40.3,39.3,40.4C39.3,40.4,39.3,40.4,39.3,40.4L39.3,40.4z M39.5,40.5l0-0.2h0v0c0,0,0,0,0,0c0,0,0,0,0,0
					c0,0,0,0,0,0c0,0,0,0,0,0c0,0,0,0,0.1,0c0,0,0,0,0.1,0c0,0,0,0,0,0.1l0,0.2h0l0-0.1c0,0,0,0,0,0c0,0,0,0,0,0l0,0c0,0,0,0,0,0
					c0,0,0,0,0,0.1l0,0.1h0l0-0.1c0,0,0,0,0,0c0,0,0,0,0,0c0,0,0,0,0,0c0,0,0,0,0,0c0,0,0,0,0,0L39.5,40.5L39.5,40.5L39.5,40.5z
					 M40,40.4L40,40.4C40.1,40.4,40.1,40.5,40,40.4C40,40.5,40,40.5,40,40.4c-0.1,0.1-0.1,0.1-0.1,0.1c0,0,0,0,0-0.1
					c0,0,0-0.1,0-0.1c0,0,0,0,0.1,0c0,0,0.1,0,0.1,0C40.1,40.3,40.1,40.3,40,40.4C40.1,40.4,40.1,40.4,40,40.4l-0.1,0c0,0,0,0,0,0.1
					C39.9,40.5,40,40.5,40,40.4C40,40.5,40,40.5,40,40.4C40,40.4,40,40.4,40,40.4L40,40.4z M39.9,40.4h0.1c0,0,0,0,0,0
					C40,40.3,40,40.3,39.9,40.4C40,40.3,40,40.3,39.9,40.4C39.9,40.3,39.9,40.3,39.9,40.4L39.9,40.4z M40.1,40.5l0-0.2h0v0
					c0,0,0,0,0.1,0c0,0,0,0,0,0c0,0,0,0,0,0c0,0,0,0,0,0c0,0,0,0,0,0l0,0.1l0,0l0-0.1c0,0,0,0,0,0c0,0,0,0,0,0c0,0,0,0,0,0
					c0,0,0,0,0,0c0,0,0,0,0,0.1L40.1,40.5L40.1,40.5z M40.5,40.4L40.5,40.4C40.4,40.5,40.4,40.5,40.5,40.4
					C40.4,40.5,40.4,40.5,40.5,40.4C40.4,40.5,40.4,40.5,40.5,40.4C40.4,40.5,40.4,40.4,40.5,40.4l-0.1-0.2h0l0,0h0l0-0.1l0,0l0,0.1
					l0,0v0h0L40.5,40.4C40.4,40.4,40.4,40.4,40.5,40.4C40.4,40.4,40.4,40.4,40.5,40.4L40.5,40.4C40.4,40.4,40.4,40.4,40.5,40.4
					L40.5,40.4z M40.5,40.4C40.5,40.3,40.5,40.3,40.5,40.4c0.1-0.1,0.1-0.1,0.1-0.1c0,0,0.1,0,0.1,0c0,0,0,0,0,0.1c0,0,0,0.1,0,0.1
					c0,0,0,0,0,0c0,0,0,0-0.1,0C40.5,40.5,40.5,40.5,40.5,40.4C40.5,40.4,40.5,40.4,40.5,40.4L40.5,40.4z M40.5,40.4
					C40.5,40.4,40.5,40.4,40.5,40.4C40.5,40.4,40.6,40.4,40.5,40.4C40.6,40.4,40.6,40.4,40.5,40.4c0.1,0,0.1,0,0.1,0c0,0,0,0,0-0.1
					C40.6,40.3,40.6,40.3,40.5,40.4C40.6,40.3,40.6,40.3,40.5,40.4C40.5,40.3,40.5,40.3,40.5,40.4L40.5,40.4z M41,40.4L41,40.4
					C41,40.4,41,40.4,41,40.4C41,40.5,41,40.5,41,40.4c-0.1,0.1-0.1,0.1-0.2,0c0,0,0,0,0-0.1c0,0,0-0.1,0-0.1c0,0,0,0,0.1,0
					c0,0,0.1,0,0.1,0C41.1,40.3,41.1,40.3,41,40.4L41,40.4l-0.1,0c0,0,0,0,0,0.1C40.9,40.4,40.9,40.4,41,40.4
					C41,40.4,41,40.4,41,40.4C41,40.4,41,40.4,41,40.4L41,40.4z M40.9,40.3H41c0,0,0,0,0-0.1C41,40.3,41,40.3,40.9,40.3
					C40.9,40.3,40.9,40.3,40.9,40.3C40.9,40.3,40.9,40.3,40.9,40.3L40.9,40.3z M41.1,40.5l0-0.3h0L41.1,40.5L41.1,40.5L41.1,40.5z
					 M41.2,40.2L41.2,40.2L41.2,40.2L41.2,40.2L41.2,40.2L41.2,40.2z M41.2,40.5l0-0.2h0L41.2,40.5L41.2,40.5L41.2,40.5z M41.3,40.5
					l0-0.2h0l0,0c0,0,0,0,0,0c0,0,0,0,0,0c0,0,0,0,0,0c0,0,0,0,0,0c0,0,0,0,0.1,0c0,0,0,0,0,0c0,0,0,0,0,0.1l0,0.2h0l0-0.2
					c0,0,0,0,0,0l0,0c0,0,0,0,0,0c0,0,0,0,0,0c0,0,0,0,0,0.1l0,0.1h0l0-0.2c0,0,0,0,0,0c0,0,0,0,0,0c0,0,0,0,0,0c0,0,0,0,0,0
					c0,0,0,0,0,0L41.3,40.5L41.3,40.5L41.3,40.5z M41.7,40.2L41.7,40.2L41.7,40.2L41.7,40.2L41.7,40.2L41.7,40.2z M41.6,40.5l0-0.2
					h0L41.6,40.5L41.6,40.5L41.6,40.5z M41.7,40.5l0-0.2h0l0,0c0,0,0,0,0.1,0c0,0,0,0,0,0c0,0,0,0,0,0c0,0,0,0,0,0c0,0,0,0,0,0
					l0,0.1h0l0-0.1c0,0,0,0,0,0c0,0,0,0,0,0c0,0,0,0,0,0c0,0,0,0-0.1,0c0,0,0,0,0,0.1L41.7,40.5L41.7,40.5L41.7,40.5z M42.1,40.4
					C42.1,40.5,42.1,40.5,42.1,40.4C42.1,40.5,42,40.5,42.1,40.4c-0.1,0-0.1,0-0.1,0c0,0,0,0,0,0c0,0,0,0,0,0c0,0,0,0,0,0
					c0,0,0,0,0,0c0,0,0,0,0,0c0,0,0.1,0,0.1,0c0,0,0,0,0,0c0,0,0,0,0,0c0,0,0,0,0,0c0,0,0,0,0,0c0,0,0,0,0,0l0,0c0,0,0,0,0,0
					c0,0,0,0,0,0c0,0,0,0,0,0c0,0,0,0,0,0c0,0,0,0,0,0c0,0,0,0,0,0c0,0,0,0,0,0L42.1,40.4C42.2,40.4,42.2,40.4,42.1,40.4
					C42.2,40.5,42.2,40.5,42.1,40.4L42.1,40.4C42.1,40.5,42.1,40.5,42.1,40.4L42.1,40.4z M42.1,40.4C42.1,40.4,42.1,40.4,42.1,40.4
					C42.1,40.4,42,40.4,42.1,40.4c-0.1,0-0.1,0-0.1,0c0,0,0,0,0,0c0,0,0,0,0,0C42,40.4,42,40.4,42.1,40.4
					C42.1,40.4,42.1,40.4,42.1,40.4C42.1,40.4,42.1,40.4,42.1,40.4C42.1,40.4,42.1,40.4,42.1,40.4L42.1,40.4L42.1,40.4z M42.3,40.5
					L42.3,40.5C42.3,40.5,42.3,40.5,42.3,40.5c-0.1,0-0.1,0-0.1,0c0,0,0,0,0,0c0,0,0,0,0-0.1c0,0,0,0,0-0.1c0,0,0,0,0,0c0,0,0,0,0,0
					c0,0,0,0,0,0c0,0,0,0,0,0l0-0.1l0,0L42.3,40.5L42.3,40.5L42.3,40.5z M42.3,40.4C42.2,40.4,42.3,40.4,42.3,40.4
					C42.3,40.4,42.3,40.4,42.3,40.4C42.3,40.4,42.3,40.4,42.3,40.4c0.1,0.1,0.1,0,0.1,0c0,0,0-0.1,0-0.1
					C42.4,40.3,42.3,40.3,42.3,40.4C42.3,40.3,42.3,40.3,42.3,40.4C42.3,40.3,42.3,40.3,42.3,40.4L42.3,40.4z M42.5,40.3
					C42.5,40.3,42.5,40.3,42.5,40.3c0.1-0.1,0.1-0.1,0.1-0.1c0,0,0.1,0,0.1,0c0,0,0,0,0,0.1c0,0,0,0,0,0.1c0,0,0,0,0,0
					c0,0,0,0-0.1,0C42.5,40.5,42.5,40.5,42.5,40.3C42.4,40.4,42.4,40.4,42.5,40.3L42.5,40.3z M42.5,40.4
					C42.5,40.4,42.5,40.4,42.5,40.4C42.5,40.4,42.5,40.4,42.5,40.4c0.1,0.1,0.1,0.1,0.1,0.1c0,0,0,0,0-0.1c0,0,0-0.1,0-0.1
					C42.6,40.3,42.6,40.3,42.5,40.4C42.6,40.3,42.5,40.3,42.5,40.4C42.5,40.3,42.5,40.3,42.5,40.4L42.5,40.4z M42.8,40.5l0-0.2h0v0
					c0,0,0,0,0,0c0,0,0,0,0,0c0,0,0,0,0,0l0,0c0,0,0,0,0,0c0,0,0,0,0,0c0,0,0,0,0,0c0,0,0,0,0,0L42.8,40.5L42.8,40.5L42.8,40.5z
					 M43.1,40.4L43.1,40.4C43.1,40.4,43.1,40.5,43.1,40.4C43.1,40.5,43.1,40.5,43.1,40.4c-0.1,0.1-0.1,0.1-0.1,0c0,0,0,0,0-0.1
					c0,0,0-0.1,0-0.1c0,0,0,0,0.1,0c0,0,0.1,0,0.1,0C43.2,40.3,43.2,40.3,43.1,40.4L43.1,40.4l-0.1,0c0,0,0,0,0,0.1
					C43,40.4,43,40.5,43.1,40.4C43.1,40.5,43.1,40.5,43.1,40.4C43.1,40.4,43.1,40.4,43.1,40.4L43.1,40.4z M43,40.3l0.1,0
					c0,0,0,0,0,0C43.1,40.3,43.1,40.3,43,40.3C43.1,40.3,43,40.3,43,40.3C43,40.3,43,40.3,43,40.3L43,40.3z M43.2,40.4L43.2,40.4
					C43.2,40.4,43.2,40.4,43.2,40.4C43.2,40.5,43.3,40.5,43.2,40.4c0.1,0,0.1,0,0.1,0c0,0,0,0,0,0c0,0,0,0,0,0
					C43.3,40.4,43.3,40.4,43.2,40.4C43.3,40.4,43.2,40.4,43.2,40.4C43.2,40.4,43.2,40.4,43.2,40.4C43.2,40.3,43.2,40.3,43.2,40.4
					c0-0.1,0-0.1,0-0.1c0,0,0,0,0,0c0,0,0,0,0,0c0,0,0,0,0,0c0,0,0,0,0,0c0,0,0,0,0,0c0,0,0,0,0,0l0,0c0,0,0,0,0,0c0,0,0,0,0,0
					c0,0,0,0,0,0C43.3,40.3,43.2,40.3,43.2,40.4C43.2,40.3,43.2,40.3,43.2,40.4C43.3,40.3,43.3,40.3,43.2,40.4
					c0.1-0.1,0.1-0.1,0.1-0.1c0,0,0,0,0.1,0c0,0,0,0,0,0c0,0,0,0,0,0c0,0,0,0,0,0c0,0,0,0,0,0C43.3,40.5,43.3,40.5,43.2,40.4
					C43.2,40.5,43.2,40.5,43.2,40.4C43.2,40.5,43.2,40.4,43.2,40.4L43.2,40.4z M43.4,40.6l0.1-0.3l0,0l0,0c0,0,0,0,0,0c0,0,0,0,0,0
					c0,0,0,0,0.1,0c0,0,0,0,0,0c0,0,0,0,0,0.1c0,0,0,0,0,0.1c0,0,0,0,0,0c0,0,0,0-0.1,0C43.5,40.5,43.5,40.5,43.4,40.6
					c0.1-0.1,0.1-0.1,0.1-0.1L43.4,40.6L43.4,40.6L43.4,40.6z M43.5,40.4C43.4,40.4,43.5,40.4,43.5,40.4
					C43.5,40.5,43.5,40.5,43.5,40.4C43.5,40.5,43.5,40.5,43.5,40.4c0.1,0.1,0.1,0,0.1,0c0,0,0,0,0-0.1
					C43.6,40.3,43.6,40.3,43.5,40.4C43.5,40.3,43.5,40.3,43.5,40.4C43.5,40.3,43.5,40.3,43.5,40.4L43.5,40.4z M43.8,40.4L43.8,40.4
					C43.8,40.5,43.8,40.5,43.8,40.4C43.8,40.5,43.8,40.5,43.8,40.4c-0.1,0.1-0.1,0.1-0.1,0c0,0,0-0.1,0-0.1c0,0,0-0.1,0.1-0.1
					c0,0,0.1,0,0.1,0c0,0,0,0,0.1,0C43.9,40.3,43.9,40.4,43.8,40.4C43.9,40.4,43.9,40.4,43.8,40.4l-0.1,0c0,0,0,0,0,0.1
					C43.7,40.5,43.7,40.5,43.8,40.4C43.8,40.5,43.8,40.5,43.8,40.4C43.8,40.5,43.8,40.5,43.8,40.4L43.8,40.4z M43.7,40.4l0.1,0
					c0,0,0,0,0,0C43.8,40.3,43.8,40.3,43.7,40.4C43.8,40.3,43.7,40.3,43.7,40.4C43.7,40.3,43.7,40.3,43.7,40.4L43.7,40.4z
					 M43.9,40.2L43.9,40.2L43.9,40.2L43.9,40.2L43.9,40.2L43.9,40.2z M43.9,40.5l0-0.2l0,0L43.9,40.5L43.9,40.5z M44.1,40.5
					L44.1,40.5C44,40.5,44,40.5,44.1,40.5C44,40.5,44,40.5,44.1,40.5C44,40.5,44,40.5,44.1,40.5C44,40.5,44,40.5,44.1,40.5l0-0.2h0
					l0,0l0,0l0-0.1l0,0l0,0.1h0l0,0h0V40.5C44,40.5,44,40.5,44.1,40.5C44,40.5,44,40.5,44.1,40.5C44,40.5,44,40.5,44.1,40.5
					L44.1,40.5L44.1,40.5z M44.2,40.5C44.2,40.5,44.2,40.5,44.2,40.5C44.2,40.5,44.2,40.5,44.2,40.5c-0.1,0-0.1,0-0.1,0
					c0,0,0,0,0-0.1c0,0,0,0,0,0c0,0,0,0,0,0c0,0,0,0,0,0c0,0,0,0,0,0c0,0,0.1,0,0.1,0c0,0,0,0,0,0c0,0,0,0,0,0c0,0,0,0,0,0
					c0,0,0,0,0,0c0,0,0,0,0,0l0,0c0,0,0,0,0,0c0,0,0,0,0,0c0,0,0,0,0,0c0,0,0,0,0,0c0,0,0,0,0,0c0,0,0,0,0,0c0,0,0,0,0,0L44.2,40.5
					C44.3,40.5,44.3,40.5,44.2,40.5C44.3,40.5,44.3,40.5,44.2,40.5L44.2,40.5C44.2,40.5,44.2,40.5,44.2,40.5L44.2,40.5z M44.2,40.4
					C44.2,40.4,44.2,40.4,44.2,40.4C44.2,40.4,44.2,40.4,44.2,40.4c-0.1,0-0.1,0-0.1,0c0,0,0,0,0,0c0,0,0,0,0,0
					C44.1,40.5,44.1,40.5,44.2,40.4C44.2,40.5,44.2,40.5,44.2,40.4C44.2,40.5,44.2,40.5,44.2,40.4C44.2,40.5,44.2,40.4,44.2,40.4
					L44.2,40.4L44.2,40.4z M44.4,40.4C44.5,40.4,44.5,40.3,44.4,40.4c0.1-0.1,0.1-0.1,0.1-0.1c0,0,0.1,0,0.1,0c0,0,0,0,0,0.1
					c0,0,0,0.1,0,0.1c0,0,0,0-0.1,0c0,0,0,0,0,0C44.5,40.5,44.5,40.5,44.4,40.4C44.4,40.5,44.4,40.5,44.4,40.4L44.4,40.4z
					 M44.5,40.4C44.5,40.5,44.5,40.5,44.5,40.4C44.5,40.5,44.5,40.5,44.5,40.4C44.6,40.5,44.6,40.5,44.5,40.4c0.1,0.1,0.1,0,0.1,0
					c0,0,0-0.1,0-0.1C44.6,40.3,44.6,40.3,44.5,40.4C44.6,40.3,44.5,40.3,44.5,40.4C44.5,40.4,44.5,40.4,44.5,40.4L44.5,40.4z
					 M44.8,40.6l0.1-0.3h0l0,0c0,0,0,0,0,0c0,0,0,0,0,0s0,0,0,0c0,0,0,0,0,0c0,0,0,0,0,0.1c0,0,0,0,0,0.1c0,0,0,0,0,0c0,0,0,0-0.1,0
					C44.9,40.6,44.9,40.6,44.8,40.6C44.8,40.5,44.8,40.5,44.8,40.6L44.8,40.6L44.8,40.6z M44.9,40.4C44.8,40.5,44.8,40.5,44.9,40.4
					C44.9,40.5,44.9,40.5,44.9,40.4C44.9,40.5,44.9,40.5,44.9,40.4c0.1,0.1,0.1,0,0.1,0c0,0,0-0.1,0-0.1
					C45,40.4,44.9,40.4,44.9,40.4C44.9,40.4,44.9,40.4,44.9,40.4C44.9,40.4,44.9,40.4,44.9,40.4L44.9,40.4z M45,40.6l0.1-0.2h0l0,0
					c0,0,0,0,0,0c0,0,0,0,0,0c0,0,0,0,0,0l0,0c0,0,0,0,0,0c0,0,0,0,0,0c0,0,0,0,0,0c0,0,0,0,0,0L45,40.6L45,40.6L45,40.6z
					 M45.2,40.5C45.2,40.4,45.2,40.4,45.2,40.5c0.1-0.1,0.1-0.1,0.1-0.1c0,0,0,0,0.1,0c0,0,0,0.1,0,0.1c0,0,0,0.1,0,0.1c0,0,0,0,0,0
					c0,0,0,0-0.1,0C45.2,40.6,45.2,40.6,45.2,40.5C45.2,40.5,45.2,40.5,45.2,40.5L45.2,40.5z M45.2,40.5
					C45.2,40.5,45.2,40.5,45.2,40.5C45.2,40.5,45.3,40.6,45.2,40.5C45.3,40.6,45.3,40.6,45.2,40.5c0.1,0.1,0.1,0,0.1,0
					c0,0,0-0.1,0-0.1C45.3,40.4,45.3,40.4,45.2,40.5C45.3,40.4,45.3,40.4,45.2,40.5C45.2,40.4,45.2,40.4,45.2,40.5L45.2,40.5z
					 M45.5,40.3L45.5,40.3L45.5,40.3L45.5,40.3L45.5,40.3L45.5,40.3z M45.3,40.7L45.3,40.7C45.4,40.7,45.4,40.7,45.3,40.7
					C45.4,40.7,45.4,40.7,45.3,40.7C45.4,40.6,45.4,40.6,45.3,40.7l0.1-0.3h0L45.3,40.7C45.4,40.6,45.4,40.7,45.3,40.7
					C45.4,40.7,45.4,40.7,45.3,40.7C45.4,40.7,45.4,40.7,45.3,40.7L45.3,40.7z M45.7,40.5L45.7,40.5C45.7,40.6,45.7,40.6,45.7,40.5
					C45.6,40.6,45.6,40.6,45.7,40.5c-0.1,0.1-0.1,0.1-0.1,0c0,0,0,0,0-0.1c0,0,0-0.1,0.1-0.1c0,0,0.1,0,0.1,0c0,0,0.1,0,0.1,0
					C45.7,40.4,45.7,40.5,45.7,40.5L45.7,40.5l-0.1,0c0,0,0,0,0,0.1C45.6,40.6,45.6,40.6,45.7,40.5C45.6,40.6,45.6,40.6,45.7,40.5
					C45.7,40.6,45.7,40.6,45.7,40.5L45.7,40.5z M45.6,40.5l0.1,0c0,0,0,0,0,0C45.7,40.4,45.7,40.4,45.6,40.5
					C45.6,40.4,45.6,40.4,45.6,40.5C45.6,40.4,45.6,40.4,45.6,40.5L45.6,40.5z"/>
				<path clip-path="url(#SVGID_4_)" d="M45.9,40.5L45.9,40.5C45.9,40.6,45.9,40.6,45.9,40.5C45.9,40.6,45.9,40.6,45.9,40.5
					c-0.1,0.1-0.1,0.1-0.1,0c0,0,0,0,0-0.1c0,0,0-0.1,0-0.1c0,0,0,0,0,0c0,0,0,0,0.1,0c0,0,0,0,0.1,0C46,40.4,46,40.4,45.9,40.5
					L45.9,40.5c0-0.1,0-0.1,0-0.1c0,0,0,0,0,0c0,0,0,0-0.1,0c0,0,0,0,0,0.1c0,0,0,0.1,0,0.1C45.8,40.6,45.8,40.6,45.9,40.5
					C45.8,40.6,45.9,40.6,45.9,40.5C45.9,40.6,45.9,40.6,45.9,40.5L45.9,40.5z M46,40.6L46,40.6C46,40.6,46,40.6,46,40.6
					C46,40.6,46,40.6,46,40.6C46,40.6,46,40.6,46,40.6C46,40.6,46,40.6,46,40.6l0-0.2l0,0l0,0l0,0l0-0.1l0,0l0,0.1h0l0,0l0,0V40.6
					C46,40.6,46,40.6,46,40.6C46,40.6,46,40.6,46,40.6C46,40.6,46,40.6,46,40.6C46,40.6,46,40.6,46,40.6L46,40.6z M46.1,40.5
					C46.1,40.5,46.1,40.5,46.1,40.5c0.1-0.1,0.1-0.1,0.1-0.1c0,0,0.1,0,0.1,0c0,0,0,0.1,0,0.1c0,0,0,0,0,0.1c0,0,0,0-0.1,0
					c0,0,0,0-0.1,0C46.1,40.7,46.1,40.6,46.1,40.5C46.1,40.6,46.1,40.6,46.1,40.5L46.1,40.5z M46.1,40.5
					C46.1,40.6,46.1,40.6,46.1,40.5C46.1,40.6,46.1,40.6,46.1,40.5C46.2,40.6,46.2,40.6,46.1,40.5c0.1,0.1,0.1,0,0.1,0
					c0,0,0,0,0-0.1C46.2,40.5,46.2,40.5,46.1,40.5C46.2,40.5,46.2,40.5,46.1,40.5C46.1,40.5,46.1,40.5,46.1,40.5L46.1,40.5z
					 M46.6,40.7L46.6,40.7C46.6,40.7,46.5,40.7,46.6,40.7c-0.1,0-0.1,0-0.1,0c0,0,0,0,0,0c0,0,0,0,0-0.1c0,0,0,0,0-0.1c0,0,0,0,0,0
					c0,0,0,0,0,0c0,0,0,0,0,0c0,0,0,0,0,0l0-0.1h0L46.6,40.7L46.6,40.7L46.6,40.7z M46.5,40.6C46.5,40.6,46.5,40.6,46.5,40.6
					C46.5,40.7,46.5,40.7,46.5,40.6C46.5,40.7,46.5,40.7,46.5,40.6c0.1,0.1,0.1,0,0.1,0c0,0,0-0.1,0-0.1
					C46.6,40.5,46.6,40.5,46.5,40.6C46.5,40.5,46.5,40.5,46.5,40.6C46.5,40.5,46.5,40.5,46.5,40.6L46.5,40.6z M46.8,40.6L46.8,40.6
					C46.9,40.7,46.8,40.7,46.8,40.6C46.8,40.7,46.8,40.7,46.8,40.6c-0.1,0.1-0.1,0.1-0.1,0c0,0,0-0.1,0-0.1c0,0,0-0.1,0.1-0.1
					c0,0,0,0,0.1,0c0,0,0.1,0,0.1,0C46.9,40.5,46.9,40.6,46.8,40.6C46.9,40.6,46.9,40.6,46.8,40.6l-0.1,0c0,0,0,0,0,0.1
					C46.7,40.7,46.7,40.7,46.8,40.6C46.8,40.7,46.8,40.7,46.8,40.6C46.8,40.7,46.8,40.7,46.8,40.6L46.8,40.6z M46.7,40.6l0.1,0
					c0,0,0,0,0,0C46.8,40.5,46.8,40.5,46.7,40.6C46.8,40.5,46.8,40.5,46.7,40.6C46.7,40.5,46.7,40.5,46.7,40.6L46.7,40.6z
					 M47.3,40.6L47.3,40.6C47.3,40.7,47.3,40.7,47.3,40.6c-0.1,0.1-0.1,0.1-0.1,0.1c0,0-0.1,0-0.1,0c0,0,0,0,0-0.1c0,0,0-0.1,0-0.1
					c0,0,0-0.1,0-0.1c0,0,0,0,0.1,0c0,0,0.1,0,0.1,0c0,0,0.1,0,0.1,0c0,0,0,0,0,0.1l0,0c0,0,0,0,0-0.1c0,0,0,0,0,0c0,0,0,0-0.1,0
					c0,0,0,0,0,0c0,0,0,0,0,0.1c0,0,0,0.1,0,0.1c0,0,0,0,0,0.1c0,0,0,0,0,0C47.2,40.7,47.2,40.7,47.3,40.6
					C47.2,40.7,47.2,40.7,47.3,40.6L47.3,40.6z M47.3,40.7C47.3,40.6,47.4,40.6,47.3,40.7c0.1-0.1,0.1-0.1,0.1-0.1c0,0,0,0,0.1,0
					c0,0,0,0,0,0.1c0,0,0,0.1,0,0.1c0,0,0,0,0,0c0,0,0,0-0.1,0C47.4,40.8,47.3,40.8,47.3,40.7C47.3,40.7,47.3,40.7,47.3,40.7
					L47.3,40.7z M47.4,40.7C47.4,40.7,47.4,40.7,47.4,40.7C47.4,40.7,47.4,40.7,47.4,40.7C47.4,40.8,47.4,40.7,47.4,40.7
					c0.1,0.1,0.1,0,0.1,0c0,0,0-0.1,0-0.1C47.5,40.6,47.5,40.6,47.4,40.7C47.4,40.6,47.4,40.6,47.4,40.7
					C47.4,40.6,47.4,40.6,47.4,40.7L47.4,40.7z M47.5,40.8l0.1-0.3h0L47.5,40.8L47.5,40.8L47.5,40.8z M47.8,40.8L47.8,40.8
					C47.8,40.8,47.7,40.8,47.8,40.8c-0.1,0-0.1,0-0.1,0c0,0,0,0,0,0c0,0,0,0,0,0c0,0,0,0,0,0l0-0.1l0,0l0,0.1
					C47.7,40.7,47.7,40.7,47.8,40.8C47.7,40.8,47.7,40.8,47.8,40.8C47.7,40.8,47.7,40.8,47.8,40.8C47.7,40.8,47.8,40.8,47.8,40.8
					C47.8,40.8,47.8,40.8,47.8,40.8C47.8,40.8,47.8,40.7,47.8,40.8l0.1-0.2l0,0L47.8,40.8L47.8,40.8L47.8,40.8z M47.9,40.8l0.1-0.2
					l0,0l0,0c0,0,0,0,0,0c0,0,0,0,0,0c0,0,0,0,0,0c0,0,0,0,0,0c0,0,0.1,0,0.1,0c0,0,0,0,0,0c0,0,0,0,0,0.1l0,0.2l0,0l0-0.1
					c0,0,0,0,0,0l0,0c0,0,0,0,0,0c0,0,0,0-0.1,0c0,0,0,0,0,0.1l0,0.1l0,0l0-0.1c0,0,0,0,0,0c0,0,0,0,0,0c0,0,0,0,0,0c0,0,0,0,0,0
					c0,0,0,0,0,0L47.9,40.8L47.9,40.8z M48.3,40.9L48.3,40.9l0-0.3l0,0l0,0.1c0,0,0.1,0,0.1,0c0,0,0,0,0,0c0,0,0,0,0,0c0,0,0,0,0,0
					c0,0,0,0,0,0c0,0,0,0.1-0.1,0.1C48.4,40.9,48.3,40.9,48.3,40.9C48.3,40.9,48.3,40.9,48.3,40.9L48.3,40.9L48.3,40.9z M48.3,40.8
					C48.3,40.8,48.3,40.8,48.3,40.8C48.3,40.9,48.3,40.9,48.3,40.8C48.3,40.9,48.4,40.9,48.3,40.8c0.1,0.1,0.1,0,0.1,0
					c0,0,0-0.1,0-0.1C48.4,40.7,48.4,40.7,48.3,40.8C48.4,40.7,48.3,40.7,48.3,40.8C48.3,40.7,48.3,40.7,48.3,40.8L48.3,40.8z
					 M48.6,40.9C48.6,40.9,48.6,40.9,48.6,40.9C48.6,40.9,48.5,40.9,48.6,40.9c-0.1,0-0.1,0-0.1,0c0,0,0,0,0,0c0,0,0,0,0,0
					c0,0,0,0,0,0c0,0,0,0,0,0c0,0,0,0,0,0c0,0,0.1,0,0.1,0c0,0,0,0,0,0c0,0,0,0,0,0c0,0,0,0,0,0c0,0,0,0,0,0c0,0,0,0,0,0l0,0
					c0,0,0,0,0,0c0,0,0,0,0,0c0,0,0,0,0.1,0c0,0,0,0,0,0c0,0,0,0,0,0c0,0,0,0,0,0c0,0,0,0,0,0L48.6,40.9
					C48.7,40.9,48.6,40.9,48.6,40.9C48.6,40.9,48.6,40.9,48.6,40.9L48.6,40.9L48.6,40.9L48.6,40.9z M48.6,40.8
					C48.6,40.8,48.6,40.8,48.6,40.8C48.6,40.8,48.5,40.8,48.6,40.8c-0.1,0-0.1,0-0.1,0c0,0,0,0,0,0c0,0,0,0,0,0
					C48.5,40.9,48.5,40.9,48.6,40.8C48.6,40.9,48.6,40.9,48.6,40.8C48.6,40.9,48.6,40.9,48.6,40.8C48.6,40.9,48.6,40.8,48.6,40.8
					L48.6,40.8L48.6,40.8z M48.7,40.9l0.1-0.2l0,0l0,0c0,0,0.1,0,0.1,0c0,0,0,0,0,0c0,0,0,0,0,0c0,0,0,0,0,0c0,0,0,0,0,0l0,0.1h0
					l0-0.1c0,0,0,0,0,0c0,0,0,0,0,0l0,0c0,0,0,0,0,0c0,0,0,0,0,0.1L48.7,40.9L48.7,40.9L48.7,40.9z M48.9,40.9
					C49,40.8,49,40.8,48.9,40.9c0.1-0.1,0.1-0.1,0.1-0.1c0,0,0.1,0,0.1,0c0,0,0,0.1,0,0.1c0,0,0,0,0,0.1c0,0,0,0-0.1,0
					c0,0,0,0-0.1,0C49,41,49,41,48.9,40.9C48.9,40.9,48.9,40.9,48.9,40.9L48.9,40.9z M49,40.9C49,40.9,49,40.9,49,40.9
					C49,41,49,41,49,40.9C49,41,49,41,49,40.9c0.1,0.1,0.1,0.1,0.1,0c0,0,0-0.1,0-0.1C49.1,40.8,49.1,40.8,49,40.9
					C49,40.8,49,40.8,49,40.9C49,40.8,49,40.8,49,40.9L49,40.9z"/>
				<g clip-path="url(#SVGID_4_)">
					<path fill="#EA0020" d="M49.9,42C49.8,42,49.8,42,49.9,42c-0.1,0-0.1-0.1-0.1-0.1l0.9-1.7c0,0,0.1-0.1,0.1,0c0,0,0.1,0.1,0,0.1
						L49.9,42C49.9,42,49.9,42,49.9,42L49.9,42z"/>
				</g>
				<path clip-path="url(#SVGID_4_)" fill="#FCFF2C" d="M27.1,25c5.3-0.1,29.5,14.8,29.6,17.6l-1.5,2.3
					c-0.7-3.2-25.3-17.7-29.4-17.4L27.1,25L27.1,25z"/>
				<g clip-path="url(#SVGID_4_)">
					<path d="M55.4,44.8l1.2-2c0,0,0,0,0.1,0c0,0,0,0,0,0.1L55.4,44.8L55.4,44.8z"/>
				</g>
				<g clip-path="url(#SVGID_4_)">
					<path d="M25.9,27.3l1.1-2.2c0,0,0,0,0.1,0c0,0,0,0,0,0.1L25.9,27.3L25.9,27.3z"/>
				</g>
				<path clip-path="url(#SVGID_4_)" fill="#FCFF2C" d="M25.7,27.4c1-0.7,8.1,2.5,15.6,7.1c7.5,4.5,14.6,9.7,14,10.6l-0.2,0.3
					L55,45.5c0,0,0.1-0.1,0-0.5c-0.3-1.1-5.4-5.1-13.8-10.2c-8.2-4.9-15-7.8-15.7-7L25.7,27.4L25.7,27.4z M56.9,42.8
					c0.6-1.2-6-6.2-14.3-11.1C34.1,26.9,28.1,24,27,24.9l-0.3,0.4c0,0,0,0,0.1-0.1c0.2-0.2,0.5-0.2,0.7-0.2c1.9,0,7.4,2.5,15,6.9
					c3.4,2,14.2,8.9,14.1,10.9c0,0.2,0,0.2-0.1,0.3L56.9,42.8L56.9,42.8z"/>
				<g clip-path="url(#SVGID_4_)">
					<path d="M55,45.5L55,45.5C55,45.4,55,45.4,55,45.5c-0.1-0.1,0-0.2-0.1-0.5c-0.3-1.1-5.7-5.3-13.8-10.2
						c-6.9-4.1-13.3-7.1-15.2-7.1c-0.2,0-0.4,0-0.4,0.1l0,0c0,0,0,0,0-0.1l0.1-0.4c0.1-0.1,0.3-0.1,0.4-0.1c1.9,0,8.6,3.1,15.3,7.2
						c6.7,4.1,13.7,9,14,10.4c0,0.1,0,0.2,0,0.3l-0.2,0.3C55.1,45.4,55.1,45.4,55,45.5C55.1,45.5,55,45.5,55,45.5L55,45.5z
						 M25.9,27.6c1.9,0,8.3,3,15.3,7.2c8.2,5,13.5,9.1,13.8,10.2c0.1,0.1,0.1,0.3,0.1,0.3l0.2-0.3c0,0,0-0.1,0-0.2
						c-0.3-1.4-7.4-6.4-14-10.4c-6.6-4-13.3-7.1-15.2-7.1c-0.2,0-0.3,0-0.4,0.1l-0.1,0.3C25.7,27.6,25.8,27.6,25.9,27.6L25.9,27.6z
						 M56.6,43.2C56.6,43.2,56.6,43.2,56.6,43.2L56.6,43.2L56.6,43.2C56.6,43.1,56.6,43.1,56.6,43.2L56.6,43.2L56.6,43.2
						c0-0.1,0-0.1,0-0.2c0-2-11-9.1-14.1-10.9c-7.6-4.4-13.1-6.9-15-6.9c-0.2,0-0.5,0-0.6,0.2c0,0,0,0,0,0C27,25,27.3,25,27.4,25
						c2,0,7.4,2.6,15.1,6.9c2.2,1.3,14.2,8.8,14.2,10.9c0,0,0,0,0,0l0.1-0.2c0.6-1.1-5.7-6-14.3-11C33.5,26.5,28,24.2,27,24.9
						l-0.2,0.4c0,0-0.1,0-0.1,0l0.3-0.5c0.1-0.1,0.4-0.2,0.6-0.2c2.4,0,9.5,3.8,15.1,6.9c7.4,4.4,15,9.8,14.3,11.2L56.6,43.2
						C56.6,43.2,56.6,43.2,56.6,43.2L56.6,43.2z"/>
				</g>
				<path clip-path="url(#SVGID_4_)" fill="#FFFFFF" d="M31.2,36.5c0,2.8,1.2,5.4,3,7.2c1.9,1.9,4.4,3,7.2,3c2.8,0,5.4-1.1,7.3-3
					c1.9-1.8,3-4.4,3-7.2l0,0V22.8l-20.5,0V36.5L31.2,36.5z"/>
				<g clip-path="url(#SVGID_4_)">
					<path d="M41.4,46.8c-2.7,0-5.3-1.1-7.3-3.1c-2-2-3-4.5-3-7.3V22.8l20.6,0l0.1,13.7c0,2.7-1.1,5.3-3,7.3
						C46.8,45.7,44.2,46.8,41.4,46.8L41.4,46.8z M51.7,22.8l-20.5,0l0.1,13.7c0,2.7,1.1,5.3,3,7.2c2,1.9,4.5,3,7.2,3
						c2.7,0,5.3-1.1,7.2-3c1.9-1.9,3-4.5,3-7.2V22.8L51.7,22.8z"/>
				</g>
				<path clip-path="url(#SVGID_4_)" fill="#EA0020" d="M31.6,36.5L31.6,36.5c0,2.7,1.1,5.1,2.9,6.9c1.8,1.8,4.3,2.9,7,2.9
					c2.7,0,5.2-1.1,6.9-2.9c1.8-1.8,2.9-4.2,2.9-6.9l0,0V23.2H31.6L31.6,36.5L31.6,36.5z M47.3,27.2v8.5l0,0.9l0,0
					c0,0.2,0,0.5,0,0.7c-0.2,1.3-0.8,2.5-1.7,3.4c-1.1,1.1-2.5,1.7-4.1,1.7c-1.6,0-3.1-0.7-4.1-1.7c-1.1-1.1-1.7-2.6-1.7-4.1v-9.3
					L47.3,27.2L47.3,27.2z"/>
				<g clip-path="url(#SVGID_4_)">
					<path d="M41.4,46.4c-2.6,0-5.1-1-7-2.9c-1.9-1.9-2.9-4.4-2.9-7l0-13.3l19.7,0l0,13.3c0,2.6-1,5.1-2.9,7
						C46.5,45.3,44.1,46.4,41.4,46.4L41.4,46.4z M51.2,23.2l-19.6,0l0,13.2c0,2.6,1,5,2.9,6.9c1.9,1.9,4.3,2.9,6.9,2.9
						c2.6,0,5.1-1,6.9-2.9c1.9-1.9,2.9-4.3,2.9-6.9V23.2L51.2,23.2z M41.4,42.5c-1.5,0-3-0.6-4.2-1.8c-1.1-1.1-1.8-2.6-1.8-4.2v-9.4
						l11.8,0l0,8.5l0,0.9c0,0.2,0,0.5,0,0.7c-0.1,1.3-0.7,2.5-1.7,3.4C44.5,41.9,43,42.5,41.4,42.5L41.4,42.5z M35.6,27.2l0,9.3
						c0,1.5,0.6,3,1.7,4.1c1.1,1.1,2.6,1.7,4.1,1.7c1.6,0,3-0.6,4.1-1.7c0.9-0.9,1.5-2.1,1.7-3.4c0-0.2,0-0.5,0-0.7l0-9.3L35.6,27.2
						L35.6,27.2z"/>
				</g>
				<path clip-path="url(#SVGID_4_)" fill="#1A0095" d="M40.2,35L40.2,35c0,0.4,0.1,0.7,0.4,1c0.2,0.3,0.6,0.4,0.9,0.4
					c0.4,0,0.7-0.2,0.9-0.4c0.2-0.3,0.4-0.6,0.4-1v-1.9l-2.6,0L40.2,35L40.2,35z"/>
				<path clip-path="url(#SVGID_4_)" fill="#FFFFFF" d="M42.2,33.6c-0.1,0-0.3,0.1-0.3,0.3c0,0.1,0.1,0.3,0.3,0.3
					c0.1,0,0.3-0.1,0.3-0.3C42.5,33.7,42.4,33.6,42.2,33.6L42.2,33.6z"/>
				<path clip-path="url(#SVGID_4_)" fill="#FFFFFF" d="M41.5,34.3c-0.1,0-0.3,0.1-0.3,0.3c0,0.1,0.1,0.3,0.3,0.3
					c0.1,0,0.3-0.1,0.3-0.3C41.8,34.4,41.7,34.3,41.5,34.3L41.5,34.3z"/>
				<path clip-path="url(#SVGID_4_)" fill="#FFFFFF" d="M42.2,35c-0.1,0-0.3,0.1-0.3,0.3c0,0.1,0.1,0.3,0.3,0.3
					c0.1,0,0.3-0.1,0.3-0.3C42.5,35.1,42.4,35,42.2,35L42.2,35z"/>
				<path clip-path="url(#SVGID_4_)" fill="#FFFFFF" d="M40.8,35c-0.1,0-0.3,0.1-0.3,0.3c0,0.1,0.1,0.3,0.3,0.3
					c0.1,0,0.3-0.1,0.3-0.3C41.1,35.1,41,35,40.8,35L40.8,35z"/>
				<path clip-path="url(#SVGID_4_)" fill="#FFFFFF" d="M40.8,33.6c-0.1,0-0.3,0.1-0.3,0.2c0,0.1,0.1,0.3,0.3,0.3
					c0.1,0,0.3-0.1,0.3-0.3C41.1,33.7,41,33.6,40.8,33.6L40.8,33.6z"/>
				<path clip-path="url(#SVGID_4_)" fill="#1A0095" d="M40.2,39.5L40.2,39.5c0,0.4,0.1,0.7,0.4,1c0.2,0.3,0.6,0.4,0.9,0.4
					c0.4,0,0.7-0.2,0.9-0.4c0.2-0.3,0.4-0.6,0.4-1v-1.9l-2.6,0V39.5L40.2,39.5z"/>
				<path clip-path="url(#SVGID_4_)" fill="#FFFFFF" d="M42.2,38.1c-0.1,0-0.3,0.1-0.3,0.3c0,0.1,0.1,0.3,0.3,0.3
					c0.1,0,0.3-0.1,0.3-0.3C42.5,38.2,42.4,38.1,42.2,38.1L42.2,38.1z"/>
				<path clip-path="url(#SVGID_4_)" fill="#FFFFFF" d="M41.5,38.7c-0.1,0-0.3,0.1-0.3,0.3c0,0.1,0.1,0.3,0.3,0.3
					c0.1,0,0.3-0.1,0.3-0.3C41.7,38.9,41.6,38.7,41.5,38.7L41.5,38.7z"/>
				<path clip-path="url(#SVGID_4_)" fill="#FFFFFF" d="M42.2,39.5c-0.1,0-0.3,0.1-0.3,0.3c0,0.1,0.1,0.3,0.3,0.3
					c0.1,0,0.3-0.1,0.3-0.3C42.5,39.6,42.4,39.5,42.2,39.5L42.2,39.5z"/>
				<path clip-path="url(#SVGID_4_)" fill="#FFFFFF" d="M40.8,39.5c-0.1,0-0.3,0.1-0.3,0.3c0,0.1,0.1,0.3,0.3,0.3
					c0.1,0,0.3-0.1,0.3-0.3C41.1,39.6,41,39.5,40.8,39.5L40.8,39.5z"/>
				<path clip-path="url(#SVGID_4_)" fill="#FFFFFF" d="M40.8,38.1c-0.1,0-0.3,0.1-0.3,0.3c0,0.1,0.1,0.3,0.3,0.3
					c0.1,0,0.3-0.1,0.3-0.3C41.1,38.2,40.9,38.1,40.8,38.1L40.8,38.1z"/>
				<path clip-path="url(#SVGID_4_)" fill="#1A0095" d="M36.6,35L36.6,35c0,0.4,0.2,0.7,0.4,1c0.2,0.3,0.6,0.4,0.9,0.4
					c0.4,0,0.7-0.1,0.9-0.4c0.2-0.3,0.4-0.6,0.4-1v-1.9l-2.6,0L36.6,35L36.6,35z"/>
				<path clip-path="url(#SVGID_4_)" fill="#FFFFFF" d="M38.6,33.6c-0.1,0-0.3,0.1-0.3,0.3c0,0.1,0.1,0.3,0.3,0.3
					c0.1,0,0.3-0.1,0.3-0.3C38.9,33.7,38.8,33.6,38.6,33.6L38.6,33.6z"/>
				<path clip-path="url(#SVGID_4_)" fill="#FFFFFF" d="M37.9,34.3c-0.1,0-0.3,0.1-0.3,0.3c0,0.1,0.1,0.3,0.3,0.3
					c0.1,0,0.3-0.1,0.3-0.3C38.2,34.4,38.1,34.3,37.9,34.3L37.9,34.3z"/>
				<path clip-path="url(#SVGID_4_)" fill="#FFFFFF" d="M38.6,35c-0.1,0-0.3,0.1-0.3,0.3c0,0.1,0.1,0.3,0.3,0.3
					c0.1,0,0.3-0.1,0.3-0.3C38.9,35.1,38.8,35,38.6,35L38.6,35z"/>
				<path clip-path="url(#SVGID_4_)" fill="#FFFFFF" d="M37.2,35c-0.1,0-0.3,0.1-0.3,0.3c0,0.1,0.1,0.3,0.3,0.3
					c0.1,0,0.3-0.1,0.3-0.3C37.5,35.1,37.4,35,37.2,35L37.2,35z"/>
				<path clip-path="url(#SVGID_4_)" fill="#FFFFFF" d="M37.2,33.6c-0.1,0-0.2,0.1-0.2,0.3c0,0.1,0.1,0.3,0.2,0.3
					c0.1,0,0.3-0.1,0.3-0.3C37.5,33.7,37.4,33.6,37.2,33.6L37.2,33.6z"/>
				<path clip-path="url(#SVGID_4_)" fill="#1A0095" d="M43.8,35L43.8,35c0,0.4,0.1,0.7,0.4,1c0.2,0.3,0.6,0.4,0.9,0.4
					c0.4,0,0.7-0.2,0.9-0.4c0.2-0.2,0.4-0.6,0.4-1v-1.9h-2.6L43.8,35L43.8,35z"/>
				<path clip-path="url(#SVGID_4_)" fill="#FFFFFF" d="M45.8,33.6c-0.2,0-0.3,0.1-0.3,0.3c0,0.1,0.1,0.3,0.3,0.3
					c0.1,0,0.3-0.1,0.3-0.3C46.1,33.7,46,33.6,45.8,33.6L45.8,33.6z"/>
				<path clip-path="url(#SVGID_4_)" fill="#FFFFFF" d="M45.1,34.3c-0.1,0-0.3,0.1-0.3,0.3c0,0.1,0.1,0.3,0.3,0.3s0.3-0.1,0.3-0.3
					C45.4,34.4,45.2,34.3,45.1,34.3L45.1,34.3z"/>
				<path clip-path="url(#SVGID_4_)" fill="#FFFFFF" d="M45.8,35c-0.1,0-0.3,0.1-0.3,0.3c0,0.1,0.1,0.3,0.3,0.3
					c0.1,0,0.3-0.1,0.3-0.3C46.1,35.1,46,35,45.8,35L45.8,35z"/>
				<path clip-path="url(#SVGID_4_)" fill="#FFFFFF" d="M44.4,35c-0.1,0-0.3,0.1-0.3,0.3c0,0.1,0.1,0.3,0.3,0.3
					c0.1,0,0.3-0.1,0.3-0.3C44.7,35.1,44.6,35,44.4,35L44.4,35z"/>
				<path clip-path="url(#SVGID_4_)" fill="#FFFFFF" d="M44.4,33.6c-0.1,0-0.3,0.1-0.3,0.3c0,0.1,0.1,0.3,0.3,0.3
					c0.1,0,0.3-0.1,0.3-0.3C44.7,33.7,44.6,33.6,44.4,33.6L44.4,33.6z"/>
				<path clip-path="url(#SVGID_4_)" fill="#1A0095" d="M40.2,30.5L40.2,30.5c0,0.4,0.1,0.7,0.4,1c0.2,0.3,0.6,0.4,0.9,0.4
					c0.4,0,0.7-0.2,0.9-0.4c0.2-0.3,0.4-0.6,0.4-1v-1.9h-2.6V30.5L40.2,30.5z"/>
				<path clip-path="url(#SVGID_4_)" fill="#FFFFFF" d="M42.2,29.1c-0.1,0-0.3,0.1-0.3,0.3c0,0.1,0.1,0.2,0.3,0.2
					c0.1,0,0.3-0.1,0.3-0.2C42.5,29.2,42.4,29.1,42.2,29.1L42.2,29.1z"/>
				<path clip-path="url(#SVGID_4_)" fill="#FFFFFF" d="M41.5,29.8c-0.1,0-0.3,0.1-0.3,0.3c0,0.1,0.1,0.3,0.3,0.3
					c0.1,0,0.3-0.1,0.3-0.3C41.8,29.9,41.6,29.8,41.5,29.8L41.5,29.8z"/>
				<path clip-path="url(#SVGID_4_)" fill="#FFFFFF" d="M42.2,30.5c-0.1,0-0.3,0.1-0.3,0.2c0,0.1,0.1,0.3,0.3,0.3
					c0.1,0,0.3-0.1,0.3-0.3C42.5,30.6,42.4,30.5,42.2,30.5L42.2,30.5z"/>
				<path clip-path="url(#SVGID_4_)" fill="#FFFFFF" d="M40.8,30.5c-0.1,0-0.3,0.1-0.3,0.2c0,0.2,0.1,0.3,0.3,0.3
					c0.1,0,0.3-0.1,0.3-0.3C41.1,30.6,41,30.5,40.8,30.5L40.8,30.5z"/>
				<path clip-path="url(#SVGID_4_)" fill="#FFFFFF" d="M40.8,29.1c-0.1,0-0.3,0.1-0.3,0.3c0,0.1,0.1,0.2,0.3,0.2
					c0.1,0,0.3-0.1,0.3-0.2C41.1,29.2,41,29.1,40.8,29.1L40.8,29.1z"/>
				<path clip-path="url(#SVGID_4_)" fill="#FCFF2C" d="M32.9,26.7c0-1,0.7-1.2,0.7-1.2c0,0,0.7,0.2,0.7,1.2L32.9,26.7L32.9,26.7z"
					/>
				<path clip-path="url(#SVGID_4_)" fill="#FCFF2C" d="M32.3,25.5l-0.1,1.1h0.7c0-0.9,0.7-1.1,0.7-1c0,0,0.7,0.2,0.7,1H35l-0.1-1.1
					L32.3,25.5L32.3,25.5z"/>
				<g clip-path="url(#SVGID_4_)">
					<path d="M35.1,26.7h-0.8c-0.1-0.9-0.7-1.1-0.7-1.1c0,0-0.6,0.1-0.7,1l-0.8,0l0.1-1.1l2.6,0L35.1,26.7L35.1,26.7z M33.5,25.6
						l-1.2,0l-0.1,1.1l0.7,0C32.8,25.9,33.3,25.6,33.5,25.6L33.5,25.6z M33.6,25.6c0.2,0.1,0.7,0.3,0.7,1.1l0.6,0l-0.1-1.1
						L33.6,25.6L33.6,25.6z"/>
				</g>
				<path clip-path="url(#SVGID_4_)" fill="#FCFF2C" d="M32.1,26.6H35c0.1,0,0.1,0.1,0.1,0.1c0,0.1,0,0.1-0.1,0.1h-2.9
					c-0.1,0-0.1-0.1-0.1-0.1C32,26.7,32.1,26.6,32.1,26.6L32.1,26.6z"/>
				<g clip-path="url(#SVGID_4_)">
					<path d="M35,27h-2.9C32,27,32,26.9,32,26.8c0-0.1,0.1-0.2,0.2-0.2H35c0.1,0,0.2,0.1,0.2,0.2C35.2,26.9,35.1,27,35,27L35,27z
						 M32.1,26.7v0.2H35c0,0,0.1,0,0.1-0.1L32.1,26.7L32.1,26.7z"/>
				</g>
				<path clip-path="url(#SVGID_4_)" fill="#FCFF2C" d="M33.2,26.6c0-0.6,0.4-0.7,0.4-0.7s0.4,0.2,0.4,0.7H33.2L33.2,26.6z"/>
				<g clip-path="url(#SVGID_4_)">
					<path d="M34,26.7h-0.8c0-0.6,0.4-0.8,0.4-0.8C33.6,25.9,34,26,34,26.7L34,26.7L34,26.7z M33.6,25.9c0,0-0.3,0.2-0.3,0.7l0.7,0
						C33.9,26.1,33.6,25.9,33.6,25.9L33.6,25.9z"/>
				</g>
				<path clip-path="url(#SVGID_4_)" fill="#FCFF2C" d="M32.2,25.1H35c0.1,0,0.1,0.1,0.1,0.1c0,0.1-0.1,0.1-0.1,0.1h-2.8
					c-0.1,0-0.1-0.1-0.1-0.1C32.1,25.1,32.1,25.1,32.2,25.1L32.2,25.1z"/>
				<g clip-path="url(#SVGID_4_)">
					<path d="M35,25.4h-2.8c-0.1,0-0.2-0.1-0.2-0.2c0-0.1,0.1-0.2,0.2-0.2H35c0.1,0,0.1,0.1,0.1,0.2C35.1,25.3,35.1,25.4,35,25.4
						L35,25.4z M32.2,25.1v0.2H35c0,0,0.1,0,0.1-0.1L32.2,25.1L32.2,25.1z"/>
				</g>
				<path clip-path="url(#SVGID_4_)" fill="#FCFF2C" d="M32.2,25.3h2.7c0.1,0,0.1,0.1,0.1,0.1c0,0.1,0,0.1-0.1,0.1h-2.7
					c-0.1,0-0.1-0.1-0.1-0.1C32.1,25.4,32.2,25.3,32.2,25.3L32.2,25.3z"/>
				<g clip-path="url(#SVGID_4_)">
					<path d="M34.9,25.6h-2.7c-0.1,0-0.1-0.1-0.1-0.2c0-0.1,0.1-0.2,0.1-0.2h2.7c0.1,0,0.1,0.1,0.1,0.2C35.1,25.5,35,25.6,34.9,25.6
						L34.9,25.6z M32.2,25.4v0.2h2.7c0,0,0.1,0,0.1-0.1L32.2,25.4L32.2,25.4z"/>
				</g>
				<path clip-path="url(#SVGID_4_)" fill="#FCFF2C" d="M33.1,23.5h0.2v0.2h0.2v-0.2h0.2v0.2h0.2v-0.2h0.2v0.3c0,0.1,0,0.1-0.1,0.1
					h-0.8c0,0-0.1,0-0.1-0.1V23.5L33.1,23.5z"/>
				<g clip-path="url(#SVGID_4_)">
					<path d="M34,24h-0.8l-0.1-0.1v-0.3l0.3,0l0,0.2l0.1,0l0-0.1l0.3,0l0,0.2l0.1,0l0-0.1l0.3,0l0,0.4L34,24L34,24z M33.3,23.5
						l-0.2,0l0,0.3l0.8,0.1l0.1-0.1v-0.3l-0.2,0l0,0.1l-0.2,0l0-0.2l-0.2,0l0,0.1l-0.2,0L33.3,23.5L33.3,23.5z"/>
				</g>
				<polygon clip-path="url(#SVGID_4_)" fill="#FCFF2C" points="33.9,24 34,25.1 33.2,25.1 33.3,24 33.9,24 				"/>
				<g clip-path="url(#SVGID_4_)">
					<path d="M34,25.1h-0.8l0-1.2l0.7,0L34,25.1L34,25.1z M33.9,24l-0.6,0l0,1.1l0.7,0L33.9,24L33.9,24z"/>
				</g>
				<path clip-path="url(#SVGID_4_)" fill="#FCFF2C" d="M34,24h0.2v0.1h0.2V24h0.2v0.2h0.2V24H35v0.3c0,0.1,0,0.1-0.1,0.1h-0.7
					c-0.1,0-0.1,0-0.1-0.1V24L34,24z"/>
				<g clip-path="url(#SVGID_4_)">
					<path d="M34.9,24.5h-0.8L34,24.4V24l0.3,0l0,0.2l0.1,0l0-0.1l0.3,0l0,0.2l0.1,0l0-0.1l0.2,0l0,0.4L34.9,24.5L34.9,24.5z
						 M34.2,24l-0.2,0l0,0.3l0.8,0.1l0.1-0.1V24l-0.2,0l0,0.1l-0.2,0l0-0.2l-0.2,0l0,0.1l-0.2,0L34.2,24L34.2,24z"/>
				</g>
				<polygon clip-path="url(#SVGID_4_)" fill="#FCFF2C" points="34.8,24.5 34.8,25.1 34.1,25.1 34.2,24.5 				"/>
				<g clip-path="url(#SVGID_4_)">
					<path d="M34.9,25.1h-0.8l0-0.6l0.7,0L34.9,25.1L34.9,25.1z M34.8,24.5l-0.6,0l0,0.6l0.6,0L34.8,24.5L34.8,24.5z"/>
				</g>
				<path clip-path="url(#SVGID_4_)" fill="#FCFF2C" d="M32.2,24h0.2v0.2h0.2V24l0.2,0v0.2h0.2V24h0.2v0.3c0,0.1,0,0.1-0.1,0.1h-0.7
					c0,0-0.1,0-0.1-0.1V24L32.2,24z"/>
				<g clip-path="url(#SVGID_4_)">
					<path d="M33,24.5h-0.8l-0.1-0.1V24l0.3,0l0,0.2l0.1,0l0-0.1l0.3,0l0,0.2l0.1,0l0-0.1l0.3,0l0,0.4L33,24.5L33,24.5z M32.4,24
						l-0.2,0l0,0.3l0.8,0.1l0.1-0.1V24l-0.2,0l0,0.1l-0.2,0l0-0.2l-0.2,0l0,0.1l-0.2,0L32.4,24L32.4,24z"/>
				</g>
				<polygon clip-path="url(#SVGID_4_)" fill="#FCFF2C" points="33,24.5 33,25.1 32.3,25.1 32.3,24.5 				"/>
				<g clip-path="url(#SVGID_4_)">
					<path d="M33.1,25.1h-0.8l0-0.7l0.7,0L33.1,25.1L33.1,25.1z M32.9,24.5l-0.6,0l0,0.6l0.6,0L32.9,24.5L32.9,24.5z"/>
				</g>
				<path clip-path="url(#SVGID_4_)" d="M33.5,24.3c0-0.1,0.1-0.1,0.1,0v0.3h-0.1V24.3L33.5,24.3z"/>
				<path clip-path="url(#SVGID_4_)" d="M34.4,24.7c0-0.1,0.1-0.1,0.1,0v0.2h-0.1V24.7L34.4,24.7z"/>
				<path clip-path="url(#SVGID_4_)" d="M32.6,24.7c0-0.1,0.1-0.1,0.1,0v0.2h-0.1V24.7L32.6,24.7z"/>
				<path clip-path="url(#SVGID_4_)" fill="#FCFF2C" d="M41,23.5h0.2v0.2h0.1v-0.2h0.2v0.2h0.2v-0.2H42v0.3c0,0.1,0,0.1-0.1,0.1
					h-0.8c0,0-0.1,0-0.1-0.1V23.5L41,23.5z"/>
				<g clip-path="url(#SVGID_4_)">
					<path d="M41.9,24h-0.8L41,23.8v-0.3l0.3,0l0,0.2l0.1,0l0-0.1l0.3,0l0,0.2l0.1,0l0-0.1l0.3,0l0,0.4L41.9,24L41.9,24z M41.2,23.5
						l-0.2,0l0,0.3l0.8,0.1l0-0.1v-0.3l-0.2,0l0,0.1l-0.2,0l0-0.2l-0.2,0l0,0.1l-0.2,0L41.2,23.5L41.2,23.5z"/>
				</g>
				<polygon clip-path="url(#SVGID_4_)" fill="#FCFF2C" points="41.8,24 41.8,25.1 41.1,25.1 41.2,24 41.8,24 				"/>
				<g clip-path="url(#SVGID_4_)">
					<path d="M41.9,25.1h-0.8l0-1.2l0.7,0L41.9,25.1L41.9,25.1z M41.8,24l-0.6,0l0,1.1l0.7,0L41.8,24L41.8,24z"/>
				</g>
				<path clip-path="url(#SVGID_4_)" fill="#FCFF2C" d="M41.9,24h0.2v0.1h0.2V24h0.2v0.2h0.1V24h0.2v0.3c0,0.1,0,0.1-0.1,0.1H42
					c-0.1,0-0.1,0-0.1-0.1V24L41.9,24z"/>
				<g clip-path="url(#SVGID_4_)">
					<path d="M42.8,24.5H42l-0.1-0.1V24l0.2,0l0,0.2l0.1,0l0-0.1l0.3,0l0,0.2l0.1,0l0-0.1l0.3,0l0,0.4L42.8,24.5L42.8,24.5z
						 M42.1,24l-0.2,0l0,0.3l0.8,0.1l0.1-0.1V24l-0.2,0l0,0.1l-0.2,0l0-0.2l-0.2,0l0,0.1l-0.2,0L42.1,24L42.1,24z"/>
				</g>
				<polygon clip-path="url(#SVGID_4_)" fill="#FCFF2C" points="42.7,24.5 42.7,25.1 42,25.1 42.1,24.5 				"/>
				<g clip-path="url(#SVGID_4_)">
					<path d="M42,25.1l0-0.7l0.7,0l0.1,0.7L42,25.1L42,25.1z M42.7,24.5l-0.6,0l0,0.5h0.7L42.7,24.5L42.7,24.5z"/>
				</g>
				<path clip-path="url(#SVGID_4_)" fill="#FCFF2C" d="M40.1,24h0.2v0.1h0.2V24h0.2v0.2h0.1V24H41l0,0.4c0,0,0,0.1-0.1,0.1h-0.7
					c0,0-0.1,0-0.1-0.1V24L40.1,24z"/>
				<g clip-path="url(#SVGID_4_)">
					<path d="M40.9,24.5h-0.8L40,24.4V24l0.3,0l0,0.2l0.1,0l0-0.1l0.3,0l0,0.2l0.1,0l0-0.1l0.3,0l0,0.4L40.9,24.5L40.9,24.5z
						 M40.3,24l-0.2,0l0,0.3l0.8,0.1l0-0.1V24l-0.2,0l0,0.1l-0.2,0l0-0.2l-0.2,0l0,0.1l-0.2,0L40.3,24L40.3,24z"/>
				</g>
				<polygon clip-path="url(#SVGID_4_)" fill="#FCFF2C" points="40.9,24.5 40.9,25.1 40.2,25.1 40.2,24.5 				"/>
				<g clip-path="url(#SVGID_4_)">
					<path d="M41,25.1h-0.8l0-0.6l0.7,0L41,25.1L41,25.1z M40.8,24.5l-0.6,0l0,0.6l0.6,0L40.8,24.5L40.8,24.5z"/>
				</g>
				<path clip-path="url(#SVGID_4_)" fill="#FCFF2C" d="M40.8,26.7c0-1,0.7-1.2,0.7-1.2c0,0,0.7,0.2,0.7,1.2L40.8,26.7L40.8,26.7z"
					/>
				<path clip-path="url(#SVGID_4_)" fill="#FCFF2C" d="M40.2,25.5l-0.1,1.1h0.7c0-0.9,0.7-1.1,0.7-1c0,0,0.7,0.2,0.7,1h0.7
					l-0.1-1.1L40.2,25.5L40.2,25.5z"/>
				<g clip-path="url(#SVGID_4_)">
					<path d="M42.9,26.7h-0.8c-0.1-0.9-0.7-1.1-0.7-1.1c0,0-0.6,0.1-0.7,1l-0.8,0l0.1-1.1l2.6,0L42.9,26.7L42.9,26.7z M41.4,25.6
						l-1.2,0l-0.1,1l0.7,0C40.7,25.9,41.2,25.6,41.4,25.6L41.4,25.6z M41.5,25.6c0.2,0.1,0.7,0.3,0.7,1.1l0.6,0l-0.1-1.1L41.5,25.6
						L41.5,25.6z"/>
				</g>
				<path clip-path="url(#SVGID_4_)" fill="#FCFF2C" d="M40,26.6h2.9c0.1,0,0.1,0.1,0.1,0.1c0,0.1,0,0.1-0.1,0.1H40
					c-0.1,0-0.1-0.1-0.1-0.1C39.9,26.7,40,26.6,40,26.6L40,26.6z"/>
				<g clip-path="url(#SVGID_4_)">
					<path d="M42.9,27H40c-0.1,0-0.1-0.1-0.1-0.2c0-0.1,0.1-0.2,0.1-0.2h2.9c0.1,0,0.2,0.1,0.2,0.2C43.1,26.9,43,27,42.9,27L42.9,27
						z M40,26.7v0.2h2.9c0,0,0.1,0,0.1-0.1L40,26.7L40,26.7z"/>
				</g>
				<path clip-path="url(#SVGID_4_)" fill="#FCFF2C" d="M41.1,26.6c0-0.6,0.4-0.7,0.4-0.7s0.4,0.2,0.4,0.7H41.1L41.1,26.6z"/>
				<g clip-path="url(#SVGID_4_)">
					<path d="M41.9,26.7h-0.8c0-0.6,0.4-0.8,0.4-0.8C41.5,25.9,41.9,26,41.9,26.7L41.9,26.7L41.9,26.7z M41.5,25.9
						c0,0-0.3,0.2-0.3,0.7l0.7,0C41.8,26.1,41.5,25.9,41.5,25.9L41.5,25.9z"/>
				</g>
				<path clip-path="url(#SVGID_4_)" fill="#FCFF2C" d="M40.1,25.1h2.8c0.1,0,0.1,0.1,0.1,0.1c0,0.1,0,0.1-0.1,0.1h-2.8
					c-0.1,0-0.1-0.1-0.1-0.1C40,25.1,40,25.1,40.1,25.1L40.1,25.1z"/>
				<g clip-path="url(#SVGID_4_)">
					<path d="M42.9,25.4h-2.8c-0.1,0-0.1-0.1-0.1-0.2c0-0.1,0.1-0.2,0.1-0.2h2.8c0.1,0,0.2,0.1,0.2,0.2C43,25.3,43,25.4,42.9,25.4
						L42.9,25.4z M40.1,25.1v0.2h2.8c0,0,0.1,0,0.1-0.1L40.1,25.1L40.1,25.1z"/>
				</g>
				<path clip-path="url(#SVGID_4_)" fill="#FCFF2C" d="M40.1,25.3h2.7c0.1,0,0.1,0.1,0.1,0.1c0,0.1,0,0.1-0.1,0.1h-2.7
					c-0.1,0-0.1-0.1-0.1-0.1C40,25.4,40.1,25.3,40.1,25.3L40.1,25.3z"/>
				<g clip-path="url(#SVGID_4_)">
					<path d="M42.8,25.6h-2.7c-0.1,0-0.2-0.1-0.2-0.2c0-0.1,0.1-0.2,0.2-0.2h2.7c0.1,0,0.1,0.1,0.1,0.2C43,25.5,42.9,25.6,42.8,25.6
						L42.8,25.6z M40.1,25.4v0.2h2.7c0,0,0.1,0,0.1-0.1L40.1,25.4L40.1,25.4z"/>
				</g>
				<path clip-path="url(#SVGID_4_)" d="M41.4,24.3c0-0.1,0.1-0.1,0.1,0v0.3h-0.1V24.3L41.4,24.3z"/>
				<path clip-path="url(#SVGID_4_)" d="M42.3,24.7c0-0.1,0.1-0.1,0.1,0v0.2h-0.1V24.7L42.3,24.7z"/>
				<path clip-path="url(#SVGID_4_)" d="M40.5,24.7c0-0.1,0.1-0.1,0.1,0v0.2h-0.1V24.7L40.5,24.7z"/>
				<path clip-path="url(#SVGID_4_)" fill="#FCFF2C" d="M48.8,23.5H49v0.1h0.2v-0.2h0.2v0.2h0.1v-0.2h0.2v0.3c0,0.1,0,0.1-0.1,0.1
					h-0.8c0,0-0.1,0-0.1-0.1V23.5L48.8,23.5z"/>
				<g clip-path="url(#SVGID_4_)">
					<path d="M49.7,24h-0.8l-0.1-0.1v-0.3l0.3,0l0,0.2l0.1,0l0-0.1l0.3,0l0,0.2l0.1,0l0-0.1l0.3,0l0,0.4L49.7,24L49.7,24z M49,23.5
						l-0.2,0l0,0.3l0.8,0.1l0.1-0.1v-0.3l-0.2,0l0,0.1l-0.2,0l0-0.2l-0.2,0l0,0.1l-0.2,0L49,23.5L49,23.5z"/>
				</g>
				<polygon clip-path="url(#SVGID_4_)" fill="#FCFF2C" points="49.6,24 49.7,25.1 48.9,25.1 49,24 				"/>
				<g clip-path="url(#SVGID_4_)">
					<path d="M49.7,25.1l-0.8,0V24l0.7,0L49.7,25.1L49.7,25.1z M49.6,24L49,24v1.1l0.7,0L49.6,24L49.6,24z"/>
				</g>
				<path clip-path="url(#SVGID_4_)" fill="#FCFF2C" d="M49.7,24.1h0.2v0.1h0.1V24h0.2v0.2h0.2V24h0.2v0.3c0,0.1,0,0.1-0.1,0.1h-0.8
					c0,0-0.1,0-0.1-0.1L49.7,24.1L49.7,24.1z"/>
				<g clip-path="url(#SVGID_4_)">
					<path d="M50.6,24.5h-0.8l-0.1-0.1v-0.3l0.3,0l0,0.2l0.1,0l0-0.1l0.3,0l0,0.2l0.1,0l0-0.1l0.3,0l0,0.4L50.6,24.5L50.6,24.5z
						 M49.9,24.1l-0.2,0l0,0.3l0.8,0.1l0-0.1V24l-0.2,0l0,0.1l-0.2,0l0-0.2l-0.2,0l0,0.1l-0.2,0L49.9,24.1L49.9,24.1z"/>
				</g>
				<polygon clip-path="url(#SVGID_4_)" fill="#FCFF2C" points="50.5,24.5 50.6,25.1 49.8,25.1 49.9,24.5 				"/>
				<g clip-path="url(#SVGID_4_)">
					<path d="M50.6,25.1h-0.8l0-0.6l0.7,0L50.6,25.1L50.6,25.1z M50.5,24.5l-0.6,0l0,0.6l0.6,0L50.5,24.5L50.5,24.5z"/>
				</g>
				<path clip-path="url(#SVGID_4_)" fill="#FCFF2C" d="M47.9,24.1h0.2v0.1h0.2v-0.1h0.2v0.1h0.2v-0.1h0.2v0.3c0,0.1,0,0.1-0.1,0.1
					H48c-0.1,0-0.1,0-0.1-0.1V24.1L47.9,24.1z"/>
				<g clip-path="url(#SVGID_4_)">
					<path d="M48.7,24.5H48l-0.1-0.1v-0.3l0.2,0l0,0.2l0.1,0l0-0.1l0.2,0l0,0.2l0.1,0l0-0.1l0.3,0l0,0.4L48.7,24.5L48.7,24.5z
						 M48.1,24.1l-0.2,0l0,0.3l0.8,0.1l0.1-0.1v-0.3l-0.2,0l0,0.1l-0.2,0l0-0.2l-0.2,0l0,0.1l-0.2,0L48.1,24.1L48.1,24.1z"/>
				</g>
				<polygon clip-path="url(#SVGID_4_)" fill="#FCFF2C" points="48.7,24.5 48.7,25.1 48,25.1 48,24.5 				"/>
				<g clip-path="url(#SVGID_4_)">
					<path d="M48.8,25.1H48l0-0.6l0.7,0L48.8,25.1L48.8,25.1z M48.7,24.5l-0.6,0l0,0.6l0.6,0L48.7,24.5L48.7,24.5z"/>
				</g>
				<path clip-path="url(#SVGID_4_)" fill="#FCFF2C" d="M48.6,26.7c0-1,0.7-1.2,0.7-1.2c0,0,0.7,0.2,0.7,1.2L48.6,26.7L48.6,26.7z"
					/>
				<path clip-path="url(#SVGID_4_)" fill="#FCFF2C" d="M48,25.5l-0.1,1.1h0.7c0-0.9,0.7-1.1,0.7-1.1c0,0,0.7,0.2,0.7,1.1h0.7
					l-0.1-1.1H48L48,25.5z"/>
				<g clip-path="url(#SVGID_4_)">
					<path d="M50.8,26.7H50c-0.1-0.9-0.7-1.1-0.7-1.1s-0.7,0.1-0.7,1l-0.8,0l0.1-1.1l2.6,0L50.8,26.7L50.8,26.7z M49.2,25.6l-1.2,0
						l-0.1,1.1l0.7,0C48.6,25.9,49,25.6,49.2,25.6L49.2,25.6z M49.3,25.6c0.2,0.1,0.7,0.3,0.7,1.1l0.6,0l-0.1-1.1L49.3,25.6
						L49.3,25.6z"/>
				</g>
				<path clip-path="url(#SVGID_4_)" fill="#FCFF2C" d="M47.8,26.6h2.9c0.1,0,0.1,0.1,0.1,0.1c0,0.1-0.1,0.1-0.1,0.1h-2.9
					c-0.1,0-0.1-0.1-0.1-0.1C47.7,26.7,47.8,26.6,47.8,26.6L47.8,26.6z"/>
				<g clip-path="url(#SVGID_4_)">
					<path d="M50.8,27h-2.9c-0.1,0-0.2-0.1-0.2-0.2c0-0.1,0.1-0.2,0.2-0.2h2.9c0.1,0,0.2,0.1,0.2,0.2C50.9,26.9,50.8,27,50.8,27
						L50.8,27z M47.8,26.7v0.2h2.9c0,0,0.1,0,0.1-0.1L47.8,26.7L47.8,26.7z"/>
				</g>
				<path clip-path="url(#SVGID_4_)" fill="#FCFF2C" d="M48.9,26.6c0-0.6,0.4-0.7,0.4-0.7c0,0,0.4,0.2,0.4,0.7H48.9L48.9,26.6z"/>
				<g clip-path="url(#SVGID_4_)">
					<path d="M49.7,26.7h-0.8c0-0.6,0.4-0.8,0.4-0.8C49.3,25.9,49.7,26.1,49.7,26.7L49.7,26.7L49.7,26.7z M49.3,25.9
						c0,0-0.3,0.2-0.3,0.7l0.7,0C49.6,26.1,49.3,26,49.3,25.9L49.3,25.9z"/>
				</g>
				<path clip-path="url(#SVGID_4_)" fill="#FCFF2C" d="M47.9,25.1h2.8c0.1,0,0.1,0.1,0.1,0.1c0,0.1,0,0.1-0.1,0.1h-2.8
					c-0.1,0-0.1-0.1-0.1-0.1C47.8,25.1,47.8,25.1,47.9,25.1L47.9,25.1z"/>
				<g clip-path="url(#SVGID_4_)">
					<path d="M50.7,25.4h-2.8c-0.1,0-0.2-0.1-0.2-0.2c0-0.1,0.1-0.2,0.2-0.2h2.8c0.1,0,0.1,0.1,0.1,0.2
						C50.8,25.3,50.8,25.4,50.7,25.4L50.7,25.4z M47.9,25.1v0.2h2.8c0,0,0.1,0,0.1-0.1L47.9,25.1L47.9,25.1z"/>
				</g>
				<path clip-path="url(#SVGID_4_)" fill="#FCFF2C" d="M47.9,25.3h2.7c0.1,0,0.1,0.1,0.1,0.1c0,0.1-0.1,0.1-0.1,0.1h-2.7
					c-0.1,0-0.1,0-0.1-0.1C47.8,25.4,47.9,25.3,47.9,25.3L47.9,25.3z"/>
				<g clip-path="url(#SVGID_4_)">
					<path d="M50.6,25.6h-2.7c-0.1,0-0.1-0.1-0.1-0.2c0-0.1,0.1-0.2,0.1-0.2h2.7c0.1,0,0.1,0.1,0.1,0.2
						C50.8,25.5,50.7,25.6,50.6,25.6L50.6,25.6z M47.9,25.4v0.2h2.7c0,0,0.1,0,0.1-0.1L47.9,25.4L47.9,25.4z"/>
				</g>
				<path clip-path="url(#SVGID_4_)" d="M49.2,24.3c0-0.1,0.2-0.1,0.2,0v0.3h-0.2V24.3L49.2,24.3z"/>
				<path clip-path="url(#SVGID_4_)" d="M50.1,24.7c0-0.1,0.2-0.1,0.1,0v0.2h-0.1V24.7L50.1,24.7z"/>
				<path clip-path="url(#SVGID_4_)" d="M48.3,24.7c0-0.1,0.2-0.1,0.2,0v0.2h-0.2V24.7L48.3,24.7z"/>
				<path clip-path="url(#SVGID_4_)" fill="#FCFF2C" d="M33.1,31.5h0.2v0.2h0.2v-0.2h0.2v0.2h0.1v-0.2h0.2v0.3c0,0.1,0,0.1-0.1,0.1
					h-0.8c0,0-0.1,0-0.1-0.1V31.5L33.1,31.5z"/>
				<g clip-path="url(#SVGID_4_)">
					<path d="M34,32h-0.8l-0.1-0.1v-0.3l0.2,0l0,0.2l0.1,0l0-0.1l0.3,0l0,0.2l0.1,0l0-0.1l0.3,0l0,0.4L34,32L34,32z M33.3,31.5
						l-0.2,0l0,0.3l0.8,0.1l0.1-0.1v-0.3l-0.2,0l0,0.1l-0.2,0l0-0.2l-0.2,0l0,0.1l-0.2,0L33.3,31.5L33.3,31.5z"/>
				</g>
				<polygon clip-path="url(#SVGID_4_)" fill="#FCFF2C" points="33.9,32 34,33.1 33.2,33.1 33.3,32 33.9,32 				"/>
				<g clip-path="url(#SVGID_4_)">
					<path d="M34,33.1l-0.8,0V32l0.7,0L34,33.1L34,33.1z M33.9,32l-0.6,0v1.1l0.7,0L33.9,32L33.9,32z"/>
				</g>
				<path clip-path="url(#SVGID_4_)" fill="#FCFF2C" d="M34,32h0.2v0.2h0.2V32h0.2v0.2h0.2V32H35v0.4c0,0.1,0,0.1-0.1,0.1h-0.7
					c0,0-0.1,0-0.1-0.1V32L34,32z"/>
				<g clip-path="url(#SVGID_4_)">
					<path d="M34.9,32.5h-0.8L34,32.4V32l0.2,0l0,0.2l0.1,0l0-0.1l0.3,0l0,0.2l0.1,0l0-0.1l0.2,0l0,0.4L34.9,32.5L34.9,32.5z
						 M34.2,32l-0.2,0l0,0.3l0.8,0.1l0.1-0.1V32l-0.2,0l0,0.1l-0.2,0l0-0.2l-0.2,0l0,0.1l-0.2,0L34.2,32L34.2,32z"/>
				</g>
				<polygon clip-path="url(#SVGID_4_)" fill="#FCFF2C" points="34.8,32.5 34.9,33.1 34.1,33.1 34.2,32.5 				"/>
				<g clip-path="url(#SVGID_4_)">
					<path d="M34.9,33.1h-0.8l0-0.6l0.7,0L34.9,33.1L34.9,33.1z M34.8,32.5l-0.6,0l0,0.6l0.6,0L34.8,32.5L34.8,32.5z"/>
				</g>
				<path clip-path="url(#SVGID_4_)" fill="#FCFF2C" d="M32.2,32.1h0.2v0.1h0.2V32h0.2v0.2h0.2V32h0.2v0.4c0,0.1,0,0.1-0.1,0.1h-0.7
					c-0.1,0-0.1,0-0.1-0.1V32.1L32.2,32.1z"/>
				<g clip-path="url(#SVGID_4_)">
					<path d="M33,32.5h-0.8l-0.1-0.1v-0.3l0.2,0l0,0.2l0.1,0l0-0.1l0.3,0l0,0.2l0.1,0l0-0.1l0.3,0l0,0.4L33,32.5L33,32.5z
						 M32.4,32.1l-0.2,0l0,0.3l0.8,0.1l0.1-0.1V32l-0.2,0l0,0.1l-0.2,0l0-0.2l-0.2,0l0,0.1l-0.2,0L32.4,32.1L32.4,32.1z"/>
				</g>
				<polygon clip-path="url(#SVGID_4_)" fill="#FCFF2C" points="33,32.5 33,33.1 32.3,33.1 32.3,32.5 				"/>
				<g clip-path="url(#SVGID_4_)">
					<path d="M33.1,33.1h-0.8l0-0.6l0.7,0L33.1,33.1L33.1,33.1z M33,32.5l-0.6,0l0,0.6l0.6,0L33,32.5L33,32.5z"/>
				</g>
				<path clip-path="url(#SVGID_4_)" fill="#FCFF2C" d="M32.9,34.7c0-1,0.7-1.2,0.7-1.2c0,0,0.7,0.2,0.7,1.2L32.9,34.7L32.9,34.7z"
					/>
				<path clip-path="url(#SVGID_4_)" fill="#FCFF2C" d="M32.3,33.5l-0.1,1.1h0.7c0-0.9,0.7-1.1,0.7-1.1c0,0,0.7,0.2,0.7,1.1H35
					l-0.1-1.1L32.3,33.5L32.3,33.5z"/>
				<g clip-path="url(#SVGID_4_)">
					<path d="M35.1,34.7h-0.8c-0.1-0.9-0.7-1.1-0.7-1.1c0,0-0.6,0.1-0.7,1l-0.8,0l0.1-1.1l2.6,0L35.1,34.7L35.1,34.7z M33.5,33.6
						l-1.2,0l-0.1,1.1l0.7-0.1C32.9,33.9,33.3,33.6,33.5,33.6L33.5,33.6z M33.6,33.6c0.2,0.1,0.7,0.3,0.7,1.1l0.6,0l-0.1-1.1
						L33.6,33.6L33.6,33.6z"/>
				</g>
				<path clip-path="url(#SVGID_4_)" fill="#FCFF2C" d="M32.1,34.6H35c0.1,0,0.1,0.1,0.1,0.1c0,0.1-0.1,0.1-0.1,0.1h-2.9
					c-0.1,0-0.1-0.1-0.1-0.1C32,34.7,32.1,34.6,32.1,34.6L32.1,34.6z"/>
				<g clip-path="url(#SVGID_4_)">
					<path d="M35,35h-2.9C32,35,32,34.9,32,34.8c0-0.1,0.1-0.2,0.2-0.2H35c0.1,0,0.2,0.1,0.2,0.2C35.2,34.9,35.1,35,35,35L35,35z
						 M32.1,34.7v0.2H35c0,0,0.1,0,0.1-0.1L32.1,34.7L32.1,34.7z"/>
				</g>
				<path clip-path="url(#SVGID_4_)" fill="#FCFF2C" d="M33.2,34.6c0-0.6,0.4-0.7,0.4-0.7s0.4,0.2,0.4,0.7H33.2L33.2,34.6z"/>
				<g clip-path="url(#SVGID_4_)">
					<path d="M34,34.7h-0.9c0-0.6,0.4-0.8,0.4-0.8C33.6,33.9,34,34.1,34,34.7L34,34.7L34,34.7z M33.6,34c0,0-0.3,0.2-0.3,0.7l0.7,0
						C33.9,34.1,33.6,34,33.6,34L33.6,34z"/>
				</g>
				<path clip-path="url(#SVGID_4_)" fill="#FCFF2C" d="M32.2,33.1H35c0.1,0,0.1,0.1,0.1,0.1c0,0.1,0,0.1-0.1,0.1h-2.8
					c-0.1,0-0.1-0.1-0.1-0.1C32.1,33.1,32.1,33.1,32.2,33.1L32.2,33.1z"/>
				<g clip-path="url(#SVGID_4_)">
					<path d="M35,33.4h-2.8c-0.1,0-0.2-0.1-0.2-0.2c0-0.1,0.1-0.2,0.2-0.2H35c0.1,0,0.1,0.1,0.1,0.2C35.1,33.3,35.1,33.4,35,33.4
						L35,33.4z M32.2,33.1v0.2H35c0,0,0.1,0,0.1-0.1L32.2,33.1L32.2,33.1z"/>
				</g>
				<path clip-path="url(#SVGID_4_)" fill="#FCFF2C" d="M32.2,33.3h2.7c0.1,0,0.1,0.1,0.1,0.1c0,0.1,0,0.1-0.1,0.1h-2.7
					c-0.1,0-0.1-0.1-0.1-0.1C32.1,33.4,32.2,33.3,32.2,33.3L32.2,33.3z"/>
				<g clip-path="url(#SVGID_4_)">
					<path d="M34.9,33.6h-2.7c-0.1,0-0.2-0.1-0.2-0.2c0-0.1,0.1-0.2,0.2-0.2h2.7c0.1,0,0.2,0.1,0.2,0.2C35.1,33.5,35,33.6,34.9,33.6
						L34.9,33.6z M32.2,33.4v0.2h2.7c0,0,0.1,0,0.1-0.1L32.2,33.4L32.2,33.4z"/>
				</g>
				<path clip-path="url(#SVGID_4_)" d="M33.5,32.3c0-0.1,0.2-0.1,0.2,0v0.3h-0.2V32.3L33.5,32.3z"/>
				<path clip-path="url(#SVGID_4_)" d="M34.4,32.7c0-0.1,0.1-0.1,0.1,0v0.2h-0.1V32.7L34.4,32.7z"/>
				<path clip-path="url(#SVGID_4_)" d="M32.6,32.7c0-0.1,0.1-0.1,0.1,0v0.2h-0.1V32.7L32.6,32.7z"/>
				<path clip-path="url(#SVGID_4_)" fill="#FCFF2C" d="M48.4,40l0.1,0.2l-0.1,0.1l0.1,0.1l0.1-0.1l0.2,0.2l-0.1,0.1l0.1,0.1
					l0.1-0.1l0.2,0.2l-0.2,0.2c0,0-0.1,0-0.1,0l-0.5-0.5c0,0,0-0.1,0-0.1L48.4,40L48.4,40z"/>
				<g clip-path="url(#SVGID_4_)">
					<path d="M48.7,40.9L48.7,40.9l-0.7-0.6l0-0.2l0.2-0.2l0.2,0.2l-0.1,0.2l0.1,0l0.1-0.1l0.2,0.2l-0.1,0.2l0.1,0.1l0-0.1l0.2,0.2
						L48.7,40.9L48.7,40.9z M48.3,40l-0.2,0.2l0.6,0.7l0-0.1l0.2-0.2l-0.2-0.1l0,0.1l-0.2-0.1l0.1-0.2l-0.2-0.1l-0.1,0.1l-0.2-0.1
						l0.1-0.2L48.3,40L48.3,40z"/>
				</g>
				<polygon clip-path="url(#SVGID_4_)" fill="#FCFF2C" points="48.6,40.8 47.8,41.7 47.3,41.1 48.1,40.4 				"/>
				<g clip-path="url(#SVGID_4_)">
					<path d="M47.8,41.7l-0.6-0.6l0.8-0.8l0.5,0.5L47.8,41.7L47.8,41.7z M48.1,40.4l-0.8,0.8l0.5,0.4l0.7-0.8L48.1,40.4L48.1,40.4z"
						/>
				</g>
				<path clip-path="url(#SVGID_4_)" fill="#FCFF2C" d="M48.6,41l0.1,0.1l-0.1,0.1l0.1,0.1l0.1-0.1l0.2,0.1l-0.1,0.1l0.1,0.1
					l0.1-0.1l0.2,0.2L49,41.9c0,0-0.1,0-0.1,0l-0.5-0.5c0,0,0-0.1,0-0.1L48.6,41L48.6,41z"/>
				<g clip-path="url(#SVGID_4_)">
					<path d="M49,42l-0.1,0l-0.6-0.6l0-0.2l0.2-0.2l0.2,0.1l-0.1,0.2l0.1,0l0-0.1l0.2,0.2l-0.1,0.2l0.1,0l0-0.1l0.2,0.2L49,42L49,42
						z M48.6,41l-0.2,0.2l0.6,0.7l0-0.1l0.3-0.2l-0.2-0.1l0,0.1l-0.2-0.1l0.1-0.2l-0.2-0.1l0,0.1l-0.2-0.1l0.1-0.2L48.6,41L48.6,41z
						"/>
				</g>
				<polygon clip-path="url(#SVGID_4_)" fill="#FCFF2C" points="48.9,41.9 48.5,42.3 48,41.8 48.4,41.4 48.9,41.9 				"/>
				<g clip-path="url(#SVGID_4_)">
					<path d="M48.5,42.4l-0.5-0.5l0.4-0.5l0.5,0.5L48.5,42.4L48.5,42.4z M48.4,41.4L48,41.8l0.5,0.4l0.4-0.4L48.4,41.4L48.4,41.4z"
						/>
				</g>
				<path clip-path="url(#SVGID_4_)" fill="#FCFF2C" d="M47.3,39.7l0.1,0.1L47.4,40l0.1,0.1l0.1-0.1l0.1,0.1l-0.1,0.1l0.1,0.1
					l0.1-0.1l0.1,0.2l-0.2,0.2c0,0-0.1,0-0.1,0l-0.5-0.5c0,0,0-0.1,0-0.1L47.3,39.7L47.3,39.7z"/>
				<g clip-path="url(#SVGID_4_)">
					<path d="M47.7,40.7L47.7,40.7l-0.6-0.6l0-0.2l0.2-0.2l0.2,0.1L47.4,40l0.1,0l0-0.1l0.2,0.1l-0.1,0.2l0.1,0l0-0.1l0.2,0.2
						L47.7,40.7L47.7,40.7z M47.3,39.7L47.1,40l0.6,0.7l0-0.1l0.2-0.3l-0.2-0.1l0,0.1l-0.2-0.1l0.1-0.2L47.5,40l0,0.1L47.3,40
						l0.1-0.2L47.3,39.7L47.3,39.7z"/>
				</g>
				<polygon clip-path="url(#SVGID_4_)" fill="#FCFF2C" points="47.6,40.6 47.2,41 46.7,40.5 47.1,40.1 				"/>
				<g clip-path="url(#SVGID_4_)">
					<path d="M47.2,41.1l-0.5-0.5l0.4-0.5l0.5,0.5L47.2,41.1L47.2,41.1z M47.1,40.1l-0.4,0.4l0.5,0.4l0.4-0.4L47.1,40.1L47.1,40.1z"
						/>
				</g>
				<path clip-path="url(#SVGID_4_)" fill="#FCFF2C" d="M45.9,42.1c0.7-0.7,1.3-0.3,1.3-0.3c0,0,0.3,0.7-0.3,1.4L45.9,42.1
					L45.9,42.1z"/>
				<path clip-path="url(#SVGID_4_)" fill="#FCFF2C" d="M46.3,40.8l-0.9,0.7L46,42c0.6-0.6,1.2-0.3,1.2-0.2c0,0,0.3,0.6-0.2,1.2
					l0.5,0.5l0.7-0.9L46.3,40.8L46.3,40.8z"/>
				<g clip-path="url(#SVGID_4_)">
					<path d="M47.5,43.6L46.9,43c0.6-0.6,0.2-1.2,0.2-1.3l0,0c0,0-0.2-0.1-0.4-0.1c-0.3,0-0.5,0.1-0.8,0.4l-0.6-0.5l0.9-0.8l1.9,1.8
						L47.5,43.6L47.5,43.6z M47.3,41.8c0,0.1,0.1,0.2,0.1,0.3c0,0.2,0,0.6-0.4,0.9l0.5,0.4l0.7-0.8L47.3,41.8L47.3,41.8z M46.3,40.8
						l-0.8,0.7L46,42c0.3-0.4,0.9-0.4,1.2-0.3L46.3,40.8L46.3,40.8z"/>
				</g>
				<path clip-path="url(#SVGID_4_)" fill="#FCFF2C" d="M45.4,41.5l2.1,2.1c0,0,0,0.1,0,0.2c0,0.1-0.1,0.1-0.2,0l-2.1-2.1
					c0,0,0-0.1,0-0.2C45.3,41.4,45.4,41.4,45.4,41.5L45.4,41.5z"/>
				<g clip-path="url(#SVGID_4_)">
					<path d="M47.4,43.8l-0.1,0l-2.1-2.1c-0.1-0.1,0-0.2,0-0.2l0.1-0.1l2.2,2.1c0.1,0.1,0.1,0.2,0,0.2L47.4,43.8L47.4,43.8z
						 M45.3,41.6l2.1,2.1l0.1-0.1l-2.1-2.2L45.3,41.6L45.3,41.6L45.3,41.6z"/>
				</g>
				<path clip-path="url(#SVGID_4_)" fill="#FCFF2C" d="M46.2,42.2C46.6,41.8,47,42,47,42c0,0,0.2,0.4-0.2,0.8L46.2,42.2L46.2,42.2z
					"/>
				<g clip-path="url(#SVGID_4_)">
					<path d="M46.8,42.9l-0.6-0.6c0.4-0.5,0.8-0.3,0.8-0.3C47,42,47.2,42.4,46.8,42.9L46.8,42.9L46.8,42.9z M46.8,42
						c-0.1,0-0.4,0-0.6,0.3l0.5,0.5c0.3-0.3,0.2-0.7,0.2-0.7C46.9,42,46.9,42,46.8,42L46.8,42z"/>
				</g>
				<path clip-path="url(#SVGID_4_)" fill="#FCFF2C" d="M46.6,40.4l2,2c0,0,0,0.1,0,0.2c-0.1,0-0.1,0-0.2,0l-2-2c0,0,0-0.1,0-0.2
					C46.5,40.4,46.5,40.4,46.6,40.4L46.6,40.4z"/>
				<g clip-path="url(#SVGID_4_)">
					<path d="M48.5,42.7l-0.1,0l-2-2c-0.1-0.1-0.1-0.2,0-0.2l0.2,0l2,2c0,0.1,0,0.2,0,0.2L48.5,42.7L48.5,42.7z M46.5,40.5l-0.1,0.1
						l2,2l0.1-0.1L46.5,40.5L46.5,40.5z"/>
				</g>
				<path clip-path="url(#SVGID_4_)" fill="#FCFF2C" d="M46.4,40.6l1.9,1.9c0,0,0,0.1,0,0.2c0,0.1-0.1,0.1-0.2,0l-1.9-1.9
					c0,0,0-0.1,0-0.2C46.3,40.6,46.4,40.6,46.4,40.6L46.4,40.6z"/>
				<g clip-path="url(#SVGID_4_)">
					<path d="M48.2,42.8l-0.1,0l-1.9-1.9c-0.1-0.1,0-0.2,0-0.2l0.2,0l1.9,1.9c0.1,0.1,0.1,0.2,0,0.2L48.2,42.8L48.2,42.8z
						 M46.4,40.7l-0.1,0.1l1.9,2l0.1-0.1L46.4,40.7L46.4,40.7z"/>
				</g>
				<path clip-path="url(#SVGID_4_)" d="M48.1,40.8c0.1-0.1,0.2,0,0.1,0.1L48,41.1L47.9,41L48.1,40.8L48.1,40.8z"/>
				<path clip-path="url(#SVGID_4_)" d="M48.4,41.7c0.1-0.1,0.2,0,0.1,0.1L48.4,42l-0.1-0.1L48.4,41.7L48.4,41.7z"/>
				<path clip-path="url(#SVGID_4_)" d="M47.1,40.4c0.1-0.1,0.2,0,0.1,0.1l-0.1,0.1L47,40.6L47.1,40.4L47.1,40.4z"/>
				<path clip-path="url(#SVGID_4_)" fill="#FCFF2C" d="M48.8,31.5H49v0.2h0.2v-0.2h0.2v0.2h0.2v-0.2h0.2v0.3c0,0,0,0.1-0.1,0.1
					h-0.8c-0.1,0-0.1,0-0.1-0.1V31.5L48.8,31.5z"/>
				<g clip-path="url(#SVGID_4_)">
					<path d="M49.7,32h-0.8l-0.1-0.1v-0.3l0.3,0l0,0.2l0.1,0l0-0.1l0.3,0l0,0.2l0.1,0l0-0.1l0.3,0l0,0.4L49.7,32L49.7,32z M49,31.5
						l-0.2,0l0,0.3l0.8,0.1l0-0.1v-0.3l-0.2,0l0,0.1l-0.2,0l0-0.2l-0.2,0l0,0.1l-0.2,0L49,31.5L49,31.5z"/>
				</g>
				<polygon clip-path="url(#SVGID_4_)" fill="#FCFF2C" points="49.6,32 49.6,33.1 48.9,33.1 48.9,32 				"/>
				<g clip-path="url(#SVGID_4_)">
					<path d="M49.7,33.1h-0.8V32l0.7,0L49.7,33.1L49.7,33.1z M49.6,32l-0.6,0v1.1l0.7,0L49.6,32L49.6,32z"/>
				</g>
				<path clip-path="url(#SVGID_4_)" fill="#FCFF2C" d="M49.7,32.1h0.2v0.1h0.1V32h0.2v0.2h0.2V32h0.2v0.4c0,0.1,0,0.1-0.1,0.1h-0.7
					c-0.1,0-0.1,0-0.1-0.1V32.1L49.7,32.1z"/>
				<g clip-path="url(#SVGID_4_)">
					<path d="M50.6,32.5h-0.8l-0.1-0.1v-0.3l0.3,0l0,0.2l0.1,0l0-0.1l0.3,0l0,0.2l0.1,0L50.4,32l0.3,0l0,0.4L50.6,32.5L50.6,32.5z
						 M49.9,32.1l-0.2,0l0,0.3l0.8,0.1l0-0.1V32l-0.2,0l0,0.1l-0.2,0l0-0.2l-0.2,0l0,0.1l-0.2,0L49.9,32.1L49.9,32.1z"/>
				</g>
				<polygon clip-path="url(#SVGID_4_)" fill="#FCFF2C" points="50.5,32.5 50.5,33.1 49.8,33.1 49.8,32.5 				"/>
				<g clip-path="url(#SVGID_4_)">
					<path d="M50.6,33.1h-0.8l0-0.6l0.7,0L50.6,33.1L50.6,33.1z M50.5,32.5l-0.6,0l0,0.6l0.6,0L50.5,32.5L50.5,32.5z"/>
				</g>
				<path clip-path="url(#SVGID_4_)" fill="#FCFF2C" d="M47.9,32.1h0.2v0.1h0.2V32h0.2v0.2h0.2V32h0.2v0.4c0,0.1,0,0.1-0.1,0.1H48
					c0,0-0.1,0-0.1-0.1V32.1L47.9,32.1z"/>
				<g clip-path="url(#SVGID_4_)">
					<path d="M48.7,32.5h-0.8l-0.1-0.1v-0.3l0.2,0l0,0.2l0.1,0l0-0.1l0.3,0l0,0.2l0.1,0l0-0.1l0.3,0l0,0.4L48.7,32.5L48.7,32.5z
						 M48.1,32.1l-0.2,0l0,0.3l0.8,0.1l0.1-0.1V32l-0.2,0l0,0.1l-0.2,0l0-0.2l-0.2,0l0,0.1l-0.2,0L48.1,32.1L48.1,32.1z"/>
				</g>
				<polygon clip-path="url(#SVGID_4_)" fill="#FCFF2C" points="48.7,32.5 48.7,33.1 48,33.1 48,32.5 				"/>
				<g clip-path="url(#SVGID_4_)">
					<path d="M48,33.1l0-0.7l0.7,0l0.1,0.6L48,33.1L48,33.1z M48.6,32.5l-0.6,0l0,0.5h0.7L48.6,32.5L48.6,32.5z"/>
				</g>
				<path clip-path="url(#SVGID_4_)" fill="#FCFF2C" d="M48.6,34.7c0-1,0.7-1.2,0.7-1.2c0,0,0.7,0.2,0.7,1.2L48.6,34.7L48.6,34.7z"
					/>
				<path clip-path="url(#SVGID_4_)" fill="#FCFF2C" d="M48,33.5l-0.1,1.1h0.7c0-0.9,0.7-1.1,0.7-1.1c0,0,0.7,0.2,0.7,1.1h0.7
					l-0.1-1.1L48,33.5L48,33.5z"/>
				<g clip-path="url(#SVGID_4_)">
					<path d="M50.8,34.7H50c-0.1-0.9-0.7-1-0.7-1.1c0,0-0.6,0.1-0.7,1l-0.8,0l0.1-1.1l2.6,0L50.8,34.7L50.8,34.7z M49.2,33.6l-1.2,0
						l-0.1,1.1l0.7,0C48.5,33.9,49,33.6,49.2,33.6L49.2,33.6z M49.3,33.6c0.2,0.1,0.7,0.4,0.7,1.1l0.6,0l-0.1-1.1L49.3,33.6
						L49.3,33.6z"/>
				</g>
				<path clip-path="url(#SVGID_4_)" fill="#FCFF2C" d="M47.8,34.7h2.9c0.1,0,0.1,0.1,0.1,0.1c0,0.1-0.1,0.1-0.1,0.1h-2.9
					c-0.1,0-0.1-0.1-0.1-0.1C47.7,34.7,47.7,34.7,47.8,34.7L47.8,34.7z"/>
				<g clip-path="url(#SVGID_4_)">
					<path d="M50.7,35h-2.9c-0.1,0-0.2-0.1-0.2-0.2c0-0.1,0.1-0.2,0.2-0.2h2.9c0.1,0,0.2,0.1,0.2,0.2C50.9,34.9,50.8,35,50.7,35
						L50.7,35z M47.8,34.7v0.2h2.9c0,0,0.1,0,0.1-0.1L47.8,34.7L47.8,34.7z"/>
				</g>
				<path clip-path="url(#SVGID_4_)" fill="#FCFF2C" d="M48.9,34.6c0-0.6,0.4-0.7,0.4-0.7s0.4,0.2,0.4,0.7H48.9L48.9,34.6z"/>
				<g clip-path="url(#SVGID_4_)">
					<path d="M49.7,34.7h-0.9c0-0.6,0.4-0.8,0.4-0.8C49.3,33.9,49.7,34.1,49.7,34.7L49.7,34.7L49.7,34.7z M49.2,34
						c0,0-0.3,0.2-0.3,0.7l0.7,0C49.6,34.1,49.3,34,49.2,34L49.2,34z"/>
				</g>
				<path clip-path="url(#SVGID_4_)" fill="#FCFF2C" d="M47.9,33.1h2.8c0.1,0,0.1,0.1,0.1,0.1c0,0.1,0,0.1-0.1,0.1h-2.8
					c-0.1,0-0.1-0.1-0.1-0.1C47.8,33.1,47.8,33.1,47.9,33.1L47.9,33.1z"/>
				<g clip-path="url(#SVGID_4_)">
					<path d="M50.7,33.4h-2.8c-0.1,0-0.2-0.1-0.2-0.2c0-0.1,0.1-0.2,0.2-0.2h2.8c0.1,0,0.1,0.1,0.1,0.2
						C50.8,33.3,50.8,33.4,50.7,33.4L50.7,33.4z M47.9,33.1v0.1h2.8c0,0,0.1,0,0.1-0.1L47.9,33.1L47.9,33.1z"/>
				</g>
				<path clip-path="url(#SVGID_4_)" fill="#FCFF2C" d="M47.9,33.3h2.7c0.1,0,0.1,0.1,0.1,0.1c0,0.1,0,0.1-0.1,0.1h-2.7
					c-0.1,0-0.1-0.1-0.1-0.1C47.8,33.4,47.9,33.3,47.9,33.3L47.9,33.3z"/>
				<g clip-path="url(#SVGID_4_)">
					<path d="M50.6,33.6h-2.7c-0.1,0-0.1-0.1-0.1-0.2c0-0.1,0.1-0.2,0.1-0.2h2.7c0.1,0,0.2,0.1,0.2,0.2
						C50.8,33.6,50.7,33.6,50.6,33.6L50.6,33.6z M47.9,33.4v0.2h2.7c0,0,0.1,0,0.1-0.1L47.9,33.4L47.9,33.4z"/>
				</g>
				<path clip-path="url(#SVGID_4_)" d="M49.2,32.3c0-0.1,0.2-0.1,0.2,0v0.3h-0.2V32.3L49.2,32.3z"/>
				<path clip-path="url(#SVGID_4_)" d="M50.1,32.7c0-0.1,0.1-0.1,0.1,0v0.2h-0.1V32.7L50.1,32.7z"/>
				<path clip-path="url(#SVGID_4_)" d="M48.3,32.7c0-0.1,0.1-0.1,0.1,0v0.2h-0.1V32.7L48.3,32.7z"/>
				<path clip-path="url(#SVGID_4_)" fill="#FCFF2C" d="M33.9,40.6l0.2-0.1l0.1,0.1l0.1-0.1l-0.1-0.1l0.2-0.2l0.1,0.1l0.1-0.1
					l-0.1-0.1l0.1-0.2l0.2,0.2c0,0,0,0.1,0,0.1l-0.5,0.5c0,0-0.1,0-0.1,0L33.9,40.6L33.9,40.6z"/>
				<g clip-path="url(#SVGID_4_)">
					<path d="M34.2,40.9L34.2,40.9l-0.3-0.3l0.1-0.2l0.2,0.1l0.1-0.1l-0.1,0l0.2-0.2l0.2,0.1l0-0.1l-0.1,0l0.2-0.2l0.3,0.3l0,0.2
						L34.2,40.9L34.2,40.9z M34,40.5l-0.1,0.1l0.3,0.2l0-0.1l0.5-0.5L34.5,40l-0.1,0.2l0.1,0l-0.1,0.2l-0.2-0.1l-0.1,0.2l0.1,0
						l-0.1,0.2L34,40.5L34,40.5z"/>
				</g>
				<polygon clip-path="url(#SVGID_4_)" fill="#FCFF2C" points="34.8,40.4 35.6,41.1 35.1,41.7 34.3,40.8 				"/>
				<g clip-path="url(#SVGID_4_)">
					<path d="M35.1,41.7l-0.8-0.9l0.5-0.5l0.9,0.8L35.1,41.7L35.1,41.7z M34.7,40.4l-0.4,0.5l0.7,0.7l0.5-0.5L34.7,40.4L34.7,40.4z"
						/>
				</g>
				<path clip-path="url(#SVGID_4_)" fill="#FCFF2C" d="M34.9,40.3l0.1-0.1l0.1,0.1l0.1-0.1l-0.1-0.1l0.2-0.1l0.1,0.1l0.1-0.1
					l-0.1-0.1l0.2-0.1l0.2,0.2c0,0,0,0.1,0,0.1l-0.5,0.5c0,0-0.1,0-0.1,0L34.9,40.3L34.9,40.3z"/>
				<g clip-path="url(#SVGID_4_)">
					<path d="M35.2,40.7L35.2,40.7l-0.3-0.3l0.1-0.2l0.2,0.1l0-0.1l-0.1,0l0.1-0.2l0.2,0.1l0-0.1l-0.1,0l0.2-0.2l0.3,0.3l0,0.2
						L35.2,40.7L35.2,40.7z M35,40.2l-0.1,0.1l0.3,0.2l0-0.1l0.5-0.5l-0.2-0.3l-0.1,0.1l0.1,0l-0.1,0.2L35.3,40l-0.1,0.2l0.1,0
						l-0.1,0.2L35,40.2L35,40.2z"/>
				</g>
				<polygon clip-path="url(#SVGID_4_)" fill="#FCFF2C" points="35.8,40.1 36.2,40.5 35.7,41 35.3,40.6 				"/>
				<g clip-path="url(#SVGID_4_)">
					<path d="M35.7,41.1l-0.4-0.5l0.5-0.5l0.5,0.4L35.7,41.1L35.7,41.1z M35.8,40.1l-0.4,0.5l0.4,0.4l0.5-0.5L35.8,40.1L35.8,40.1z"
						/>
				</g>
				<path clip-path="url(#SVGID_4_)" fill="#FCFF2C" d="M33.6,41.6l0.1-0.1l0.1,0.1l0.1-0.1l-0.1-0.1l0.2-0.1l0.1,0.1l0.1-0.1
					l-0.1-0.1l0.1-0.2l0.3,0.2c0,0,0,0.1,0,0.1L34,41.9c0,0-0.1,0-0.1,0L33.6,41.6L33.6,41.6z"/>
				<g clip-path="url(#SVGID_4_)">
					<path d="M33.9,42L33.9,42l-0.3-0.3l0.1-0.2l0.2,0.1l0-0.1l-0.1,0l0.2-0.2l0.2,0.1l0.1-0.1l-0.1,0l0.2-0.2l0.3,0.3l0,0.2
						L33.9,42L33.9,42z M33.7,41.5l-0.1,0.2l0.3,0.2l0-0.1l0.5-0.5L34.3,41l-0.1,0.2l0.1,0l-0.1,0.2L34,41.3l-0.1,0.2l0.1,0
						l-0.1,0.2L33.7,41.5L33.7,41.5z"/>
				</g>
				<polygon clip-path="url(#SVGID_4_)" fill="#FCFF2C" points="34.5,41.4 34.9,41.8 34.4,42.3 34,41.9 				"/>
				<g clip-path="url(#SVGID_4_)">
					<path d="M34.4,42.4L34,41.9l0.5-0.5l0.5,0.4L34.4,42.4L34.4,42.4z M34.5,41.4L34,41.9l0.4,0.4l0.5-0.5L34.5,41.4L34.5,41.4z"/>
				</g>
				<path clip-path="url(#SVGID_4_)" fill="#FCFF2C" d="M36,43.1c-0.7-0.7-0.3-1.3-0.3-1.3c0,0,0.7-0.3,1.4,0.3L36,43.1L36,43.1z"/>
				<path clip-path="url(#SVGID_4_)" fill="#FCFF2C" d="M34.7,42.6l0.7,0.9l0.5-0.5c-0.6-0.6-0.3-1.2-0.2-1.2c0,0,0.6-0.3,1.2,0.3
					l0.5-0.5l-0.9-0.7L34.7,42.6L34.7,42.6z"/>
				<g clip-path="url(#SVGID_4_)">
					<path d="M35.4,43.6l-0.7-0.9l1.8-1.9l0.9,0.7L37,42c-0.3-0.2-0.6-0.3-0.8-0.3c-0.3,0-0.4,0.1-0.4,0.1l0,0c0,0-0.4,0.6,0.3,1.2
						L35.4,43.6L35.4,43.6z M35.6,41.8l-0.8,0.9l0.7,0.8l0.5-0.5c-0.4-0.3-0.4-0.7-0.4-0.9C35.5,42,35.6,41.9,35.6,41.8L35.6,41.8z
						 M36.1,41.6c0.3,0,0.6,0.1,0.8,0.4l0.4-0.5l-0.9-0.6l-0.8,0.9C35.8,41.7,36,41.6,36.1,41.6L36.1,41.6z"/>
				</g>
				<path clip-path="url(#SVGID_4_)" fill="#FCFF2C" d="M35.4,43.5l2.1-2.1c0.1,0,0.1,0,0.2,0c0,0.1,0.1,0.1,0,0.2l-2.1,2.1
					c0,0-0.1,0-0.2,0C35.4,43.7,35.4,43.6,35.4,43.5L35.4,43.5z"/>
				<g clip-path="url(#SVGID_4_)">
					<path d="M35.5,43.8l-0.1-0.1c-0.1-0.1-0.1-0.2,0-0.2l2.1-2.1c0.2,0,0.2,0,0.2,0c0.1,0.1,0.1,0.2,0,0.2L35.5,43.8L35.5,43.8z
						 M37.5,41.5l-2.1,2.1l0,0.1l0.1,0l0-0.1l2.1-2.1l0-0.1H37.5L37.5,41.5z"/>
				</g>
				<path clip-path="url(#SVGID_4_)" fill="#FCFF2C" d="M36.2,42.8c-0.4-0.4-0.2-0.8-0.2-0.8s0.4-0.2,0.8,0.2L36.2,42.8L36.2,42.8z"
					/>
				<g clip-path="url(#SVGID_4_)">
					<path d="M36.2,42.8L36.2,42.8c-0.5-0.5-0.3-0.9-0.3-0.9c0.1-0.1,0.4-0.2,0.9,0.2L36.2,42.8L36.2,42.8z M35.9,42
						c0,0-0.1,0.3,0.2,0.7l0.5-0.5C36.3,41.9,35.9,42,35.9,42L35.9,42L35.9,42z"/>
				</g>
				<path clip-path="url(#SVGID_4_)" fill="#FCFF2C" d="M34.3,42.4l2-2c0,0,0.1,0,0.2,0c0,0,0,0.1,0,0.2l-2,2c0,0-0.1,0-0.2,0
					C34.3,42.5,34.3,42.4,34.3,42.4L34.3,42.4z"/>
				<g clip-path="url(#SVGID_4_)">
					<path d="M34.4,42.6l-0.1-0.1l0-0.2l2-2l0.2,0c0.1,0.1,0.1,0.2,0,0.2L34.4,42.6L34.4,42.6z M34.4,42.5L34.4,42.5L34.4,42.5l2-2
						l0-0.1l-0.1,0l-2,2L34.4,42.5L34.4,42.5L34.4,42.5z"/>
				</g>
				<path clip-path="url(#SVGID_4_)" fill="#FCFF2C" d="M34.6,42.5l1.9-1.9c0,0,0.1,0,0.2,0c0.1,0,0.1,0.1,0,0.2l-1.9,1.9
					c0,0-0.1,0-0.2,0C34.5,42.6,34.5,42.6,34.6,42.5L34.6,42.5z"/>
				<g clip-path="url(#SVGID_4_)">
					<path d="M34.7,42.8l-0.1-0.1c-0.1-0.1-0.1-0.2,0-0.2l1.9-1.9l0.2,0c0.1,0.1,0.1,0.2,0,0.2L34.7,42.8L34.7,42.8z M34.7,42.7
						L34.7,42.7L34.7,42.7l1.9-1.9l0-0.1l-0.1,0l-1.9,1.9L34.7,42.7L34.7,42.7L34.7,42.7z"/>
				</g>
				<path clip-path="url(#SVGID_4_)" d="M34.7,40.9c-0.1-0.1,0-0.2,0.1-0.1L35,41l-0.1,0.1L34.7,40.9L34.7,40.9z"/>
				<path clip-path="url(#SVGID_4_)" d="M35.7,40.5c-0.1-0.1,0-0.2,0.1-0.1l0.1,0.1l-0.1,0.1L35.7,40.5L35.7,40.5z"/>
				<path clip-path="url(#SVGID_4_)" d="M34.4,41.8c-0.1-0.1,0-0.2,0.1-0.1l0.1,0.1L34.5,42L34.4,41.8L34.4,41.8z"/>
			</g>
		</g>
	</g>
</g>
</svg>
