<?xml version="1.0" encoding="utf-8"?>
<!-- Generator: Adobe Illustrator 18.0.0, SVG Export Plug-In . SVG Version: 6.00 Build 0)  -->
<!DOCTYPE svg PUBLIC "-//W3C//DTD SVG 1.1//EN" "http://www.w3.org/Graphics/SVG/1.1/DTD/svg11.dtd">
<svg fill="white" version="1.1" id="Layer_1" xmlns="http://www.w3.org/2000/svg" xmlns:xlink="http://www.w3.org/1999/xlink" x="0px" y="0px"
	 viewBox="0 0 383.7 203.6" enable-background="new 0 0 383.7 203.6" xml:space="preserve">
<path d="M380.3,3.5C378,1.2,375.1,0,371.9,0s-6.1,1.2-8.3,3.5L191.9,175.2L20.2,3.5C17.9,1.2,15,0,11.8,0S5.7,1.2,3.5,3.5
	C1.3,5.7,0,8.7,0,11.8c0,3.1,1.3,6.2,3.5,8.3l180.1,180.1c2.2,2.3,5.2,3.5,8.4,3.5c3.1,0,6.1-1.2,8.3-3.4L380.3,20.2
	C384.9,15.6,384.9,8.1,380.3,3.5z"/>
</svg>
