<svg version="1.1" xmlns="http://www.w3.org/2000/svg" xmlns:xlink="http://www.w3.org/1999/xlink" x="0px" y="0px" viewBox="-413.1 257.7 59.4 47.3" enable-background="new -413.1 257.7 59.4 47.3" xml:space="preserve">
	<path d="M-354.1,266.4l-38.3,38.3c-0.2,0.2-0.6,0.4-0.9,0.4s-0.6-0.1-0.9-0.4l-18.6-18.6c-0.2-0.2-0.4-0.5-0.4-0.9
		c0-0.3,0.1-0.6,0.4-0.9l6.5-6.5c0.5-0.5,1.3-0.5,1.7,0l11.2,11.2l30.9-30.9c0.5-0.5,1.3-0.5,1.7,0l6.5,6.5c0.2,0.2,0.4,0.5,0.4,0.9
		S-353.8,266.1-354.1,266.4z"></path>
</svg>