<?xml version="1.0" encoding="utf-8"?>
<!-- Generator: Adobe Illustrator 19.0.0, SVG Export Plug-In . SVG Version: 6.00 Build 0)  -->
<svg version="1.1" id="Layer_1" xmlns="http://www.w3.org/2000/svg" xmlns:xlink="http://www.w3.org/1999/xlink" x="0px" y="0px"
	 viewBox="-253.3 412.1 20 20" style="enable-background:new -253.3 412.1 20 20;" xml:space="preserve">
<g>
	<path d="M-240.4,422.5c-0.2-0.2-0.2-0.5,0-0.6l6.8-6.8c0.2-0.2,0.3-0.5,0.3-0.6c0-0.2-0.1-0.5-0.3-0.6l-1.3-1.3
		c-0.2-0.2-0.5-0.3-0.6-0.3c-0.3,0-0.5,0.1-0.6,0.3l-6.8,6.8c-0.2,0.2-0.5,0.2-0.6,0l-6.8-6.8c-0.2-0.2-0.5-0.3-0.6-0.3
		c-0.2,0-0.5,0.1-0.6,0.3l-1.3,1.3c-0.2,0.2-0.3,0.5-0.3,0.6c0,0.2,0.1,0.5,0.3,0.6l6.8,6.8c0.2,0.2,0.2,0.5,0,0.6l-6.8,6.8
		c-0.2,0.2-0.3,0.5-0.3,0.6c0,0.2,0.1,0.5,0.3,0.6l1.3,1.3c0.2,0.2,0.5,0.3,0.6,0.3c0.2,0,0.5-0.1,0.6-0.3l6.8-6.8
		c0.2-0.2,0.5-0.2,0.6,0l6.8,6.8c0.2,0.2,0.5,0.3,0.6,0.3c0.2,0,0.5-0.1,0.6-0.3l1.3-1.3c0.2-0.2,0.3-0.5,0.3-0.6
		c0-0.2-0.1-0.5-0.3-0.6L-240.4,422.5z M-240.4,422.5"/>
</g>
</svg>
