<?xml version="1.0" encoding="utf-8"?>
<!-- Generator: Adobe Illustrator 19.0.0, SVG Export Plug-In . SVG Version: 6.00 Build 0)  -->
<svg version="1.1" id="Capa_1" xmlns="http://www.w3.org/2000/svg" xmlns:xlink="http://www.w3.org/1999/xlink" x="0px" y="0px"
	 viewBox="267.9 -58.7 783.8 957.6" style="enable-background:new 267.9 -58.7 783.8 957.6;" xml:space="preserve">
<g>
	<path d="M998.9,49.7h-28v687.9c0,45.7-37.2,82.9-82.9,82.9H604.3H378.7V846c0,29.2,23.7,52.9,52.9,52.9h283.6h283.6
		c29.2,0,52.9-23.7,52.9-52.9V102.6C1051.7,73.4,1028.1,49.7,998.9,49.7z"/>
	<path d="M604.3,790.5h283.6c29.2,0,52.9-23.7,52.9-52.9V49.7V-5.8c0-29.2-23.7-52.9-52.9-52.9H604.3H510v17.5
		c0.2,1.8,0.3,3.7,0.3,5.6V79.7v29.6c0,41.1-33.4,74.5-74.5,74.5h-29.6H290.9c-1.5,0-3.1-0.1-4.6-0.2h-18.4v554
		c0,29.2,23.7,52.9,52.9,52.9h58H604.3L604.3,790.5z M615,610.7H430.1c-13.8,0-25-11.2-25-25c0-13.8,11.2-25,25-25h185
		c13.8,0,25,11.2,25,25C640.1,599.5,628.8,610.7,615,610.7z M800,483.1H430.1c-13.8,0-25-11.2-25-25c0-13.8,11.2-25,25-25H800
		c13.8,0,25,11.2,25,25C825,471.9,813.8,483.1,800,483.1z M430.1,297.6H800c13.8,0,25,11.2,25,25s-11.2,25-25,25H430.1
		c-13.8,0-25-11.2-25-25S416.3,297.6,430.1,297.6z"/>
	<path d="M290.9,153.8h144.9c0.1,0,0.3,0,0.4,0c24.2-0.2,43.8-19.8,44-44c0-0.1,0-0.3,0-0.4v-145c0-13.4-11-22.3-22.4-22.3
		c-5.5,0-11,2-15.6,6.6L275.1,115.8C261.1,129.8,271,153.8,290.9,153.8z"/>
</g>
</svg>
