<?xml version="1.0" encoding="utf-8"?>
<!-- Generator: Adobe Illustrator 18.0.0, SVG Export Plug-In . SVG Version: 6.00 Build 0)  -->
<!DOCTYPE svg PUBLIC "-//W3C//DTD SVG 1.1//EN" "http://www.w3.org/Graphics/SVG/1.1/DTD/svg11.dtd">
<svg version="1.1" id="Layer_1" xmlns="http://www.w3.org/2000/svg" xmlns:xlink="http://www.w3.org/1999/xlink" x="0px" y="0px"
	 viewBox="0 0 289 386.2" enable-background="new 0 0 289 386.2" xml:space="preserve">
<g>
	<path d="M268.2,168.3h-5.7V118c0-65-52.9-118-118-118c-65,0-118,52.9-118,118c0,6,4.8,10.8,10.8,10.8S48.1,124,48.1,118
		c0-53.1,43.2-96.4,96.4-96.4c53.1,0,96.4,43.2,96.4,96.4v50.3h-220C9.4,168.3,0,177.7,0,189.2v134.5c0,34.5,28.1,62.6,62.6,62.6
		h163.9c34.5,0,62.6-28.1,62.6-62.6V189.2C289,177.7,279.7,168.3,268.2,168.3L268.2,168.3z M267.4,323.7c0,22.6-18.3,41-41,41H62.6
		c-22.6,0-41-18.3-41-41V189.9h245.8V323.7z M267.4,323.7"/>
	<path d="M144.6,319.3c22.3,0,40.4-18.2,40.4-40.4c0-22.3-18.2-40.4-40.4-40.4c-22.3,0-40.4,18.2-40.4,40.4
		C104.2,301.1,122.2,319.3,144.6,319.3L144.6,319.3z M144.6,260c10.4,0,18.8,8.5,18.8,18.8c0,10.3-8.4,18.9-18.8,18.9
		c-10.4,0-18.8-8.5-18.8-18.8S134.2,260,144.6,260L144.6,260z M144.6,260"/>
</g>
</svg>
