<?xml version="1.0" encoding="utf-8"?>
<!-- Generator: Adobe Illustrator 19.0.0, SVG Export Plug-In . SVG Version: 6.00 Build 0)  -->
<svg version="1.1" id="Layer_1" xmlns="http://www.w3.org/2000/svg" xmlns:xlink="http://www.w3.org/1999/xlink" x="0px" y="0px"
	 viewBox="-237.5 364.7 62.7 89.7" style="enable-background:new -237.5 364.7 62.7 89.7;" xml:space="preserve">
<g>
	<path fill="#ffffff" d="M-197.9,364.7h-16.7c-12.7,0-23,10.3-23,23v43.7c0,12.7,10.3,23,23,23h16.7c12.7,0,23-10.3,23-23v-43.7
		C-174.9,375.1-185.2,364.7-197.9,364.7z M-179.9,431.5c0,9.9-8.1,18-18,18h-16.7c-9.9,0-18-8.1-18-18v-43.7c0-9.9,8.1-18,18-18
		h16.7c9.9,0,18,8.1,18,18V431.5z"/>
	<path fill="#ffffff" d="M-206.2,376.7c-5,0-9.1,4.1-9.1,9.1V396c0,5,4.1,9.1,9.1,9.1c5,0,9.1-4.1,9.1-9.1v-10.2
		C-197.1,380.8-201.2,376.7-206.2,376.7z M-202.2,396c0,2.2-1.8,4.1-4.1,4.1c-2.2,0-4.1-1.8-4.1-4.1v-10.2c0-2.2,1.8-4.1,4.1-4.1
		c2.2,0,4.1,1.8,4.1,4.1C-202.2,385.8-202.2,396-202.2,396z"/>
</g>
</svg>
