<?xml version="1.0" encoding="utf-8"?>
<!-- Generator: Adobe Illustrator 18.0.0, SVG Export Plug-In . SVG Version: 6.00 Build 0)  -->
<!DOCTYPE svg PUBLIC "-//W3C//DTD SVG 1.1//EN" "http://www.w3.org/Graphics/SVG/1.1/DTD/svg11.dtd">
<svg version="1.1" id="Layer_1" xmlns="http://www.w3.org/2000/svg" xmlns:xlink="http://www.w3.org/1999/xlink" x="0px" y="0px"
	 viewBox="0 0 44 46.8" enable-background="new 0 0 44 46.8" xml:space="preserve">
<g>
	<g>
		<defs>
			<rect id="SVGID_1_" y="0" width="43.9" height="46.8"/>
		</defs>
		<clipPath id="SVGID_2_">
			<use xlink:href="#SVGID_1_"  overflow="visible"/>
		</clipPath>
		<path clip-path="url(#SVGID_2_)" d="M43.3,41.8L32.5,30.5c2.8-3.3,4.3-7.5,4.3-11.8c0-10.1-8.3-18.4-18.4-18.4
			C8.3,0.3,0,8.5,0,18.7c0,10.1,8.3,18.4,18.4,18.4c3.8,0,7.4-1.1,10.5-3.3l10.9,11.4c0.5,0.5,1.1,0.7,1.7,0.7
			c0.6,0,1.2-0.2,1.7-0.7C44.2,44.3,44.2,42.7,43.3,41.8L43.3,41.8z M18.4,5.1c7.5,0,13.6,6.1,13.6,13.6c0,7.5-6.1,13.6-13.6,13.6
			c-7.5,0-13.6-6.1-13.6-13.6C4.8,11.2,10.9,5.1,18.4,5.1L18.4,5.1z M18.4,5.1"/>
	</g>
</g>
</svg>
