<?xml version="1.0" encoding="utf-8"?>
<!-- Generator: Adobe Illustrator 18.0.0, SVG Export Plug-In . SVG Version: 6.00 Build 0)  -->
<!DOCTYPE svg PUBLIC "-//W3C//DTD SVG 1.1//EN" "http://www.w3.org/Graphics/SVG/1.1/DTD/svg11.dtd">
<svg version="1.1" id="Layer_1" xmlns="http://www.w3.org/2000/svg" xmlns:xlink="http://www.w3.org/1999/xlink" x="0px" y="0px"
	 viewBox="0 0 113 135.5" enable-background="new 0 0 113 135.5" xml:space="preserve">
<g>
	<path d="M102.3,15.5h-0.1v8h0.1c1.3,0,2.2,1.2,2.2,2.5v98.9c0,1.3-0.9,2.2-2.2,2.2H22V23.4h52.5v-8H10.7C4.8,15.5,0,20.2,0,26.1
		v98.7c0,5.9,4.8,10.7,10.7,10.7h91.6c5.9,0,10.7-4.8,10.7-10.7V26.1C113,20.2,108.2,15.5,102.3,15.5L102.3,15.5z M13.6,127h-2.9
		c-1.3,0-2.2-0.9-2.2-2.2V26c0-1.3,0.9-2.5,2.2-2.5h2.9V127z M13.6,127"/>
	<path d="M38.2,45h27.9c3,0,5.5-2.3,5.5-5.4c0-3-2.5-5.4-5.5-5.4H38.2c-3,0-5.5,2.3-5.5,5.4C32.7,42.7,35.2,45,38.2,45L38.2,45z
		 M38.2,45"/>
	<path d="M38.2,69.4h50c3,0,5.5-2.6,5.5-5.6c0-3-2.5-5.6-5.5-5.6h-50c-3,0-5.5,2.6-5.5,5.6C32.7,66.8,35.2,69.4,38.2,69.4L38.2,69.4
		z M38.2,69.4"/>
	<path d="M38.2,93.3h50c3,0,5.5-2.6,5.5-5.6c0-3-2.5-5.6-5.5-5.6h-50c-3,0-5.5,2.6-5.5,5.6C32.7,90.7,35.2,93.3,38.2,93.3L38.2,93.3
		z M38.2,93.3"/>
	<path d="M66.1,116.7h22c3,0,5.5-2.3,5.5-5.4c0-3-2.5-5.4-5.5-5.4h-22c-3,0-5.5,2.3-5.5,5.4C60.6,114.4,63,116.7,66.1,116.7
		L66.1,116.7z M66.1,116.7"/>
	<path d="M84.6,46.7c0.7,1.2,2.1,2,3.6,2c1.5,0,2.8-0.7,3.5-2l4.2-6.9c0.4-0.6,0.7-1.4,0.7-2.1V4.3c0-2.3-2-4.3-4.2-4.3H84
		c-2.3,0-4.3,2.1-4.3,4.3v33.3c0,0.7,0.3,1.5,0.7,2.1L84.6,46.7z M84.6,46.7"/>
</g>
</svg>
